<svg xmlns="http://www.w3.org/2000/svg" viewBox="0 0 18 15.45762"><defs><style>.cls-1{fill:#be2025;}.cls-2{fill:#0f9848;}.cls-14,.cls-3,.cls-42{fill:#010101;}.cls-12,.cls-15,.cls-17,.cls-18,.cls-19,.cls-20,.cls-21,.cls-22,.cls-23,.cls-24,.cls-25,.cls-26,.cls-27,.cls-28,.cls-29,.cls-30,.cls-31,.cls-32,.cls-33,.cls-34,.cls-35,.cls-36,.cls-37,.cls-38,.cls-39,.cls-4,.cls-40,.cls-41,.cls-43,.cls-44,.cls-45,.cls-46,.cls-47,.cls-48,.cls-49,.cls-5,.cls-8,.cls-9{fill:#fff;}.cls-10,.cls-12,.cls-13,.cls-14,.cls-15,.cls-16,.cls-17,.cls-18,.cls-19,.cls-20,.cls-21,.cls-22,.cls-23,.cls-24,.cls-25,.cls-26,.cls-27,.cls-28,.cls-29,.cls-30,.cls-31,.cls-32,.cls-33,.cls-34,.cls-35,.cls-36,.cls-37,.cls-38,.cls-39,.cls-4,.cls-40,.cls-41,.cls-43,.cls-44,.cls-45,.cls-46,.cls-47,.cls-48,.cls-49,.cls-6,.cls-7,.cls-8,.cls-9{stroke:#bc6d28;}.cls-4,.cls-49,.cls-6,.cls-7{stroke-width:0.01371px;}.cls-50,.cls-6{fill:#be2026;}.cls-10,.cls-13,.cls-16,.cls-7{fill:none;}.cls-13,.cls-14,.cls-17,.cls-8{stroke-width:0.01148px;}.cls-9{stroke-width:0.01128px;}.cls-10,.cls-15{stroke-width:0.01371px;}.cls-11{fill:#bc6d28;}.cls-12{stroke-width:0.01157px;}.cls-16{stroke-width:0.01371px;}.cls-17,.cls-24,.cls-25,.cls-31,.cls-32,.cls-33,.cls-34,.cls-36,.cls-37{stroke-linejoin:round;}.cls-18{stroke-width:0.0115px;}.cls-19{stroke-width:0.01154px;}.cls-20{stroke-width:0.01148px;}.cls-21{stroke-width:0.01148px;}.cls-22,.cls-24{stroke-width:0.01148px;}.cls-23{stroke-width:0.01148px;}.cls-25,.cls-26{stroke-width:0.01148px;}.cls-27{stroke-width:0.01158px;}.cls-28,.cls-33{stroke-width:0.01148px;}.cls-29,.cls-31{stroke-width:0.01148px;}.cls-30,.cls-32{stroke-width:0.01148px;}.cls-34,.cls-35{stroke-width:0.01148px;}.cls-36,.cls-38{stroke-width:0.01148px;}.cls-37,.cls-39{stroke-width:0.01148px;}.cls-40{stroke-width:0.00827px;}.cls-41{stroke-width:0.00792px;}.cls-42{fill-opacity:0.18493;}.cls-43{stroke-width:0.01158px;}.cls-44{stroke-width:0.01121px;}.cls-45{stroke-width:0.00888px;}.cls-46{stroke-width:0.00798px;}.cls-47{stroke-width:0.01157px;}.cls-48{stroke-width:0.00842px;}.cls-49{fill-opacity:0.53425;}</style></defs><g id="Layer_2" data-name="Layer 2"><g id="Layer_20" data-name="Layer 20"><g id="Country_Plates" data-name="Country Plates"><g id="layer1"><g id="g3509"><path id="path3515" class="cls-1" d="M6,7.72881V0h6V15.45762H6Z"/><path id="path3513" class="cls-2" d="M12,7.72881V0h6V15.45762H12Z"/><path id="path3511" class="cls-3" d="M0,7.72881V0H6V15.45762H0Z"/></g><g id="g2804"><path id="path1035" class="cls-4" d="M13.30371,7.17533c-.00327.01736.04365.043.05481.02969a.70778.70778,0,0,0,.13013-.25109c.004-.02092-.06328-.04458-.07765-.0274A.65356.65356,0,0,0,13.30371,7.17533Z"/><path id="path1037" class="cls-4" d="M6.98862,10.858c-.05028.17764-.792-.16745-.87481-.34623C6.53822,10.73668,6.99875,10.68964,6.98862,10.858Z"/><path id="path1042" class="cls-4" d="M4.64362,7.22935c.03708.04412.09958.01456.04263-.04517-.04661-.04825-.03127-.06348-.05968-.12227A.68994.68994,0,0,0,4.566,6.913c-.03-.04453-.07508.0009-.04487.03837.03793.04432.02746.077.05065.11988C4.61469,7.14465,4.60424,7.18317,4.64362,7.22935Z"/><path id="path1051" class="cls-4" d="M5.64152,8.43339a.41949.41949,0,0,1,.21585.32459.74085.74085,0,0,0,.09163.351c-.09823-.02735-.14527-.18389-.15923-.33383C5.77563,8.62,5.692,8.55265,5.64152,8.43339Z"/><path id="path1052" class="cls-4" d="M5.89008,8.7207c.08257.15241.198.21054.20393.32364a.97319.97319,0,0,0,.05516.2648c-.09719-.02591-.12165-.03438-.1479-.22914C5.98508,8.94314,5.87551,8.84659,5.89008,8.7207Z"/><path id="path1070" class="cls-5" d="M7.81891,9.54a.68408.68408,0,0,1,.24653.37432,1.348,1.348,0,0,0,.1781.38349.63752.63752,0,0,1-.26026-.36526A1.27638,1.27638,0,0,0,7.81891,9.54Z"/><path id="path1072" class="cls-5" d="M10.18372,9.54a.68738.68738,0,0,0-.252.37652,1.34635,1.34635,0,0,1-.18206.38575.64169.64169,0,0,0,.266-.36741A1.27239,1.27239,0,0,1,10.18372,9.54Z"/><path id="path1073" class="cls-5" d="M10.02507,9.54a.78751.78751,0,0,0-.308.38575,1.23775,1.23775,0,0,1-.1587.39492.60305.60305,0,0,0,.24734-.38123A1.30384,1.30384,0,0,1,10.02507,9.54Z"/><path id="path1075" class="cls-5" d="M8.46038,10.13115c.0464.08748.09969.22064.19628.19628C8.65818,10.26046,8.55242,10.21407,8.46038,10.13115Z"/><path id="path1076" class="cls-5" d="M8.60419,10.16078c.18759.0769.34959.05791.36977.17582C8.798,10.35559,8.73362,10.28331,8.60419,10.16078Z"/><path id="path1077" class="cls-5" d="M9.52411,10.14256c-.047.08247-.10105.208-.199.185C9.32361,10.26447,9.43082,10.22073,9.52411,10.14256Z"/><path id="path1078" class="cls-5" d="M9.3925,10.16763c-.19032.073-.35468.05495-.37516.16684C9.1959,10.3525,9.26119,10.2839,9.3925,10.16763Z"/><path id="path1188" class="cls-4" d="M6.91247,6.37487c-.06037-.09695-.13265.13445-.38093.30671a.59319.59319,0,0,0-.19686.42615c-.0038.09472.01052.1892-.00006.28083-.00666.058-.06708.18663-.02577.21953a3.58755,3.58755,0,0,1,.31636.32927c.05674.04972.10588-.2567.14848-.39384.04563-.147.02518-.32261.15175-.4584.08969-.09169.31594-.18191.29053-.22275Z"/><path id="path3357" class="cls-4" d="M6.76375,7.583a.514.514,0,0,0-.0856-.12993.34779.34779,0,0,0-.12992-.09477c-.04313-.01589-.08965-.01944-.12993-.03668a.14611.14611,0,0,1-.055-.03974.20869.20869,0,0,1-.029-.06115,1.09607,1.09607,0,0,1,0,.16814c-.00666.058-.0673.18569-.026.21858a3.5879,3.5879,0,0,1,.3164.33017C6.67717,7.98365,6.72342,7.73057,6.76375,7.583Z"/><path id="path3355" class="cls-6" d="M6.89979,7.126a.49339.49339,0,0,0-.081-.12687A.29949.29949,0,0,0,6.69955,6.912a.25959.25959,0,0,1-.1177-.0749.17838.17838,0,0,1-.03515-.07184.28713.28713,0,0,1-.00153-.0963l-.01376.01223a.59419.59419,0,0,0-.19718.42646c-.00153.0381-.00153.07527,0,.11311a.20869.20869,0,0,0,.029.06115.14611.14611,0,0,0,.055.03974c.04028.01724.0868.02079.12993.03668a.34779.34779,0,0,1,.12992.09477.514.514,0,0,1,.0856.12993l.0107-.03974A1.30254,1.30254,0,0,1,6.89979,7.126Z"/><path id="path1145" class="cls-4" d="M6.88909,6.35254c-.05619-.01783-.13886.16744-.34392.3164a.28713.28713,0,0,0,.00153.0963.17838.17838,0,0,0,.03515.07184.25959.25959,0,0,0,.1177.0749.29949.29949,0,0,1,.11923.08713.49339.49339,0,0,1,.081.12687.32961.32961,0,0,1,.026-.04127c.0897-.09169.31584-.1808.29043-.22164L6.912,6.37547A.049.049,0,0,0,6.88909,6.35254Z"/><path id="path1146" class="cls-7" d="M6.54545,6.66183a.205.205,0,0,0,.154.25056.395.395,0,0,1,.20019.21415"/><path id="path1147" class="cls-7" d="M6.32461,7.20225c.03769.14153.13685.12382.2231.15561a.46711.46711,0,0,1,.22088.23128"/><path id="path1143" class="cls-4" d="M6.82856,6.27483l.04522-.029L7.7421,7.70818l-.04517.029Z"/><path id="path1193" class="cls-4" d="M6.82856,6.27483l.04522-.029L7.7421,7.70818l-.04517.029Z"/><path id="path1159" class="cls-8" d="M6.92217,6.21674a.10007.10007,0,1,1-.05-.08676A.10006.10006,0,0,1,6.92217,6.21674Z"/><path id="path1186" class="cls-8" d="M6.92217,6.21674a.10007.10007,0,1,1-.05-.08676A.10006.10006,0,0,1,6.92217,6.21674Z"/><path id="path1203" class="cls-4" d="M11.0994,6.40438c.06032-.10033.13257.13916.38072.31745a.62328.62328,0,0,1,.19676.44107c.0038.098-.01051.19582.00006.29065.00666.06.06705.19317.02575.22722a3.66185,3.66185,0,0,0-.31619.34079c-.05671.05147-.10582-.26568-.1484-.40762-.04561-.1521-.02517-.3339-.15167-.47445-.08965-.09489-.31578-.18827-.29038-.23054Z"/><path id="path3382" class="cls-4" d="M11.67646,7.28036a.21043.21043,0,0,1-.0321.06878.13219.13219,0,0,1-.0535.03821c-.03912.01612-.08377.01871-.12687.03516a.35862.35862,0,0,0-.12992.09324.48009.48009,0,0,0-.08713.133c.04065.15174.086.42115.1391.373a3.66687,3.66687,0,0,1,.31641-.34087c.04129-.03405-.01933-.16775-.026-.22775A1.16324,1.16324,0,0,1,11.67646,7.28036Z"/><path id="path3380" class="cls-6" d="M11.47011,6.71327a.29414.29414,0,0,1-.00153.09936.17356.17356,0,0,1-.03516.07184.28236.28236,0,0,1-.12075.07642.32314.32314,0,0,0-.12228.0856.44972.44972,0,0,0-.08254.1284,1.30559,1.30559,0,0,1,.12992.43869l.00917.03515a.48009.48009,0,0,1,.08713-.133.35862.35862,0,0,1,.12992-.09324c.0431-.01645.08775-.019.12687-.03516a.13219.13219,0,0,0,.0535-.03821.21043.21043,0,0,0,.0321-.06878c.00155-.03947.00154-.078,0-.1177a.62031.62031,0,0,0-.19565-.44022Z"/><path id="path1140" class="cls-4" d="M11.12313,6.38158a.0496.0496,0,0,0-.02446.02293l-.30265.50441c-.0254.04228.20078.13592.29043.23081a.33759.33759,0,0,1,.0214.03516.44972.44972,0,0,1,.08254-.1284.32314.32314,0,0,1,.12228-.0856.28236.28236,0,0,0,.12075-.07642.17356.17356,0,0,0,.03516-.07184.29414.29414,0,0,0,.00153-.09936C11.26221,6.5586,11.17966,6.363,11.12313,6.38158Z"/><path id="path1138" class="cls-4" d="M11.18326,6.30084l-.0452-.03005-.86787,1.51358.04515.03006Z"/><path id="path1141" class="cls-7" d="M11.47078,6.70617a.20927.20927,0,0,1-.15845.25455.397.397,0,0,0-.20464.21451m.5747.09239c-.03767.14648-.13223.12126-.21843.15416a.45673.45673,0,0,0-.22076.23"/><path id="path1204" class="cls-4" d="M11.18326,6.30084l-.0452-.03005-.86787,1.51358.04515.03006Z"/><path id="path1207" class="cls-9" d="M11.08969,6.24072a.10431.10431,0,0,0,.05.08979.09705.09705,0,0,0,.10009,0,.10564.10564,0,0,0,0-.17958.09705.09705,0,0,0-.10009,0A.1043.1043,0,0,0,11.08969,6.24072Z"/><path id="path1139" class="cls-9" d="M11.08969,6.24072a.10431.10431,0,0,0,.05.08979.09705.09705,0,0,0,.10009,0,.10564.10564,0,0,0,0-.17958.09705.09705,0,0,0-.10009,0A.1043.1043,0,0,0,11.08969,6.24072Z"/><g id="g1223"><rect id="rect1094" class="cls-8" x="7.66454" y="5.04176" width="0.35187" height="0.0807"/><rect id="rect1095" class="cls-8" x="7.66454" y="5.1947" width="0.35187" height="0.67419"/><path id="path1096" class="cls-8" d="M7.64332,4.94951l.39033.00228a.27146.27146,0,0,0-.194-.27387A.29655.29655,0,0,0,7.64332,4.94951Z"/><rect id="rect1097" class="cls-8" x="9.9759" y="5.04405" width="0.35187" height="0.0807"/><rect id="rect1098" class="cls-8" x="9.9759" y="5.19699" width="0.35187" height="0.67419"/><path id="path1099" class="cls-8" d="M9.95467,4.9518l.39034.00228a.27147.27147,0,0,0-.194-.27388A.29656.29656,0,0,0,9.95467,4.9518Z"/><rect id="rect1217" class="cls-8" x="7.66454" y="5.04176" width="0.35187" height="0.0807"/><rect id="rect1218" class="cls-8" x="7.66454" y="5.1947" width="0.35187" height="0.67419"/><path id="path1219" class="cls-8" d="M7.64332,4.94951l.39033.00228a.27146.27146,0,0,0-.194-.27387A.29655.29655,0,0,0,7.64332,4.94951Z"/><rect id="rect1220" class="cls-8" x="9.9759" y="5.04405" width="0.35187" height="0.0807"/><rect id="rect1221" class="cls-8" x="9.9759" y="5.19699" width="0.35187" height="0.67419"/><path id="path1222" class="cls-8" d="M9.95467,4.9518l.39034.00228a.27147.27147,0,0,0-.194-.27388A.29656.29656,0,0,0,9.95467,4.9518Z"/></g><rect id="rect1236" class="cls-5" x="9.9759" y="5.19699" width="0.35187" height="0.67419"/><rect id="rect1237" class="cls-5" x="9.9759" y="5.04405" width="0.35187" height="0.0807"/><path id="path1238" class="cls-5" d="M9.95467,4.9518l.39034.00228a.27147.27147,0,0,0-.194-.27388A.29655.29655,0,0,0,9.95467,4.9518Z"/><g id="g1244"><path id="path1105" class="cls-5" d="M7.37172,5.98354l.22374.24653,2.7848.00455.2283-.24652L9.89637,5.979l-.347-.242L8.43088,5.73245l-.32413.25109Z"/><path id="path1243" class="cls-5" d="M7.37172,5.98354l.22374.24653,2.7848.00455.2283-.24652L9.89637,5.979l-.347-.242L8.43088,5.73245l-.32413.25109Z"/></g><rect id="rect1239" class="cls-5" x="7.66454" y="5.1947" width="0.35187" height="0.67419"/><rect id="rect1240" class="cls-5" x="7.66454" y="5.04176" width="0.35187" height="0.0807"/><path id="path1241" class="cls-5" d="M7.64332,4.94951l.39033.00228a.27146.27146,0,0,0-.194-.27387A.29655.29655,0,0,0,7.64332,4.94951Z"/><path id="path1100" class="cls-10" d="M8.51163,5.70073l.96163-.001c.13019-.06883.1708-.28866.17016-.41166a.51534.51534,0,0,0-.511-.54687.10862.10862,0,0,1-.09267-.0665c-.02513-.07888-.01864-.12918-.04616-.12638-.02449-.00035-.0173.046-.0391.12a.11577.11577,0,0,1-.0946.0752.51565.51565,0,0,0-.51421.54459C8.35106,5.48447,8.3739,5.60175,8.51163,5.70073Z"/><path id="path1247" class="cls-5" d="M8.51163,5.70073l.96163-.001c.13019-.06883.1708-.28866.17016-.41166a.51534.51534,0,0,0-.511-.54687.10862.10862,0,0,1-.09267-.0665c-.02513-.07888-.01864-.12218-.04616-.124-.01987.00193-.0173.04359-.0391.11757a.11577.11577,0,0,1-.0946.0752.51565.51565,0,0,0-.51421.54459C8.35106,5.48447,8.3739,5.60175,8.51163,5.70073Z"/><path id="path1101" class="cls-11" d="M8.63926,4.86986a.3531.3531,0,0,0-.16661.214.60376.60376,0,0,0-.0321.29806v.00153a.21138.21138,0,0,0,.02446.06878.0525.0525,0,0,0,.03363.02752.03188.03188,0,0,0,.0321-.01529.0663.0663,0,0,0,.00917-.04127.79871.79871,0,0,1,.01528-.26444.37865.37865,0,0,1,.14521-.214.05484.05484,0,0,0,.02446-.03516A.034.034,0,0,0,8.7111,4.879.07109.07109,0,0,0,8.63926,4.86986Zm.00764.0214a.05606.05606,0,0,1,.05045.00459.01.01,0,0,1,.00458.0107.03282.03282,0,0,1-.01528.01987.40183.40183,0,0,0-.15286.22622.81871.81871,0,0,0-.01528.27208.0453.0453,0,0,1-.00612.02751c-.0034.00526-.00522.00685-.00917.00612A.03751.03751,0,0,1,8.48335,5.44a.18977.18977,0,0,1-.0214-.06114.59046.59046,0,0,1,.0321-.28736A.33376.33376,0,0,1,8.6469,4.89126Z"/><path id="path1102" class="cls-11" d="M8.7646,4.96616a.29636.29636,0,0,0-.14827.20482.66584.66584,0,0,0-.01375.28737c.01272.06279.0457.09592.07795.10088a.04269.04269,0,0,0,.04127-.01681.06079.06079,0,0,0,.00765-.052.65272.65272,0,0,1-.01223-.24763.29446.29446,0,0,1,.10852-.20176A.05461.05461,0,0,0,8.8502,5.0059a.03665.03665,0,0,0-.01376-.0321A.07091.07091,0,0,0,8.7646,4.96616Zm.00917.0214a.05282.05282,0,0,1,.04892.00458c.00463.00386.0067.00654.00611.0107s-.00529.01149-.01681.01988a.31749.31749,0,0,0-.1177.21705.66563.66563,0,0,0,.01376.25526.04207.04207,0,0,1-.00459.03516.01864.01864,0,0,1-.01987.00764c-.01878-.00289-.04808-.02714-.05961-.08407a.65114.65114,0,0,1,.01375-.27819A.27313.27313,0,0,1,8.77377,4.98756Z"/><path id="path1103" class="cls-11" d="M9.35309,4.87445a.07392.07392,0,0,0-.07337.00917.03283.03283,0,0,0-.01223.03057.0548.0548,0,0,0,.02446.03516.37829.37829,0,0,1,.14521.214.79842.79842,0,0,1,.01375.26444.06619.06619,0,0,0,.00918.04127.03418.03418,0,0,0,.03362.01528.05245.05245,0,0,0,.03363-.02751A.21113.21113,0,0,0,9.5518,5.388V5.38651a.60311.60311,0,0,0-.0321-.29807A.353.353,0,0,0,9.35309,4.87445Zm-.00917.0214a.33523.33523,0,0,1,.15438.20023.58829.58829,0,0,1,.03057.28737.18986.18986,0,0,1-.0214.06114c-.00777.0126-.01438.01761-.01834.01834s-.00729-.00085-.0107-.00611a.0469.0469,0,0,1-.00459-.02752.81813.81813,0,0,0-.01528-.27207A.40157.40157,0,0,0,9.3057,4.931H9.30417a.03275.03275,0,0,1-.01528-.01987c-.00059-.00418.00148-.00685.00611-.0107A.05283.05283,0,0,1,9.34392,4.89585Z"/><path id="path1104" class="cls-11" d="M9.22775,4.97075a.07375.07375,0,0,0-.07337.00764.0366.0366,0,0,0-.01376.0321.05753.05753,0,0,0,.026.03515.29428.29428,0,0,1,.10852.20177A.65228.65228,0,0,1,9.2629,5.495a.06092.06092,0,0,0,.00612.052.04527.04527,0,0,0,.0428.01682c.03227-.005.06522-.03809.07795-.10089A.67216.67216,0,0,0,9.376,5.174.29317.29317,0,0,0,9.22775,4.97075Zm-.00917.02139a.273.273,0,0,1,.136.188.6497.6497,0,0,1,.01222.2782c-.01154.05693-.03927.08118-.05808.08407a.02108.02108,0,0,1-.0214-.00765.04321.04321,0,0,1-.00306-.03515.66553.66553,0,0,0,.01223-.25527.31726.31726,0,0,0-.1177-.217.03261.03261,0,0,1-.01528-.01987.01.01,0,0,1,.00459-.0107A.056.056,0,0,1,9.21858,4.99214Z"/><g id="g1256"><path id="path1106" class="cls-5" d="M6.92892,9.129h4.13161l-.36982-.30134h-3.392Z"/><path id="path1255" class="cls-5" d="M6.92892,9.129h4.13161l-.36982-.30134h-3.392Z"/></g><g id="g1339"><g id="g1312"><g id="g1299"><rect id="rect1300" class="cls-8" x="7.64566" y="6.41723" width="0.39262" height="0.54327"/><rect id="rect1301" class="cls-8" x="7.66848" y="7.27094" width="0.37892" height="0.11413"/><rect id="rect1302" class="cls-8" x="7.65935" y="7.47182" width="0.38805" height="0.42457"/><rect id="rect1303" class="cls-8" x="7.63196" y="7.98313" width="0.42457" height="0.23739"/><path id="path1304" class="cls-8" d="M7.684,7.16908h.34212l.06784-.113H7.62266Z"/><path id="path1305" class="cls-8" d="M8.14561,6.75263l.00321-.297h.23566A.85069.85069,0,0,0,8.14561,6.75263Z"/><rect id="rect1306" class="cls-8" x="9.94832" y="6.41723" width="0.38599" height="0.54327"/><rect id="rect1307" class="cls-8" x="9.95533" y="7.27094" width="0.37252" height="0.11413"/><rect id="rect1308" class="cls-8" x="9.95533" y="7.47182" width="0.37937" height="0.42457"/><rect id="rect1309" class="cls-8" x="9.94179" y="7.98313" width="0.41741" height="0.23739"/><path id="path1310" class="cls-12" d="M10.29661,7.16908H9.96026l-.0667-.113h.46337Z"/><path id="path1311" class="cls-12" d="M9.8428,6.75263l-.00316-.297H9.608A.84815.84815,0,0,1,9.8428,6.75263Z"/></g><g id="g1272"><rect id="rect1273" class="cls-8" x="7.64566" y="6.41723" width="0.39262" height="0.54327"/><rect id="rect1274" class="cls-8" x="7.66848" y="7.27094" width="0.37892" height="0.11413"/><rect id="rect1275" class="cls-8" x="7.65935" y="7.47182" width="0.38805" height="0.42457"/><rect id="rect1276" class="cls-8" x="7.63196" y="7.98313" width="0.42457" height="0.23739"/><path id="path1277" class="cls-8" d="M7.684,7.16908h.34212l.06784-.113H7.62266Z"/><path id="path1278" class="cls-8" d="M8.14561,6.75263l.00321-.297h.23566A.85069.85069,0,0,0,8.14561,6.75263Z"/><rect id="rect1279" class="cls-8" x="9.94832" y="6.41723" width="0.38599" height="0.54327"/><rect id="rect1280" class="cls-8" x="9.95533" y="7.27094" width="0.37252" height="0.11413"/><rect id="rect1281" class="cls-8" x="9.95533" y="7.47182" width="0.37937" height="0.42457"/><rect id="rect1282" class="cls-8" x="9.94179" y="7.98313" width="0.41741" height="0.23739"/><path id="path1283" class="cls-12" d="M10.29661,7.16908H9.96026l-.0667-.113h.46337Z"/><path id="path1284" class="cls-12" d="M9.8428,6.75263l-.00316-.297H9.608A.84815.84815,0,0,1,9.8428,6.75263Z"/></g></g><path id="path1119" class="cls-13" d="M7.70654,6.87458c.00234.06352.07427.03518.07427.00321,0-.098.00129-.20393-.00263-.27329-.00047-.05113.12183-.03833.12113-.00683.00047.08274.00141.19621.00187.293-.00088.04715.079.04306.07789,0-.00047-.10816-.00052-.26535,0-.34493.0007-.10249-.26908-.10027-.27118-.00228C7.708,6.624,7.70642,6.768,7.70654,6.87458Z"/><path id="path1120" class="cls-13" d="M10.01659,6.886c.00234.06352.07427.03518.07427.00321,0-.098.00128-.20393-.00263-.27329-.00047-.05112.12183-.03833.12113-.00683.00047.08274.0014.19622.00187.293-.00088.04715.07666.04306.07561,0-.00047-.11044.00176-.26534.00228-.34493.0007-.10249-.26908-.10027-.27119-.00228C10.01805,6.63537,10.01647,6.77941,10.01659,6.886Z"/><g id="g1126"><rect id="rect1121" class="cls-13" x="7.70731" y="7.52202" width="0.27848" height="0.34696"/><rect id="rect1122" class="cls-14" x="7.88536" y="7.66583" width="0.09815" height="0.05707"/><rect id="rect1123" class="cls-14" x="7.71416" y="7.66583" width="0.09587" height="0.05707"/><rect id="rect1124" class="cls-14" x="7.81003" y="7.52659" width="0.07533" height="0.14152"/><rect id="rect1125" class="cls-14" x="7.81003" y="7.72061" width="0.07533" height="0.15066"/></g><g id="g1132"><rect id="rect1133" class="cls-13" x="10.00823" y="7.51974" width="0.27848" height="0.34696"/><rect id="rect1134" class="cls-14" x="10.18628" y="7.66355" width="0.09815" height="0.05707"/><rect id="rect1135" class="cls-14" x="10.01508" y="7.66355" width="0.09587" height="0.05707"/><rect id="rect1136" class="cls-14" x="10.11095" y="7.52431" width="0.07533" height="0.14152"/><rect id="rect1137" class="cls-14" x="10.11095" y="7.71833" width="0.07533" height="0.15066"/></g></g><rect id="rect1162" class="cls-15" x="9.75492" y="7.54025" width="0.04794" height="0.34468"/><path id="path1381" class="cls-15" d="M8.8236,7.99684l.07532.226h.17115l-.13691-.226Zm-.09583.226.04336.22368.20083.00228-.073-.226Zm.34008.00228.13925.2214h.28533l-.22368-.22374Zm-1.68462.50673A.59346.59346,0,0,0,7.632,8.29812H8.0018c.00076.09665.03576.15444.08905.15064l.37438-.00228L8.463,8.22508H8.1913L8.19124,7.01751c-.00987-.42686.519-.67566.73509-.67338L7.64115,6.34185v-.0388h2.7027l.00228.0388-1.3034.00228a.80229.80229,0,0,1,.76243.67571V7.3622H9.75491l-.00228-.3378a.77855.77855,0,0,0-.767-.64375c-.29526.00847-.75326.28994-.7487.64147v.105l.70078.00455-.00683.121.11.07024.21947.06994-.00321.18143.15718.04634.00134.18126.18857.08093v.18763l.11961.07368-.00549.19055.16209.11412H9.497l.23969.26709H9.38286L9.207,8.44876h-.2328l.105.26476L8.8305,8.71124l-.05943-.26248H8.46751l.00228.283Zm1.08428-.73275v.22368h.26026l-.05259-.22368Z"/><path id="path1178" class="cls-15" d="M8.8236,7.99684l.07532.226h.17115l-.13691-.226Zm-.09583.226.04336.22368.20083.00228-.073-.226Zm.34008.00228.13925.2214h.28533l-.22368-.22374Zm-1.68462.50673A.59346.59346,0,0,0,7.632,8.29812H8.0018c.00076.09665.03576.15444.08905.15064l.37438-.00228L8.463,8.22508H8.1913L8.19124,7.01751c-.00987-.42686.519-.67566.73509-.67338L7.64115,6.34185v-.0388h2.7027l.00228.0388-1.3034.00228a.80229.80229,0,0,1,.76243.67571V7.3622H9.75491l-.00228-.3378a.77855.77855,0,0,0-.767-.64375c-.29526.00847-.75326.28994-.7487.64147v.105l.70078.00455-.00683.121.11.07024.21947.06994-.00321.18143.15718.04634.00134.18126.18857.08093v.18763l.11961.07368-.00549.19055.16209.11412H9.497l.23969.26709H9.38286L9.207,8.44876h-.2328l.105.26476L8.8305,8.71124l-.05943-.26248H8.46751l.00228.283Zm1.08428-.73275v.22368h.26026l-.05259-.22368Z"/><rect id="rect1179" class="cls-10" x="8.48125" y="7.60414" width="0.16207" height="0.37207"/><path id="path1180" class="cls-16" d="M8.2523,8.00245h.15818l-.001-.27375a.273.273,0,0,1,.1559-.24295c.05668-.00215.14024.11232.143.23359l.00228.284L8.87853,8.003v-.7049l-.62623.00334Z"/><rect id="rect1181" class="cls-10" x="9.50396" y="8.16565" width="0.19631" height="0.15294"/><rect id="rect1182" class="cls-10" x="9.38754" y="7.90314" width="0.19631" height="0.15294"/><rect id="rect1183" class="cls-10" x="9.19808" y="7.64063" width="0.19631" height="0.15294"/><rect id="rect1184" class="cls-10" x="9.036" y="7.41921" width="0.19631" height="0.15294"/><path id="path1185" class="cls-10" d="M8.90593,8.00356l.20084.00683.35837.31729V8.14052l-.121-.08671V7.90539L9.16842,7.805V7.64519l-.17121-.057v-.2169L8.91044,7.3005Z"/><rect id="rect1382" class="cls-15" x="9.75492" y="7.54025" width="0.04794" height="0.34468"/><g id="g1550"><path id="path912" class="cls-17" d="M6.26032,4.04893c.01741.2723-.06709.42177-.2113.399C6.00929,4.29692,6.09968,4.1956,6.26032,4.04893Z"/><path id="path913" class="cls-17" d="M5.94372,4.65229c-.1282-.06521-.0357-.56311.0135-.77183C5.99362,4.1493,6.05451,4.53145,5.94372,4.65229Z"/><path id="path914" class="cls-17" d="M5.98957,4.67566c.2155.075.38613-.15712.4438-.42591C6.2555,4.49522,5.966,4.49552,5.98957,4.67566Z"/><path id="path915" class="cls-17" d="M5.826,4.927c-.16852-.04453-.067-.57276-.0364-.784C5.82663,4.36118,5.9428,4.85471,5.826,4.927Z"/><path id="path916" class="cls-17" d="M5.88348,4.9107c.00941-.1822.191-.12955.31636-.22678A.274.274,0,0,1,5.88348,4.9107Z"/><path id="path917" class="cls-17" d="M5.67711,5.15462c-.167-.04505-.06661-.61354-.07608-.84762C5.65,4.50923,5.805,5.09981,5.67711,5.15462Z"/><path id="path918" class="cls-17" d="M5.75528,5.13012a.25744.25744,0,0,0,.33225-.20732C5.96973,5.00274,5.78164,4.94162,5.75528,5.13012Z"/><path id="path919" class="cls-17" d="M5.55244,5.40557c-.1597.01274-.08823-.47144-.08811-.92236C5.523,4.90468,5.68281,5.29051,5.55244,5.40557Z"/><path id="path920" class="cls-17" d="M5.60784,5.38367A.29075.29075,0,0,0,5.9641,5.1691C5.76923,5.25383,5.63892,5.171,5.60784,5.38367Z"/></g><g id="g1560"><path id="path1561" class="cls-8" d="M6.26032,4.04893c.01741.2723-.06709.42177-.2113.399C6.00929,4.29692,6.09968,4.1956,6.26032,4.04893Z"/><path id="path1562" class="cls-8" d="M5.94372,4.65229c-.1282-.06521-.0357-.56311.0135-.77183C5.99362,4.1493,6.05451,4.53145,5.94372,4.65229Z"/><path id="path1563" class="cls-8" d="M5.98957,4.67566c.2155.075.38613-.15712.4438-.42591C6.2555,4.49522,5.966,4.49552,5.98957,4.67566Z"/><path id="path1564" class="cls-8" d="M5.826,4.927c-.16852-.04453-.067-.57276-.0364-.784C5.82663,4.36118,5.9428,4.85471,5.826,4.927Z"/><path id="path1565" class="cls-8" d="M5.88348,4.9107c.00941-.1822.191-.12955.31636-.22678A.274.274,0,0,1,5.88348,4.9107Z"/><path id="path1566" class="cls-8" d="M5.67711,5.15462c-.167-.04505-.06661-.61354-.07608-.84762C5.65,4.50923,5.805,5.09981,5.67711,5.15462Z"/><path id="path1567" class="cls-8" d="M5.75528,5.13012a.25744.25744,0,0,0,.33225-.20732C5.96973,5.00274,5.78164,4.94162,5.75528,5.13012Z"/><path id="path1568" class="cls-8" d="M5.55244,5.40557c-.1597.01274-.08823-.47144-.08811-.92236C5.523,4.90468,5.68281,5.29051,5.55244,5.40557Z"/><path id="path1569" class="cls-8" d="M5.60784,5.38367A.29075.29075,0,0,0,5.9641,5.1691C5.76923,5.25383,5.63892,5.171,5.60784,5.38367Z"/></g><g id="g1570"><path id="path884" class="cls-17" d="M6.86166,4.30091c-.0284.23618-.12493.37362-.26914.35089C6.55278,4.50075,6.66971,4.40422,6.86166,4.30091Z"/><path id="path885" class="cls-17" d="M6.48015,4.90732c.23958.034.32588-.14988.48716-.385C6.74129,4.68592,6.471,4.71993,6.48015,4.90732Z"/><path id="path886" class="cls-17" d="M6.412,4.88c-.1306-.15672-.00438-.35352.09542-.52128C6.48594,4.60832,6.571,4.74716,6.412,4.88Z"/><path id="path887" class="cls-17" d="M6.35405,5.139c-.01472-.15327.24641-.18733.36451-.27253C6.67882,4.955,6.61864,5.19347,6.35405,5.139Z"/><path id="path888" class="cls-17" d="M6.29954,5.1424C6.119,5.122,6.194,4.81535,6.32338,4.645,6.26886,4.88009,6.41874,5.04359,6.29954,5.1424Z"/><path id="path889" class="cls-17" d="M6.16327,5.39787c-.20551-.09087-.0738-.34861.00345-.50077C6.13376,5.09694,6.29842,5.2491,6.16327,5.39787Z"/><path id="path890" class="cls-17" d="M6.20417,5.374c.10787.14082.318-.042.36112-.25553C6.38245,5.27072,6.24735,5.24571,6.20417,5.374Z"/></g><g id="g1588"><path id="path1589" class="cls-8" d="M6.86166,4.30091c-.0284.23618-.12493.37362-.26914.35089C6.55278,4.50075,6.66971,4.40422,6.86166,4.30091Z"/><path id="path1590" class="cls-8" d="M6.48015,4.90732c.23958.034.32588-.14988.48716-.385C6.74129,4.68592,6.471,4.71993,6.48015,4.90732Z"/><path id="path1591" class="cls-8" d="M6.412,4.88c-.1306-.15672-.00438-.35352.09542-.52128C6.48594,4.60832,6.571,4.74716,6.412,4.88Z"/><path id="path1592" class="cls-8" d="M6.35405,5.139c-.01472-.15327.24641-.18733.36451-.27253C6.67882,4.955,6.61864,5.19347,6.35405,5.139Z"/><path id="path1593" class="cls-8" d="M6.29954,5.1424C6.119,5.122,6.194,4.81535,6.32338,4.645,6.26886,4.88009,6.41874,5.04359,6.29954,5.1424Z"/><path id="path1594" class="cls-8" d="M6.16327,5.39787c-.20551-.09087-.0738-.34861.00345-.50077C6.13376,5.09694,6.29842,5.2491,6.16327,5.39787Z"/><path id="path1595" class="cls-8" d="M6.20417,5.374c.10787.14082.318-.042.36112-.25553C6.38245,5.27072,6.24735,5.24571,6.20417,5.374Z"/></g><g id="g1596"><path id="path891" class="cls-17" d="M11.15075,4.32469c.02729.12271.03413.36462.25214.31688C11.43468,4.41672,11.25184,4.4065,11.15075,4.32469Z"/><path id="path892" class="cls-17" d="M11.52209,4.90393c-.00788-.23168-.25774-.18061-.47348-.37139C11.10769,4.73355,11.31659,4.97885,11.52209,4.90393Z"/><path id="path893" class="cls-17" d="M11.57322,4.87665c.1465-.10109.03407-.32138-.1022-.51444C11.52215,4.57233,11.40973,4.76533,11.57322,4.87665Z"/><path id="path894" class="cls-17" d="M11.638,5.139c-.23619.01817-.2782-.09992-.37134-.25208C11.4279,4.99135,11.64364,4.9255,11.638,5.139Z"/><path id="path895" class="cls-17" d="M11.69593,5.14579c-.11248-.092.02723-.28959-.02045-.48716C11.76407,4.78351,11.90033,5.08221,11.69593,5.14579Z"/><path id="path896" class="cls-17" d="M11.79468,5.391c-.23618.05563-.31226-.06924-.37134-.27931C11.61524,5.28772,11.722,5.20481,11.79468,5.391Z"/><path id="path897" class="cls-17" d="M11.82875,5.38764c.16466-.00228.09086-.32816.00678-.47693C11.85826,5.09016,11.71405,5.29678,11.82875,5.38764Z"/></g><g id="g1604"><path id="path1605" class="cls-8" d="M11.15075,4.32469c.02729.12271.03413.36462.25214.31688C11.43468,4.41672,11.25184,4.4065,11.15075,4.32469Z"/><path id="path1606" class="cls-8" d="M11.52209,4.90393c-.00788-.23168-.25774-.18061-.47348-.37139C11.10769,4.73355,11.31659,4.97885,11.52209,4.90393Z"/><path id="path1607" class="cls-8" d="M11.57322,4.87665c.1465-.10109.03407-.32138-.1022-.51444C11.52215,4.57233,11.40973,4.76533,11.57322,4.87665Z"/><path id="path1608" class="cls-8" d="M11.638,5.139c-.23619.01817-.2782-.09992-.37134-.25208C11.4279,4.99135,11.64364,4.9255,11.638,5.139Z"/><path id="path1609" class="cls-8" d="M11.69593,5.14579c-.11248-.092.02723-.28959-.02045-.48716C11.76407,4.78351,11.90033,5.08221,11.69593,5.14579Z"/><path id="path1610" class="cls-8" d="M11.79468,5.391c-.23618.05563-.31226-.06924-.37134-.27931C11.61524,5.28772,11.722,5.20481,11.79468,5.391Z"/><path id="path1611" class="cls-8" d="M11.82875,5.38764c.16466-.00228.09086-.32816.00678-.47693C11.85826,5.09016,11.71405,5.29678,11.82875,5.38764Z"/></g><g id="g1612"><path id="path923" class="cls-17" d="M11.72825,4.05082c.02957.13638-.02752.4057.19049.40359C12.0099,4.30033,11.81561,4.15541,11.72825,4.05082Z"/><path id="path924" class="cls-17" d="M12.05546,4.65892c.13738-.0942.01356-.40354-.02916-.7518C11.993,4.21769,11.91937,4.55678,12.05546,4.65892Z"/><path id="path925" class="cls-17" d="M11.98155,4.68292c.01724-.17-.25085-.208-.43462-.433C11.59455,4.43037,11.7304,4.694,11.98155,4.68292Z"/><path id="path926" class="cls-17" d="M12.16513,4.94768c-.14445-.13083.02717-.50644.0343-.79761C12.22181,4.41874,12.33984,4.90005,12.16513,4.94768Z"/><path id="path927" class="cls-17" d="M12.083,4.91a.26649.26649,0,0,1-.29147-.22929C11.90488,4.76235,12.0841,4.72384,12.083,4.91Z"/><path id="path928" class="cls-17" d="M12.29472,5.14314c.16233-.00684.10226-.6226.07976-.817C12.35841,4.533,12.18913,5.06829,12.29472,5.14314Z"/><path id="path929" class="cls-17" d="M12.22376,5.132a.286.286,0,0,1-.32109-.19943C12.0238,4.98531,12.22411,4.94353,12.22376,5.132Z"/><path id="path930" class="cls-17" d="M12.4253,5.39872c.17378.07076.11143-.73216.08893-.91745C12.49816,4.7178,12.29237,5.29874,12.4253,5.39872Z"/><path id="path931" class="cls-17" d="M12.38465,5.39882a.31641.31641,0,0,1-.35311-.22678C12.20976,5.23848,12.34848,5.21487,12.38465,5.39882Z"/></g><g id="g2151"><path id="path1058" class="cls-8" d="M12.25858,6.3512c.02151-.20972-.13912-.59105-.02512-.79434.01554-.02793-.03413-.10208-.06621-.05709-.05013.07182-.10167.27645-.12323.2009-.02285-.08216-.02636-.22748-.10045-.25571-.04727-.01653-.11412-.02734-.09589.0457.01812.07023.05867.16723.01373.17349-.02606.00379-.10114-.0956-.16437-.14153-.051-.041-.127.02314-.05247.08444A1.29156,1.29156,0,0,1,12.25858,6.3512Z"/><path id="path2150" class="cls-8" d="M12.25858,6.3512c.02151-.20972-.13912-.59105-.02512-.79434.01554-.02793-.03413-.10208-.06621-.05709-.05013.07182-.10167.27645-.12323.2009-.02285-.08216-.02636-.22748-.10045-.25571-.04727-.01653-.11412-.02734-.09589.0457.01812.07023.05867.16723.01373.17349-.02606.00379-.10114-.0956-.16437-.14153-.051-.041-.127.02314-.05247.08444A1.29156,1.29156,0,0,1,12.25858,6.3512Z"/></g><g id="g1622"><path id="path1623" class="cls-8" d="M11.72825,4.05082c.02957.13638-.02752.4057.19049.40359C12.0099,4.30033,11.81561,4.15541,11.72825,4.05082Z"/><path id="path1624" class="cls-8" d="M12.05546,4.65892c.13738-.0942.01356-.40354-.02916-.7518C11.993,4.21769,11.91937,4.55678,12.05546,4.65892Z"/><path id="path1625" class="cls-8" d="M11.98155,4.68292c.01724-.17-.25085-.208-.43462-.433C11.59455,4.43037,11.7304,4.694,11.98155,4.68292Z"/><path id="path1626" class="cls-8" d="M12.16513,4.94768c-.14445-.13083.02717-.50644.0343-.79761C12.22181,4.41874,12.33984,4.90005,12.16513,4.94768Z"/><path id="path1627" class="cls-8" d="M12.083,4.91a.26649.26649,0,0,1-.29147-.22929C11.90488,4.76235,12.0841,4.72384,12.083,4.91Z"/><path id="path1628" class="cls-8" d="M12.29472,5.14314c.16233-.00684.10226-.6226.07976-.817C12.35841,4.533,12.18913,5.06829,12.29472,5.14314Z"/><path id="path1629" class="cls-8" d="M12.22376,5.132a.286.286,0,0,1-.32109-.19943C12.0238,4.98531,12.22411,4.94353,12.22376,5.132Z"/><path id="path1630" class="cls-8" d="M12.4253,5.39872c.17378.07076.11143-.73216.08893-.91745C12.49816,4.7178,12.29237,5.29874,12.4253,5.39872Z"/><path id="path1631" class="cls-8" d="M12.38465,5.39882a.31641.31641,0,0,1-.35311-.22678C12.20976,5.23848,12.34848,5.21487,12.38465,5.39882Z"/></g><g id="g2131"><path id="path1064" class="cls-5" d="M12.86672,6.21119c.05915-.06205.042-.08578-.04541-.08677-.06938-.00438-.20686.04271-.259.00456-.04781-.03489-.02879-.18284-.05-.25109-.00924-.038-.03576-.09776-.09537-.00456a4.04825,4.04825,0,0,0-.4907.95871.64932.64932,0,0,0,.17266.64825l.14085-.4109A3.49739,3.49739,0,0,1,12.86672,6.21119Z"/><path id="path2130" class="cls-5" d="M12.86672,6.21119c.05915-.06205.042-.08578-.04541-.08677-.06938-.00438-.20686.04271-.259.00456-.04781-.03489-.02879-.18284-.05-.25109-.00924-.038-.03576-.09776-.09537-.00456a4.04825,4.04825,0,0,0-.4907.95871.64932.64932,0,0,0,.17266.64825l.14085-.4109A3.49739,3.49739,0,0,1,12.86672,6.21119Z"/></g><g id="g1632"><path id="path932" class="cls-17" d="M13.06435,5.7006c-.07947.25553-.12721.465-.0125.48961C13.17444,6.16894,13.12115,5.92206,13.06435,5.7006Z"/><path id="path933" class="cls-17" d="M13.05608,6.4176c.13072.06941.2716-.26377.24232-.52619C13.23255,6.11632,13.01086,6.25521,13.05608,6.4176Z"/><path id="path934" class="cls-17" d="M13.0079,6.41109c.02028-.18167-.05434-.17687-.1521-.35048C12.86615,6.25671,12.915,6.42114,13.0079,6.41109Z"/><path id="path935" class="cls-17" d="M13.05086,6.677c.15257.0433.3274-.31992.32086-.58836C13.3082,6.38579,12.97706,6.50453,13.05086,6.677Z"/><path id="path936" class="cls-17" d="M13.00086,6.67076c.06118-.14077-.06363-.12359-.14643-.37584C12.827,6.556,12.86682,6.67514,13.00086,6.67076Z"/><path id="path937" class="cls-17" d="M13.04512,6.94453c.198.03407.30006-.403.3984-.61231C13.24882,6.60662,13.01556,6.75942,13.04512,6.94453Z"/><path id="path938" class="cls-17" d="M12.99912,6.92944c.05785-.16116-.1057-.15216-.19183-.393C12.821,6.84191,12.86064,6.95211,12.99912,6.92944Z"/><path id="path939" class="cls-17" d="M13.05605,7.207c.12516.00906.35025-.34049.3551-.5564C13.30421,6.88835,12.96858,7.04588,13.05605,7.207Z"/><path id="path940" class="cls-17" d="M12.96345,7.16648c.05207-.16811-.09332-.16922-.15783-.35755C12.80107,7.09286,12.84536,7.18915,12.96345,7.16648Z"/><path id="path941" class="cls-17" d="M12.968,7.46975c.22076.03862.27726-.25237.40751-.54839C13.247,7.157,12.95669,7.28919,12.968,7.46975Z"/><path id="path942" class="cls-17" d="M12.952,7.4294c.07158-.152-.09426-.15216-.18273-.37935C12.76476,7.37149,12.82039,7.46574,12.952,7.4294Z"/></g><g id="g1644"><path id="path1645" class="cls-8" d="M13.06435,5.7006c-.07947.25553-.12721.465-.0125.48961C13.17444,6.16894,13.12115,5.92206,13.06435,5.7006Z"/><path id="path1646" class="cls-8" d="M13.05608,6.4176c.13072.06941.2716-.26377.24232-.52619C13.23255,6.11632,13.01086,6.25521,13.05608,6.4176Z"/><path id="path1647" class="cls-8" d="M13.0079,6.41109c.02028-.18167-.05434-.17687-.1521-.35048C12.86615,6.25671,12.915,6.42114,13.0079,6.41109Z"/><path id="path1648" class="cls-8" d="M13.05086,6.677c.15257.0433.3274-.31992.32086-.58836C13.3082,6.38579,12.97706,6.50453,13.05086,6.677Z"/><path id="path1649" class="cls-8" d="M13.00086,6.67076c.06118-.14077-.06363-.12359-.14643-.37584C12.827,6.556,12.86682,6.67514,13.00086,6.67076Z"/><path id="path1650" class="cls-8" d="M13.04512,6.94453c.198.03407.30006-.403.3984-.61231C13.24882,6.60662,13.01556,6.75942,13.04512,6.94453Z"/><path id="path1651" class="cls-8" d="M12.99912,6.92944c.05785-.16116-.1057-.15216-.19183-.393C12.821,6.84191,12.86064,6.95211,12.99912,6.92944Z"/><path id="path1652" class="cls-8" d="M13.05605,7.207c.12516.00906.35025-.34049.3551-.5564C13.30421,6.88835,12.96858,7.04588,13.05605,7.207Z"/><path id="path1653" class="cls-8" d="M12.96345,7.16648c.05207-.16811-.09332-.16922-.15783-.35755C12.80107,7.09286,12.84536,7.18915,12.96345,7.16648Z"/><path id="path1654" class="cls-8" d="M12.968,7.46975c.22076.03862.27726-.25237.40751-.54839C13.247,7.157,12.95669,7.28919,12.968,7.46975Z"/><path id="path1655" class="cls-8" d="M12.952,7.4294c.07158-.152-.09426-.15216-.18273-.37935C12.76476,7.37149,12.82039,7.46574,12.952,7.4294Z"/></g><g id="g2127"><path id="path1068" class="cls-18" d="M12.15025,7.7093c-.19389.00093-.23175-.27388-.23175-.34692A.34591.34591,0,0,1,12.15025,7.7093Z"/><path id="path2126" class="cls-18" d="M12.15025,7.7093c-.19389.00093-.23175-.27388-.23175-.34692A.34591.34591,0,0,1,12.15025,7.7093Z"/></g><g id="g1656"><path id="path905" class="cls-17" d="M12.53742,6.46076c-.07946.25553-.11125.37818-.00338.45992C12.67486,6.84232,12.59422,6.68222,12.53742,6.46076Z"/><path id="path906" class="cls-17" d="M12.49313,7.12847c.05908-.1885-.0863-.23391-.16349-.44631C12.32169,6.9627,12.36143,7.1682,12.49313,7.12847Z"/><path id="path907" class="cls-17" d="M12.55106,7.16934c.10337.03973.23052-.19984.16016-.43947C12.63853,6.94566,12.4602,6.99784,12.55106,7.16934Z"/><path id="path908" class="cls-17" d="M12.442,7.384c.1-.15444-.05907-.16239-.13959-.37812C12.29788,7.28976,12.32394,7.40663,12.442,7.384Z"/><path id="path909" class="cls-17" d="M12.442,7.64966c.07614-.17483-.0897-.15215-.18728-.36789C12.25017,7.60321,12.30352,7.67234,12.442,7.64966Z"/><path id="path910" class="cls-17" d="M12.517,7.3942a.27586.27586,0,0,0,.20446-.33727C12.64874,7.21482,12.44317,7.19886,12.517,7.3942Z"/><path id="path911" class="cls-17" d="M12.49313,7.62241c.14088.02951.24758-.18616.23175-.33382C12.61467,7.426,12.46357,7.4373,12.49313,7.62241Z"/></g><g id="g1664"><path id="path1665" class="cls-8" d="M12.53742,6.46076c-.07946.25553-.11125.37818-.00338.45992C12.67486,6.84232,12.59422,6.68222,12.53742,6.46076Z"/><path id="path1666" class="cls-8" d="M12.49313,7.12847c.05908-.1885-.0863-.23391-.16349-.44631C12.32169,6.9627,12.36143,7.1682,12.49313,7.12847Z"/><path id="path1667" class="cls-8" d="M12.55106,7.16934c.10337.03973.23052-.19984.16016-.43947C12.63853,6.94566,12.4602,6.99784,12.55106,7.16934Z"/><path id="path1668" class="cls-8" d="M12.442,7.384c.1-.15444-.05907-.16239-.13959-.37812C12.29788,7.28976,12.32394,7.40663,12.442,7.384Z"/><path id="path1669" class="cls-8" d="M12.442,7.64966c.07614-.17483-.0897-.15215-.18728-.36789C12.25017,7.60321,12.30352,7.67234,12.442,7.64966Z"/><path id="path1670" class="cls-8" d="M12.517,7.3942a.27586.27586,0,0,0,.20446-.33727C12.64874,7.21482,12.44317,7.19886,12.517,7.3942Z"/><path id="path1671" class="cls-8" d="M12.49313,7.62241c.14088.02951.24758-.18616.23175-.33382C12.61467,7.426,12.46357,7.4373,12.49313,7.62241Z"/></g><g id="g2122"><path id="path1065" class="cls-5" d="M13.37557,7.26117c.01727-.0225.06688.00058.05449.05481a1.12011,1.12011,0,0,1-.30432.57977,5.95035,5.95035,0,0,1-1.1404.31495.73193.73193,0,0,0-.43168.26026,4.64372,4.64372,0,0,1,.14539-.47932.49915.49915,0,0,1,.37707-.31046,2.86554,2.86554,0,0,0,.97234-.15981A.78615.78615,0,0,0,13.37557,7.26117Z"/><path id="path2121" class="cls-5" d="M13.37557,7.26117c.01727-.0225.06688.00058.05449.05481a1.12011,1.12011,0,0,1-.30432.57977,5.95035,5.95035,0,0,1-1.1404.31495.73193.73193,0,0,0-.43168.26026,4.64372,4.64372,0,0,1,.14539-.47932.49915.49915,0,0,1,.37707-.31046,2.86554,2.86554,0,0,0,.97234-.15981A.78615.78615,0,0,0,13.37557,7.26117Z"/></g><g id="g1682"><path id="path955" class="cls-17" d="M12.95083,8.1504c.03173-.12692-.0087-.16776.02595-.36649C12.78628,8.03938,12.85792,8.16045,12.95083,8.1504Z"/><path id="path956" class="cls-17" d="M12.9716,8.182c.12616.03518.4542-.25231.46379-.46681C13.34668,7.86931,12.90359,8.03561,12.9716,8.182Z"/><path id="path957" class="cls-17" d="M12.76575,8.37125c.0863-.04716.06194-.24682-.01631-.31419C12.73343,8.25193,12.61575,8.36652,12.76575,8.37125Z"/><path id="path958" class="cls-17" d="M12.85456,8.42544c.15257.04786.32513-.22859.451-.34867C13.1621,8.20042,12.72829,8.25979,12.85456,8.42544Z"/><path id="path959" class="cls-17" d="M12.64478,8.563c.10682-.07.00713-.20808-.00035-.48085C12.53715,8.27931,12.5153,8.54909,12.64478,8.563Z"/><g id="g1672"><path id="path960" class="cls-17" d="M12.66509,8.63317c.05446.073.45754-.17839.55827-.36468C12.87908,8.52455,12.57534,8.49036,12.66509,8.63317Z"/><path id="path961" class="cls-17" d="M12.62477,8.86045c.09893-.07211-.08513-.26172-.12335-.51625C12.5037,8.65424,12.46122,8.89,12.62477,8.86045Z"/><path id="path962" class="cls-17" d="M12.73242,8.7751c.04961.07976.35715-.13136.48973-.36117C13.01828,8.59244,12.67545,8.64024,12.73242,8.7751Z"/><path id="path963" class="cls-17" d="M12.41791,9.1226c.11143-.01975.09613-.30157.0111-.531C12.33313,8.86865,12.2907,9.14983,12.41791,9.1226Z"/><path id="path964" class="cls-17" d="M12.69767,8.9691c.03845.04558.49177-.27206.48522-.4012C13.03944,8.7737,12.56,8.81484,12.69767,8.9691Z"/><path id="path965" class="cls-17" d="M12.17143,9.38555c.15374-.06305.08145-.312.11172-.58024C12.16214,9.06744,12.01921,9.33057,12.17143,9.38555Z"/><path id="path966" class="cls-17" d="M12.45893,9.17021c.02449.08432.39367-.07205.57188-.32927C12.81555,9.00806,12.39746,9.03079,12.45893,9.17021Z"/><path id="path967" class="cls-17" d="M12.22064,9.42563c.07953.13229.53741-.11.6039-.33728C12.67653,9.285,12.16513,9.25535,12.22064,9.42563Z"/><path id="path968" class="cls-17" d="M12.43064,9.52833c.08408.00906.27948-.151.33452-.23455C12.608,9.37173,12.39563,9.47907,12.43064,9.52833Z"/></g></g><g id="g1714"><path id="path969" class="cls-17" d="M11.74086,8.5447c.1.01449.23087-.16916.14351-.35527C11.841,8.37519,11.54978,8.51034,11.74086,8.5447Z"/><path id="path970" class="cls-17" d="M11.95524,8.43457c.07725.0433.27265-.16466.24781-.30075C12.09384,8.30772,11.8746,8.35791,11.95524,8.43457Z"/><path id="path971" class="cls-17" d="M11.727,8.74048c.075.073.44386-.30169.55372-.472C11.96151,8.54052,11.63493,8.60906,11.727,8.74048Z"/><path id="path972" class="cls-17" d="M11.63909,8.96454c.05873.08887.30462-.17927.46005-.40225C11.9021,8.75675,11.56839,8.84569,11.63909,8.96454Z"/><path id="path974" class="cls-17" d="M11.66381,8.75089c.06013-.15882-.0395-.18413-.08455-.38157C11.49027,8.47847,11.50026,8.7804,11.66381,8.75089Z"/><path id="path975" class="cls-17" d="M11.56567,8.97c.11949-.0333-.07374-.23659-.11424-.38156C11.4332,8.85513,11.43636,8.98813,11.56567,8.97Z"/><path id="path976" class="cls-17" d="M11.44928,9.16175c.11032-.04014-.06235-.14076-.08-.36333C11.31447,8.88022,11.28572,9.19126,11.44928,9.16175Z"/><path id="path977" class="cls-17" d="M11.28439,9.209c.0703-.038.04137-.21948-.06655-.24343C11.19271,9.10788,11.196,9.21107,11.28439,9.209Z"/></g><g id="g1723"><path id="path1724" class="cls-8" d="M11.74086,8.5447c.1.01449.23087-.16916.14351-.35527C11.841,8.37519,11.54978,8.51034,11.74086,8.5447Z"/><path id="path1725" class="cls-8" d="M11.95524,8.43457c.07725.0433.27265-.16466.24781-.30075C12.09384,8.30772,11.8746,8.35791,11.95524,8.43457Z"/><path id="path1726" class="cls-8" d="M11.727,8.74048c.075.073.44386-.30169.55372-.472C11.96151,8.54052,11.63493,8.60906,11.727,8.74048Z"/><path id="path1727" class="cls-8" d="M11.63909,8.96454c.05873.08887.30462-.17927.46005-.40225C11.9021,8.75675,11.56839,8.84569,11.63909,8.96454Z"/><path id="path1728" class="cls-8" d="M11.66381,8.75089c.06013-.15882-.0395-.18413-.08455-.38157C11.49027,8.47847,11.50026,8.7804,11.66381,8.75089Z"/><path id="path1729" class="cls-8" d="M11.56567,8.97c.11949-.0333-.07374-.23659-.11424-.38156C11.4332,8.85513,11.43636,8.98813,11.56567,8.97Z"/><path id="path1730" class="cls-8" d="M11.44928,9.16175c.11032-.04014-.06235-.14076-.08-.36333C11.31447,8.88022,11.28572,9.19126,11.44928,9.16175Z"/><path id="path1731" class="cls-8" d="M11.28439,9.209c.0703-.038.04137-.21948-.06655-.24343C11.19271,9.10788,11.196,9.21107,11.28439,9.209Z"/></g><g id="g1698"><path id="path1699" class="cls-8" d="M12.95083,8.1504c.03173-.12692-.0087-.16776.02595-.36649C12.78628,8.03938,12.85792,8.16045,12.95083,8.1504Z"/><path id="path1700" class="cls-8" d="M12.9716,8.182c.12616.03518.4542-.25231.46379-.46681C13.34668,7.86931,12.90359,8.03561,12.9716,8.182Z"/><path id="path1701" class="cls-8" d="M12.76575,8.37125c.0863-.04716.06194-.24682-.01631-.31419C12.73343,8.25193,12.61575,8.36652,12.76575,8.37125Z"/><path id="path1702" class="cls-8" d="M12.85456,8.42544c.15257.04786.32513-.22859.451-.34867C13.1621,8.20042,12.72829,8.25979,12.85456,8.42544Z"/><path id="path1703" class="cls-8" d="M12.64478,8.563c.10682-.07.00713-.20808-.00035-.48085C12.53715,8.27931,12.5153,8.54909,12.64478,8.563Z"/><g id="g1704"><path id="path1705" class="cls-8" d="M12.66509,8.63317c.05446.073.45754-.17839.55827-.36468C12.87908,8.52455,12.57534,8.49036,12.66509,8.63317Z"/><path id="path1706" class="cls-8" d="M12.62477,8.86045c.09893-.07211-.08513-.26172-.12335-.51625C12.5037,8.65424,12.46122,8.89,12.62477,8.86045Z"/><path id="path1707" class="cls-8" d="M12.73242,8.7751c.04961.07976.35715-.13136.48973-.36117C13.01828,8.59244,12.67545,8.64024,12.73242,8.7751Z"/><path id="path1708" class="cls-8" d="M12.41791,9.1226c.11143-.01975.09613-.30157.0111-.531C12.33313,8.86865,12.2907,9.14983,12.41791,9.1226Z"/><path id="path1709" class="cls-8" d="M12.69767,8.9691c.03845.04558.49177-.27206.48522-.4012C13.03944,8.7737,12.56,8.81484,12.69767,8.9691Z"/><path id="path1710" class="cls-8" d="M12.17143,9.38555c.15374-.06305.08145-.312.11172-.58024C12.16214,9.06744,12.01921,9.33057,12.17143,9.38555Z"/><path id="path1711" class="cls-8" d="M12.45893,9.17021c.02449.08432.39367-.07205.57188-.32927C12.81555,9.00806,12.39746,9.03079,12.45893,9.17021Z"/><path id="path1712" class="cls-8" d="M12.22064,9.42563c.07953.13229.53741-.11.6039-.33728C12.67653,9.285,12.16513,9.25535,12.22064,9.42563Z"/><path id="path1713" class="cls-8" d="M12.43064,9.52833c.08408.00906.27948-.151.33452-.23455C12.608,9.37173,12.39563,9.47907,12.43064,9.52833Z"/></g></g><g id="g2099"><path id="path1066" class="cls-5" d="M12.67656,9.53388c.02776-.00535.0658-.01483.03119.02856-.27645.3422-.35644.4365-.75956.38835a1.692,1.692,0,0,1-.78927-.32528.70765.70765,0,0,0-.54373-.05408c-.07858.02585-.12611.0274-.06978-.02926a2.067,2.067,0,0,1,.19221-.18662.84671.84671,0,0,1,.61936-.13019c.29716.04683.54269.237.8361.30876A1.19948,1.19948,0,0,0,12.67656,9.53388Z"/><path id="path2098" class="cls-5" d="M12.67656,9.53388c.02776-.00535.0658-.01483.03119.02856-.27645.3422-.35644.4365-.75956.38835a1.692,1.692,0,0,1-.78927-.32528.70765.70765,0,0,0-.54373-.05408c-.07858.02585-.12611.0274-.06978-.02926a2.067,2.067,0,0,1,.19221-.18662.84671.84671,0,0,1,.61936-.13019c.29716.04683.54269.237.8361.30876A1.19948,1.19948,0,0,0,12.67656,9.53388Z"/></g><g id="g2065"><path id="path1081" class="cls-19" d="M10.34827,10.13584c-.05105.00643-.08339.10647-.10851.03874-.04262-.10968-.01276-.19692.03511-.18727C10.33141,10.00256,10.427,10.13082,10.34827,10.13584Z"/><path id="path2064" class="cls-19" d="M10.34827,10.13584c-.05105.00643-.08339.10647-.10851.03874-.04262-.10968-.01276-.19692.03511-.18727C10.33141,10.00256,10.427,10.13082,10.34827,10.13584Z"/></g><g id="g1732"><path id="path987" class="cls-5" d="M10.90726,9.68968c.14449.03758.182-.129.19618-.25C10.97317,9.46776,10.83664,9.54324,10.90726,9.68968Z"/><path id="path988" class="cls-5" d="M10.84952,9.83743c.02546.11522.30816-.00356.36309-.16491C11.01164,9.78978,10.81336,9.662,10.84952,9.83743Z"/><path id="path989" class="cls-5" d="M10.74832,9.83171c.12913.02137.05724-.181.0498-.38057C10.72581,9.61389,10.62258,9.81438,10.74832,9.83171Z"/><path id="path990" class="cls-5" d="M10.58524,10.02315c.1406.01758.05139-.25357.01318-.4358C10.55226,9.75624,10.45058,10.00831,10.58524,10.02315Z"/><path id="path991" class="cls-5" d="M10.66848,10.02936c.01709.15341.30778-.01837.47695-.11265C10.922,9.95136,10.64338,9.87884,10.66848,10.02936Z"/><path id="path992" class="cls-5" d="M10.5087,10.24392c.01709.15341.30778-.01837.477-.11264C10.7622,10.16592,10.4836,10.0934,10.5087,10.24392Z"/><path id="path993" class="cls-5" d="M10.43458,10.23772c.13373.00387.03542-.28782-.00279-.47C10.38563,9.93656,10.29764,10.232,10.43458,10.23772Z"/><path id="path994" class="cls-5" d="M10.31923,10.42423c.01709.1534.28272.0022.44729-.1035C10.54079,10.369,10.29413,10.2737,10.31923,10.42423Z"/></g><g id="g1741"><path id="path1742" class="cls-20" d="M10.90726,9.68968c.14449.03758.182-.129.19618-.25C10.97317,9.46776,10.83664,9.54324,10.90726,9.68968Z"/><path id="path1743" class="cls-21" d="M10.84952,9.83743c.02546.11522.30816-.00356.36309-.16491C11.01164,9.78978,10.81336,9.662,10.84952,9.83743Z"/><path id="path1744" class="cls-22" d="M10.74832,9.83171c.12913.02137.05724-.181.0498-.38057C10.72581,9.61389,10.62258,9.81438,10.74832,9.83171Z"/><path id="path1745" class="cls-20" d="M10.58524,10.02315c.1406.01758.05139-.25357.01318-.4358C10.55226,9.75624,10.45058,10.00831,10.58524,10.02315Z"/><path id="path1746" class="cls-23" d="M10.66848,10.02936c.01709.15341.30778-.01837.47695-.11265C10.922,9.95136,10.64338,9.87884,10.66848,10.02936Z"/><path id="path1747" class="cls-23" d="M10.5087,10.24392c.01709.15341.30778-.01837.477-.11264C10.7622,10.16592,10.4836,10.0934,10.5087,10.24392Z"/><path id="path1748" class="cls-20" d="M10.43458,10.23772c.13373.00387.03542-.28782-.00279-.47C10.38563,9.93656,10.29764,10.232,10.43458,10.23772Z"/><path id="path1749" class="cls-23" d="M10.31923,10.42423c.01709.1534.28272.0022.44729-.1035C10.54079,10.369,10.29413,10.2737,10.31923,10.42423Z"/></g><g id="g1750"><path id="path978" class="cls-17" d="M11.81391,10.167c.07952.13224.373-.09629.53314-.214C12.11688,10.02407,11.7584,9.99672,11.81391,10.167Z"/><path id="path979" class="cls-24" d="M11.51438,10.30445c.02861.15168.52383.02652.59441-.08592C11.88111,10.315,11.4872,10.17343,11.51438,10.30445Z"/><path id="path980" class="cls-24" d="M11.28114,10.42028c.01492.08318.39377.05161.5853-.0129C11.6593,10.43314,11.2426,10.287,11.28114,10.42028Z"/><path id="path981" class="cls-24" d="M11.08328,10.5194c.00124.07636.44168.12008.58987-.00373C11.377,10.55962,11.05387,10.33589,11.08328,10.5194Z"/><path id="path982" class="cls-24" d="M10.73512,10.59076c-.017.106.4622.08356.61268.03045C11.09051,10.60135,10.7582,10.43461,10.73512,10.59076Z"/><path id="path983" class="cls-25" d="M10.72778,10.49428c.108.0991.3858-.34356.47622-.53856C10.99027,10.1786,10.60456,10.40763,10.72778,10.49428Z"/><path id="path984" class="cls-25" d="M11.043,10.41948c.12858.08541.24659-.22709.31186-.45639C11.23245,10.16086,10.91983,10.28947,11.043,10.41948Z"/><path id="path985" class="cls-25" d="M11.29169,10.33366c.12858.0854.201-.19741.232-.37425C11.43554,10.11156,11.16852,10.20365,11.29169,10.33366Z"/><path id="path986" class="cls-25" d="M11.53239,10.18319c.12858.0854.29-.15177.25257-.38562C11.7356,10.03872,11.40922,10.05317,11.53239,10.18319Z"/><path id="path1038" class="cls-17" d="M11.04431,10.84877c.06334.16127.72942-.141.84108-.34265C11.67141,10.687,10.98231,10.66237,11.04431,10.84877Z"/></g><g id="g1761"><path id="path1762" class="cls-8" d="M11.81391,10.167c.07952.13224.373-.09629.53314-.214C12.11688,10.02407,11.7584,9.99672,11.81391,10.167Z"/><path id="path1763" class="cls-22" d="M11.51438,10.30445c.02861.15168.52383.02652.59441-.08592C11.88111,10.315,11.4872,10.17343,11.51438,10.30445Z"/><path id="path1764" class="cls-22" d="M11.28114,10.42028c.01492.08318.39377.05161.5853-.0129C11.6593,10.43314,11.2426,10.287,11.28114,10.42028Z"/><path id="path1765" class="cls-22" d="M11.08328,10.5194c.00124.07636.44168.12008.58987-.00373C11.377,10.55962,11.05387,10.33589,11.08328,10.5194Z"/><path id="path1766" class="cls-22" d="M10.73512,10.59076c-.017.106.4622.08356.61268.03045C11.09051,10.60135,10.7582,10.43461,10.73512,10.59076Z"/><path id="path1767" class="cls-26" d="M10.72778,10.49428c.108.0991.3858-.34356.47622-.53856C10.99027,10.1786,10.60456,10.40763,10.72778,10.49428Z"/><path id="path1768" class="cls-26" d="M11.043,10.41948c.12858.08541.24659-.22709.31186-.45639C11.23245,10.16086,10.91983,10.28947,11.043,10.41948Z"/><path id="path1769" class="cls-26" d="M11.29169,10.33366c.12858.0854.201-.19741.232-.37425C11.43554,10.11156,11.16852,10.20365,11.29169,10.33366Z"/><path id="path1770" class="cls-26" d="M11.53239,10.18319c.12858.0854.29-.15177.25257-.38562C11.7356,10.03872,11.40922,10.05317,11.53239,10.18319Z"/><path id="path1771" class="cls-8" d="M11.04431,10.84877c.06334.16127.72942-.141.84108-.34265C11.67141,10.687,10.98231,10.66237,11.04431,10.84877Z"/></g><g id="g2048"><path id="path1060" class="cls-27" d="M5.73448,6.36489c-.02111-.20971.13661-.591.02467-.79433-.01526-.02793.03351-.10208.065-.05709.04922.07181.09983.27644.121.20089.02243-.08216.02587-.22748.09863-.2557.04641-.01654.112-.02735.09415.04569-.01779.07024-.05761.16724-.01349.17349.02559.0038.09932-.0956.1614-.14152.05-.041.12467.02314.05152.08443A1.28565,1.28565,0,0,0,5.73448,6.36489Z"/><path id="path2023" class="cls-27" d="M5.73448,6.36489c-.02111-.20971.13661-.591.02467-.79433-.01526-.02793.03351-.10208.065-.05709.04922.07181.09983.27644.121.20089.02243-.08216.02587-.22748.09863-.2557.04641-.01654.112-.02735.09415.04569-.01779.07024-.05761.16724-.01349.17349.02559.0038.09932-.0956.1614-.14152.05-.041.12467.02314.05152.08443A1.28565,1.28565,0,0,0,5.73448,6.36489Z"/></g><g id="g1944"><path id="path1063" class="cls-5" d="M5.30735,9.521c-.0279-.00535-.06613-.01483-.03135.02856.27777.3422.35815.43649.7632.38835a1.70441,1.70441,0,0,0,.79305-.32529.71415.71415,0,0,1,.54634-.05407c.079.02584.12672.0274.07012-.02926a2.07267,2.07267,0,0,0-.19313-.18662.854.854,0,0,0-.62233-.13019c-.29858.04683-.54529.23694-.84011.30876A1.211,1.211,0,0,1,5.30735,9.521Z"/><path id="path1943" class="cls-5" d="M5.30735,9.521c-.0279-.00535-.06613-.01483-.03135.02856.27777.3422.35815.43649.7632.38835a1.70441,1.70441,0,0,0,.79305-.32529.71415.71415,0,0,1,.54634-.05407c.079.02584.12672.0274.07012-.02926a2.07267,2.07267,0,0,0-.19313-.18662.854.854,0,0,0-.62233-.13019c-.29858.04683-.54529.23694-.84011.30876A1.211,1.211,0,0,1,5.30735,9.521Z"/></g><g id="g2061"><path id="path1080" class="cls-8" d="M7.64507,10.13261c.05166.00643.08438.10647.1098.03874.04312-.10967.01291-.19691-.03553-.18727C7.66213,9.99933,7.56537,10.12759,7.64507,10.13261Z"/><path id="path2060" class="cls-8" d="M7.64507,10.13261c.05166.00643.08438.10647.1098.03874.04312-.10967.01291-.19691-.03553-.18727C7.66213,9.99933,7.56537,10.12759,7.64507,10.13261Z"/></g><g id="g1772"><path id="path1017" class="cls-5" d="M7.52994,10.22586c.13855.03153.13664-.30218-.00487-.44364C7.58738,9.99658,7.421,10.19252,7.52994,10.22586Z"/><path id="path1018" class="cls-5" d="M7.47621,10.22288c.00914.15861-.38928-.02073-.49167-.1441C7.21993,10.17878,7.46459,10.096,7.47621,10.22288Z"/><path id="path1019" class="cls-5" d="M7.30157,9.99646c.01425.15365-.34551.01855-.45185-.10145C7.086,9.97133,7.28585,9.87,7.30157,9.99646Z"/><path id="path1020" class="cls-5" d="M7.36787,10.01814c.13856.03153.11611-.31363-.01855-.43224C7.41394,9.81624,7.25889,9.9848,7.36787,10.01814Z"/><path id="path1021" class="cls-5" d="M7.2218,9.80816c.13855.03153.059-.26566-.04366-.38433C7.19482,9.6405,7.12653,9.79078,7.2218,9.80816Z"/><path id="path1022" class="cls-5" d="M7.14863,9.807c.01427.15823-.2656.03676-.37423-.11293C7.00835,9.77045,7.13291,9.68058,7.14863,9.807Z"/><path id="path1023" class="cls-5" d="M7.07239,9.687c.09077-.06527-.00553-.23788-.17829-.22719C6.911,9.564,6.97069,9.74741,7.07239,9.687Z"/><path id="path1033" class="cls-5" d="M7.75479,10.40241c.00914.15861-.38933.07972-.51451-.08929C7.49162,10.36062,7.74317,10.27553,7.75479,10.40241Z"/></g><g id="g1996"><g id="g1948"><path id="path1061" class="cls-5" d="M5.11627,6.19828c-.05943-.06206-.04225-.08578.04563-.08677.06972-.00439.20785.04271.26027.00455.048-.03488.02892-.18283.05025-.25108.00929-.038.03593-.09776.09583-.00456a4.0409,4.0409,0,0,1,.49306.95871.78994.78994,0,0,1-.16894.67565.76273.76273,0,0,0-.1324-.42A4.92634,4.92634,0,0,0,5.11627,6.19828Z"/><path id="path1067" class="cls-5" d="M5.84668,7.69106c.19482.00093.2283-.2602.2283-.33324A.32525.32525,0,0,0,5.84668,7.69106Z"/></g><g id="g1951"><path id="path1952" class="cls-5" d="M5.11627,6.19828c-.05943-.06206-.04225-.08578.04563-.08677.06972-.00439.20785.04271.26027.00455.048-.03488.02892-.18283.05025-.25108.00929-.038.03593-.09776.09583-.00456a4.0409,4.0409,0,0,1,.49306.95871.78994.78994,0,0,1-.16894.67565.76273.76273,0,0,0-.1324-.42A4.92634,4.92634,0,0,0,5.11627,6.19828Z"/><path id="path1953" class="cls-5" d="M5.84668,7.69106c.19482.00093.2283-.2602.2283-.33324A.32525.32525,0,0,0,5.84668,7.69106Z"/></g></g><g id="g1781"><path id="path1782" class="cls-8" d="M7.52994,10.22586c.13855.03153.13664-.30218-.00487-.44364C7.58738,9.99658,7.421,10.19252,7.52994,10.22586Z"/><path id="path1783" class="cls-28" d="M7.47621,10.22288c.00914.15861-.38928-.02073-.49167-.1441C7.21993,10.17878,7.46459,10.096,7.47621,10.22288Z"/><path id="path1784" class="cls-29" d="M7.30157,9.99646c.01425.15365-.34551.01855-.45185-.10145C7.086,9.97133,7.28585,9.87,7.30157,9.99646Z"/><path id="path1785" class="cls-8" d="M7.36787,10.01814c.13856.03153.11611-.31363-.01855-.43224C7.41394,9.81624,7.25889,9.9848,7.36787,10.01814Z"/><path id="path1786" class="cls-8" d="M7.2218,9.80816c.13855.03153.059-.26566-.04366-.38433C7.19482,9.6405,7.12653,9.79078,7.2218,9.80816Z"/><path id="path1787" class="cls-29" d="M7.14863,9.807c.01427.15823-.2656.03676-.37423-.11293C7.00835,9.77045,7.13291,9.68058,7.14863,9.807Z"/><path id="path1788" class="cls-30" d="M7.07239,9.687c.09077-.06527-.00553-.23788-.17829-.22719C6.911,9.564,6.97069,9.74741,7.07239,9.687Z"/><path id="path1789" class="cls-28" d="M7.75479,10.40241c.00914.15861-.38933.07972-.51451-.08929C7.49162,10.36062,7.74317,10.27553,7.75479,10.40241Z"/></g><g id="g1790"><path id="path1024" class="cls-31" d="M6.17191,10.11882c.01428.15823-.42077-.01577-.5294-.16545C5.87646,10.02972,6.15619,9.99239,6.17191,10.11882Z"/><path id="path1025" class="cls-32" d="M6.43856,10.1864c.09077-.06526-.09454-.23333-.24217-.27283C6.21329,10.01781,6.33686,10.24682,6.43856,10.1864Z"/><path id="path1026" class="cls-31" d="M6.46634,10.29586c.00972.14226-.4665.06423-.59106-.06721C6.285,10.30272,6.45292,10.174,6.46634,10.29586Z"/><path id="path1027" class="cls-33" d="M6.68923,10.39074c.05285.13214-.40422.09989-.56469.02306C6.38384,10.41155,6.65289,10.29869,6.68923,10.39074Z"/><path id="path1028" class="cls-33" d="M6.903,10.4872c.0506.11842-.37225.11586-.57834.05039C6.59769,10.53535,6.853,10.37,6.903,10.4872Z"/><path id="path1029" class="cls-25" d="M7.21049,10.55078c.07489.14012-.37114.15376-.51587.08477C6.95252,10.60008,7.14668,10.4405,7.21049,10.55078Z"/><path id="path1030" class="cls-34" d="M6.68818,10.311c-.1419.08949-.1343-.17434-.24717-.357C6.61835,10.11547,6.78435,10.2257,6.68818,10.311Z"/><path id="path1031" class="cls-34" d="M6.93981,10.40583c-.119.10546-.21419-.25659-.32253-.45973C6.79241,10.13949,7.04964,10.31825,6.93981,10.40583Z"/><path id="path1032" class="cls-34" d="M7.27215,10.50669c-.1008.11684-.39226-.34328-.49827-.583C6.93525,10.11029,7.35233,10.40767,7.27215,10.50669Z"/></g><g id="g1800"><path id="path1801" class="cls-29" d="M6.17191,10.11882c.01428.15823-.42077-.01577-.5294-.16545C5.87646,10.02972,6.15619,9.99239,6.17191,10.11882Z"/><path id="path1802" class="cls-30" d="M6.43856,10.1864c.09077-.06526-.09454-.23333-.24217-.27283C6.21329,10.01781,6.33686,10.24682,6.43856,10.1864Z"/><path id="path1803" class="cls-29" d="M6.46634,10.29586c.00972.14226-.4665.06423-.59106-.06721C6.285,10.30272,6.45292,10.174,6.46634,10.29586Z"/><path id="path1804" class="cls-28" d="M6.68923,10.39074c.05285.13214-.40422.09989-.56469.02306C6.38384,10.41155,6.65289,10.29869,6.68923,10.39074Z"/><path id="path1805" class="cls-28" d="M6.903,10.4872c.0506.11842-.37225.11586-.57834.05039C6.59769,10.53535,6.853,10.37,6.903,10.4872Z"/><path id="path1806" class="cls-26" d="M7.21049,10.55078c.07489.14012-.37114.15376-.51587.08477C6.95252,10.60008,7.14668,10.4405,7.21049,10.55078Z"/><path id="path1807" class="cls-35" d="M6.68818,10.311c-.1419.08949-.1343-.17434-.24717-.357C6.61835,10.11547,6.78435,10.2257,6.68818,10.311Z"/><path id="path1808" class="cls-35" d="M6.93981,10.40583c-.119.10546-.21419-.25659-.32253-.45973C6.79241,10.13949,7.04964,10.31825,6.93981,10.40583Z"/><path id="path1809" class="cls-35" d="M7.27215,10.50669c-.1008.11684-.39226-.34328-.49827-.583C6.93525,10.11029,7.35233,10.40767,7.27215,10.50669Z"/></g><path id="path1820" class="cls-4" d="M6.98862,10.858c-.05028.17764-.792-.16745-.87481-.34623C6.53822,10.73668,6.99875,10.68964,6.98862,10.858Z"/><g id="g2003"><path id="path1062" class="cls-5" d="M4.605,7.24826c-.01735-.0225-.0672.00058-.05475.05481a1.11833,1.11833,0,0,0,.30578.57977,6.00186,6.00186,0,0,0,1.14587.31495.736.736,0,0,1,.43375.26026,4.62876,4.62876,0,0,0-.14609-.47933.501.501,0,0,0-.37888-.31045,2.89221,2.89221,0,0,1-.977-.15981A.78924.78924,0,0,1,4.605,7.24826Z"/><path id="path1947" class="cls-5" d="M4.605,7.24826c-.01735-.0225-.0672.00058-.05475.05481a1.11833,1.11833,0,0,0,.30578.57977,6.00186,6.00186,0,0,0,1.14587.31495.736.736,0,0,1,.43375.26026,4.62876,4.62876,0,0,0-.14609-.47933.501.501,0,0,0-.37888-.31045,2.89221,2.89221,0,0,1-.977-.15981A.78924.78924,0,0,1,4.605,7.24826Z"/></g><g id="g1821"><path id="path1008" class="cls-36" d="M6.33616,8.73939c.09523.07012.20034-.18118.07937-.42007C6.41173,8.54927,6.229,8.62645,6.33616,8.73939Z"/><path id="path1009" class="cls-36" d="M6.42747,8.96989c.13171.04044.173-.19257.08621-.37895C6.52814,8.79118,6.30661,8.91179,6.42747,8.96989Z"/><path id="path1010" class="cls-36" d="M6.52783,9.15474c.12721.06333.17535-.17207.08393-.34688C6.62174,9.03087,6.42979,9.09662,6.52783,9.15474Z"/><path id="path1011" class="cls-37" d="M6.47553,9.16912c-.0504.15066-.34273-.12989-.392-.28246C6.265,9.06691,6.51186,9.047,6.47553,9.16912Z"/><path id="path1013" class="cls-37" d="M6.34314,8.9386c-.05728.15064-.42488-.23721-.50613-.424C6.01845,8.69489,6.38407,8.83245,6.34314,8.9386Z"/><path id="path1014" class="cls-37" d="M6.2701,8.7126c-.05726.1712-.45686-.28511-.57-.44683C5.89066,8.44376,6.31326,8.5882,6.2701,8.7126Z"/><path id="path1015" class="cls-33" d="M6.25739,8.54347c.1407-.02736-.008-.14455-.18045-.335C6.06888,8.409,6.10179,8.54922,6.25739,8.54347Z"/><path id="path1016" class="cls-33" d="M6.02,8.42936c.06076-.06617-.05823-.09435-.20558-.2597C5.7927,8.28117,5.95112,8.48532,6.02,8.42936Z"/><path id="path1055" class="cls-36" d="M6.70129,9.173c.077.04506.12969-.11272.03374-.25558C6.71307,9.072,6.63069,9.11489,6.70129,9.173Z"/></g><g id="g1831"><path id="path1832" class="cls-38" d="M6.33616,8.73939c.09523.07012.20034-.18118.07937-.42007C6.41173,8.54927,6.229,8.62645,6.33616,8.73939Z"/><path id="path1833" class="cls-38" d="M6.42747,8.96989c.13171.04044.173-.19257.08621-.37895C6.52814,8.79118,6.30661,8.91179,6.42747,8.96989Z"/><path id="path1834" class="cls-38" d="M6.52783,9.15474c.12721.06333.17535-.17207.08393-.34688C6.62174,9.03087,6.42979,9.09662,6.52783,9.15474Z"/><path id="path1835" class="cls-39" d="M6.47553,9.16912c-.0504.15066-.34273-.12989-.392-.28246C6.265,9.06691,6.51186,9.047,6.47553,9.16912Z"/><path id="path1836" class="cls-39" d="M6.34314,8.9386c-.05728.15064-.42488-.23721-.50613-.424C6.01845,8.69489,6.38407,8.83245,6.34314,8.9386Z"/><path id="path1837" class="cls-39" d="M6.2701,8.7126c-.05726.1712-.45686-.28511-.57-.44683C5.89066,8.44376,6.31326,8.5882,6.2701,8.7126Z"/><path id="path1838" class="cls-28" d="M6.25739,8.54347c.1407-.02736-.008-.14455-.18045-.335C6.06888,8.409,6.10179,8.54922,6.25739,8.54347Z"/><path id="path1839" class="cls-28" d="M6.02,8.42936c.06076-.06617-.05823-.09435-.20558-.2597C5.7927,8.28117,5.95112,8.48532,6.02,8.42936Z"/><path id="path1840" class="cls-38" d="M6.70129,9.173c.077.04506.12969-.11272.03374-.25558C6.71307,9.072,6.63069,9.11489,6.70129,9.173Z"/></g><g id="g1878"><path id="path995" class="cls-17" d="M5.02858,8.17737c-.16349.098-.42318-.29308-.49244-.454C4.6796,7.908,5.05945,8.07673,5.02858,8.17737Z"/><path id="path996" class="cls-17" d="M5.16779,8.40563c-.09047.1003-.37523-.17211-.47417-.31017C4.84624,8.22763,5.20779,8.24335,5.16779,8.40563Z"/><path id="path997" class="cls-37" d="M5.32281,8.60989c-.02985.137-.44541-.171-.54256-.31674C4.9594,8.462,5.35,8.44672,5.32281,8.60989Z"/><path id="path998" class="cls-37" d="M5.25892,8.75819c-.0641.12335-.40209-.18228-.48323-.34174C4.9822,8.59665,5.31124,8.63619,5.25892,8.75819Z"/><path id="path1002" class="cls-36" d="M5.08527,8.15725c.10666-.11244.06123-.16514-.01653-.34236C5.02624,7.99688,4.96214,8.06951,5.08527,8.15725Z"/><path id="path1003" class="cls-36" d="M5.22677,8.36957c.19342.00852.00186-.22685-.04388-.42453C5.19972,8.17034,5.13332,8.348,5.22677,8.36957Z"/><path id="path1004" class="cls-36" d="M5.35007,8.55674c.13405-.03029.09538-.22-.00737-.44967C5.36405,8.35524,5.22921,8.49864,5.35007,8.55674Z"/><g id="g1862"><path id="path999" class="cls-37" d="M5.30456,8.93174c-.0504.15066-.43173-.19837-.49239-.33043C5.005,8.76331,5.33862,8.81876,5.30456,8.93174Z"/><path id="path1000" class="cls-37" d="M5.53279,9.1668c-.05722.15073-.45681-.15491-.57908-.32125C5.19448,9.035,5.56234,9.01736,5.53279,9.1668Z"/><path id="path1001" class="cls-37" d="M5.76562,9.40421c-.06406.21-.48193-.12526-.60649-.28931C5.425,9.31794,5.79968,9.25474,5.76562,9.40421Z"/><path id="path1005" class="cls-36" d="M5.37288,8.86488c.11351.05874.15935-.26334.09532-.49073C5.46906,8.62231,5.24058,8.80679,5.37288,8.86488Z"/><path id="path1006" class="cls-36" d="M5.5669,9.12051c.13635.0405.09313-.30666-.02338-.53182C5.52841,8.81178,5.42778,9.02364,5.5669,9.12051Z"/><path id="path1007" class="cls-36" d="M5.80884,9.36018c.15232.00854.04751-.29758-.07813-.47021C5.75209,9.11531,5.68116,9.334,5.80884,9.36018Z"/><path id="path1056" class="cls-37" d="M5.54194,9.491c-.04579.07759-.1578-.06591-.34171-.17064C5.36564,9.36358,5.56229,9.41905,5.54194,9.491Z"/></g></g><g id="g1894"><path id="path1895" class="cls-8" d="M5.02858,8.17737c-.16349.098-.42318-.29308-.49244-.454C4.6796,7.908,5.05945,8.07673,5.02858,8.17737Z"/><path id="path1896" class="cls-8" d="M5.16779,8.40563c-.09047.1003-.37523-.17211-.47417-.31017C4.84624,8.22763,5.20779,8.24335,5.16779,8.40563Z"/><path id="path1897" class="cls-39" d="M5.32281,8.60989c-.02985.137-.44541-.171-.54256-.31674C4.9594,8.462,5.35,8.44672,5.32281,8.60989Z"/><path id="path1898" class="cls-39" d="M5.25892,8.75819c-.0641.12335-.40209-.18228-.48323-.34174C4.9822,8.59665,5.31124,8.63619,5.25892,8.75819Z"/><path id="path1899" class="cls-38" d="M5.08527,8.15725c.10666-.11244.06123-.16514-.01653-.34236C5.02624,7.99688,4.96214,8.06951,5.08527,8.15725Z"/><path id="path1900" class="cls-38" d="M5.22677,8.36957c.19342.00852.00186-.22685-.04388-.42453C5.19972,8.17034,5.13332,8.348,5.22677,8.36957Z"/><path id="path1901" class="cls-38" d="M5.35007,8.55674c.13405-.03029.09538-.22-.00737-.44967C5.36405,8.35524,5.22921,8.49864,5.35007,8.55674Z"/><g id="g1902"><path id="path1903" class="cls-39" d="M5.30456,8.93174c-.0504.15066-.43173-.19837-.49239-.33043C5.005,8.76331,5.33862,8.81876,5.30456,8.93174Z"/><path id="path1904" class="cls-39" d="M5.53279,9.1668c-.05722.15073-.45681-.15491-.57908-.32125C5.19448,9.035,5.56234,9.01736,5.53279,9.1668Z"/><path id="path1905" class="cls-39" d="M5.76562,9.40421c-.06406.21-.48193-.12526-.60649-.28931C5.425,9.31794,5.79968,9.25474,5.76562,9.40421Z"/><path id="path1906" class="cls-38" d="M5.37288,8.86488c.11351.05874.15935-.26334.09532-.49073C5.46906,8.62231,5.24058,8.80679,5.37288,8.86488Z"/><path id="path1907" class="cls-38" d="M5.5669,9.12051c.13635.0405.09313-.30666-.02338-.53182C5.52841,8.81178,5.42778,9.02364,5.5669,9.12051Z"/><path id="path1908" class="cls-38" d="M5.80884,9.36018c.15232.00854.04751-.29758-.07813-.47021C5.75209,9.11531,5.68116,9.334,5.80884,9.36018Z"/><path id="path1909" class="cls-39" d="M5.54194,9.491c-.04579.07759-.1578-.06591-.34171-.17064C5.36564,9.36358,5.56229,9.41905,5.54194,9.491Z"/></g></g><g id="g1534"><path id="path898" class="cls-17" d="M5.45451,6.911c.14217-.10518.03371-.30192,0-.489C5.40876,6.59942,5.28832,6.83227,5.45451,6.911Z"/><path id="path899" class="cls-17" d="M5.44972,7.17352c-.21358-.02565-.18144-.30186-.18787-.47693C5.32607,6.93424,5.50114,6.97438,5.44972,7.17352Z"/><path id="path900" class="cls-17" d="M5.48343,7.13741c.18068-.01046.17109-.216.18074-.424C5.5726,6.90456,5.46415,6.93424,5.48343,7.13741Z"/><path id="path901" class="cls-17" d="M5.47625,7.39276c-.14054.01122-.21358-.12686-.24572-.34206C5.36382,7.249,5.48507,7.18719,5.47625,7.39276Z"/><path id="path902" class="cls-17" d="M5.52679,7.37593c.18067.02326.15181-.1871.14456-.34212C5.616,7.18158,5.469,7.22816,5.52679,7.37593Z"/><path id="path903" class="cls-17" d="M5.245,7.28676c.01443.13732.1012.37339.24092.32039C5.54368,7.43851,5.363,7.4048,5.245,7.28676Z"/><path id="path904" class="cls-17" d="M5.52924,7.62164c-.06264-.12043.14211-.18073.18547-.33727C5.7396,7.5084,5.71874,7.65536,5.52924,7.62164Z"/></g><g id="g1542"><path id="path1543" class="cls-8" d="M5.45451,6.911c.14217-.10518.03371-.30192,0-.489C5.40876,6.59942,5.28832,6.83227,5.45451,6.911Z"/><path id="path1544" class="cls-8" d="M5.44972,7.17352c-.21358-.02565-.18144-.30186-.18787-.47693C5.32607,6.93424,5.50114,6.97438,5.44972,7.17352Z"/><path id="path1545" class="cls-8" d="M5.48343,7.13741c.18068-.01046.17109-.216.18074-.424C5.5726,6.90456,5.46415,6.93424,5.48343,7.13741Z"/><path id="path1546" class="cls-8" d="M5.47625,7.39276c-.14054.01122-.21358-.12686-.24572-.34206C5.36382,7.249,5.48507,7.18719,5.47625,7.39276Z"/><path id="path1547" class="cls-8" d="M5.52679,7.37593c.18067.02326.15181-.1871.14456-.34212C5.616,7.18158,5.469,7.22816,5.52679,7.37593Z"/><path id="path1548" class="cls-8" d="M5.245,7.28676c.01443.13732.1012.37339.24092.32039C5.54368,7.43851,5.363,7.4048,5.245,7.28676Z"/><path id="path1549" class="cls-8" d="M5.52924,7.62164c-.06264-.12043.14211-.18073.18547-.33727C5.7396,7.5084,5.71874,7.65536,5.52924,7.62164Z"/></g><g id="g1510"><path id="path943" class="cls-17" d="M4.94649,6.19441c.11248-.12114.01315-.31332-.02057-.50042C4.88017,5.87145,4.80087,6.10658,4.94649,6.19441Z"/><path id="path944" class="cls-17" d="M4.94292,6.41989c-.19756.02005-.24536-.38174-.26546-.55452C4.74168,6.103,4.96922,6.21164,4.94292,6.41989Z"/><path id="path945" class="cls-17" d="M4.98359,6.41627c.1396-.0721.10717-.22742.151-.34411C5.0408,6.21538,4.95519,6.23589,4.98359,6.41627Z"/><path id="path946" class="cls-17" d="M4.94479,6.67906c-.20668.01771-.32979-.42744-.33622-.6025C4.67279,6.31421,4.96887,6.4434,4.94479,6.67906Z"/><path id="path947" class="cls-17" d="M4.984,6.67258c.19435-.0447.1711-.17039.14194-.3738C5.06406,6.50365,4.95561,6.46023,4.984,6.67258Z"/><path id="path948" class="cls-17" d="M4.94205,6.93611c-.22725.03857-.2113-.32091-.39174-.5817C4.70639,6.54812,4.98739,6.79219,4.94205,6.93611Z"/><path id="path949" class="cls-17" d="M4.99341,6.92384c.17156.005.18833-.25331.1788-.35808C5.13277,6.67012,4.93106,6.76923,4.99341,6.92384Z"/><path id="path951" class="cls-17" d="M4.587,6.659c.08519.27657.20621.55371.355.53268C5.01351,7.03446,4.80087,7.01441,4.587,6.659Z"/><path id="path952" class="cls-17" d="M4.99586,7.15143c-.06264-.12043.14211-.18073.18547-.33727C5.20622,7.03819,5.18536,7.18515,4.99586,7.15143Z"/><path id="path953" class="cls-17" d="M4.64568,6.97505c.12165.24915.17652.53547.34358.49387C5.05161,7.27516,4.80479,7.2346,4.64568,6.97505Z"/><path id="path954" class="cls-17" d="M5.02391,7.42182c-.07175-.13183.133-.17845.18319-.36012C5.23427,7.29946,5.20885,7.46921,5.02391,7.42182Z"/></g><g id="g1522"><path id="path1523" class="cls-8" d="M4.94649,6.19441c.11248-.12114.01315-.31332-.02057-.50042C4.88017,5.87145,4.80087,6.10658,4.94649,6.19441Z"/><path id="path1524" class="cls-8" d="M4.94292,6.41989c-.19756.02005-.24536-.38174-.26546-.55452C4.74168,6.103,4.96922,6.21164,4.94292,6.41989Z"/><path id="path1525" class="cls-8" d="M4.98359,6.41627c.1396-.0721.10717-.22742.151-.34411C5.0408,6.21538,4.95519,6.23589,4.98359,6.41627Z"/><path id="path1526" class="cls-8" d="M4.94479,6.67906c-.20668.01771-.32979-.42744-.33622-.6025C4.67279,6.31421,4.96887,6.4434,4.94479,6.67906Z"/><path id="path1527" class="cls-8" d="M4.984,6.67258c.19435-.0447.1711-.17039.14194-.3738C5.06406,6.50365,4.95561,6.46023,4.984,6.67258Z"/><path id="path1528" class="cls-8" d="M4.94205,6.93611c-.22725.03857-.2113-.32091-.39174-.5817C4.70639,6.54812,4.98739,6.79219,4.94205,6.93611Z"/><path id="path1529" class="cls-8" d="M4.99341,6.92384c.17156.005.18833-.25331.1788-.35808C5.13277,6.67012,4.93106,6.76923,4.99341,6.92384Z"/><path id="path1530" class="cls-8" d="M4.587,6.659c.08519.27657.20621.55371.355.53268C5.01351,7.03446,4.80087,7.01441,4.587,6.659Z"/><path id="path1531" class="cls-8" d="M4.99586,7.15143c-.06264-.12043.14211-.18073.18547-.33727C5.20622,7.03819,5.18536,7.18515,4.99586,7.15143Z"/><path id="path1532" class="cls-8" d="M4.64568,6.97505c.12165.24915.17652.53547.34358.49387C5.05161,7.27516,4.80479,7.2346,4.64568,6.97505Z"/><path id="path1533" class="cls-8" d="M5.02391,7.42182c-.07175-.13183.133-.17845.18319-.36012C5.23427,7.29946,5.20885,7.46921,5.02391,7.42182Z"/></g><path id="path922" class="cls-4" d="M5.37419,5.73535c.1199.03243.24565-.1022.20206-.30368A.28752.28752,0,0,0,5.37419,5.73535Z"/><path id="path1039" class="cls-4" d="M4.99058,5.63452c.01046.05668.07941.06182.05937-.01823a.26118.26118,0,0,1,0-.16665.36836.36836,0,0,0-.00228-.226C5.02733,5.174,4.96,5.20311,4.9883,5.242a.22229.22229,0,0,1,.01139.18254A.38088.38088,0,0,0,4.99058,5.63452Z"/><path id="path2012" class="cls-4" d="M5.37419,5.73535c.1199.03243.24565-.1022.20206-.30368A.28752.28752,0,0,0,5.37419,5.73535Z"/><path id="path2013" class="cls-4" d="M4.99058,5.63452c.01046.05668.07941.06182.05937-.01823a.26118.26118,0,0,1,0-.16665.36836.36836,0,0,0-.00228-.226C5.02733,5.174,4.96,5.20311,4.9883,5.242a.22229.22229,0,0,1,.01139.18254A.38088.38088,0,0,0,4.99058,5.63452Z"/><path id="path2015" class="cls-4" d="M5.405,5.419c-.01137.08852-.0863.09656-.06452-.02847a.57829.57829,0,0,0,0-.26028A.81648.81648,0,0,1,5.343,4.77736c.0221-.07757.09531-.03212.06451.02857a.48637.48637,0,0,0-.01238.2851A.84528.84528,0,0,1,5.405,5.419Z"/><path id="path2022" class="cls-4" d="M5.96338,6.30364c-.04632.06814-.12016.02859-.07832-.08081a1.79831,1.79831,0,0,1,.07846-.225,1.2615,1.2615,0,0,1,.20115-.20472c.05467-.0541.10006-.002.04993.04439a1.3236,1.3236,0,0,0-.16362.19415C5.98254,6.14321,6.01267,6.23221,5.96338,6.30364Z"/><g id="g2031"><path id="path2021" class="cls-40" d="M6.10936,6.41319c-.04633.06814-.14093.02647-.06886-.06713.05905-.07574.14322-.13763.14944-.21588A.56536.56536,0,0,1,6.306,5.82962c.05467-.05409.11783.022.05939.05808a.44628.44628,0,0,0-.10689.28546C6.25627,6.27105,6.15864,6.34176,6.10936,6.41319Z"/><path id="path2027" class="cls-40" d="M6.10936,6.41319c-.04633.06814-.14093.02647-.06886-.06713.05905-.07574.14322-.13763.14944-.21588A.56536.56536,0,0,1,6.306,5.82962c.05467-.05409.11783.022.05939.05808a.44628.44628,0,0,0-.10689.28546C6.25627,6.27105,6.15864,6.34176,6.10936,6.41319Z"/></g><path id="path2034" class="cls-4" d="M5.96338,6.30364c-.04632.06814-.12016.02859-.07832-.08081a1.79831,1.79831,0,0,1,.07846-.225,1.2615,1.2615,0,0,1,.20115-.20472c.05467-.0541.10006-.002.04993.04439a1.3236,1.3236,0,0,0-.16362.19415C5.98254,6.14321,6.01267,6.23221,5.96338,6.30364Z"/><g id="g2044"><path id="path2043" class="cls-41" d="M5.19373,5.951c-.00549.0962.07193.11951.06848-.02-.0035-.14564-.10658-.27889-.04335-.50061a1.0775,1.0775,0,0,0,.01367-.41289c-.0177-.10479-.09227-.03632-.06393.04528a.83152.83152,0,0,1-.02968.36736C5.06734,5.69588,5.19794,5.82533,5.19373,5.951Z"/><path id="path2014" class="cls-41" d="M5.19373,5.951c-.00549.0962.07193.11951.06848-.02-.0035-.14564-.10658-.27889-.04335-.50061a1.0775,1.0775,0,0,0,.01367-.41289c-.0177-.10479-.09227-.03632-.06393.04528a.83152.83152,0,0,1-.02968.36736C5.06734,5.69588,5.19794,5.82533,5.19373,5.951Z"/></g><path id="path2047" class="cls-4" d="M5.405,5.419c-.01137.08852-.0863.09656-.06452-.02847a.57829.57829,0,0,0,0-.26028A.81648.81648,0,0,1,5.343,4.77736c.0221-.07757.09531-.03212.06451.02857a.48637.48637,0,0,0-.01238.2851A.84528.84528,0,0,1,5.405,5.419Z"/><path id="path2051" class="cls-4" d="M4.64362,7.22935c.03708.04412.09958.01456.04263-.04517-.04661-.04825-.03127-.06348-.05968-.12227A.68994.68994,0,0,0,4.566,6.913c-.03-.04453-.07508.0009-.04487.03837.03793.04432.02746.077.05065.11988C4.61469,7.14465,4.60424,7.18317,4.64362,7.22935Z"/><path id="path2052" class="cls-4" d="M5.64152,8.43339a.41949.41949,0,0,1,.21585.32459.74085.74085,0,0,0,.09163.351c-.09823-.02735-.14527-.18389-.15923-.33383C5.77563,8.62,5.692,8.55265,5.64152,8.43339Z"/><path id="path2053" class="cls-4" d="M5.89008,8.7207c.08257.15241.198.21054.20393.32364a.97319.97319,0,0,0,.05516.2648c-.09719-.02591-.12165-.03438-.1479-.22914C5.98508,8.94314,5.87551,8.84659,5.89008,8.7207Z"/><path id="path1093" class="cls-42" d="M10.39615,11.27246a.24816.24816,0,0,0,.04342.15064.92877.92877,0,0,0-.67339.05253c-.08589.041-.18979-.04686-.08905-.13013C9.82041,11.2294,10.1519,11.29525,10.39615,11.27246Zm-2.81273-.003a.33757.33757,0,0,1-.02355.15193.88514.88514,0,0,1,.66836.0731c.15052.06223.16268-.04552.13609-.0828a.31621.31621,0,0,0-.24594-.14036C8.04393,11.27024,7.75732,11.26767,7.58342,11.26942Zm.183-1.05857a.17508.17508,0,0,0-.19371.06533,8.19042,8.19042,0,0,1-.66041.56662c-.07479.065-.15122.18155.16782.29807a1.63347,1.63347,0,0,0,.3915.09606c.06019-.00169.06.08818.04885.11214-.02542.04785-.007.06614-.05837.11219-.05353.04517.00573.10366.0478.06392.17962-.156.47091-.05615.75162.03512.06632.01835.18769.01321.18663-.0783a.173.173,0,0,1,.11757-.17273,5.877,5.877,0,0,0,.85522.005c.10168-.01321.10781.1393.16221.19943a.31849.31849,0,0,0,.28089.00672.73979.73979,0,0,1,.61542-.004c.05.038.0894.00719.061-.03144a.46449.46449,0,0,1-.05393-.119c-.04564-.09286-.00924-.11559.03862-.12231.54068-.0697.71323-.25418.54793-.40458a8.45048,8.45048,0,0,1-.65585-.59666c-.05552-.05867-.09221-.08221-.20773-.03418a3.2517,3.2517,0,0,1-1.24036.28673A3.64092,3.64092,0,0,1,7.76638,10.21085Z"/><path id="path2056" class="cls-5" d="M10.39615,11.27246a.24816.24816,0,0,0,.04342.15064.92877.92877,0,0,0-.67339.05253c-.08589.041-.18979-.04686-.08905-.13013C9.82041,11.2294,10.1519,11.29525,10.39615,11.27246Zm-2.81273-.003a.33757.33757,0,0,1-.02355.15193.88514.88514,0,0,1,.66836.0731c.15052.06223.16268-.04552.13609-.0828a.31621.31621,0,0,0-.24594-.14036C8.04393,11.27024,7.75732,11.26767,7.58342,11.26942Zm.183-1.05857a.17508.17508,0,0,0-.19371.06533,8.19042,8.19042,0,0,1-.66041.56662c-.07479.065-.15122.18155.16782.29807a1.63347,1.63347,0,0,0,.3915.09606c.06019-.00169.06.08818.04885.11214-.02542.04785-.007.06614-.05837.11219-.05353.04517.00573.10366.0478.06392.17962-.156.47091-.05615.75162.03512.06632.01835.18769.01321.18663-.0783a.173.173,0,0,1,.11757-.17273,5.877,5.877,0,0,0,.85522.005c.10168-.01321.10781.1393.16221.19943a.31849.31849,0,0,0,.28089.00672.73979.73979,0,0,1,.61542-.004c.05.038.0894.00719.061-.03144a.46449.46449,0,0,1-.05393-.119c-.04564-.09286-.00924-.11559.03862-.12231.54068-.0697.71323-.25418.54793-.40458a8.45048,8.45048,0,0,1-.65585-.59666c-.05552-.05867-.09221-.08221-.20773-.03418a3.2517,3.2517,0,0,1-1.24036.28673A3.64092,3.64092,0,0,1,7.76638,10.21085Z"/><g id="g2095"><path id="path973" class="cls-8" d="M11.5094,9.18162c.02449.08432.3617-.06977.53309-.40687C11.81805,9.01947,11.45477,9.01707,11.5094,9.18162Z"/><path id="path2094" class="cls-8" d="M11.5094,9.18162c.02449.08432.3617-.06977.53309-.40687C11.81805,9.01947,11.45477,9.01707,11.5094,9.18162Z"/></g><g id="g2091"><path id="path1054" class="cls-43" d="M12.07127,8.66917c-.10266.14272-.23973.246-.24591.35913a.93544.93544,0,0,1-.05778.26479c.10181-.02591.12743-.03438.15493-.22914C11.93947,8.9271,12.08654,8.79506,12.07127,8.66917Z"/><path id="path2090" class="cls-43" d="M12.07127,8.66917c-.10266.14272-.23973.246-.24591.35913a.93544.93544,0,0,1-.05778.26479c.10181-.02591.12743-.03438.15493-.22914C11.93947,8.9271,12.08654,8.79506,12.07127,8.66917Z"/></g><g id="g2087"><path id="path1053" class="cls-44" d="M12.238,8.47221a.27583.27583,0,0,0-.15836.27616.61473.61473,0,0,1-.10241.34457c.12873.01783.15218-.18388.16681-.33382A.64829.64829,0,0,1,12.238,8.47221Z"/><path id="path2086" class="cls-44" d="M12.238,8.47221a.27583.27583,0,0,0-.15836.27616.61473.61473,0,0,1-.10241.34457c.12873.01783.15218-.18388.16681-.33382A.64829.64829,0,0,1,12.238,8.47221Z"/></g><g id="g2135"><path id="path1045" class="cls-45" d="M12.58719,5.41258c.01119.08852.08494.09655.0635-.02848a.58729.58729,0,0,1,0-.26028.82913.82913,0,0,0-.00244-.35291c-.02175-.07757-.09381-.03212-.0635.02857a.4936.4936,0,0,1,.01219.2851A.85834.85834,0,0,0,12.58719,5.41258Z"/><path id="path2134" class="cls-45" d="M12.58719,5.41258c.01119.08852.08494.09655.0635-.02848a.58729.58729,0,0,1,0-.26028.82913.82913,0,0,0-.00244-.35291c-.02175-.07757-.09381-.03212-.0635.02857a.4936.4936,0,0,1,.01219.2851A.85834.85834,0,0,0,12.58719,5.41258Z"/></g><g id="g2139"><path id="path1044" class="cls-46" d="M12.79517,5.94452c.00541.0962-.0708.11951-.06741-.02.00345-.14565.10491-.2789.04268-.50062A1.09434,1.09434,0,0,1,12.757,5.011c.01743-.10478.09082-.03632.06292.04528a.84428.84428,0,0,0,.02922.36736C12.91957,5.68942,12.791,5.81887,12.79517,5.94452Z"/><path id="path2138" class="cls-46" d="M12.79517,5.94452c.00541.0962-.0708.11951-.06741-.02.00345-.14565.10491-.2789.04268-.50062A1.09434,1.09434,0,0,1,12.757,5.011c.01743-.10478.09082-.03632.06292.04528a.84428.84428,0,0,0,.02922.36736C12.91957,5.68942,12.791,5.81887,12.79517,5.94452Z"/></g><g id="g2143"><path id="path1043" class="cls-47" d="M12.99513,5.62806c-.01029.05668-.07816.06183-.05843-.01823a.26527.26527,0,0,0,0-.16665.374.374,0,0,1,.00224-.226c.02-.04966.08633-.02056.05843.01829a.22552.22552,0,0,0-.01121.18255A.38662.38662,0,0,1,12.99513,5.62806Z"/><path id="path2142" class="cls-47" d="M12.99513,5.62806c-.01029.05668-.07816.06183-.05843-.01823a.26527.26527,0,0,0,0-.16665.374.374,0,0,1,.00224-.226c.02-.04966.08633-.02056.05843.01829a.22552.22552,0,0,0-.01121.18255A.38662.38662,0,0,1,12.99513,5.62806Z"/></g><g id="g2147"><path id="path1057" class="cls-26" d="M12.57947,5.73884c-.09976.04235-.22871-.24121-.1334-.29441C12.52,5.42584,12.68912,5.6849,12.57947,5.73884Z"/><path id="path2146" class="cls-26" d="M12.57947,5.73884c-.09976.04235-.22871-.24121-.1334-.29441C12.52,5.42584,12.68912,5.6849,12.57947,5.73884Z"/></g><g id="g2155"><path id="path1047" class="cls-48" d="M12.01992,6.30009c.04469.06814.11594.02859.07557-.08082a1.84355,1.84355,0,0,0-.07571-.225,1.24126,1.24126,0,0,0-.19409-.20471c-.05276-.0541-.09655-.002-.04818.04439a1.31239,1.31239,0,0,1,.15788.19414C12.00143,6.13966,11.97236,6.22866,12.01992,6.30009Z"/><path id="path2154" class="cls-48" d="M12.01992,6.30009c.04469.06814.11594.02859.07557-.08082a1.84355,1.84355,0,0,0-.07571-.225,1.24126,1.24126,0,0,0-.19409-.20471c-.05276-.0541-.09655-.002-.04818.04439a1.31239,1.31239,0,0,1,.15788.19414C12.00143,6.13966,11.97236,6.22866,12.01992,6.30009Z"/></g><g id="g2160"><path id="path1046" class="cls-48" d="M11.89668,6.37311c.0447.06815.136.02647.06645-.06712-.057-.07575-.13821-.13763-.1442-.21588a.57734.57734,0,0,0-.112-.30056c-.05275-.0541-.1137.022-.05731.05808a.45586.45586,0,0,1,.10314.28546C11.75492,6.231,11.84913,6.30169,11.89668,6.37311Z"/><path id="path2159" class="cls-48" d="M11.89668,6.37311c.0447.06815.136.02647.06645-.06712-.057-.07575-.13821-.13763-.1442-.21588a.57734.57734,0,0,0-.112-.30056c-.05275-.0541-.1137.022-.05731.05808a.45586.45586,0,0,1,.10314.28546C11.75492,6.231,11.84913,6.30169,11.89668,6.37311Z"/></g><path id="path1071" class="cls-5" d="M7.97412,9.54a.78087.78087,0,0,1,.30134.38349,1.24214,1.24214,0,0,0,.15526.39261.60044.60044,0,0,1-.242-.379A1.30236,1.30236,0,0,0,7.97412,9.54Z"/><path id="path2163" class="cls-5" d="M7.97412,9.54a.78087.78087,0,0,1,.30134.38349,1.24214,1.24214,0,0,0,.15526.39261.60044.60044,0,0,1-.242-.379A1.30236,1.30236,0,0,0,7.97412,9.54Z"/><path id="path2167" class="cls-5" d="M7.81891,9.54a.68408.68408,0,0,1,.24653.37432,1.348,1.348,0,0,0,.1781.38349.63752.63752,0,0,1-.26026-.36526A1.27638,1.27638,0,0,0,7.81891,9.54Z"/><path id="path2168" class="cls-5" d="M10.18372,9.54a.68738.68738,0,0,0-.252.37652,1.34635,1.34635,0,0,1-.18206.38575.64169.64169,0,0,0,.266-.36741A1.27239,1.27239,0,0,1,10.18372,9.54Z"/><path id="path2169" class="cls-5" d="M10.02507,9.54a.78751.78751,0,0,0-.308.38575,1.23775,1.23775,0,0,1-.1587.39492.60305.60305,0,0,0,.24734-.38123A1.30384,1.30384,0,0,1,10.02507,9.54Z"/><g id="g4343"><path id="path1082" class="cls-5" d="M9.56649,9.90059a.05338.05338,0,0,0-.03635-.057c-.04257-.016-.085-.029-.12719-.04108a.05661.05661,0,0,0-.075.04564c-.00023.03763-.002.06959,0,.0981.00262.03553.00937.03816.03181.04342a.29734.29734,0,0,1,.11813.03652.04708.04708,0,0,0,.07043-.02735A.54891.54891,0,0,0,9.56649,9.90059Z"/><path id="path1083" class="cls-5" d="M9.0494,9.90061a.05562.05562,0,0,1,.03024-.05931A.262.262,0,0,1,9.19551,9.823c.04437-.0007.05554.00935.0557.032.00021.03763.00176.07415,0,.10267-.00234.03552-.00156.03815-.02162.04341a.29288.29288,0,0,0-.11914.032.03437.03437,0,0,1-.05611-.02962A.89317.89317,0,0,0,9.0494,9.90061Z"/><path id="path1084" class="cls-5" d="M8.42158,9.89374a.0534.0534,0,0,1,.03653-.057c.04277-.016.08537-.029.12779-.04108a.05686.05686,0,0,1,.07538.04564c.00023.03763.002.06959,0,.09811-.00263.03552-.00941.03815-.032.04341a.29968.29968,0,0,0-.11867.03652A.04737.04737,0,0,1,8.43988,9.992.54717.54717,0,0,1,8.42158,9.89374Z"/><path id="path1085" class="cls-5" d="M8.94112,9.89376a.05557.05557,0,0,0-.03038-.05931.2643.2643,0,0,0-.11641-.01829c-.04458-.0007-.05581.00935-.056.032-.0002.03763-.00177.07415,0,.10267.00235.03553.00157.03816.02172.04341a.29516.29516,0,0,1,.1197.032.03455.03455,0,0,0,.05638-.02963A.889.889,0,0,1,8.94112,9.89376Z"/><path id="path2170" class="cls-5" d="M9.56649,9.90059a.05338.05338,0,0,0-.03635-.057c-.04257-.016-.085-.029-.12719-.04108a.05661.05661,0,0,0-.075.04564c-.00023.03763-.002.06959,0,.0981.00262.03553.00937.03816.03181.04342a.29734.29734,0,0,1,.11813.03652.04708.04708,0,0,0,.07043-.02735A.54891.54891,0,0,0,9.56649,9.90059Z"/><path id="path2171" class="cls-5" d="M9.0494,9.90061a.05562.05562,0,0,1,.03024-.05931A.262.262,0,0,1,9.19551,9.823c.04437-.0007.05554.00935.0557.032.00021.03763.00176.07415,0,.10267-.00234.03552-.00156.03815-.02162.04341a.29288.29288,0,0,0-.11914.032.03437.03437,0,0,1-.05611-.02962A.89317.89317,0,0,0,9.0494,9.90061Z"/><path id="path2172" class="cls-5" d="M8.42158,9.89374a.0534.0534,0,0,1,.03653-.057c.04277-.016.08537-.029.12779-.04108a.05686.05686,0,0,1,.07538.04564c.00023.03763.002.06959,0,.09811-.00263.03552-.00941.03815-.032.04341a.29968.29968,0,0,0-.11867.03652A.04737.04737,0,0,1,8.43988,9.992.54717.54717,0,0,1,8.42158,9.89374Z"/><path id="path2173" class="cls-5" d="M8.94112,9.89376a.05557.05557,0,0,0-.03038-.05931.2643.2643,0,0,0-.11641-.01829c-.04458-.0007-.05581.00935-.056.032-.0002.03763-.00177.07415,0,.10267.00235.03553.00157.03816.02172.04341a.29516.29516,0,0,1,.1197.032.03455.03455,0,0,0,.05638-.02963A.889.889,0,0,1,8.94112,9.89376Z"/></g><path id="path2174" class="cls-5" d="M8.46038,10.13115c.0464.08748.09969.22064.19628.19628C8.65818,10.26046,8.55242,10.21407,8.46038,10.13115Z"/><path id="path2175" class="cls-5" d="M8.60419,10.16078c.18759.0769.34959.05791.36977.17582C8.798,10.35559,8.73362,10.28331,8.60419,10.16078Z"/><path id="path2176" class="cls-5" d="M9.52411,10.14256c-.047.08247-.10105.208-.199.185C9.32361,10.26447,9.43082,10.22073,9.52411,10.14256Z"/><path id="path2177" class="cls-5" d="M9.3925,10.16763c-.19032.073-.35468.05495-.37516.16684C9.1959,10.3525,9.26119,10.2839,9.3925,10.16763Z"/><path id="path2178" class="cls-49" d="M9.954,8.29788l.40862.00006a.55582.55582,0,0,0,.21912.4154h-.783A.50378.50378,0,0,0,9.954,8.29788Z"/><path id="path2179" class="cls-4" d="M9.954,8.29788l.40862.00006a.55582.55582,0,0,0,.21912.4154h-.783A.50378.50378,0,0,0,9.954,8.29788Z"/><path id="path2183" class="cls-11" d="M10.30231,10.2396a.34956.34956,0,0,0-.081.01987,3.74785,3.74785,0,0,1-1.25493.25985,3.30725,3.30725,0,0,1-1.21824-.27055.11234.11234,0,0,0-.07184-.00153.1495.1495,0,0,0-.06573.03363,5.64845,5.64845,0,0,1-.57779.50594.06336.06336,0,0,0,.02446.10547h.00153a4.09412,4.09412,0,0,0,1.93818.40659,4.45134,4.45134,0,0,0,1.91678-.39742.11726.11726,0,0,0,.0642-.04738.05068.05068,0,0,0,.00306-.03975.09252.09252,0,0,0-.03057-.04127h-.00153a2.8895,2.8895,0,0,1-.5732-.509A.07474.07474,0,0,0,10.30231,10.2396Zm.00153.0214c.0248-.00248.04376.00131.0535.01528a2.88455,2.88455,0,0,0,.57778.51359.07534.07534,0,0,1,.02446.0321.02434.02434,0,0,1-.00153.0214.103.103,0,0,1-.052.03668,4.4156,4.4156,0,0,1-1.90914.39742,4.065,4.065,0,0,1-1.93054-.40659.04273.04273,0,0,1-.01987-.06725,5.69492,5.69492,0,0,0,.58084-.50748.12249.12249,0,0,1,.0535-.02751.10111.10111,0,0,1,.05961,0,3.31733,3.31733,0,0,0,1.22436.27361,3.77861,3.77861,0,0,0,1.2641-.26138A.32958.32958,0,0,1,10.30384,10.261Z"/><path id="path1912" class="cls-4" d="M13.30371,7.17533c-.00327.01736.04365.043.05481.02969a.70778.70778,0,0,0,.13013-.25109c.004-.02092-.06328-.04458-.07765-.0274A.65356.65356,0,0,0,13.30371,7.17533Z"/><path id="text4353" class="cls-50" d="M10.41754,10.68532a.17965.17965,0,0,1,.0335.05485.32008.32008,0,0,1,.01357.07595l-.03547.00289a.36313.36313,0,0,0-.04411-.0695q-.01633-.01916-.05279-.05448t-.07453-.06883q-.03832-.03383-.09765-.07817a.19175.19175,0,0,1-.02644-.02209.08492.08492,0,0,1-.01313-.03837.51571.51571,0,0,1-.00637-.072l.12388.10075q.07008.05771.116.10193.03538.03407.06351.067m-.43932-.26473-.00743.09109-.14586-.00394.01095-.093.14234.00581m.3837.40775-.34754.10589-.064-.08838.30047-.09155a.36413.36413,0,0,0-.03166-.03952.13042.13042,0,0,0-.03981-.02714.06542.06542,0,0,1-.02073.044.119.119,0,0,1-.04983.02827.15543.15543,0,0,1-.08006.00338A.09418.09418,0,0,1,9.97,10.72845a.18047.18047,0,0,1-.02978-.102q-.0023-.06988.03827-.08225a.20172.20172,0,0,1,.14218.02925.373.373,0,0,1,.13757.11156l.1037.14329m-.26692-.18557a.17863.17863,0,0,0-.03932-.01379.05219.05219,0,0,0-.0265.00054.03133.03133,0,0,0-.0207.017.02265.02265,0,0,0,.0028.02413.02784.02784,0,0,0,.01818.00993.062.062,0,0,0,.02757-.00245.05143.05143,0,0,0,.02-.01124.10829.10829,0,0,0,.018-.02413m-.37232-.07113-.02129.09016-.14455-.01329.022-.09108.14388.01421m.34262.352-.0772.01771a.24317.24317,0,0,1-.0784.0058.16361.16361,0,0,1-.06959-.02325.147.147,0,0,1-.06731.05847.34075.34075,0,0,1-.07418.02539l-.05477.01257-.05016-.09206.05477-.01256a.41523.41523,0,0,0,.059-.01659.25259.25259,0,0,0,.04027-.02409.26973.26973,0,0,0-.0428-.02254A.06152.06152,0,0,0,9.67,10.84871l-.00948.00522-.00579.012-.02406.00323a.10189.10189,0,0,1-.01524-.09473.12833.12833,0,0,1,.08889-.05009.31515.31515,0,0,1,.12385-.00748.08977.08977,0,0,1,.06921.04086.05809.05809,0,0,1,.00712.03568.20783.20783,0,0,1-.018.05209.07335.07335,0,0,0,.02535.00561.09257.09257,0,0,0,.026-.00178l.0772-.01771.05016.09205m-.369.08584L9.621,11.0213a.135.135,0,0,1-.10336-.01924.25127.25127,0,0,1-.07759-.11968L9.403,10.78294a.11011.11011,0,0,0-.03415-.05041.21306.21306,0,0,0-.042-.0211l.02558-.09634a.24235.24235,0,0,1,.06409.0483.2456.2456,0,0,1,.04468.07867l.02561.06873a.2944.2944,0,0,0,.05275.09883.05072.05072,0,0,0,.04609.01677l.07528-.0118.03536.0949m-.32172-.34558-.04861.0856-.13755-.03176.049-.08636.13715.03252m.08.38746-.343.03107-.02081-.0967.28821-.02611a.10686.10686,0,0,0-.03072-.0389.3844.3844,0,0,0-.04523-.02852l.02562-.08858a.20147.20147,0,0,1,.06951.05822.26881.26881,0,0,1,.03645.09673l.02.09279m-.27538.0439a.75433.75433,0,0,1-.10231-.00915.48244.48244,0,0,1-.07922-.021.25791.25791,0,0,1-.059.01745.44609.44609,0,0,1-.07551.00216l-.09006-.003a.11289.11289,0,0,1-.05757-.0145.10541.10541,0,0,1-.03539-.04287.18941.18941,0,0,1-.07136.04076.23978.23978,0,0,1-.07767.00856l-.079-.00263.0077-.09751.079.00263a.20517.20517,0,0,0,.09836-.01794.09514.09514,0,0,0,.0569-.08221l.03618.0048L8.726,10.907l-.00369.03259a.03372.03372,0,0,0,.01693.03111.07829.07829,0,0,0,.04324.01366l.068.00226a.27379.27379,0,0,0,.0971-.009.05759.05759,0,0,0,.03914-.05369.02087.02087,0,0,1,.0095-.01514l.02138-.01115.02185-.01006a.17052.17052,0,0,1,.00018.0187l-.00063.01507a.21765.21765,0,0,1-.013.052.36854.36854,0,0,0,.045.01264q.02505.0055.053.00895a.0576.0576,0,0,0-.01132-.032.06063.06063,0,0,1-.01175-.02663.024.024,0,0,1,.005-.01421l.013-.01071.05022-.03966a.16667.16667,0,0,1,.01774.04192.13428.13428,0,0,1,.003.04611l-.01071.13551m-.5207-.40065L8.5719,10.756l-.06534-.04032-.06431.048-.086-.05185.08206-.05838.06936.03876.067-.049.0838.0515m-.13622.37346-.33578-.055.03684-.09467.28215.04623a.075.075,0,0,0-.00588-.04354.233.233,0,0,0-.02536-.03747l.07515-.07581a.12631.12631,0,0,1,.0306.07092.24858.24858,0,0,1-.02237.09852l-.03535.09084m-.28266-.04383L8.167,11.00678q-.06069-.01459-.0692-.0534a.20058.20058,0,0,1,.03858-.12739l.05481-.09593a.086.086,0,0,0,.015-.05419.10222.10222,0,0,0-.0167-.03273l.10411-.07067a.12653.12653,0,0,1,.01162.06329.21692.21692,0,0,1-.03061.08146l-.03789.0663a.26769.26769,0,0,0-.04126.1011.02752.02752,0,0,0,.02381.03061l.07262.01748-.05231.09154m-.172-.36342-.11785.04973-.081-.07882.11887-.05019.07994.07928m-.05011.30447a.31113.31113,0,0,1-.07223.06517.195.195,0,0,1-.07885.02678.39863.39863,0,0,1-.10939-.005.682.682,0,0,1-.1271-.03179.35468.35468,0,0,1-.15812-.09281.07237.07237,0,0,1,.00334-.10161.32313.32313,0,0,1,.088-.07266,1.09225,1.09225,0,0,1,.17518-.07271l.01791.02359q-.093.036-.1283.05461a.19184.19184,0,0,0-.05637.04421q-.028.033.00849.07347a.3161.3161,0,0,0,.12594.07192.4844.4844,0,0,0,.1653.03066.1355.1355,0,0,0,.10466-.03191.10278.10278,0,0,0,.0221-.0425.37326.37326,0,0,0,.00733-.07725l.11459-.06973a.3085.3085,0,0,1-.00491.06992.20453.20453,0,0,1-.04432.07471l-.05328.06293"/></g></g></g></g></g></svg>