<svg xmlns="http://www.w3.org/2000/svg" viewBox="0 0 23.26541 15.51028"><defs><style>.cls-1{fill:#ce2028;}.cls-2{fill:#010101;}.cls-3{fill:#f9d614;}.cls-4{fill:none;stroke:#010101;stroke-linecap:round;stroke-width:0.07755px;}</style></defs><g id="Layer_2" data-name="Layer 2"><g id="Layer_20" data-name="Layer 20"><g id="Country_Plates" data-name="Country Plates"><rect class="cls-1" width="23.26541" height="15.51028"/><rect class="cls-2" y="7.75514" width="23.26541" height="7.75514"/><path class="cls-3" d="M10.30526,5.92783h1.01417l.31328-.96452.31327.96452h1.01417l-.82036.596.31328.96453-.82036-.596-.82037.596.31328-.96453Z"/><path class="cls-3" d="M15.646,7.35988a4.03284,4.03284,0,0,1,0,.79054l-.77178-.076a3.25754,3.25754,0,0,0,0-.63852l.77178-.076m-.15423,1.5659a4.03287,4.03287,0,0,1-.30253.73036l-.68394-.36557a3.25736,3.25736,0,0,0,.24435-.58991l.74212.22512M14.75,10.31345a4.03224,4.03224,0,0,1-.559.559l-.492-.59948a3.2571,3.2571,0,0,0,.4515-.4515l.59948.492m-1.21631.9982a4.03287,4.03287,0,0,1-.73036.30253l-.22512-.74212a3.25808,3.25808,0,0,0,.58991-.24435l.36557.68394m-1.50571.45676a4.03294,4.03294,0,0,1-.79055,0l.076-.77178a3.25744,3.25744,0,0,0,.63851,0l.076.77178m-1.5659-.15423a4.03287,4.03287,0,0,1-.73036-.30253l.36557-.68394a3.25808,3.25808,0,0,0,.58991.24435l-.22512.74212m2.34125-7.71806a4.03287,4.03287,0,0,1,.73036.30253l-.36557.68394a3.25732,3.25732,0,0,0-.58991-.24434l.22512-.74213m1.38767.74173a4.03224,4.03224,0,0,1,.559.559l-.59948.492a3.2571,3.2571,0,0,0-.4515-.4515l.492-.59948m.9982,1.21631a4.03267,4.03267,0,0,1,.30253.73037l-.74212.22512a3.25706,3.25706,0,0,0-.24435-.58991Z"/><path class="cls-3" d="M14.50659,11.62579l.377-.44213c.19844.192.46565.38134.65945.55334a2.26077,2.26077,0,0,1,.46248.51037c.17616.28637-.02165.61069-.29594.42032-.14834-.10294-.24154-.38086-.46878-.61083a1.22684,1.22684,0,0,0-.72393-.36595C14.49656,11.68743,14.49062,11.64452,14.50659,11.62579Z"/><path id="path13009" class="cls-2" d="M15.066,11.493a.05206.05206,0,1,1-.026-.04515.052.052,0,0,1,.026.04515Z"/><path class="cls-3" d="M12.02046,4.07305l-.07367.69021a3.01612,3.01612,0,1,1-2.22185,5.32l-.442.539a3.70918,3.70918,0,1,0,2.73756-6.54921Z"/><path class="cls-2" d="M11.96155,10.22877l1.04681.619.22757.883,1.20155-.091.52795-.619L13.00836,9.66441Z"/><path class="cls-3" d="M14.45885,11.565c-1.346-.89515-2.202-1.37851-3.492-2.112a1.55988,1.55988,0,0,1-.673-2.22418c.03908.79553,3.18316,2.97917,4.51169,3.92863Z"/><path id="path11763" class="cls-4" d="M11.17182,8.66091a41.92387,41.92387,0,0,0,3.506,2.65409"/><path id="path13009-2" data-name="path13009" class="cls-2" d="M15.44956,11.82723a.05206.05206,0,1,1-.026-.04515.05206.05206,0,0,1,.026.04515Z"/><path id="path13009-3" data-name="path13009" class="cls-2" d="M15.78658,12.16973a.05207.05207,0,1,1-.026-.04515.05207.05207,0,0,1,.026.04515Z"/></g></g></g></svg>