<svg xmlns="http://www.w3.org/2000/svg" viewBox="0 0 2097.4873 1349.72744"><defs><style>.cls-1{isolation:isolate;}.cls-2{font-size:63.51456px;fill:#ffc32e;font-family:NeutraText-Bold, Neutra Text;letter-spacing:-0.07em;}.cls-10,.cls-11,.cls-15,.cls-16,.cls-2,.cls-22,.cls-24,.cls-25,.cls-27,.cls-28,.cls-29,.cls-30,.cls-31,.cls-32,.cls-33,.cls-34,.cls-35,.cls-36,.cls-39,.cls-4,.cls-40,.cls-42,.cls-43,.cls-5,.cls-6,.cls-9{font-weight:700;}.cls-3{letter-spacing:-0.06em;}.cls-10,.cls-11,.cls-15,.cls-16,.cls-22,.cls-24,.cls-25,.cls-27,.cls-28,.cls-29,.cls-30,.cls-31,.cls-32,.cls-33,.cls-34,.cls-35,.cls-36,.cls-39,.cls-4,.cls-40,.cls-42,.cls-43,.cls-5,.cls-6,.cls-9{font-size:12px;}.cls-25,.cls-27,.cls-29,.cls-4,.cls-6{fill:#f8f4e8;}.cls-11,.cls-15,.cls-22,.cls-30,.cls-36,.cls-4,.cls-40,.cls-43,.cls-6,.cls-9{font-family:TradeGothicLT-BoldCondTwenty, TradeGothic LT CondEighteen;}.cls-10,.cls-15,.cls-20,.cls-27,.cls-28,.cls-32,.cls-35,.cls-4,.cls-5{letter-spacing:-0.06002em;}.cls-10,.cls-16,.cls-24,.cls-28,.cls-31,.cls-32,.cls-33,.cls-38,.cls-5{mix-blend-mode:multiply;}.cls-5{fill:#72683d;}.cls-10,.cls-16,.cls-24,.cls-25,.cls-27,.cls-28,.cls-29,.cls-31,.cls-32,.cls-33,.cls-34,.cls-35,.cls-39,.cls-42,.cls-5{font-family:Gotham-Bold, Gotham;}.cls-16,.cls-25,.cls-31,.cls-33,.cls-34,.cls-42,.cls-6,.cls-8,.cls-9{letter-spacing:-0.05998em;}.cls-7{letter-spacing:-0.11495em;}.cls-11,.cls-15,.cls-22,.cls-30,.cls-36,.cls-40,.cls-43,.cls-45,.cls-9{fill:#fff;}.cls-10,.cls-16{fill:#cca55e;}.cls-11{letter-spacing:-0.00997em;}.cls-12{letter-spacing:-0.02799em;}.cls-13{letter-spacing:-0.047em;}.cls-14,.cls-43{letter-spacing:-0.01001em;}.cls-17{letter-spacing:-0.11499em;}.cls-18{letter-spacing:-0.078em;}.cls-19{letter-spacing:-0.09696em;}.cls-21{letter-spacing:-0.09701em;}.cls-22,.cls-26{letter-spacing:-0.07796em;}.cls-23,.cls-24,.cls-29,.cls-30,.cls-39{letter-spacing:-0.06006em;}.cls-24,.cls-28,.cls-31,.cls-39,.cls-42{fill:#d16428;}.cls-32,.cls-33{fill:#79aeb2;}.cls-34,.cls-35{fill:#916376;}.cls-36{letter-spacing:-0.01998em;}.cls-37{letter-spacing:-0.11503em;}.cls-40{letter-spacing:-0.03003em;}.cls-41{letter-spacing:-0.08504em;}.cls-44{fill:#75acdd;}.cls-46{fill:#f5b41a;}</style></defs><g class="cls-1"><g id="Layer_2" data-name="Layer 2"><g id="Layer_20" data-name="Layer 20"><text class="cls-2" transform="translate(1170.67102 349.60764)">CC<tspan class="cls-3" x="81.93408" y="0">CP</tspan></text><g id="Country_Plates" data-name="Country Plates"><text class="cls-4" transform="translate(116.7453 920.97183)">COLOMBIA</text><text class="cls-5" transform="translate(173.74799 920.97183)">1</text><text class="cls-6" transform="translate(0 956.41425)">ECUADOR</text><text class="cls-5" transform="translate(54.15302 956.41425)">2</text><text class="cls-4" transform="translate(60.97253 1034.89343)">PERU</text><text class="cls-5" transform="translate(107.54059 1034.89343)">2</text><text class="cls-4" transform="translate(185.39154 1108.77679)">BOLIVIA</text><text class="cls-5" transform="translate(236.2135 1108.77679)">2</text><text class="cls-4" transform="translate(241.83392 1191.94427)">PARAGU<tspan class="cls-7" x="30.33545" y="0">A</tspan><tspan class="cls-8" x="34.28369" y="0">Y</tspan></text><text class="cls-5" transform="translate(297.62366 1191.94427)">2</text><text class="cls-4" transform="translate(281.67566 1285.69427)">URUGU<tspan class="cls-7" x="26.3999" y="0">A</tspan><tspan x="30.34814" y="0">Y</tspan></text><text class="cls-5" transform="translate(335.4975 1285.69427)">2</text><text class="cls-9" transform="translate(978.35394 756.5159)">SUDAN</text><text class="cls-10" transform="translate(1028.43225 756.5159)">1</text><text class="cls-11" transform="translate(667.33624 756.5159)">SAHARAN S<tspan class="cls-12" x="46.22314" y="0">T</tspan><tspan class="cls-13" x="50.55518" y="0">A</tspan><tspan class="cls-14" x="55.31885" y="0">TES</tspan></text><text class="cls-10" transform="translate(746.69678 756.5159)">1</text><text class="cls-10" transform="translate(578.51947 756.5159)">2</text><text class="cls-15" transform="translate(523.02936 629.08731)">MOROCCO</text><text class="cls-16" transform="translate(578.53119 629.08731)">3</text><text class="cls-15" transform="translate(765.60071 574.00919)">TUNISIA</text><text class="cls-10" transform="translate(816.42291 574.00919)">2</text><text class="cls-9" transform="translate(1157.7063 893.22586)">SOMALIA</text><text class="cls-10" transform="translate(1210.18988 893.22586)">2</text><text class="cls-9" transform="translate(1038.47015 846.11508)">ETHIOPIA</text><text class="cls-10" transform="translate(1093.13837 846.11508)">1</text><text class="cls-9" transform="translate(1044.06195 940.02939)">KEN<tspan class="cls-17" x="14.49561" y="0">Y</tspan><tspan x="18.44336" y="0">A</tspan></text><text class="cls-10" transform="translate(1091.9328 940.02939)">2</text><text class="cls-9" transform="translate(1045.26373 1020.86237)">SE AFRICAN S<tspan class="cls-18" x="49.99072" y="0">T</tspan><tspan class="cls-19" x="53.72266" y="0">A</tspan><tspan class="cls-20" x="57.88672" y="0">TES</tspan></text><text class="cls-10" transform="translate(1123.02716 1020.86237)">1</text><text class="cls-9" transform="translate(997.26544 1101.69531)">ZIMBABWE</text><text class="cls-10" transform="translate(1055.26178 1101.69531)">1</text><text class="cls-15" transform="translate(929.72174 1182.52649)">BOTS<tspan class="cls-21" x="19.11572" y="0">W</tspan><tspan class="cls-8" x="25.95557" y="0">ANA</tspan></text><text class="cls-10" transform="translate(986.29272 1182.52649)">2</text><text class="cls-15" transform="translate(780.96924 940.02939)">CAMEROON</text><text class="cls-10" transform="translate(839.63354 940.02939)">1</text><text class="cls-22" transform="translate(1899.05896 684.27109)">T<tspan class="cls-23" x="3.73242" y="0">AI</tspan><tspan class="cls-21" x="10.95605" y="0">W</tspan><tspan class="cls-23" x="17.7959" y="0">AN</tspan></text><text class="cls-24" transform="translate(1949.25842 684.27109)">3</text><text class="cls-9" transform="translate(1483.49261 693.64609)">INDIA</text><text class="cls-25" transform="translate(1530.04846 693.64609)">3</text><text class="cls-15" transform="translate(1352.92657 639.43567)">PAKIS<tspan class="cls-26" x="21.71924" y="0">T</tspan><tspan x="25.45166" y="0">AN</tspan></text><text class="cls-27" transform="translate(1406.94141 639.43567)">2</text><text class="cls-9" transform="translate(1345.34259 546.16873)">AFGHANIS<tspan class="cls-18" x="36.88721" y="0">T</tspan><tspan x="40.61914" y="0">AN</tspan></text><text class="cls-28" transform="translate(1406.94141 546.16873)">2</text><text class="cls-9" transform="translate(1925.78839 441.47324)">N KOREA</text><text class="cls-29" transform="translate(1977.94971 441.47324)">3</text><text class="cls-30" transform="translate(1948.68146 521.37024)">S KOREA</text><text class="cls-29" transform="translate(2000.50574 521.37024)">3</text><text class="cls-9" transform="translate(2042.67462 601.26727)">JAPAN</text><text class="cls-25" transform="translate(2089.81921 601.26727)">4</text><text class="cls-30" transform="translate(1893.14978 1138.77725)">AUSTRALIA</text><text class="cls-31" transform="translate(1948.85022 1138.77725)">4</text><text class="cls-9" transform="translate(1118.10687 595.01007)">IRAQ</text><text class="cls-25" transform="translate(1163.35565 595.01007)">3</text><text class="cls-9" transform="translate(1063.41162 671.18195)">JORDAN</text><text class="cls-32" transform="translate(1113.92828 671.18195)">2</text><text class="cls-15" transform="translate(1180.38281 671.18195)">GULF S<tspan class="cls-18" x="25.66748" y="0">T</tspan><tspan class="cls-19" x="29.39941" y="0">A</tspan><tspan x="33.56348" y="0">TES</tspan></text><text class="cls-33" transform="translate(1240.10309 671.18195)">3</text><text class="cls-15" transform="translate(1000.5719 518.18503)">LEBANON</text><text class="cls-32" transform="translate(1055.26453 518.18503)">1</text><text class="cls-9" transform="translate(1121.46375 518.18503)">SYRIA</text><text class="cls-32" transform="translate(1168.6684 518.18503)">2</text><text class="cls-9" transform="translate(594.22803 355.26959)">FRANCE</text><text class="cls-25" transform="translate(645.4165 355.26959)">3</text><text class="cls-15" transform="translate(606.31506 278.48215)">BENELUX</text><text class="cls-34" transform="translate(659.47662 278.48215)">3</text><text class="cls-15" transform="translate(503.3103 201.1384)">UK</text><text class="cls-35" transform="translate(544.55615 201.1384)">5</text><text class="cls-27" transform="translate(466.16733 247.33177)">5</text><text class="cls-27" transform="translate(104.22345 317.56819)">2</text><text class="cls-15" transform="translate(131.43524 271.37506)">CANADA</text><text class="cls-35" transform="translate(182.21625 271.37506)">4</text><text class="cls-15" transform="translate(659.35046 47.62277)">NOR<tspan class="cls-19" x="15.83984" y="0">W</tspan><tspan class="cls-17" x="22.68018" y="0">A</tspan><tspan class="cls-8" x="26.62793" y="0">Y</tspan></text><text class="cls-35" transform="translate(710.91754 47.62277)">4</text><text class="cls-15" transform="translate(679.38788 125.06616)">DENMARK</text><text class="cls-34" transform="translate(733.88129 125.06616)">3</text><text class="cls-9" transform="translate(801.62311 125.06616)">SWEDEN</text><text class="cls-35" transform="translate(853.40601 125.06616)">4</text><text class="cls-15" transform="translate(712.42383 278.48215)">W GERMANY</text><text class="cls-27" transform="translate(771.12427 278.48215)">4</text><text class="cls-36" transform="translate(484.78613 462.42291)">SPAIN/PORTUGAL</text><text class="cls-35" transform="translate(562.5603 462.42291)">2</text><text class="cls-9" transform="translate(746.35376 435.21603)">I<tspan class="cls-18" x="2.61621" y="0">T</tspan><tspan x="6.34814" y="0">A</tspan><tspan class="cls-37" x="10.95605" y="0">L</tspan><tspan x="14.24365" y="0">Y</tspan></text><text class="cls-27" transform="translate(792.12347 435.21603)">2</text><text class="cls-15" transform="translate(875.72595 518.18503)">GREECE</text><text class="cls-35" transform="translate(926.90271 518.18503)">2</text><text class="cls-15" transform="translate(1080.68561 435.19562)">TURKEY</text><text class="cls-35" transform="translate(1131.19659 435.19562)">2</text><text class="cls-9" transform="translate(755.17407 357.11783)">AUSTRIA</text><text class="cls-35" transform="translate(806.59564 357.11783)">4</text><text class="cls-9" transform="translate(939.84222 10.33182)">FINLAND</text><text class="cls-35" transform="translate(991.6004 10.33182)">4</text><text class="cls-15" transform="translate(874.76208 357.11783)">HUNGA<tspan class="cls-18" x="25.72803" y="0">R</tspan><tspan class="cls-8" x="30.79199" y="0">Y</tspan></text><text class="cls-34" transform="translate(928.81873 357.11783)">3</text><text class="cls-15" transform="translate(833.82147 278.48215)">CZECHOSLO<tspan class="cls-19" x="44.17139" y="0">V</tspan><tspan class="cls-8" x="48.33545" y="0">AKIA</tspan></text><text class="cls-34" transform="translate(902.5658 278.48215)">3</text><text class="cls-15" transform="translate(873.87103 201.1384)">POLAND</text><text class="cls-25" transform="translate(925.06555 201.1384)">3</text><text class="cls-25" transform="translate(809.35004 247.3318)">3</text><text class="cls-9" transform="translate(751.63477 201.1384)">E GERMANY</text><text class="cls-25" transform="translate(809.40497 201.1384)">3</text><text class="cls-9" transform="translate(847.24487 435.21603)">YUGOSL<tspan class="cls-19" x="29.00342" y="0">A</tspan><tspan x="33.16748" y="0">VIA</tspan></text><text class="cls-34" transform="translate(906.10004 435.21603)">3</text><text class="cls-15" transform="translate(963.73425 435.21603)">BULGARIA</text><text class="cls-34" transform="translate(1018.54041 435.21603)">3</text><text class="cls-15" transform="translate(985.86627 357.11783)">ROMANIA</text><text class="cls-34" transform="translate(1039.36505 357.11783)">3</text><text class="cls-9" transform="translate(1234.98621 595.01007)">IRAN</text><text class="cls-27" transform="translate(1280.22302 595.01007)">2</text><text class="cls-9" transform="translate(1148.17847 756.5159)">SAUDI ARABIA</text><text class="cls-25" transform="translate(1210.2016 756.5159)">3</text><text class="cls-9" transform="translate(989.67889 595.01007)">ISRAEL</text><text class="cls-27" transform="translate(1038.46179 595.01007)">4</text><text class="cls-9" transform="translate(941.14691 671.18195)">EGYPT</text><text class="cls-27" transform="translate(989.3537 671.18195)">2</text><text class="cls-15" transform="translate(825.367 652.52481)">LIB<tspan class="cls-7" x="11.84375" y="0">Y</tspan><tspan x="15.79199" y="0">A</tspan></text><text class="cls-27" transform="translate(871.91064 652.52481)">2</text><text class="cls-9" transform="translate(1668.66895 795.54477)">THAILAND</text><text class="cls-25" transform="translate(1722.79688 795.54477)">2</text><text class="cls-30" transform="translate(1786.03333 795.54477)">VIETNAM</text><g class="cls-38"><text class="cls-39" transform="translate(1839.724 795.54477)">1</text></g><text class="cls-40" transform="translate(1719.26367 916.07419)">MAL<tspan class="cls-41" x="16.24805" y="0">A</tspan><tspan x="20.55566" y="0">YSIA</tspan></text><g class="cls-38"><text class="cls-42" transform="translate(1774.64478 916.07419)">2</text></g><text class="cls-9" transform="translate(1941.04352 795.54477)">PHILIPPINES</text><g class="cls-38"><text class="cls-42" transform="translate(2001.09357 795.54477)">2</text></g><text class="cls-9" transform="translate(1890.26154 1006.48227)">INDONESIA</text><g class="cls-38"><text class="cls-39" transform="translate(1947.89752 1006.48227)">1</text></g><text class="cls-15" transform="translate(1608.65881 713.02805)">BURMA</text><g class="cls-38"><text class="cls-42" transform="translate(1658.53302 713.02805)">2</text></g><text class="cls-43" transform="translate(1694.44336 713.02805)">LAOS/CAMBODIA</text><g class="cls-38"><text class="cls-42" transform="translate(1772.15466 713.02805)">1</text></g><text class="cls-15" transform="translate(718.07849 846.11508)">NIGERIA</text><text class="cls-27" transform="translate(770.77307 846.11508)">1</text><text class="cls-9" transform="translate(648.61591 574.00919)">ALGERIA</text><text class="cls-27" transform="translate(700.43451 574.00919)">2</text><text class="cls-9" transform="translate(919.4762 940.02939)">ZAIRE</text><text class="cls-27" transform="translate(967.8866 940.02939)">1</text><text class="cls-9" transform="translate(826.1593 1020.86237)">ANGOLA</text><text class="cls-27" transform="translate(878.21173 1020.86237)">1</text><text class="cls-9" transform="translate(855.5141 1263.35864)">SOUTH AFRICA</text><text class="cls-25" transform="translate(918.54022 1263.35864)">3</text><text class="cls-6" transform="translate(177.69586 834.8042)">VENEZUELA</text><text class="cls-27" transform="translate(235.11664 834.8042)">2</text><text class="cls-4" transform="translate(393.16431 1053.88956)">BRAZIL</text><text class="cls-27" transform="translate(442.67822 1053.88956)">2</text><text class="cls-4" transform="translate(127.17914 1190.09525)">CHILE</text><text class="cls-25" transform="translate(174.40118 1190.09525)">3</text><rect class="cls-44" x="119.29804" y="1332.3425" width="27.8159" height="17.38493"/><rect class="cls-45" x="119.29804" y="1338.1376" width="27.8159" height="5.79509"/><g id="rays"><path id="ray1" class="cls-46" d="M133.09611,1341.08052l.98935,2.15545s.017.0412.0445.02986.01039-.05256.01039-.05256l-.82457-2.22374m-.02364.83865c-.012.3278.18959.50809.16322.80082a1.042,1.042,0,0,0,.17175.5721c.03732.11385-.04033.18193-.00688.19813s.10674-.07374.08286-.23559-.14674-.2099-.11786-.56745-.14624-.44081-.10361-.76695"/><path id="ray1-2" data-name="ray1" class="cls-46" d="M133.08705,1341.035l.08917,2.37s0,.04458.0297.04461.02971-.04458.02971-.04458l.08919-2.37m-.34278.76577c-.13658.29824-.01929.542-.15567.80232a1.042,1.042,0,0,0-.06026.59428c-.00909.11947-.10688.15264-.08218.18041s.12684-.02727.16672-.18594-.05525-.25008.10826-.56936.03358-.46322.19777-.74822"/><path id="ray1-3" data-name="ray1" class="cls-46" d="M133.09609,1340.98949l-.82457,2.2237s-.0171.04117.01036.05258.04451-.02981.04451-.02981l.98937-2.15548m-.60974.57629c-.24031.22327-.22521.49333-.45085.68168a1.04208,1.04208,0,0,0-.28309.526c-.05412.1069-.15716.10013-.145.13523.01222.03515.12761.02334.22518-.108s.04465-.25218.3179-.48458.20829-.41511.469-.61559"/><path id="ray1-4" data-name="ray1" class="cls-46" d="M133.12186,1340.95089l-1.61278,1.73889s-.03155.0315-.01055.05254.05254-.01051.05254-.01051L133.29,1341.119m-.78386.29909c-.30746.11432-.39686.3696-.6774.45726a1.04205,1.04205,0,0,0-.46283.37761c-.0909.07805-.18351.03236-.18568.06946-.00216.03715.109.0704.24937-.0136s.13776-.21589.47914-.326.3513-.3038.66893-.38923"/></g><g id="rays-2" data-name="rays"><path id="ray1-5" data-name="ray1" class="cls-46" d="M133.16044,1340.9251l-2.15546.98934s-.0412.017-.02985.04451.05256.01038.05256.01038l2.22374-.82456m-.83865-.02365c-.3278-.012-.50809.18959-.80082.16322a1.0421,1.0421,0,0,0-.5721.17175c-.11385.03732-.18193-.04033-.19813-.00688s.07374.10674.23559.08287.2099-.14675.56744-.11787.44082-.14624.767-.10361"/><path id="ray1-6" data-name="ray1" class="cls-46" d="M133.206,1340.916l-2.37.08918s-.04458,0-.04462.02969.04459.02971.04459.02971l2.37.08919m-.76576-.34278c-.29824-.13658-.542-.01928-.80232-.15566a1.042,1.042,0,0,0-.59428-.06026c-.11947-.00909-.15265-.10689-.18041-.08218s.02727.12683.18594.16671.25008-.05525.56935.10826.46323.03358.74823.19777"/><path id="ray1-7" data-name="ray1" class="cls-46" d="M133.25147,1340.92507l-2.22371-.82457s-.04117-.01709-.05258.01036.02982.04452.02982.04452l2.15548.98936m-.57629-.60973c-.22328-.24031-.49334-.22522-.68168-.45085a1.0421,1.0421,0,0,0-.526-.2831c-.10689-.05411-.10012-.15716-.13523-.145s-.02334.12762.108.22518.25219.04466.48459.3179.41511.2083.61558.469"/><path id="ray1-8" data-name="ray1" class="cls-46" d="M133.29007,1340.95084l-1.73889-1.61277s-.0315-.03155-.05255-.01055.01052.05253.01052.05253l1.61279,1.73892m-.2991-.78386c-.11431-.30746-.36959-.39686-.45725-.6774a1.04211,1.04211,0,0,0-.37761-.46283c-.078-.0909-.03236-.18351-.06946-.18567s-.0704.109.01359.24936.2159.13777.32605.47915.3038.35129.38923.66892"/></g><g id="rays-3" data-name="rays"><path id="ray1-9" data-name="ray1" class="cls-46" d="M133.31586,1340.98942l-.98934-2.15545s-.017-.0412-.04451-.02986-.01039.05256-.01039.05256l.82457,2.22374m.02364-.83865c.012-.3278-.18958-.50809-.16322-.80082a1.042,1.042,0,0,0-.17175-.5721c-.03731-.11385.04034-.18193.00689-.19813-.0335-.0162-.10675.07374-.08287.23559s.14674.2099.11786.56745.14625.44081.10362.76695"/><path id="ray1-10" data-name="ray1" class="cls-46" d="M133.32493,1341.03494l-.08918-2.37s0-.04458-.02969-.04461-.02971.04458-.02971.04458l-.08919,2.37m.34278-.76577c.13657-.29824.01928-.542.15566-.80232a1.042,1.042,0,0,0,.06026-.59428c.00909-.11946.10688-.15264.08218-.18041s-.12684.02728-.16671.18594.05524.25008-.10826.56936-.03359.46322-.19778.74822"/><path id="ray1-11" data-name="ray1" class="cls-46" d="M133.31589,1341.08045l.82456-2.2237s.0171-.04117-.01036-.05258-.04451.02982-.04451.02982l-.98936,2.15548m.60973-.5763c.24031-.22327.22522-.49333.45085-.68168a1.04208,1.04208,0,0,0,.28309-.526c.05412-.1069.15716-.10013.145-.13523s-.12762-.02334-.22518.108-.04466.25218-.31791.48458-.20829.41511-.46905.61559"/><path id="ray1-12" data-name="ray1" class="cls-46" d="M133.29011,1341.11905l1.61278-1.73889s.03155-.0315.01055-.05254-.05253.01051-.05253.01051l-1.73892,1.61279m.78385-.29909c.30746-.11432.39687-.3696.6774-.45726a1.042,1.042,0,0,0,.46283-.37761c.09091-.07805.18352-.03236.18568-.06946s-.109-.0704-.24936.0136-.13777.2159-.47915.326-.35129.3038-.66892.38923"/></g><g id="rays-4" data-name="rays"><path id="ray1-13" data-name="ray1" class="cls-46" d="M133.25154,1341.14484l2.15545-.98934s.0412-.017.02985-.0445-.05255-.01039-.05255-.01039l-2.22375.82456m.83865.02365c.32781.012.50809-.18959.80082-.16322a1.04214,1.04214,0,0,0,.57211-.17175c.11385-.03732.18192.04033.19812.00688s-.07373-.10674-.23558-.08287-.2099.14675-.56745.11787-.44081.14624-.767.10361"/><path id="ray1-14" data-name="ray1" class="cls-46" d="M133.206,1341.15391l2.37-.08918s.04458,0,.04461-.02969-.04458-.02971-.04458-.02971l-2.37-.08919m.76576.34278c.29824.13658.542.01928.80233.15567a1.042,1.042,0,0,0,.59428.06025c.11946.0091.15264.10689.18041.08218s-.02728-.12683-.18595-.16671-.25007.05525-.56935-.10826-.46322-.03358-.74822-.19777"/><path id="ray1-15" data-name="ray1" class="cls-46" d="M133.1605,1341.14487l2.22371.82457s.04117.01709.05258-.01036-.02982-.04451-.02982-.04451l-2.15548-.98937m.5763.60973c.22327.24031.49333.22522.68168.45085a1.042,1.042,0,0,0,.526.2831c.10689.05411.10012.15716.13523.145s.02334-.12762-.108-.22518-.25218-.04466-.48459-.3179-.41511-.20829-.61558-.469"/><path id="ray1-16" data-name="ray1" class="cls-46" d="M133.12191,1341.1191l1.73889,1.61277s.03149.03155.05254.01055-.01051-.05253-.01051-.05253L133.29,1340.951m.29909.78386c.11431.30746.36959.39686.45726.6774a1.04205,1.04205,0,0,0,.37761.46283c.078.0909.03235.18351.06946.18568s.0704-.109-.0136-.24937-.2159-.13777-.326-.47915-.30381-.35129-.38923-.66892"/></g><circle class="cls-46" cx="133.20599" cy="1341.03497" r="0.96584"/></g></g></g></g></svg>