<svg xmlns="http://www.w3.org/2000/svg" viewBox="0 0 16.11848 13.5344"><defs><style>.cls-1{fill:#2a2d7c;}.cls-2{fill:#fff;}.cls-3{fill:#ed2224;}</style></defs><g id="Layer_2" data-name="Layer 2"><g id="Layer_20" data-name="Layer 20"><g id="Country_Plates" data-name="Country Plates"><path class="cls-1" d="M.11848,0h16V13.5344h-16Z"/><g id="Commonwealth_Star" data-name="Commonwealth Star"><polygon id="Star7" class="cls-2" points="5.351 8.121 5.743 9.338 6.939 8.885 6.231 9.95 7.331 10.603 6.057 10.713 6.232 11.98 5.351 11.053 4.47 11.98 4.646 10.713 3.372 10.603 4.472 9.95 3.764 8.885 4.96 9.338 5.351 8.121"/></g><g id="Star_Alpha_Crucis" data-name="Star Alpha Crucis"><polygon id="Star7-2" data-name="Star7" class="cls-2" points="11.827 9.194 11.956 9.593 12.348 9.444 12.116 9.794 12.476 10.008 12.059 10.044 12.116 10.459 11.827 10.155 11.538 10.459 11.596 10.044 11.178 10.008 11.539 9.794 11.307 9.444 11.699 9.593 11.827 9.194"/></g><g id="Star_Beta_Crucis" data-name="Star Beta Crucis"><polygon id="Star7-3" data-name="Star7" class="cls-2" points="9.497 5.504 9.625 5.903 10.017 5.755 9.785 6.104 10.146 6.318 9.728 6.354 9.786 6.77 9.497 6.466 9.208 6.77 9.265 6.354 8.848 6.318 9.208 6.104 8.976 5.755 9.368 5.903 9.497 5.504"/></g><g id="Star_Gamma_Crucis" data-name="Star Gamma Crucis"><polygon id="Star7-4" data-name="Star7" class="cls-2" points="11.827 2.979 11.956 3.379 12.348 3.23 12.116 3.579 12.476 3.793 12.059 3.83 12.116 4.245 11.827 3.941 11.538 4.245 11.596 3.83 11.178 3.793 11.539 3.579 11.307 3.23 11.699 3.379 11.827 2.979"/></g><g id="Star_Delta_Crucis" data-name="Star Delta Crucis"><polygon id="Star7-5" data-name="Star7" class="cls-2" points="13.899 4.882 14.027 5.282 14.419 5.133 14.187 5.482 14.548 5.696 14.13 5.733 14.187 6.148 13.899 5.844 13.61 6.148 13.667 5.733 13.249 5.696 13.61 5.482 13.378 5.133 13.77 5.282 13.899 4.882"/></g><g id="Star_Epsilon_Crucis" data-name="Star Epsilon Crucis"><polygon id="Star5" class="cls-2" points="12.759 6.752 12.861 7.001 13.129 7.021 12.923 7.194 12.988 7.455 12.759 7.313 12.531 7.455 12.595 7.194 12.39 7.021 12.658 7.001 12.759 6.752"/></g><path id="White_Cross" data-name="White Cross" class="cls-2" d="M3.3827,0H4.73578V2.25573h3.3827V4.51147H4.73578V6.7672H3.3827V4.51147H0V2.25573H3.3827Z"/><path id="White_Diagonal" data-name="White Diagonal" class="cls-2" d="M0,0H.90767L8.11848,6.01061V6.7672H7.21081L0,.7566Z"/><g id="White_Diagonal_Flipped" data-name="White Diagonal Flipped"><path id="White_Diagonal-2" data-name="White Diagonal" class="cls-2" d="M8.11848,0H7.21081L0,6.01061V6.7672H.90767L8.11848.7566Z"/></g><path id="Red_Cross" data-name="Red Cross" class="cls-3" d="M3.65332,0h.81184V2.70688H8.11848V4.06032H4.46516V6.7672H3.65332V4.06032H0V2.70688H3.65332Z"/><path id="Red_Diagonals" data-name="Red Diagonals" class="cls-3" d="M0,0,2.70616,2.25573H2.101L0,.5044ZM8.11848,0H7.51336L4.8072,2.25573h.60512Z"/><g id="Red_Diagonals_Rotated" data-name="Red Diagonals Rotated"><path id="Red_Diagonals-2" data-name="Red Diagonals" class="cls-3" d="M8.11848,6.7672,5.41232,4.51147h.60512l2.101,1.75133ZM0,6.7672H.60512L3.31128,4.51147H2.70616Z"/></g></g></g></g></svg>