<svg xmlns="http://www.w3.org/2000/svg" viewBox="0 0 25 18.206"><defs><style>.cls-1{fill:#ed2224;}.cls-2{fill:#fff;}</style></defs><g id="Layer_2" data-name="Layer 2"><g id="Layer_20" data-name="Layer 20"><g id="Country_Plates" data-name="Country Plates"><rect class="cls-1" width="25" height="18.206"/><rect class="cls-2" x="8.397" width="8.20599" height="18.20599"/><path class="cls-1" d="M12.49987,5.76931,11.94,6.81353c-.06353.11349-.17735.103-.29118.03958l-.40532-.20989.30209,1.6039c.06353.293-.1403.293-.24089.16632l-.70737-.79189-.11484.40214a.13706.13706,0,0,1-.15883.09507l-.89448-.18807.23494.85416c.05029.19006.08953.26875-.05077.31888l-.31883.14984,1.5398,1.25074a.2016.2016,0,0,1,.07.20945l-.13477.44225c.53018-.06111,1.00522-.15305,1.53566-.20968.04683-.005.12522.07228.1249.12655l-.07024,1.62024h.25777l-.04058-1.61677c-.00032-.05427.0708-.135.11763-.13.53044.05663,1.00548.14857,1.53566.20968l-.13477-.44225a.20162.20162,0,0,1,.07-.20945l1.5398-1.25074-.31882-.14984c-.14031-.05013-.10107-.12882-.05078-.31888l.23494-.85416-.89448.18807a.13706.13706,0,0,1-.15883-.09507l-.11484-.40214-.70737.79189c-.10059.1267-.30442.1267-.24089-.16632l.30209-1.6039-.40532.20989c-.11383.06339-.22765.07391-.29118-.03958"/></g></g></g></svg>