<svg xmlns="http://www.w3.org/2000/svg" viewBox="0 0 2097.4873 1289.2583"><defs><style>.cls-1{isolation:isolate;}.cls-2{font-size:63.51456px;fill:#ffc32e;font-family:NeutraText-Bold, Neutra Text;letter-spacing:-0.07em;}.cls-10,.cls-11,.cls-15,.cls-16,.cls-2,.cls-22,.cls-24,.cls-25,.cls-27,.cls-28,.cls-29,.cls-30,.cls-31,.cls-32,.cls-33,.cls-34,.cls-35,.cls-36,.cls-39,.cls-4,.cls-40,.cls-42,.cls-43,.cls-5,.cls-6,.cls-9{font-weight:700;}.cls-3{letter-spacing:-0.06em;}.cls-10,.cls-11,.cls-15,.cls-16,.cls-22,.cls-24,.cls-25,.cls-27,.cls-28,.cls-29,.cls-30,.cls-31,.cls-32,.cls-33,.cls-34,.cls-35,.cls-36,.cls-39,.cls-4,.cls-40,.cls-42,.cls-43,.cls-5,.cls-6,.cls-9{font-size:12px;}.cls-25,.cls-27,.cls-29,.cls-4,.cls-6{fill:#f8f4e8;}.cls-11,.cls-15,.cls-22,.cls-30,.cls-36,.cls-4,.cls-40,.cls-43,.cls-6,.cls-9{font-family:TradeGothicLT-BoldCondTwenty, TradeGothic LT CondEighteen;}.cls-10,.cls-15,.cls-20,.cls-27,.cls-28,.cls-32,.cls-35,.cls-4,.cls-5{letter-spacing:-0.06002em;}.cls-10,.cls-16,.cls-24,.cls-28,.cls-31,.cls-32,.cls-33,.cls-38,.cls-5{mix-blend-mode:multiply;}.cls-5{fill:#72683d;}.cls-10,.cls-16,.cls-24,.cls-25,.cls-27,.cls-28,.cls-29,.cls-31,.cls-32,.cls-33,.cls-34,.cls-35,.cls-39,.cls-42,.cls-5{font-family:Gotham-Bold, Gotham;}.cls-16,.cls-25,.cls-31,.cls-33,.cls-34,.cls-42,.cls-6,.cls-8,.cls-9{letter-spacing:-0.05998em;}.cls-7{letter-spacing:-0.11495em;}.cls-11,.cls-15,.cls-22,.cls-30,.cls-36,.cls-40,.cls-43,.cls-45,.cls-9{fill:#fff;}.cls-10,.cls-16{fill:#cca55e;}.cls-11{letter-spacing:-0.00997em;}.cls-12{letter-spacing:-0.02799em;}.cls-13{letter-spacing:-0.047em;}.cls-14,.cls-43{letter-spacing:-0.01001em;}.cls-17{letter-spacing:-0.11499em;}.cls-18{letter-spacing:-0.078em;}.cls-19{letter-spacing:-0.09696em;}.cls-21{letter-spacing:-0.09701em;}.cls-22,.cls-26{letter-spacing:-0.07796em;}.cls-23,.cls-24,.cls-29,.cls-30,.cls-39{letter-spacing:-0.06006em;}.cls-24,.cls-28,.cls-31,.cls-39,.cls-42{fill:#d16428;}.cls-32,.cls-33{fill:#79aeb2;}.cls-34,.cls-35{fill:#916376;}.cls-36{letter-spacing:-0.01998em;}.cls-37{letter-spacing:-0.11503em;}.cls-40{letter-spacing:-0.03003em;}.cls-41{letter-spacing:-0.08504em;}.cls-44{fill:#d42e27;}.cls-46{fill:#1e429b;}</style></defs><g class="cls-1"><g id="Layer_2" data-name="Layer 2"><g id="Layer_20" data-name="Layer 20"><text class="cls-2" transform="translate(1170.67102 349.60764)">CC<tspan class="cls-3" x="81.93408" y="0">CP</tspan></text><g id="Country_Plates" data-name="Country Plates"><text class="cls-4" transform="translate(116.7453 920.97183)">COLOMBIA</text><text class="cls-5" transform="translate(173.74799 920.97183)">1</text><text class="cls-6" transform="translate(0 956.41425)">ECUADOR</text><text class="cls-5" transform="translate(54.15302 956.41425)">2</text><text class="cls-4" transform="translate(60.97253 1034.89343)">PERU</text><text class="cls-5" transform="translate(107.54059 1034.89343)">2</text><text class="cls-4" transform="translate(185.39154 1108.77679)">BOLIVIA</text><text class="cls-5" transform="translate(236.2135 1108.77679)">2</text><text class="cls-4" transform="translate(241.83392 1191.94427)">PARAGU<tspan class="cls-7" x="30.33545" y="0">A</tspan><tspan class="cls-8" x="34.28369" y="0">Y</tspan></text><text class="cls-5" transform="translate(297.62366 1191.94427)">2</text><text class="cls-4" transform="translate(281.67566 1285.69427)">URUGU<tspan class="cls-7" x="26.3999" y="0">A</tspan><tspan x="30.34814" y="0">Y</tspan></text><text class="cls-5" transform="translate(335.4975 1285.69427)">2</text><text class="cls-9" transform="translate(978.35394 756.5159)">SUDAN</text><text class="cls-10" transform="translate(1028.43225 756.5159)">1</text><text class="cls-11" transform="translate(667.33624 756.5159)">SAHARAN S<tspan class="cls-12" x="46.22314" y="0">T</tspan><tspan class="cls-13" x="50.55518" y="0">A</tspan><tspan class="cls-14" x="55.31885" y="0">TES</tspan></text><text class="cls-10" transform="translate(746.69678 756.5159)">1</text><text class="cls-10" transform="translate(578.51947 756.5159)">2</text><text class="cls-15" transform="translate(523.02936 629.08731)">MOROCCO</text><text class="cls-16" transform="translate(578.53119 629.08731)">3</text><text class="cls-15" transform="translate(765.60071 574.00919)">TUNISIA</text><text class="cls-10" transform="translate(816.42291 574.00919)">2</text><text class="cls-9" transform="translate(1157.7063 893.22586)">SOMALIA</text><text class="cls-10" transform="translate(1210.18988 893.22586)">2</text><text class="cls-9" transform="translate(1038.47015 846.11508)">ETHIOPIA</text><text class="cls-10" transform="translate(1093.13837 846.11508)">1</text><text class="cls-9" transform="translate(1044.06195 940.02939)">KEN<tspan class="cls-17" x="14.49561" y="0">Y</tspan><tspan x="18.44336" y="0">A</tspan></text><text class="cls-10" transform="translate(1091.9328 940.02939)">2</text><text class="cls-9" transform="translate(1045.26373 1020.86237)">SE AFRICAN S<tspan class="cls-18" x="49.99072" y="0">T</tspan><tspan class="cls-19" x="53.72266" y="0">A</tspan><tspan class="cls-20" x="57.88672" y="0">TES</tspan></text><text class="cls-10" transform="translate(1123.02716 1020.86237)">1</text><text class="cls-9" transform="translate(997.26544 1101.69531)">ZIMBABWE</text><text class="cls-10" transform="translate(1055.26178 1101.69531)">1</text><text class="cls-15" transform="translate(929.72174 1182.52649)">BOTS<tspan class="cls-21" x="19.11572" y="0">W</tspan><tspan class="cls-8" x="25.95557" y="0">ANA</tspan></text><text class="cls-10" transform="translate(986.29272 1182.52649)">2</text><text class="cls-15" transform="translate(780.96924 940.02939)">CAMEROON</text><text class="cls-10" transform="translate(839.63354 940.02939)">1</text><text class="cls-22" transform="translate(1899.05896 684.27109)">T<tspan class="cls-23" x="3.73242" y="0">AI</tspan><tspan class="cls-21" x="10.95605" y="0">W</tspan><tspan class="cls-23" x="17.7959" y="0">AN</tspan></text><text class="cls-24" transform="translate(1949.25842 684.27109)">3</text><text class="cls-9" transform="translate(1483.49261 693.64609)">INDIA</text><text class="cls-25" transform="translate(1530.04846 693.64609)">3</text><text class="cls-15" transform="translate(1352.92657 639.43567)">PAKIS<tspan class="cls-26" x="21.71924" y="0">T</tspan><tspan x="25.45166" y="0">AN</tspan></text><text class="cls-27" transform="translate(1406.94141 639.43567)">2</text><text class="cls-9" transform="translate(1345.34259 546.16873)">AFGHANIS<tspan class="cls-18" x="36.88721" y="0">T</tspan><tspan x="40.61914" y="0">AN</tspan></text><text class="cls-28" transform="translate(1406.94141 546.16873)">2</text><text class="cls-9" transform="translate(1925.78839 441.47324)">N KOREA</text><text class="cls-29" transform="translate(1977.94971 441.47324)">3</text><text class="cls-30" transform="translate(1948.68146 521.37024)">S KOREA</text><text class="cls-29" transform="translate(2000.50574 521.37024)">3</text><text class="cls-9" transform="translate(2042.67462 601.26727)">JAPAN</text><text class="cls-25" transform="translate(2089.81921 601.26727)">4</text><text class="cls-30" transform="translate(1893.14978 1138.77725)">AUSTRALIA</text><text class="cls-31" transform="translate(1948.85022 1138.77725)">4</text><text class="cls-9" transform="translate(1118.10687 595.01007)">IRAQ</text><text class="cls-25" transform="translate(1163.35565 595.01007)">3</text><text class="cls-9" transform="translate(1063.41162 671.18195)">JORDAN</text><text class="cls-32" transform="translate(1113.92828 671.18195)">2</text><text class="cls-15" transform="translate(1180.38281 671.18195)">GULF S<tspan class="cls-18" x="25.66748" y="0">T</tspan><tspan class="cls-19" x="29.39941" y="0">A</tspan><tspan x="33.56348" y="0">TES</tspan></text><text class="cls-33" transform="translate(1240.10309 671.18195)">3</text><text class="cls-15" transform="translate(1000.5719 518.18503)">LEBANON</text><text class="cls-32" transform="translate(1055.26453 518.18503)">1</text><text class="cls-9" transform="translate(1121.46375 518.18503)">SYRIA</text><text class="cls-32" transform="translate(1168.6684 518.18503)">2</text><text class="cls-9" transform="translate(594.22803 355.26959)">FRANCE</text><text class="cls-25" transform="translate(645.4165 355.26959)">3</text><text class="cls-15" transform="translate(606.31506 278.48215)">BENELUX</text><text class="cls-34" transform="translate(659.47662 278.48215)">3</text><text class="cls-15" transform="translate(503.3103 201.1384)">UK</text><text class="cls-35" transform="translate(544.55615 201.1384)">5</text><text class="cls-27" transform="translate(466.16733 247.33177)">5</text><text class="cls-27" transform="translate(104.22345 317.56819)">2</text><text class="cls-15" transform="translate(131.43524 271.37506)">CANADA</text><text class="cls-35" transform="translate(182.21625 271.37506)">4</text><text class="cls-15" transform="translate(659.35046 47.62277)">NOR<tspan class="cls-19" x="15.83984" y="0">W</tspan><tspan class="cls-17" x="22.68018" y="0">A</tspan><tspan class="cls-8" x="26.62793" y="0">Y</tspan></text><text class="cls-35" transform="translate(710.91754 47.62277)">4</text><text class="cls-15" transform="translate(679.38788 125.06616)">DENMARK</text><text class="cls-34" transform="translate(733.88129 125.06616)">3</text><text class="cls-9" transform="translate(801.62311 125.06616)">SWEDEN</text><text class="cls-35" transform="translate(853.40601 125.06616)">4</text><text class="cls-15" transform="translate(712.42383 278.48215)">W GERMANY</text><text class="cls-27" transform="translate(771.12427 278.48215)">4</text><text class="cls-36" transform="translate(484.78613 462.42291)">SPAIN/PORTUGAL</text><text class="cls-35" transform="translate(562.5603 462.42291)">2</text><text class="cls-9" transform="translate(746.35376 435.21603)">I<tspan class="cls-18" x="2.61621" y="0">T</tspan><tspan x="6.34814" y="0">A</tspan><tspan class="cls-37" x="10.95605" y="0">L</tspan><tspan x="14.24365" y="0">Y</tspan></text><text class="cls-27" transform="translate(792.12347 435.21603)">2</text><text class="cls-15" transform="translate(875.72595 518.18503)">GREECE</text><text class="cls-35" transform="translate(926.90271 518.18503)">2</text><text class="cls-15" transform="translate(1080.68561 435.19562)">TURKEY</text><text class="cls-35" transform="translate(1131.19659 435.19562)">2</text><text class="cls-9" transform="translate(755.17407 357.11783)">AUSTRIA</text><text class="cls-35" transform="translate(806.59564 357.11783)">4</text><text class="cls-9" transform="translate(939.84222 10.33182)">FINLAND</text><text class="cls-35" transform="translate(991.6004 10.33182)">4</text><text class="cls-15" transform="translate(874.76208 357.11783)">HUNGA<tspan class="cls-18" x="25.72803" y="0">R</tspan><tspan class="cls-8" x="30.79199" y="0">Y</tspan></text><text class="cls-34" transform="translate(928.81873 357.11783)">3</text><text class="cls-15" transform="translate(833.82147 278.48215)">CZECHOSLO<tspan class="cls-19" x="44.17139" y="0">V</tspan><tspan class="cls-8" x="48.33545" y="0">AKIA</tspan></text><text class="cls-34" transform="translate(902.5658 278.48215)">3</text><text class="cls-15" transform="translate(873.87103 201.1384)">POLAND</text><text class="cls-25" transform="translate(925.06555 201.1384)">3</text><text class="cls-25" transform="translate(809.35004 247.3318)">3</text><text class="cls-9" transform="translate(751.63477 201.1384)">E GERMANY</text><text class="cls-25" transform="translate(809.40497 201.1384)">3</text><text class="cls-9" transform="translate(847.24487 435.21603)">YUGOSL<tspan class="cls-19" x="29.00342" y="0">A</tspan><tspan x="33.16748" y="0">VIA</tspan></text><text class="cls-34" transform="translate(906.10004 435.21603)">3</text><text class="cls-15" transform="translate(963.73425 435.21603)">BULGARIA</text><text class="cls-34" transform="translate(1018.54041 435.21603)">3</text><text class="cls-15" transform="translate(985.86627 357.11783)">ROMANIA</text><text class="cls-34" transform="translate(1039.36505 357.11783)">3</text><text class="cls-9" transform="translate(1234.98621 595.01007)">IRAN</text><text class="cls-27" transform="translate(1280.22302 595.01007)">2</text><text class="cls-9" transform="translate(1148.17847 756.5159)">SAUDI ARABIA</text><text class="cls-25" transform="translate(1210.2016 756.5159)">3</text><text class="cls-9" transform="translate(989.67889 595.01007)">ISRAEL</text><text class="cls-27" transform="translate(1038.46179 595.01007)">4</text><text class="cls-9" transform="translate(941.14691 671.18195)">EGYPT</text><text class="cls-27" transform="translate(989.3537 671.18195)">2</text><text class="cls-15" transform="translate(825.367 652.52481)">LIB<tspan class="cls-7" x="11.84375" y="0">Y</tspan><tspan x="15.79199" y="0">A</tspan></text><text class="cls-27" transform="translate(871.91064 652.52481)">2</text><text class="cls-9" transform="translate(1668.66895 795.54477)">THAILAND</text><text class="cls-25" transform="translate(1722.79688 795.54477)">2</text><text class="cls-30" transform="translate(1786.03333 795.54477)">VIETNAM</text><g class="cls-38"><text class="cls-39" transform="translate(1839.724 795.54477)">1</text></g><text class="cls-40" transform="translate(1719.26367 916.07419)">MAL<tspan class="cls-41" x="16.24805" y="0">A</tspan><tspan x="20.55566" y="0">YSIA</tspan></text><g class="cls-38"><text class="cls-42" transform="translate(1774.64478 916.07419)">2</text></g><text class="cls-9" transform="translate(1941.04352 795.54477)">PHILIPPINES</text><g class="cls-38"><text class="cls-42" transform="translate(2001.09357 795.54477)">2</text></g><text class="cls-9" transform="translate(1890.26154 1006.48227)">INDONESIA</text><g class="cls-38"><text class="cls-39" transform="translate(1947.89752 1006.48227)">1</text></g><text class="cls-15" transform="translate(1608.65881 713.02805)">BURMA</text><g class="cls-38"><text class="cls-42" transform="translate(1658.53302 713.02805)">2</text></g><text class="cls-43" transform="translate(1694.44336 713.02805)">LAOS/CAMBODIA</text><g class="cls-38"><text class="cls-42" transform="translate(1772.15466 713.02805)">1</text></g><text class="cls-15" transform="translate(718.07849 846.11508)">NIGERIA</text><text class="cls-27" transform="translate(770.77307 846.11508)">1</text><text class="cls-9" transform="translate(648.61591 574.00919)">ALGERIA</text><text class="cls-27" transform="translate(700.43451 574.00919)">2</text><text class="cls-9" transform="translate(919.4762 940.02939)">ZAIRE</text><text class="cls-27" transform="translate(967.8866 940.02939)">1</text><text class="cls-9" transform="translate(826.1593 1020.86237)">ANGOLA</text><text class="cls-27" transform="translate(878.21173 1020.86237)">1</text><text class="cls-9" transform="translate(855.5141 1263.35864)">SOUTH AFRICA</text><text class="cls-25" transform="translate(918.54022 1263.35864)">3</text><text class="cls-6" transform="translate(177.69586 834.8042)">VENEZUELA</text><text class="cls-27" transform="translate(235.11664 834.8042)">2</text><text class="cls-4" transform="translate(393.16431 1053.88956)">BRAZIL</text><text class="cls-27" transform="translate(442.67822 1053.88956)">2</text><rect class="cls-44" x="91.98197" y="1179.12151" width="20.0653" height="13.37687"/><rect class="cls-45" x="91.98197" y="1179.12151" width="20.0653" height="6.68843"/><rect class="cls-46" x="91.98197" y="1179.12151" width="6.68843" height="6.68843"/><polygon class="cls-45" points="96.348 1183.077 97.33 1182.363 96.116 1182.363 95.74 1181.208 95.365 1182.363 94.15 1182.363 95.133 1183.077 94.757 1184.232 95.74 1183.518 96.723 1184.232 96.348 1183.077"/></g></g></g></g></svg>