<svg xmlns="http://www.w3.org/2000/svg" viewBox="0 0 20.58146 13.72097"><defs><style>.cls-1{fill:#010101;}.cls-10,.cls-11,.cls-12,.cls-13,.cls-14,.cls-2,.cls-4,.cls-7,.cls-9{fill:#fff;}.cls-3{fill:#ce2028;}.cls-10,.cls-11,.cls-12,.cls-13,.cls-14,.cls-15,.cls-16,.cls-4,.cls-6,.cls-7,.cls-8,.cls-9{stroke:#be942d;}.cls-10,.cls-11,.cls-4,.cls-7,.cls-8,.cls-9{stroke-linejoin:round;}.cls-4{stroke-width:0.02905px;}.cls-16,.cls-5,.cls-6{fill:#be942d;}.cls-6{stroke-width:0.02456px;}.cls-7{stroke-width:0.02719px;}.cls-15,.cls-8{fill:none;}.cls-10,.cls-8{stroke-width:0.02905px;}.cls-10,.cls-11,.cls-9{stroke-linecap:round;}.cls-9{stroke-width:0.05437px;}.cls-11{stroke-width:0.02039px;}.cls-12{stroke-width:0.0263px;}.cls-13{stroke-width:0.02094px;}.cls-14{stroke-width:0.02785px;}.cls-15{stroke-width:0.02905px;}.cls-16{stroke-width:0.0081px;}</style></defs><g id="Layer_2" data-name="Layer 2"><g id="Layer_20" data-name="Layer 20"><g id="Country_Plates" data-name="Country Plates"><rect class="cls-1" y="9.23744" width="20.58146" height="4.48353"/><rect class="cls-2" width="20.58146" height="9.14731"/><rect class="cls-3" width="20.58146" height="4.57366"/><path class="cls-4" d="M10.30925,6.91537l1.5662,1.45394-.1115-2.6406c-.01638-.40019-.36416-.30838-.61678-.164a.943.943,0,0,1-.85633.05573.94291.94291,0,0,1-.85628-.05573c-.2526-.14435-.60033-.23618-.61675.164l-.11158,2.6406,1.603-1.45394Z"/><g id="w"><path class="cls-5" d="M8.998,5.6368,8.88972,8.20537,8.706,8.36929l.11156-2.6406A.5504.5504,0,0,1,8.998,5.63682Z"/><path class="cls-5" d="M9.218,5.82066,9.12611,7.96925l-.18368.188.11153-2.481c.03611.03606.14439.12463.164.14431Z"/><path class="cls-5" d="M9.41807,5.98463l-.07213,1.792-.14763.14429.09188-2.04454c.036.03609.10819.08857.12788.10824Z"/><path class="cls-5" d="M9.63464,6.07656l-.07218,1.5273-.14437.11707.07217-1.70012a.5249.5249,0,0,0,.14438.05575Z"/><path class="cls-5" d="M9.83473,6.07656,9.7822,7.34934l-.1476.14437L9.69038,6.093a.38065.38065,0,0,0,.14435-.01643Z"/></g><g id="w-2" data-name="w"><path class="cls-5" d="M11.58347,5.6368l.10826,2.56857.18374.16392-.11156-2.6406a.5504.5504,0,0,0-.18044-.09187Z"/><path class="cls-5" d="M11.36348,5.82066l.09186,2.14859.18369.188-.11154-2.481c-.03611.03606-.14438.12463-.164.14431Z"/><path class="cls-5" d="M11.16338,5.98463l.07214,1.792.14763.14429-.09188-2.04454c-.036.03609-.10819.08857-.12789.10824Z"/><path class="cls-5" d="M10.94682,6.07656l.07218,1.5273.14437.11707-.07218-1.70012a.52484.52484,0,0,1-.14437.05575Z"/><path class="cls-5" d="M10.74672,6.07656l.05254,1.27278.1476.14437L10.89108,6.093a.38071.38071,0,0,1-.14436-.01643Z"/></g><path class="cls-6" d="M10.363,7.20488l.21983,1.0006-.07221.07216-.07545-.05577-.12467-.89228.05249.89228-.07219.09183-.07218-.09183.05251-.89228-.12465.89228-.07552.05577-.07214-.07216.2198-1.0006Z"/><g id="b"><path class="cls-7" d="M9.7986,6.76535l-.43632,1.5483.6004.09188L10.21853,7.241,9.7986,6.76535Z"/><path class="cls-8" d="M9.6543,7.29361l.0525.1279.28368-.27094"/><path class="cls-8" d="M9.85074,6.973l.05936.55675.18044-.23618"/><path class="cls-8" d="M10.01837,7.38531l.09856.34017"/><path class="cls-8" d="M10.15558,7.6005l-.19936.3028m.06217.30223-.0638-.30182-.0557-.307-.13357.18087-.05857-.20854-.18694.19174.09507.34877.13121-.21576.07217.21982.1347-.20953"/><path class="cls-8" d="M9.49011,8.27763l.12119-.17022.079.262.10827-.18368.0722.21984"/></g><g id="b-2" data-name="b"><path class="cls-7" d="M10.78285,6.76535l.43633,1.5483-.60041.09188L10.36292,7.241l.41993-.47563Z"/><path class="cls-8" d="M10.92715,7.29361l-.05249.1279L10.591,7.15057"/><path class="cls-8" d="M10.73071,6.973l-.05936.55675-.18044-.23618"/><path class="cls-8" d="M10.56309,7.38531l-.09856.34017"/><path class="cls-8" d="M10.42588,7.6005l.19936.3028m-.06218.30223.06381-.30182.0557-.307.13356.18087.05857-.20854.18695.19174-.09508.34877-.13121-.21576-.07216.21982-.1347-.20953"/><path class="cls-8" d="M11.09135,8.27763l-.1212-.17022-.079.262-.10826-.18368-.07221.21984"/></g><path class="cls-9" d="M10.29073,9.00576A4.83235,4.83235,0,0,0,11.439,8.8975c.10829-.01964.10829-.07541.10829-.14762.10829-.03608.05248-.164.12794-.164-.07546.01973-.09184-.12792-.1837-.1082,0-.128-.128-.14436-.23623-.10834a3.63487,3.63487,0,0,1-.96459.08862,4.50835,4.50835,0,0,1-.96456-.08862C9.2179,8.33334,9.09,8.34972,9.09,8.4777c-.09189-.01972-.10829.12793-.18372.1082.07543,0,.01965.1279.12793.164,0,.07221,0,.128.11155.14762a4.78325,4.78325,0,0,0,1.145.10826Z"/><path class="cls-10" d="M9.67077,8.31354a1.84049,1.84049,0,0,0,.43964.01969c.07211,0,.12462.12464-.01972.14437a1.72724,1.72724,0,0,1-.43633-.01973c-.09186-.01641-.292-.05247-.41995-.08862-.128-.05571-.036-.16392.03606-.14755a2.40863,2.40863,0,0,0,.40031.09184Z"/><path class="cls-10" d="M10.91092,8.31354a1.82048,1.82048,0,0,1-.43635.01969c-.07548,0-.128.12464.01639.14437a1.7266,1.7266,0,0,0,.43629-.01973c.0919-.01641.292-.05247.42-.08862.128-.05571.03614-.16392-.03607-.14755a2.40746,2.40746,0,0,1-.40022.09184Z"/><path class="cls-10" d="M9.218,8.2415a.12637.12637,0,0,0-.1279.18036c.01638-.03608.09185-.03608.10827-.07216C9.218,8.294,9.18193,8.294,9.218,8.2415Z"/><path class="cls-10" d="M9.6543,8.577c0-.0721.07214-.06323.07214-.13542,0-.03606-.01964-.09186-.05572-.09186a.07763.07763,0,0,0-.07221.07215C9.5821,8.49405,9.6543,8.50489,9.6543,8.577Z"/><path class="cls-10" d="M10.17364,8.36933c.10818,0,.09746.1444.045.21657,0-.05249-.09185-.07217-.09185-.10821,0-.05584.08293-.05584.0469-.10836Z"/><path class="cls-10" d="M11.36348,8.2415a.1264.1264,0,0,1,.128.18036c-.01642-.03608-.09186-.03608-.10825-.07216-.0197-.05573.01641-.05573-.0197-.1082Z"/><path class="cls-10" d="M10.92715,8.577c0-.0721-.07211-.06323-.07211-.13542,0-.03606.01966-.09186.05576-.09186a.07763.07763,0,0,1,.07218.07215c.01641.0722-.05583.083-.05583.15513Z"/><path class="cls-10" d="M10.40781,8.36933c-.10822,0-.09748.1444-.045.21657,0-.05249.09184-.07217.09184-.10821C10.45467,8.42185,10.37173,8.42185,10.40781,8.36933Z"/><path class="cls-11" d="M9.25411,8.27763a.17806.17806,0,0,1,.10829.03607L9.254,8.27756Z"/><path class="cls-11" d="M9.43431,8.33343a.40417.40417,0,0,1,.128.036l-.12806-.03613Z"/><path class="cls-11" d="M10.09063,8.40547a.3042.3042,0,0,0-.1279.01635l.12784-.01646Z"/><path class="cls-11" d="M9.89053,8.40547a.14446.14446,0,0,0-.12791,0h.12791Z"/><path class="cls-11" d="M11.32758,8.27763a.186.186,0,0,0-.10829.03607Z"/><path class="cls-11" d="M11.14715,8.33343a.40447.40447,0,0,0-.128.036l.12806-.03613Z"/><path class="cls-11" d="M10.49083,8.40547a.30444.30444,0,0,1,.12795.01635l-.12806-.01646Z"/><path class="cls-11" d="M10.69092,8.40547a.14457.14457,0,0,1,.128,0h-.128Z"/><path class="cls-5" d="M9.22369,8.566a.01816.01816,0,0,1-.01555-.02343c.00374-.01393.0149-.02189.02544-.01817.00671.00237.019.01475.019.01918.00007.0051-.00642.01721-.00921.01724l-.00414.00233a.019.019,0,0,1-.01557.00285Z"/><path class="cls-5" d="M10.47985,8.65565a.02627.02627,0,0,1-.01178-.01656.0302.0302,0,0,1,.02124-.02335.04141.04141,0,0,1,.01908.00994.01859.01859,0,0,1-.00353.02762.035.035,0,0,1-.025.00234Z"/><path class="cls-5" d="M10.48808,8.71236a.01778.01778,0,0,1-.0139-.01861c-.00082-.0111.00026-.01283.012-.01922L10.49453,8.67l.00792.00354c.011.00489.01586.01016.01625.01754a.02251.02251,0,0,1-.01464.0202.01521.01521,0,0,1-.016.00111Z"/><path class="cls-5" d="M9.32454,8.46332a.05842.05842,0,0,0-.025.01072c-.01484.00348-.03212.01261-.04645.00286-.01411-.00436-.03288-.00092-.035.01644a.02475.02475,0,0,0,.03716.01358c.00939-.0123.035-.01951.03788.00143-.01045.01582-.00926.03679-.01787.05359a.07314.07314,0,0,1-.01143.0293.058.058,0,0,0-.03073.00643.04862.04862,0,0,0-.03716.02.10646.10646,0,0,0-.02073.04288c.00246.01658.02144.02133.03573.02216.01526.00419.03052.0097.04574.01429.02482.00556.04807.01453.07289.02.03624.01092.07428.016.11077.02573l.01144.00285c.01514.00315.023-.01333.0243-.02572.00751-.02652.01325-.05349.02072-.08.00514-.01065.01135-.0347-.00929-.0293a.0831.0831,0,0,1-.03645.01858c-.02.00116-.00858.02161-.00071.03a.05436.05436,0,0,1-.01144.04c-.01189.00754-.02679-.00128-.0393-.00428-.01314.00022-.03941-.00648-.02716-.0243.00435-.01319.00474-.02763.01-.04073a.185.185,0,0,0,.01072-.04431c-.00826-.01778-.02238.00585-.03359.00786-.00773.00536-.03672.00764-.02144.02144.01315.01.00307.02736.00071.04-.00084.01761-.01916.02181-.03359.01786-.01435-.00069-.03433-.01137-.02215-.02715.00277-.01315.00736-.02608.01-.03931l.01573-.04716a.13186.13186,0,0,1,.01429-.04c.00039-.01568.01092-.02917.01072-.045-.00108-.00774-.00454-.01057-.00929-.01072Zm-.08218.1658.005.00071c.00571.00243.00588.00708,0,.01215l-.00643.00429c-.0107-.00092-.01385-.00251-.01429-.00643-.0004-.00346.0007-.00445.00786-.00786l.00786-.00286Z"/><path class="cls-5" d="M9.21866,8.74392c-.01134-.01067-.00952-.01844.00726-.03095.00718-.00535.01153-.00474.01974.00274.01263.01153.01313.01882.002.0287a.01762.01762,0,0,1-.01433.006.01641.01641,0,0,1-.01465-.00644Z"/><path class="cls-5" d="M9.28841,8.765a.01966.01966,0,0,1-.01423-.02488c.00293-.00993.00463-.01091.01921-.01106.01635-.00016.01952.00257.01968.017.00009.0081-.00054.01-.00457.01373a.02455.02455,0,0,1-.02009.00523Z"/><path class="cls-5" d="M11.3262,8.76679a.0126.0126,0,0,1-.00629-.01178c-.00007-.00939.00534-.01627.01706-.02158.01559-.00706.02195-.00609.02782.00425.00781.01375.00744.01936-.00192.02863-.00516.00511-.00613.00541-.01795.00553-.01161.00007-.01293-.00024-.01872-.005Z"/><path class="cls-5" d="M9.381,8.79308a.01706.01706,0,0,1-.01275-.01845c-.00009-.00763.00046-.00885.0058-.013L9.38731,8.756a.01475.01475,0,0,1,.01325.00315c.01259.00885.01526.0176.008.0261a.02318.02318,0,0,1-.0275.00784Z"/><path class="cls-5" d="M9.8823,8.81549,9.876,8.80893a.14515.14515,0,0,1,.00538-.03769.22164.22164,0,0,1,.00445-.0361c.00427-.0212.00427-.043.00919-.06412a.11945.11945,0,0,1,.00441-.03213c.0036-.01651.00031-.03376.00516-.05007-.00052-.00613.00654-.02249.01273-.0128a.20992.20992,0,0,0,.03249.03466c.01.00577.00083.01428-.00609.01714a.02156.02156,0,0,0-.01113.02338.28236.28236,0,0,0-.00552.02813c-.002.01423-.00162.02869-.00347.04291a.22441.22441,0,0,0-.004.04316c.00018.00912-.00415.0174-.00355.02654a.03829.03829,0,0,1-.00931.02681A.02159.02159,0,0,1,9.8823,8.8155Z"/><path class="cls-5" d="M10.56149,8.59139a.31785.31785,0,0,0-.03073.02787c-.01355.01026.01113.01623.01429.025a.21475.21475,0,0,1,.00429.04145.1045.1045,0,0,1,.005.03931c-.00119.01423-.01974.01123-.02787.01929-.01125.00474-.01573.01579-.0243.02358a.095.095,0,0,0-.00786.03716c.00081.01025-.00692.02171,0,.03073l.00286.00429.01143.00143a.09827.09827,0,0,0,.0343-.00357.66191.66191,0,0,1,.08362-.00643c.01713.00054.03361-.00542.05074-.005.01342.003.01945-.01157.01929-.02215-.0076-.01495-.001-.03267-.00715-.04788a.27062.27062,0,0,1-.00571-.0486A.01372.01372,0,0,0,10.65939,8.7c-.00781.0079-.02042.00947-.02644.0193-.00678.01377.01435.01379.01787.0243a.11974.11974,0,0,1,.00357.03358c.00261.01355-.0121.01432-.02144.01573-.01227.0046-.0295.00768-.03645-.00715a.12616.12616,0,0,1-.005-.0343c-.0003-.0204-.0052-.04044-.00643-.06074-.00118-.02509-.00551-.05-.00715-.075-.00023-.01042-.00161-.0274-.01643-.0243ZM10.5472,8.78l.00714.00071.00072.00858.00071.00857-.00929.00286-.00922.00216-.00436-.00287c-.005-.00363-.00374-.00881.00286-.01573A.01127.01127,0,0,1,10.54719,8.78Z"/><path class="cls-5" d="M9.862,8.56783c-.0087.00309-.01973.01585-.02859.01572-.02012.00143-.01731.021-.00286.02788a.10055.10055,0,0,1,.00072.02c.00281.01805-.00859.03258-.00643.05074-.001.0199-.007.03928-.00787.05931-.00565.02066-.00571.0419-.00929.06289-.00238.01883-.016.01218-.02787.00715l-.00071-.0243c.005-.01869-.01009-.02414-.025-.02644a.01908.01908,0,0,1-.02-.02573c.00674-.008.02369-.00579.0343-.00715.02244.00466.02153-.02542.01-.03573-.00788-.01453-.0274-.02079-.03287-.03573a.05429.05429,0,0,0-.02716-.04931.059.059,0,0,0-.05288.04074l-.03073.01c-.01621.00406-.03933.03218-.01715.04288.01244.00343.05031.01207.03359.0293a.03577.03577,0,0,1-.04359.01215c-.01655,0-.035-.00806-.03431-.02716a.19651.19651,0,0,0-.01072-.05145c-.00339-.0192-.02517-.01471-.02644.00286a.03064.03064,0,0,0-.00285.04644.0646.0646,0,0,1-.00715.05146c-.00437.02-.02643.02069-.04217.02715-.00771.003-.03724-.00178-.02644.015a.10237.10237,0,0,0,.05575.00715.06126.06126,0,0,0,.0443-.03145c.01264-.0128.03435-.0061.05074-.00643.01768,0,.03574.01241.05289.00429.005-.01291.02794-.03421.035-.01215a.02767.02767,0,0,0,.0343.02787c.01976-.00113.01246.014.01215.02573a.049.049,0,0,0,.03288.04145.043.043,0,0,0,.01858,0c.0171-.00538.03553-.013.04073-.03216a.43378.43378,0,0,0,.01215-.04931.61424.61424,0,0,0,.01-.07789c.00632-.02374.00451-.04885.00929-.07289.003-.01788.00528-.03575.00715-.0536-.0021-.00955-.00622-.01114-.01143-.00929Zm-.15508.095c.00347.00042.00539.00466.00572.01215a.017.017,0,0,0,.01.01643c.00417.00105.00381.00546-.00072.00858a.0286.0286,0,0,1-.01572.00286.03671.03671,0,0,1-.02859-.01072l-.00428-.00429.00643-.00429.01286-.01143c.00652-.00665.01083-.00972.01429-.00929Z"/><path class="cls-5" d="M11.21689,8.48276a.19165.19165,0,0,0-.03787.00572c-.02379-.00148-.03573.02349-.01286.03573.01375.03509.03522-.00725.05717-.00429.03287.0064.03565.0419.04073.06861a.34875.34875,0,0,0,.01715.07718c.022.02445-.01648.03979-.03287.02072-.014-.01519-.04392-.03383-.06075-.01286-.02066.00875-.02151.03637-.03859.04431-.02765.00841-.03113-.02559-.04573-.04-.01343-.01885-.03911-.0205-.06-.02716-.00981-.01986-.0047-.05364-.025-.06718-.01706.007-.04833.03893-.02216.0536.02556.022-.01115.032-.02287.04717a.11734.11734,0,0,0-.02215.06789c-.0288.01591-.0344-.018-.03787-.03931-.00225-.02541-.02369-.018-.03859-.00857-.02179.00882-.03266.02951-.04789.04574a.42842.42842,0,0,0,.00072.04645c.00495.01855.02749.00984.04145.00857.02238-.00936.03154.01435.01357.02787-.01216.01546-.05076.00739-.04716.03216a.19638.19638,0,0,0,.03787,0,.06752.06752,0,0,0,.05431-.05217c.00329-.0242.03814-.01979.05717-.025.02381-.00686.05248-.00862.05789.02144.01622.017.05142.03622.06932.01286a.05494.05494,0,0,0,.02572-.05145c-.0037-.01794.029-.0186.03716-.00858.01193.01962.04919.01383.06718.00286.01912-.01411.02327-.039.05074-.0393.04076-.0122.08311-.01924.12292-.03431.03225-.007-.0048-.02739-.01287-.0393-.02455-.01215-.04592.03754-.0736.01286-.0214-.01637-.02-.04749-.02788-.07146a.17055.17055,0,0,0-.02644-.09148.07083.07083,0,0,0-.05788-.01929Zm-.15579.21654.01144.00428a.03007.03007,0,0,1,.01715.02216c0,.00486-.00125.00519-.00858.00857l-.01143.00429c-.00414,0-.01428-.00816-.01429-.01143l-.00286-.01072c-.00269-.00734-.00228-.00724.00143-.01215Zm.14936.00786a.016.016,0,0,1,.01715.00857c.00416.00753.00133.01329-.00929.01787l-.01.00357-.00858-.005c-.00618-.00407-.00708-.006-.00715-.01072C11.19253,8.71424,11.20058,8.7078,11.21046,8.70716Zm-.20439.00214.00787.00357a.01793.01793,0,0,1,.00643.01358.05113.05113,0,0,1,0,.01429c-.00111.00517-.00122.00494-.01287.005-.01464.00013-.016-.00146-.01572-.015.00019-.00862.00027-.01094.005-.01572Zm-.12577.03287a.01306.01306,0,0,1,.01.01c.0015.00726.00019.01057-.00571.01358a.03082.03082,0,0,1-.02.00143l-.00429-.00429.00071-.00572.00286-.00357.00357-.00643a.01243.01243,0,0,1,.01287-.005Zm.21153.02716a.01491.01491,0,0,1,.01.00357.00783.00783,0,0,1-.00072.01287.04913.04913,0,0,1-.02572,0l-.00358-.005c0-.00322.00086-.0052.00643-.00786l.01358-.00357Z"/><path class="cls-5" d="M10.69916,8.87953,10.697,8.87446a.03221.03221,0,0,1,.01885-.01189.07847.07847,0,0,0,.03141-.02557c.00115-.00762.00969-.01175.00966-.01971a.13084.13084,0,0,0-.00194-.03261.04024.04024,0,0,0-.0189-.02227c-.00587-.00461-.01541-.00588-.01758-.014-.0012-.00784.0058-.01381.00825-.0208l.01488-.02915c.00593-.00659.01507-.00036.01814.006a.074.074,0,0,1,.0103.02052.063.063,0,0,1,.01553.02657.04864.04864,0,0,1,.00845.02209c0,.00952.00537.018.005.02759a.09936.09936,0,0,1-.00439.03828c-.0032.00671-.00962.01074-.01387.01675a.07953.07953,0,0,1-.02469.01684c-.00661.0021-.01045.00973-.01874.00788a.19813.19813,0,0,1-.03538-.00009l-.00286-.00131Z"/><path class="cls-5" d="M10.54251,8.88982c-.00555-.00571-.00675-.00813-.00681-.01373-.00007-.00566.001-.00791.00645-.0134.01-.01012.01492-.01036.03222-.00161.01654.00837.02213.00913.02361.0032.00143-.00572.011-.011.02-.011a.01873.01873,0,0,1,.01354.00466c.00574.00448.006.00517.00617.01553.00009.01059,0,.011-.00664.01683a.0144.0144,0,0,1-.01522.00514A.01742.01742,0,0,1,10.5982,8.882c-.00118-.00571-.00319-.00708-.0047-.00319l-.00546.00342a.05154.05154,0,0,0-.01816.01144l-.01186.003a.01552.01552,0,0,1-.01551-.00684Z"/><path class="cls-5" d="M10.08926,8.68629a.03582.03582,0,0,0-.03359.02787c.00348.0172.01777.03406.00857.05217.00635.02317-.01741.032-.03358.01858a.33073.33073,0,0,0-.0293-.06646c-.01839-.00521-.0264.02417-.03931.0343.0064.01727.02506.03276.02716.05431a.05483.05483,0,0,1-.02644.055c-.01569.015-.03717.00962-.05646.01286-.02342.01369.01719.0187.02787.0193a.07873.07873,0,0,0,.06646-.01858c.01759-.0084.01623-.03882.03716-.04217.03633-.00162.07233.00557.10863.00643.01942.00465.04947-.00231.06288.01215a.06112.06112,0,0,0,.04217.05074c.0114.00318.02342-.011.035-.01358.02208-.007.01537-.03434.02859-.045.03774-.002.07584-.00161.11363-.00214.00719.00018.00931-.01006.01429-.01429-.00083-.01461-.00136-.02911-.00357-.04359-.00728-.01845.00117-.04219-.01215-.05789-.019-.00517-.03513.0122-.05431.01358a.0637.0637,0,0,0-.04.05288c-.01254.02051-.03265-.00365-.02573-.02072a.11281.11281,0,0,0-.00071-.02287c-.0116-.01391-.0319-.00936-.04788-.01143-.02329.00092-.046-.00411-.06932-.00358a.3297.3297,0,0,1-.06146-.00357c-.02359-.00067-.02034-.02374-.0243-.04a.0233.0233,0,0,0-.01429-.00429Zm.04573.08433.02287.00214c.00986.00162.02035-.00339.03,0,.02233.0038.04467.0029.06717.005a.02211.02211,0,0,1,.0143.00786c0,.01563,0,.03153,0,.04717-.00069.00589.00174.01368-.00358.01786l-.00571.00286a.025.025,0,0,1-.01573-.01143.158.158,0,0,1,.00072-.0243V8.81063a.02856.02856,0,0,0-.01644-.00571l-.05788-.00286a.24482.24482,0,0,1-.0486-.00286c-.00614-.00223-.01413-.00147-.01786-.00786-.00536-.00623.00236-.01365.00786-.01644a.05209.05209,0,0,1,.02286-.00429Zm.258.00571c.00363,0,.00479.00115.00643.00786l.00286.01144-.00429.005c-.01129.00426-.02254.00384-.02644-.00143l.00358-.01286a.03606.03606,0,0,1,.01786-.01Z"/><path class="cls-12" d="M10.29027,7.48319A1.73962,1.73962,0,0,0,10.97273,6.068a.29085.29085,0,0,1-.05811.00591,1.10738,1.10738,0,0,1-.61716-.20336,1.27,1.27,0,0,1-.63057.20336A.28364.28364,0,0,1,9.60878,6.068a1.73706,1.73706,0,0,0,.68148,1.41516Z"/><path class="cls-13" d="M10.9132,6.12962l-.01938.0006a1.2195,1.2195,0,0,1-.59858-.182,1.37985,1.37985,0,0,1-.60775.182l-.01943-.002c-.00032.03181.00133.06477.00331.09476a1.67177,1.67177,0,0,0,.05688.33278,1.625,1.625,0,0,0,.56192.84967,1.62756,1.62756,0,0,0,.56259-.85038,1.67275,1.67275,0,0,0,.05706-.33274c.002-.02937.0036-.06155.00338-.09271Z"/><path class="cls-5" d="M10.04787,6.06078a1.4182,1.4182,0,0,1-.36018.06932L9.6684,6.128c-.00033.0318.00159.06506.00357.095a1.66592,1.66592,0,0,0,.05646.3323,1.62422,1.62422,0,0,0,.31944.61244v-1.107Z"/><path class="cls-5" d="M10.51941,6.05872V7.185a1.6263,1.6263,0,0,0,.33374-.6303,1.66844,1.66844,0,0,0,.05646-.3323c.00195-.02937.00379-.06174.00357-.0929l-.01929.00071a1.39746,1.39746,0,0,1-.37447-.07146Z"/><path class="cls-14" d="M10.57224,5.78773c.01524.0009-.02063-.08159-.02063-.08159.04035.04125.19278.05111.19278.05111-.09145-.04038-.1829-.34522-.17216-.5882.00988-.24386-.03495-.3398-.07082-.37568a.5765.5765,0,0,0-.28961-.09145c-.0547-.00269-.04572.04125-.04572.04125a.37224.37224,0,0,0-.24837-.00539c-.043.0287-.052.17215-.02063.14705.07621-.061.14257-.00538.18829.061a.60954.60954,0,0,1-.02062.416,1.39949,1.39949,0,0,1-.22774.40527.536.536,0,0,0,.21788-.0807l-.03049.12643a.77877.77877,0,0,0,.17215-.11656l.09145.09593a.93436.93436,0,0,1,.09146-.09593.33094.33094,0,0,0,.19277.09145Z"/><path class="cls-15" d="M10.202,5.20414a1.35766,1.35766,0,0,1-.147.48238"/><path class="cls-15" d="M10.28272,5.1943a1.86807,1.86807,0,0,1-.08607.5021"/><path class="cls-15" d="M10.3543,5.20962a3.65559,3.65559,0,0,0,.02511.48685"/><path class="cls-15" d="M10.44486,5.23021a1.35251,1.35251,0,0,0,.1067.47609"/><path class="cls-16" d="M10.10961,5.0221a.18124.18124,0,0,0-.02421-.07621c-.04573-.06635-.11207-.12194-.18828-.061,0,0,.026-.0807.08159-.08339.043-.00269.14076.03228.22684.17933,0,0-.06366-.01435-.0789-.0009-.02869.0251-.017.04214-.017.04214Z"/><path class="cls-16" d="M9.88916,4.78542a.088.088,0,0,1,.02869-.04752.3721.3721,0,0,1,.24835.00538s-.009-.04394.04573-.04125a.5763.5763,0,0,1,.2896.09146.18021.18021,0,0,1,.03407.05469h-.00179c-.02241-.03138-.08608-.02959-.10132-.0278a.41142.41142,0,0,0-.07173.00986.14475.14475,0,0,0-.05111.01794c-.00986.00807-.01793.03766-.03317.03766-.02421,0-.02242-.00628-.02869-.01345-.00807-.00987-.01256-.02421-.02063-.02332-.0251.00449-.06545-.01524-.11655-.05558a.15607.15607,0,0,0-.13718-.04573.10556.10556,0,0,0-.08607.04214l.00179-.00448Z"/><circle class="cls-2" cx="10.26383" cy="4.81771" r="0.02689"/></g></g></g></svg>