<svg xmlns="http://www.w3.org/2000/svg" viewBox="0 0 2273.09172 1348.8833"><defs><style>.cls-1{isolation:isolate;}.cls-2{font-size:63.51456px;fill:#ffc32e;font-family:NeutraText-Bold, Neutra Text;letter-spacing:-0.07em;}.cls-10,.cls-11,.cls-15,.cls-16,.cls-2,.cls-22,.cls-24,.cls-25,.cls-27,.cls-28,.cls-29,.cls-30,.cls-31,.cls-32,.cls-33,.cls-34,.cls-35,.cls-36,.cls-39,.cls-4,.cls-40,.cls-42,.cls-43,.cls-44,.cls-5,.cls-6,.cls-9{font-weight:700;}.cls-3{letter-spacing:-0.06em;}.cls-10,.cls-11,.cls-15,.cls-16,.cls-22,.cls-24,.cls-25,.cls-27,.cls-28,.cls-29,.cls-30,.cls-31,.cls-32,.cls-33,.cls-34,.cls-35,.cls-36,.cls-39,.cls-4,.cls-40,.cls-42,.cls-43,.cls-44,.cls-5,.cls-6,.cls-9{font-size:12px;}.cls-25,.cls-27,.cls-29,.cls-4,.cls-6{fill:#f8f4e8;}.cls-11,.cls-15,.cls-22,.cls-30,.cls-36,.cls-4,.cls-40,.cls-43,.cls-6,.cls-9{font-family:TradeGothicLT-BoldCondTwenty, TradeGothic LT CondEighteen;}.cls-10,.cls-15,.cls-20,.cls-27,.cls-28,.cls-32,.cls-35,.cls-4,.cls-5{letter-spacing:-0.06002em;}.cls-10,.cls-16,.cls-24,.cls-28,.cls-31,.cls-32,.cls-33,.cls-38,.cls-44,.cls-5{mix-blend-mode:multiply;}.cls-5{fill:#72683d;}.cls-10,.cls-16,.cls-24,.cls-25,.cls-27,.cls-28,.cls-29,.cls-31,.cls-32,.cls-33,.cls-34,.cls-35,.cls-39,.cls-42,.cls-44,.cls-5{font-family:Gotham-Bold, Gotham;}.cls-16,.cls-25,.cls-31,.cls-33,.cls-34,.cls-42,.cls-44,.cls-6,.cls-8,.cls-9{letter-spacing:-0.05998em;}.cls-7{letter-spacing:-0.11495em;}.cls-11,.cls-15,.cls-22,.cls-30,.cls-36,.cls-40,.cls-43,.cls-46,.cls-9{fill:#fff;}.cls-10,.cls-16{fill:#cca55e;}.cls-11{letter-spacing:-0.00997em;}.cls-12{letter-spacing:-0.02799em;}.cls-13{letter-spacing:-0.047em;}.cls-14,.cls-43{letter-spacing:-0.01001em;}.cls-17{letter-spacing:-0.11499em;}.cls-18{letter-spacing:-0.078em;}.cls-19{letter-spacing:-0.09696em;}.cls-21{letter-spacing:-0.09701em;}.cls-22,.cls-26{letter-spacing:-0.07796em;}.cls-23,.cls-24,.cls-29,.cls-30,.cls-39{letter-spacing:-0.06006em;}.cls-24,.cls-28,.cls-31,.cls-39,.cls-42{fill:#d16428;}.cls-32,.cls-33{fill:#79aeb2;}.cls-34,.cls-35{fill:#916376;}.cls-36{letter-spacing:-0.01998em;}.cls-37{letter-spacing:-0.11503em;}.cls-40{letter-spacing:-0.03003em;}.cls-41{letter-spacing:-0.08504em;}.cls-44{fill:#a5bb48;}.cls-45{fill:#4a98d0;}.cls-47{fill:none;stroke:#848484;stroke-width:0.23438px;}.cls-48{fill:#6d8f3c;}.cls-49{fill:#f9f0aa;stroke:#999270;stroke-width:0.00352px;}</style></defs><g class="cls-1"><g id="Layer_2" data-name="Layer 2"><g id="Layer_20" data-name="Layer 20"><text class="cls-2" transform="translate(1346.27544 349.60764)">CC<tspan class="cls-3" x="81.93408" y="0">CP</tspan></text><g id="Country_Plates" data-name="Country Plates"><text class="cls-4" transform="translate(292.34972 920.97183)">COLOMBIA</text><text class="cls-5" transform="translate(349.3524 920.97183)">1</text><text class="cls-6" transform="translate(175.60442 956.41425)">ECUADOR</text><text class="cls-5" transform="translate(229.75743 956.41425)">2</text><text class="cls-4" transform="translate(236.57695 1034.89343)">PERU</text><text class="cls-5" transform="translate(283.14501 1034.89343)">2</text><text class="cls-4" transform="translate(360.99596 1108.77679)">BOLIVIA</text><text class="cls-5" transform="translate(411.81792 1108.77679)">2</text><text class="cls-4" transform="translate(417.43834 1191.94427)">PARAGU<tspan class="cls-7" x="30.33545" y="0">A</tspan><tspan class="cls-8" x="34.28369" y="0">Y</tspan></text><text class="cls-5" transform="translate(473.22808 1191.94427)">2</text><text class="cls-4" transform="translate(457.28008 1285.69427)">URUGU<tspan class="cls-7" x="26.3999" y="0">A</tspan><tspan x="30.34814" y="0">Y</tspan></text><text class="cls-5" transform="translate(511.10192 1285.69427)">2</text><text class="cls-9" transform="translate(1153.95836 756.5159)">SUDAN</text><text class="cls-10" transform="translate(1204.03667 756.5159)">1</text><text class="cls-11" transform="translate(842.94066 756.5159)">SAHARAN S<tspan class="cls-12" x="46.22314" y="0">T</tspan><tspan class="cls-13" x="50.55518" y="0">A</tspan><tspan class="cls-14" x="55.31885" y="0">TES</tspan></text><text class="cls-10" transform="translate(922.3012 756.5159)">1</text><text class="cls-10" transform="translate(754.12389 756.5159)">2</text><text class="cls-15" transform="translate(698.63378 629.08731)">MOROCCO</text><text class="cls-16" transform="translate(754.13561 629.08731)">3</text><text class="cls-15" transform="translate(941.20513 574.00919)">TUNISIA</text><text class="cls-10" transform="translate(992.02733 574.00919)">2</text><text class="cls-9" transform="translate(1333.31072 893.22586)">SOMALIA</text><text class="cls-10" transform="translate(1385.7943 893.22586)">2</text><text class="cls-9" transform="translate(1214.07457 846.11508)">ETHIOPIA</text><text class="cls-10" transform="translate(1268.74278 846.11508)">1</text><text class="cls-9" transform="translate(1219.66637 940.02939)">KEN<tspan class="cls-17" x="14.49561" y="0">Y</tspan><tspan x="18.44336" y="0">A</tspan></text><text class="cls-10" transform="translate(1267.53722 940.02939)">2</text><text class="cls-9" transform="translate(1220.86815 1020.86237)">SE AFRICAN S<tspan class="cls-18" x="49.99072" y="0">T</tspan><tspan class="cls-19" x="53.72266" y="0">A</tspan><tspan class="cls-20" x="57.88672" y="0">TES</tspan></text><text class="cls-10" transform="translate(1298.63158 1020.86237)">1</text><text class="cls-9" transform="translate(1172.86986 1101.69531)">ZIMBABWE</text><text class="cls-10" transform="translate(1230.8662 1101.69531)">1</text><text class="cls-15" transform="translate(1105.32616 1182.52649)">BOTS<tspan class="cls-21" x="19.11572" y="0">W</tspan><tspan class="cls-8" x="25.95557" y="0">ANA</tspan></text><text class="cls-10" transform="translate(1161.89714 1182.52649)">2</text><text class="cls-15" transform="translate(956.57366 940.02939)">CAMEROON</text><text class="cls-10" transform="translate(1015.23796 940.02939)">1</text><text class="cls-22" transform="translate(2074.66338 684.27109)">T<tspan class="cls-23" x="3.73242" y="0">AI</tspan><tspan class="cls-21" x="10.95605" y="0">W</tspan><tspan class="cls-23" x="17.7959" y="0">AN</tspan></text><text class="cls-24" transform="translate(2124.86284 684.27109)">3</text><text class="cls-9" transform="translate(1659.09703 693.64609)">INDIA</text><text class="cls-25" transform="translate(1705.65288 693.64609)">3</text><text class="cls-15" transform="translate(1528.53099 639.43567)">PAKIS<tspan class="cls-26" x="21.71924" y="0">T</tspan><tspan x="25.45166" y="0">AN</tspan></text><text class="cls-27" transform="translate(1582.54582 639.43567)">2</text><text class="cls-9" transform="translate(1520.94701 546.16873)">AFGHANIS<tspan class="cls-18" x="36.88721" y="0">T</tspan><tspan x="40.61914" y="0">AN</tspan></text><text class="cls-28" transform="translate(1582.54582 546.16873)">2</text><text class="cls-9" transform="translate(2101.39281 441.47324)">N KOREA</text><text class="cls-29" transform="translate(2153.55413 441.47324)">3</text><text class="cls-30" transform="translate(2124.28588 521.37024)">S KOREA</text><text class="cls-29" transform="translate(2176.11016 521.37024)">3</text><text class="cls-9" transform="translate(2218.27904 601.26727)">JAPAN</text><text class="cls-25" transform="translate(2265.42363 601.26727)">4</text><text class="cls-30" transform="translate(2068.7542 1138.77725)">AUSTRALIA</text><text class="cls-31" transform="translate(2124.45464 1138.77725)">4</text><text class="cls-9" transform="translate(1293.71129 595.01007)">IRAQ</text><text class="cls-25" transform="translate(1338.96007 595.01007)">3</text><text class="cls-9" transform="translate(1239.01604 671.18195)">JORDAN</text><text class="cls-32" transform="translate(1289.5327 671.18195)">2</text><text class="cls-15" transform="translate(1355.98723 671.18195)">GULF S<tspan class="cls-18" x="25.66748" y="0">T</tspan><tspan class="cls-19" x="29.39941" y="0">A</tspan><tspan x="33.56348" y="0">TES</tspan></text><text class="cls-33" transform="translate(1415.70751 671.18195)">3</text><text class="cls-15" transform="translate(1176.17632 518.18503)">LEBANON</text><text class="cls-32" transform="translate(1230.86894 518.18503)">1</text><text class="cls-9" transform="translate(1297.06816 518.18503)">SYRIA</text><text class="cls-32" transform="translate(1344.27281 518.18503)">2</text><text class="cls-9" transform="translate(769.83245 355.26959)">FRANCE</text><text class="cls-25" transform="translate(821.02092 355.26959)">3</text><text class="cls-15" transform="translate(781.91948 278.48215)">BENELUX</text><text class="cls-34" transform="translate(835.08104 278.48215)">3</text><text class="cls-15" transform="translate(678.91472 201.1384)">UK</text><text class="cls-35" transform="translate(720.16057 201.1384)">5</text><text class="cls-27" transform="translate(641.77175 247.33177)">5</text><text class="cls-27" transform="translate(279.82787 317.56819)">2</text><text class="cls-15" transform="translate(307.03966 271.37506)">CANADA</text><text class="cls-35" transform="translate(357.82067 271.37506)">4</text><text class="cls-15" transform="translate(834.95488 47.62277)">NOR<tspan class="cls-19" x="15.83984" y="0">W</tspan><tspan class="cls-17" x="22.68018" y="0">A</tspan><tspan class="cls-8" x="26.62793" y="0">Y</tspan></text><text class="cls-35" transform="translate(886.52196 47.62277)">4</text><text class="cls-15" transform="translate(854.9923 125.06616)">DENMARK</text><text class="cls-34" transform="translate(909.4857 125.06616)">3</text><text class="cls-9" transform="translate(977.22753 125.06616)">SWEDEN</text><text class="cls-35" transform="translate(1029.01042 125.06616)">4</text><text class="cls-15" transform="translate(888.02825 278.48215)">W GERMANY</text><text class="cls-27" transform="translate(946.72869 278.48215)">4</text><text class="cls-36" transform="translate(660.39055 462.42291)">SPAIN/PORTUGAL</text><text class="cls-35" transform="translate(738.16472 462.42291)">2</text><text class="cls-9" transform="translate(921.95818 435.21603)">I<tspan class="cls-18" x="2.61621" y="0">T</tspan><tspan x="6.34814" y="0">A</tspan><tspan class="cls-37" x="10.95605" y="0">L</tspan><tspan x="14.24365" y="0">Y</tspan></text><text class="cls-27" transform="translate(967.72789 435.21603)">2</text><text class="cls-15" transform="translate(1051.33037 518.18503)">GREECE</text><text class="cls-35" transform="translate(1102.50713 518.18503)">2</text><text class="cls-15" transform="translate(1256.29003 435.19562)">TURKEY</text><text class="cls-35" transform="translate(1306.80101 435.19562)">2</text><text class="cls-9" transform="translate(930.77849 357.11783)">AUSTRIA</text><text class="cls-35" transform="translate(982.20006 357.11783)">4</text><text class="cls-9" transform="translate(1115.44664 10.33182)">FINLAND</text><text class="cls-35" transform="translate(1167.20482 10.33182)">4</text><text class="cls-15" transform="translate(1050.3665 357.11783)">HUNGA<tspan class="cls-18" x="25.72803" y="0">R</tspan><tspan class="cls-8" x="30.79199" y="0">Y</tspan></text><text class="cls-34" transform="translate(1104.42314 357.11783)">3</text><text class="cls-15" transform="translate(1009.42589 278.48215)">CZECHOSLO<tspan class="cls-19" x="44.17139" y="0">V</tspan><tspan class="cls-8" x="48.33545" y="0">AKIA</tspan></text><text class="cls-34" transform="translate(1078.17021 278.48215)">3</text><text class="cls-15" transform="translate(1049.47545 201.1384)">POLAND</text><text class="cls-25" transform="translate(1100.66997 201.1384)">3</text><text class="cls-25" transform="translate(984.95445 247.3318)">3</text><text class="cls-9" transform="translate(927.23918 201.1384)">E GERMANY</text><text class="cls-25" transform="translate(985.00939 201.1384)">3</text><text class="cls-9" transform="translate(1022.84929 435.21603)">YUGOSL<tspan class="cls-19" x="29.00342" y="0">A</tspan><tspan x="33.16748" y="0">VIA</tspan></text><text class="cls-34" transform="translate(1081.70445 435.21603)">3</text><text class="cls-15" transform="translate(1139.33867 435.21603)">BULGARIA</text><text class="cls-34" transform="translate(1194.14482 435.21603)">3</text><text class="cls-15" transform="translate(1161.47069 357.11783)">ROMANIA</text><text class="cls-34" transform="translate(1214.96947 357.11783)">3</text><text class="cls-9" transform="translate(1410.59062 595.01007)">IRAN</text><text class="cls-27" transform="translate(1455.82744 595.01007)">2</text><text class="cls-9" transform="translate(1323.78288 756.5159)">SAUDI ARABIA</text><text class="cls-25" transform="translate(1385.80602 756.5159)">3</text><text class="cls-9" transform="translate(1165.28331 595.01007)">ISRAEL</text><text class="cls-27" transform="translate(1214.06621 595.01007)">4</text><text class="cls-9" transform="translate(1116.75133 671.18195)">EGYPT</text><text class="cls-27" transform="translate(1164.95812 671.18195)">2</text><text class="cls-15" transform="translate(1000.97142 652.52481)">LIB<tspan class="cls-7" x="11.84375" y="0">Y</tspan><tspan x="15.79199" y="0">A</tspan></text><text class="cls-27" transform="translate(1047.51506 652.52481)">2</text><text class="cls-9" transform="translate(1844.27336 795.54477)">THAILAND</text><text class="cls-25" transform="translate(1898.40129 795.54477)">2</text><text class="cls-30" transform="translate(1961.63774 795.54477)">VIETNAM</text><g class="cls-38"><text class="cls-39" transform="translate(2015.32842 795.54477)">1</text></g><text class="cls-40" transform="translate(1894.86809 916.07419)">MAL<tspan class="cls-41" x="16.24805" y="0">A</tspan><tspan x="20.55566" y="0">YSIA</tspan></text><g class="cls-38"><text class="cls-42" transform="translate(1950.24919 916.07419)">2</text></g><text class="cls-9" transform="translate(2116.64794 795.54477)">PHILIPPINES</text><g class="cls-38"><text class="cls-42" transform="translate(2176.69799 795.54477)">2</text></g><text class="cls-9" transform="translate(2065.86595 1006.48227)">INDONESIA</text><g class="cls-38"><text class="cls-39" transform="translate(2123.50194 1006.48227)">1</text></g><text class="cls-15" transform="translate(1784.26323 713.02805)">BURMA</text><g class="cls-38"><text class="cls-42" transform="translate(1834.13744 713.02805)">2</text></g><text class="cls-43" transform="translate(1870.04778 713.02805)">LAOS/CAMBODIA</text><g class="cls-38"><text class="cls-42" transform="translate(1947.75908 713.02805)">1</text></g><text class="cls-15" transform="translate(893.68291 846.11508)">NIGERIA</text><text class="cls-27" transform="translate(946.37749 846.11508)">1</text><text class="cls-9" transform="translate(824.22032 574.00919)">ALGERIA</text><text class="cls-27" transform="translate(876.03893 574.00919)">2</text><text class="cls-9" transform="translate(1095.08061 940.02939)">ZAIRE</text><text class="cls-27" transform="translate(1143.49101 940.02939)">1</text><text class="cls-9" transform="translate(1001.76372 1020.86237)">ANGOLA</text><text class="cls-27" transform="translate(1053.81615 1020.86237)">1</text><text class="cls-9" transform="translate(1031.11852 1263.35864)">SOUTH AFRICA</text><text class="cls-25" transform="translate(1094.14464 1263.35864)">3</text><text class="cls-6" transform="translate(353.30028 834.8042)">VENEZUELA</text><text class="cls-27" transform="translate(410.72106 834.8042)">2</text><text class="cls-4" transform="translate(568.76872 1053.88956)">BRAZIL</text><text class="cls-27" transform="translate(618.28264 1053.88956)">2</text><text class="cls-4" transform="translate(302.78356 1190.09525)">CHILE</text><text class="cls-25" transform="translate(350.0056 1190.09525)">3</text><text class="cls-6" transform="translate(327.3709 1345.32022)">ARGENTINA</text><text class="cls-27" transform="translate(384.46977 1345.32022)">2</text><text class="cls-4" transform="translate(97.78459 834.8042)">COS<tspan class="cls-18" x="15.16797" y="0">T</tspan><tspan class="cls-8" x="18.8999" y="0">A RICA</tspan></text><text class="cls-44" transform="translate(155.7589 834.8042)">3</text><rect id="rect6" class="cls-45" y="657.36729" width="18.70064" height="13.26319"/><rect id="rect8" class="cls-46" x="6.23352" y="657.36729" width="6.23358" height="13.26319"/><line class="cls-47" x1="7.72009" y1="665.32038" x2="11.02905" y2="662.01142"/><line class="cls-47" x1="7.72009" y1="662.01142" x2="11.02905" y2="665.32038"/><path class="cls-48" d="M7.75,662.03638a2.50525,2.50525,0,0,0-.19238,2.44653,2.758,2.758,0,0,0,.76.8999c.26742.28089.65257.69843,1.14079.64948a1.56959,1.56959,0,0,0,1.10973-.70142,3.28672,3.28672,0,0,0,.68574-.94641,2.54271,2.54271,0,0,0-.27523-2.42346,2.23775,2.23775,0,0,1,.96017,2.67895,2.09108,2.09108,0,0,1-.98517,1.23163,3.64372,3.64372,0,0,1-1.49516.16413,3.9171,3.9171,0,0,1-1.50194-.09314A2.33475,2.33475,0,0,1,7.75,662.03638Z"/><polygon class="cls-49" points="10.647 664.869 8.876 664.869 8.277 662.7 10.047 662.7 10.647 664.869"/></g></g></g></g></svg>