<svg xmlns="http://www.w3.org/2000/svg" viewBox="0 0 2245.95508 1348.8833"><defs><style>.cls-1{isolation:isolate;}.cls-2{font-size:63.51456px;fill:#ffc32e;font-family:NeutraText-Bold, Neutra Text;letter-spacing:-0.07em;}.cls-10,.cls-11,.cls-15,.cls-16,.cls-2,.cls-22,.cls-24,.cls-25,.cls-27,.cls-28,.cls-29,.cls-30,.cls-31,.cls-32,.cls-33,.cls-34,.cls-35,.cls-36,.cls-39,.cls-4,.cls-40,.cls-42,.cls-43,.cls-44,.cls-45,.cls-5,.cls-6,.cls-9{font-weight:700;}.cls-3{letter-spacing:-0.06em;}.cls-10,.cls-11,.cls-15,.cls-16,.cls-22,.cls-24,.cls-25,.cls-27,.cls-28,.cls-29,.cls-30,.cls-31,.cls-32,.cls-33,.cls-34,.cls-35,.cls-36,.cls-39,.cls-4,.cls-40,.cls-42,.cls-43,.cls-44,.cls-45,.cls-5,.cls-6,.cls-9{font-size:12px;}.cls-25,.cls-27,.cls-29,.cls-4,.cls-6{fill:#f8f4e8;}.cls-11,.cls-15,.cls-22,.cls-30,.cls-36,.cls-4,.cls-40,.cls-43,.cls-6,.cls-9{font-family:TradeGothicLT-BoldCondTwenty, TradeGothic LT CondEighteen;}.cls-10,.cls-15,.cls-20,.cls-27,.cls-28,.cls-32,.cls-35,.cls-4,.cls-45,.cls-5{letter-spacing:-0.06002em;}.cls-10,.cls-16,.cls-24,.cls-28,.cls-31,.cls-32,.cls-33,.cls-38,.cls-44,.cls-45,.cls-5{mix-blend-mode:multiply;}.cls-5{fill:#72683d;}.cls-10,.cls-16,.cls-24,.cls-25,.cls-27,.cls-28,.cls-29,.cls-31,.cls-32,.cls-33,.cls-34,.cls-35,.cls-39,.cls-42,.cls-44,.cls-45,.cls-5{font-family:Gotham-Bold, Gotham;}.cls-16,.cls-25,.cls-31,.cls-33,.cls-34,.cls-42,.cls-44,.cls-6,.cls-8,.cls-9{letter-spacing:-0.05998em;}.cls-7{letter-spacing:-0.11495em;}.cls-11,.cls-15,.cls-22,.cls-30,.cls-36,.cls-40,.cls-43,.cls-48,.cls-9{fill:#fff;}.cls-10,.cls-16{fill:#cca55e;}.cls-11{letter-spacing:-0.00997em;}.cls-12{letter-spacing:-0.02799em;}.cls-13{letter-spacing:-0.047em;}.cls-14,.cls-43{letter-spacing:-0.01001em;}.cls-17{letter-spacing:-0.11499em;}.cls-18{letter-spacing:-0.078em;}.cls-19{letter-spacing:-0.09696em;}.cls-21{letter-spacing:-0.09701em;}.cls-22,.cls-26{letter-spacing:-0.07796em;}.cls-23,.cls-24,.cls-29,.cls-30,.cls-39{letter-spacing:-0.06006em;}.cls-24,.cls-28,.cls-31,.cls-39,.cls-42{fill:#d16428;}.cls-32,.cls-33{fill:#79aeb2;}.cls-34,.cls-35{fill:#916376;}.cls-36{letter-spacing:-0.01998em;}.cls-37{letter-spacing:-0.11503em;}.cls-40{letter-spacing:-0.03003em;}.cls-41{letter-spacing:-0.08504em;}.cls-44,.cls-45{fill:#a5bb48;}.cls-46{fill:#283890;}.cls-47{fill:#d31f36;}.cls-49{fill:#0e6b37;stroke:#0e6b37;stroke-width:0.04502px;}</style></defs><g class="cls-1"><g id="Layer_2" data-name="Layer 2"><g id="Layer_20" data-name="Layer 20"><text class="cls-2" transform="translate(1319.13879 349.60764)">CC<tspan class="cls-3" x="81.93408" y="0">CP</tspan></text><g id="Country_Plates" data-name="Country Plates"><text class="cls-4" transform="translate(265.21307 920.97183)">COLOMBIA</text><text class="cls-5" transform="translate(322.21576 920.97183)">1</text><text class="cls-6" transform="translate(148.46777 956.41425)">ECUADOR</text><text class="cls-5" transform="translate(202.62079 956.41425)">2</text><text class="cls-4" transform="translate(209.44031 1034.89343)">PERU</text><text class="cls-5" transform="translate(256.00836 1034.89343)">2</text><text class="cls-4" transform="translate(333.85931 1108.77679)">BOLIVIA</text><text class="cls-5" transform="translate(384.68127 1108.77679)">2</text><text class="cls-4" transform="translate(390.3017 1191.94427)">PARAGU<tspan class="cls-7" x="30.33545" y="0">A</tspan><tspan class="cls-8" x="34.28369" y="0">Y</tspan></text><text class="cls-5" transform="translate(446.09143 1191.94427)">2</text><text class="cls-4" transform="translate(430.14343 1285.69427)">URUGU<tspan class="cls-7" x="26.3999" y="0">A</tspan><tspan x="30.34814" y="0">Y</tspan></text><text class="cls-5" transform="translate(483.96527 1285.69427)">2</text><text class="cls-9" transform="translate(1126.82172 756.5159)">SUDAN</text><text class="cls-10" transform="translate(1176.90002 756.5159)">1</text><text class="cls-11" transform="translate(815.80402 756.5159)">SAHARAN S<tspan class="cls-12" x="46.22314" y="0">T</tspan><tspan class="cls-13" x="50.55518" y="0">A</tspan><tspan class="cls-14" x="55.31885" y="0">TES</tspan></text><text class="cls-10" transform="translate(895.16455 756.5159)">1</text><text class="cls-10" transform="translate(726.98724 756.5159)">2</text><text class="cls-15" transform="translate(671.49713 629.08731)">MOROCCO</text><text class="cls-16" transform="translate(726.99896 629.08731)">3</text><text class="cls-15" transform="translate(914.06848 574.00919)">TUNISIA</text><text class="cls-10" transform="translate(964.89069 574.00919)">2</text><text class="cls-9" transform="translate(1306.17407 893.22586)">SOMALIA</text><text class="cls-10" transform="translate(1358.65765 893.22586)">2</text><text class="cls-9" transform="translate(1186.93793 846.11508)">ETHIOPIA</text><text class="cls-10" transform="translate(1241.60614 846.11508)">1</text><text class="cls-9" transform="translate(1192.52972 940.02939)">KEN<tspan class="cls-17" x="14.49561" y="0">Y</tspan><tspan x="18.44336" y="0">A</tspan></text><text class="cls-10" transform="translate(1240.40057 940.02939)">2</text><text class="cls-9" transform="translate(1193.73151 1020.86237)">SE AFRICAN S<tspan class="cls-18" x="49.99072" y="0">T</tspan><tspan class="cls-19" x="53.72266" y="0">A</tspan><tspan class="cls-20" x="57.88672" y="0">TES</tspan></text><text class="cls-10" transform="translate(1271.49493 1020.86237)">1</text><text class="cls-9" transform="translate(1145.73322 1101.69531)">ZIMBABWE</text><text class="cls-10" transform="translate(1203.72955 1101.69531)">1</text><text class="cls-15" transform="translate(1078.18951 1182.52649)">BOTS<tspan class="cls-21" x="19.11572" y="0">W</tspan><tspan class="cls-8" x="25.95557" y="0">ANA</tspan></text><text class="cls-10" transform="translate(1134.7605 1182.52649)">2</text><text class="cls-15" transform="translate(929.43701 940.02939)">CAMEROON</text><text class="cls-10" transform="translate(988.10132 940.02939)">1</text><text class="cls-22" transform="translate(2047.52673 684.27109)">T<tspan class="cls-23" x="3.73242" y="0">AI</tspan><tspan class="cls-21" x="10.95605" y="0">W</tspan><tspan class="cls-23" x="17.7959" y="0">AN</tspan></text><text class="cls-24" transform="translate(2097.7262 684.27109)">3</text><text class="cls-9" transform="translate(1631.96039 693.64609)">INDIA</text><text class="cls-25" transform="translate(1678.51624 693.64609)">3</text><text class="cls-15" transform="translate(1501.39435 639.43567)">PAKIS<tspan class="cls-26" x="21.71924" y="0">T</tspan><tspan x="25.45166" y="0">AN</tspan></text><text class="cls-27" transform="translate(1555.40918 639.43567)">2</text><text class="cls-9" transform="translate(1493.81036 546.16873)">AFGHANIS<tspan class="cls-18" x="36.88721" y="0">T</tspan><tspan x="40.61914" y="0">AN</tspan></text><text class="cls-28" transform="translate(1555.40918 546.16873)">2</text><text class="cls-9" transform="translate(2074.25616 441.47324)">N KOREA</text><text class="cls-29" transform="translate(2126.41748 441.47324)">3</text><text class="cls-30" transform="translate(2097.14923 521.37024)">S KOREA</text><text class="cls-29" transform="translate(2148.97351 521.37024)">3</text><text class="cls-9" transform="translate(2191.1424 601.26727)">JAPAN</text><text class="cls-25" transform="translate(2238.28699 601.26727)">4</text><text class="cls-30" transform="translate(2041.61755 1138.77725)">AUSTRALIA</text><text class="cls-31" transform="translate(2097.31799 1138.77725)">4</text><text class="cls-9" transform="translate(1266.57465 595.01007)">IRAQ</text><text class="cls-25" transform="translate(1311.82343 595.01007)">3</text><text class="cls-9" transform="translate(1211.87939 671.18195)">JORDAN</text><text class="cls-32" transform="translate(1262.39606 671.18195)">2</text><text class="cls-15" transform="translate(1328.85059 671.18195)">GULF S<tspan class="cls-18" x="25.66748" y="0">T</tspan><tspan class="cls-19" x="29.39941" y="0">A</tspan><tspan x="33.56348" y="0">TES</tspan></text><text class="cls-33" transform="translate(1388.57086 671.18195)">3</text><text class="cls-15" transform="translate(1149.03967 518.18503)">LEBANON</text><text class="cls-32" transform="translate(1203.7323 518.18503)">1</text><text class="cls-9" transform="translate(1269.93152 518.18503)">SYRIA</text><text class="cls-32" transform="translate(1317.13617 518.18503)">2</text><text class="cls-9" transform="translate(742.6958 355.26959)">FRANCE</text><text class="cls-25" transform="translate(793.88428 355.26959)">3</text><text class="cls-15" transform="translate(754.78284 278.48215)">BENELUX</text><text class="cls-34" transform="translate(807.9444 278.48215)">3</text><text class="cls-15" transform="translate(651.77808 201.1384)">UK</text><text class="cls-35" transform="translate(693.02393 201.1384)">5</text><text class="cls-27" transform="translate(614.6351 247.33177)">5</text><text class="cls-27" transform="translate(252.69122 317.56819)">2</text><text class="cls-15" transform="translate(279.90302 271.37506)">CANADA</text><text class="cls-35" transform="translate(330.68402 271.37506)">4</text><text class="cls-15" transform="translate(807.81824 47.62277)">NOR<tspan class="cls-19" x="15.83984" y="0">W</tspan><tspan class="cls-17" x="22.68018" y="0">A</tspan><tspan class="cls-8" x="26.62793" y="0">Y</tspan></text><text class="cls-35" transform="translate(859.38531 47.62277)">4</text><text class="cls-15" transform="translate(827.85565 125.06616)">DENMARK</text><text class="cls-34" transform="translate(882.34906 125.06616)">3</text><text class="cls-9" transform="translate(950.09088 125.06616)">SWEDEN</text><text class="cls-35" transform="translate(1001.87378 125.06616)">4</text><text class="cls-15" transform="translate(860.8916 278.48215)">W GERMANY</text><text class="cls-27" transform="translate(919.59204 278.48215)">4</text><text class="cls-36" transform="translate(633.25391 462.42291)">SPAIN/PORTUGAL</text><text class="cls-35" transform="translate(711.02808 462.42291)">2</text><text class="cls-9" transform="translate(894.82153 435.21603)">I<tspan class="cls-18" x="2.61621" y="0">T</tspan><tspan x="6.34814" y="0">A</tspan><tspan class="cls-37" x="10.95605" y="0">L</tspan><tspan x="14.24365" y="0">Y</tspan></text><text class="cls-27" transform="translate(940.59125 435.21603)">2</text><text class="cls-15" transform="translate(1024.19373 518.18503)">GREECE</text><text class="cls-35" transform="translate(1075.37048 518.18503)">2</text><text class="cls-15" transform="translate(1229.15338 435.19562)">TURKEY</text><text class="cls-35" transform="translate(1279.66437 435.19562)">2</text><text class="cls-9" transform="translate(903.64185 357.11783)">AUSTRIA</text><text class="cls-35" transform="translate(955.06342 357.11783)">4</text><text class="cls-9" transform="translate(1088.31 10.33182)">FINLAND</text><text class="cls-35" transform="translate(1140.06818 10.33182)">4</text><text class="cls-15" transform="translate(1023.22986 357.11783)">HUNGA<tspan class="cls-18" x="25.72803" y="0">R</tspan><tspan class="cls-8" x="30.79199" y="0">Y</tspan></text><text class="cls-34" transform="translate(1077.2865 357.11783)">3</text><text class="cls-15" transform="translate(982.28925 278.48215)">CZECHOSLO<tspan class="cls-19" x="44.17139" y="0">V</tspan><tspan class="cls-8" x="48.33545" y="0">AKIA</tspan></text><text class="cls-34" transform="translate(1051.03357 278.48215)">3</text><text class="cls-15" transform="translate(1022.33881 201.1384)">POLAND</text><text class="cls-25" transform="translate(1073.53333 201.1384)">3</text><text class="cls-25" transform="translate(957.81781 247.3318)">3</text><text class="cls-9" transform="translate(900.10254 201.1384)">E GERMANY</text><text class="cls-25" transform="translate(957.87274 201.1384)">3</text><text class="cls-9" transform="translate(995.71265 435.21603)">YUGOSL<tspan class="cls-19" x="29.00342" y="0">A</tspan><tspan x="33.16748" y="0">VIA</tspan></text><text class="cls-34" transform="translate(1054.56781 435.21603)">3</text><text class="cls-15" transform="translate(1112.20203 435.21603)">BULGARIA</text><text class="cls-34" transform="translate(1167.00818 435.21603)">3</text><text class="cls-15" transform="translate(1134.33405 357.11783)">ROMANIA</text><text class="cls-34" transform="translate(1187.83282 357.11783)">3</text><text class="cls-9" transform="translate(1383.45398 595.01007)">IRAN</text><text class="cls-27" transform="translate(1428.6908 595.01007)">2</text><text class="cls-9" transform="translate(1296.64624 756.5159)">SAUDI ARABIA</text><text class="cls-25" transform="translate(1358.66937 756.5159)">3</text><text class="cls-9" transform="translate(1138.14667 595.01007)">ISRAEL</text><text class="cls-27" transform="translate(1186.92957 595.01007)">4</text><text class="cls-9" transform="translate(1089.61469 671.18195)">EGYPT</text><text class="cls-27" transform="translate(1137.82147 671.18195)">2</text><text class="cls-15" transform="translate(973.83478 652.52481)">LIB<tspan class="cls-7" x="11.84375" y="0">Y</tspan><tspan x="15.79199" y="0">A</tspan></text><text class="cls-27" transform="translate(1020.37842 652.52481)">2</text><text class="cls-9" transform="translate(1817.13672 795.54477)">THAILAND</text><text class="cls-25" transform="translate(1871.26465 795.54477)">2</text><text class="cls-30" transform="translate(1934.5011 795.54477)">VIETNAM</text><g class="cls-38"><text class="cls-39" transform="translate(1988.19177 795.54477)">1</text></g><text class="cls-40" transform="translate(1867.73145 916.07419)">MAL<tspan class="cls-41" x="16.24805" y="0">A</tspan><tspan x="20.55566" y="0">YSIA</tspan></text><g class="cls-38"><text class="cls-42" transform="translate(1923.11255 916.07419)">2</text></g><text class="cls-9" transform="translate(2089.51129 795.54477)">PHILIPPINES</text><g class="cls-38"><text class="cls-42" transform="translate(2149.56134 795.54477)">2</text></g><text class="cls-9" transform="translate(2038.72931 1006.48227)">INDONESIA</text><g class="cls-38"><text class="cls-39" transform="translate(2096.3653 1006.48227)">1</text></g><text class="cls-15" transform="translate(1757.12659 713.02805)">BURMA</text><g class="cls-38"><text class="cls-42" transform="translate(1807.00079 713.02805)">2</text></g><text class="cls-43" transform="translate(1842.91113 713.02805)">LAOS/CAMBODIA</text><g class="cls-38"><text class="cls-42" transform="translate(1920.62244 713.02805)">1</text></g><text class="cls-15" transform="translate(866.54626 846.11508)">NIGERIA</text><text class="cls-27" transform="translate(919.24084 846.11508)">1</text><text class="cls-9" transform="translate(797.08368 574.00919)">ALGERIA</text><text class="cls-27" transform="translate(848.90228 574.00919)">2</text><text class="cls-9" transform="translate(1067.94397 940.02939)">ZAIRE</text><text class="cls-27" transform="translate(1116.35437 940.02939)">1</text><text class="cls-9" transform="translate(974.62708 1020.86237)">ANGOLA</text><text class="cls-27" transform="translate(1026.6795 1020.86237)">1</text><text class="cls-9" transform="translate(1003.98187 1263.35864)">SOUTH AFRICA</text><text class="cls-25" transform="translate(1067.008 1263.35864)">3</text><text class="cls-6" transform="translate(326.16364 834.8042)">VENEZUELA</text><text class="cls-27" transform="translate(383.58441 834.8042)">2</text><text class="cls-4" transform="translate(541.63208 1053.88956)">BRAZIL</text><text class="cls-27" transform="translate(591.146 1053.88956)">2</text><text class="cls-4" transform="translate(275.64691 1190.09525)">CHILE</text><text class="cls-25" transform="translate(322.86896 1190.09525)">3</text><text class="cls-6" transform="translate(300.23425 1345.32022)">ARGENTINA</text><text class="cls-27" transform="translate(357.33313 1345.32022)">2</text><text class="cls-4" transform="translate(70.64795 834.8042)">COS<tspan class="cls-18" x="15.16797" y="0">T</tspan><tspan class="cls-8" x="18.8999" y="0">A RICA</tspan></text><text class="cls-44" transform="translate(128.62225 834.8042)">3</text><text class="cls-4" transform="translate(0.00024 668.28387)">GU<tspan class="cls-19" x="10.56006" y="0">A</tspan><tspan x="14.72412" y="0">TEMALA</tspan></text><text class="cls-45" transform="translate(59.07861 668.28387)">1</text><text class="cls-4" transform="translate(71.81787 750.30151)">HONDURAS</text><text class="cls-45" transform="translate(128.61053 750.30151)">2</text><text class="cls-4" transform="translate(190.77557 750.30151)">NICARAGUA</text><text class="cls-45" transform="translate(249.74597 750.30151)">1</text><g id="g2562"><rect id="rect6538" class="cls-46" x="276.0084" y="708.12433" width="22.5116" height="13.50696"/><rect id="rect6540" class="cls-47" x="276.0084" y="714.87781" width="22.5116" height="6.75348"/><rect id="Background" class="cls-48" x="285.13366" y="713.1797" width="4.26107" height="3.39211"/><path class="cls-49" d="M289.25948,716.06653l-.01809-.00644a.15525.15525,0,0,1-.00824-.03157.34382.34382,0,0,1,.06888.01871.60671.60671,0,0,0-.18473-.16468.39057.39057,0,0,1,.04344.14756,1.02564,1.02564,0,0,0-.1184-.03324c-.13646-.0305-.11841-.08763-.2842-.1246l.14693-.13462.05125-.00236a.30939.30939,0,0,0-.0221-.03181l.12693-.10484a.59494.59494,0,0,1,.10746.0056c.0073.00286-.02552.03712-.01871.05022.02535.04873.19785.04205.21148.03139.02334-.01824-.16065-.03388-.16186-.0463-.00139-.01424.02721-.05163.02277-.07454-.00464-.024-.05384-.03574-.07274-.03939l.00882-.00729s.01139-.01039.0031-.01942c-.00847-.00924-.01859.00149-.01859.00149l-.22621.18719-.02543-.01822-.0122.0463s-.12022.10414-.16794.14568c-.046-.01192-.10251-.03069-.1623-.05253a.28035.28035,0,0,0,.011-.154.33725.33725,0,0,0,.0584-.08368l.10241-.0103.0026.01644h.04268l-.02627-.20431-.046.01742.00365.02306-.02562.0026a.42489.42489,0,0,0,.01951-.21234.2715.2715,0,0,0,.04764-.16143.48484.48484,0,0,1,.01506.14338l.08943-.02647.00414.00449.02671-.05253-.10664-.136.05566-.01706a.4243.4243,0,0,0-.02352-.05235l.00931-.00544.05583.00794.12416-.1321-.18907.04685-.01191.0385-.01149.00671a.39691.39691,0,0,0-.03311-.041l-.05749.04227a.07361.07361,0,0,0-.10645.00509l-.00221-.00262a.23946.23946,0,0,0,.02549.09358l-.10163.05409a.963.963,0,0,0,.02422-.34086.35373.35373,0,0,1,.03949.13358l.08518-.03636-.00273-.00353.00195.0016.00773-.04741-.11435-.12015.05023-.0243a.43188.43188,0,0,0-.03172-.04815l.00831-.00678.05644-.00058.1012-.14921-.17914.07481-.00552.03982-.01026.00836a.403.403,0,0,0-.03935-.03548l-.05159.05211a.079.079,0,0,0-.0919.03053l.00334.00529-.00922-.01293a.20661.20661,0,0,0,.02993.08505l-.119.08931a.45816.45816,0,0,0-.06943-.26874.37532.37532,0,0,1,.06742.1174l.05631-.0395.01176.00789.02647-.04621-.14283-.10244.05608-.04023a.43873.43873,0,0,0-.0399-.04211l.007-.00806.05547-.01.0728-.1639-.163.10369.00174.04014-.0086.01a.4101.4101,0,0,0-.04514-.02835l-.04164.06025a.09338.09338,0,0,0-.11248.0303l.004.00444-.00653-.00687a.18314.18314,0,0,0,.06707.09061l-.40943.43839.06741-.145h.04984l.1258-.34335-.15726.28385-.04064-.00858-.18565.36353-.0389.04165.15737-.42294h.035l.07977-.36111-.11753.29433-.04508-.00278-.19209.54085.113-.46759.03462.00222.043-.37295-.07752.32236-.05134-.00121-.08223.34589c-.00506-.1376-.02624-.348-.03321-.41457h.012l-.01678-.09622h.00924l-.02435-.09731h.008l-.00987-.0528a.28223.28223,0,0,0,.08165-.08257l-.05682.14963.10135-.10519a.43381.43381,0,0,1,.00154.13334.2165.2165,0,0,0,.03992-.18667l.03839.043a.19028.19028,0,0,0-.043-.13778l.05221.04592a.413.413,0,0,0-.08753-.12592l.0906.04a.13142.13142,0,0,0-.02092-.05664l.0313-.024-.00543.05343.02115-.001.00768.08518.02068-.06513a.37275.37275,0,0,1,.02385.09847c.03149-.10057.01632-.11261.08676-.02519a.398.398,0,0,0-.11684-.241l.01882-.01695c.01766.00963.0296.05931.0296.05931l.02277-.05052.00455.0659.02049-.04613.02277.06151.00456-.06151c.01689.00444.05464.10324.05464.10324.00845.00222.02277-.05491.02277-.05491l.02277.05271.01366-.04832.00911.05052c.02457-.03407.03931-.03039.05236.0022l.00456-.04174.02129.05418.01742-.05418a.60045.60045,0,0,1,.05684.02858.91083.91083,0,0,0-.47264-.25191l.04694-.00073-.00228-.02636.041.03735.01594-.03515.041.04833.01138-.03954.04782.05491c.02505-.01537.0683.011.0683.011l.025-.04174.02732.0637.0296-.02416.06376.08347.0091-.08347.041.123.02732-.07468.01138.09665.03416-.0681a.37546.37546,0,0,0,.06147.06151c-.02172-.17494-.11132-.15824-.27932-.25222l-.00529-.02676.07742.033-.01139-.05492.08652.09445-.00227-.05711.07058.05711-.03188-.07029.0888.0681-.00455-.05272s.05009.05711.10246.04393c-.09644-.17034-.469-.14418-.68319-.08505a.322.322,0,0,1,.18332-.068c.0119.001-.00559-.01769.00809-.0274l.05267.02452a.15941.15941,0,0,0-.02426-.06878c.012.00088.07278.05158.08083.04848a.18935.18935,0,0,0-.03277-.04216.63575.63575,0,0,1,.12016.04637s-.02637-.03943-.039-.05535c.02012.0031.059.03009.10233.02163a.4907.4907,0,0,0-.66941.11053l.00328-.09955a.18129.18129,0,0,0,.0473.00212l.00131-.00253.00058.00071a.08008.08008,0,0,0,.032-.08722.31107.31107,0,0,1,.01148-.09414c-.00266-.06962-.1813-.09361-.17665-.06289.00484.032.05117-.00772.00567.09478l-.00066.00112c-.01632.01719-.04142.04444-.03524.06542l.00034.00015c.0014.02244.04157.05087.07008.06662l-.00468.1219c-.34277-.33122-.61152-.16484-.67617-.117a.22474.22474,0,0,0,.10234-.02163c-.01261.01592-.039.05535-.039.05535a.63548.63548,0,0,1,.12016-.04637.18935.18935,0,0,0-.03277.04216c.00805.0031.06883-.0476.08083-.04848a.15941.15941,0,0,0-.02426.06878l.05266-.02452c.01369.00971-.0038.02838.0081.0274a.322.322,0,0,1,.18332.068c-.2142-.05913-.58675-.08529-.68319.08505.05237.01318.10246-.04393.10246-.04393l-.00455.05272.0888-.0681-.03188.07029.07058-.05711-.00227.05711.08652-.09445-.01139.05492.07742-.033-.00529.02676c-.168.094-.2576.07728-.27932.25222a.37546.37546,0,0,0,.06147-.06151l.03416.0681.01138-.09665.02732.07468.041-.123.00911.08347.06376-.08347.0296.02416.02732-.0637.025.04174s.04326-.02636.06831-.011l.04781-.05491.01139.03954.041-.04833.01594.03515.041-.03735-.00228.02636.04694.00073a.91083.91083,0,0,0-.47264.25191.60045.60045,0,0,1,.05684-.02858l.01742.05418.02129-.05418.00455.04174c.01306-.03259.0278-.03627.05237-.0022l.00911-.05052.01366.04832.02277-.05271s.01432.05713.02277.05491c0,0,.03775-.0988.05464-.10324l.00456.06151.02277-.06151.02049.04613.00455-.0659.02277.05052s.01194-.04968.0296-.05931l.01882.01695a.39812.39812,0,0,0-.11685.241c.07045-.08742.05528-.07538.08677.02519a.37275.37275,0,0,1,.02385-.09847l.02068.06513.00768-.08518.02114.001-.00542-.05343.0313.024a.13124.13124,0,0,0-.02092.05664l.0906-.04a.413.413,0,0,0-.08753.12592l.05221-.04592a.19028.19028,0,0,0-.043.13778l.03839-.043a.21647.21647,0,0,0,.03992.18667.43381.43381,0,0,1,.00154-.13334l.10077.10459-.02172.08365h.01113l-.02254.09622h.00874c-.00388.05848-.01461.22786-.01785.36126l-.06956-.29258-.05134.00121-.07752-.32236.043.37295.03463-.00222.113.46761-.1921-.54087-.04508.00278-.11753-.29433.07977.36111h.035l.15737.42294-.0389-.04165-.18565-.36353-.04064.00858-.15726-.28385.12579.34335h.04985l.0674.145-.40942-.43839a.18308.18308,0,0,0,.06706-.09061l-.00647.00681.004-.00438a.09338.09338,0,0,0-.11248-.0303l-.04164-.06025a.4101.4101,0,0,0-.04514.02835l-.0086-.01.00174-.04014-.163-.10369.07281.1639.05547.01.007.00806a.43873.43873,0,0,0-.0399.04211l.05608.04023-.14283.10244.02647.04621.01176-.00789.0563.0395a.37557.37557,0,0,1,.06743-.1174.45816.45816,0,0,0-.06943.26874l-.119-.08931a.20661.20661,0,0,0,.02993-.08505l-.00922.01293.00334-.00529a.079.079,0,0,0-.0919-.03053l-.05159-.05211a.40174.40174,0,0,0-.03935.03549l-.01026-.00837-.00552-.03982-.17914-.07481.1012.14921.05644.00058.00831.00678a.43188.43188,0,0,0-.03172.04815l.05022.0243-.11434.12015.00717.04772.00251-.00191-.00273.00353.08518.03636a.35355.35355,0,0,1,.03949-.13358.963.963,0,0,0,.02422.34086l-.10163-.05409a.23946.23946,0,0,0,.02549-.09358l-.00221.00262a.07361.07361,0,0,0-.10645-.00509l-.05749-.04227a.39691.39691,0,0,0-.03311.041l-.01149-.00671-.01191-.0385-.18907-.04685.12416.1321.05583-.00794.00931.00544a.425.425,0,0,0-.02352.05235l.05565.01706-.10663.136.02671.05253.00414-.00449.08943.02647a.4841.4841,0,0,1,.01506-.14337.27148.27148,0,0,0,.04763.16142.425.425,0,0,0,.01952.21234l-.02562-.0026.00365-.02306-.046-.01742-.02627.20431h.04268l.0026-.01644.10241.0103a.33749.33749,0,0,0,.05839.08368.28044.28044,0,0,0,.0114.15517c-.06049.01909-.11835.03618-.16633.04827-.04977-.04331-.16434-.14254-.16434-.14254l-.0122-.0463-.02542.01822-.22621-.18719s-.01012-.01073-.01859-.00149c-.00829.009.0031.01942.0031.01942l.00882.00729c-.0189.00365-.0681.01535-.07275.03939-.00443.02291.02417.0603.02278.07454-.00121.01242-.1852.02806-.16187.0463.01364.01066.18613.01734.21149-.03139.00681-.0131-.026-.04736-.01871-.05022a.59494.59494,0,0,1,.10746-.0056l.12693.10484a.30766.30766,0,0,0-.0221.03181l.05125.00236.14343.13142-.00042.00009c-.18127.03681-.1577.09636-.298.12771a1.06237,1.06237,0,0,1-.19124.03735.31911.31911,0,0,0-.13708.06714v.47045h4.26107v-.44748A.83777.83777,0,0,0,289.25948,716.06653Zm-1.95575-2.1775.02972.00574-.02794.03205Zm-.1022.02062-.013-.01488.01387-.00268Zm-.005.09786-.00223.04351a.1326.1326,0,0,1-.01955-.06736Zm.09959.18024h.00779l-.00617.00923Zm.014-.16341.03715-.04068a.17606.17606,0,0,1-.03466.09345Zm-.11809.07074-.00255.0498-.04238-.06344Zm-.00412.08044-.00063.01223h.01566l.00026.0002-.00524.02414-.04011-.061Zm.11222.073-.00324-.01732h.00681l-.00473-.02707.06519-.053Zm.01678-.08021-.00322-.06824.06122-.01859Zm.18439-.18213a.1792.1792,0,0,0-.07879-.06322l.05836.00592-.0691-.05185.03071-.00889-.02472-.04708.03895.0135c.01085.01257.00542.045.00542.045l.03041-.02933c.03257.07438-.00869.06914-.00869.06914C287.51632,713.94547,287.50863,713.95582,287.5013,713.98614Zm-.48059,0c-.00733-.03032-.015-.04067.01745-.06677,0,0-.04126.00524-.00869-.06914l.0304.02933s-.00542-.03247.00543-.045l.03895-.0135-.02472.04708.03071.00889-.0691.05185.05835-.00592A.17915.17915,0,0,0,287.02071,713.98614Zm.17488.26862-.01208.05607-.04716-.12421A.38263.38263,0,0,0,287.19559,714.25476Zm-.00784.06723h.00838l-.0034.01311Zm2.00821,1.71168.00173.00993-.01364-.00511Z"/></g></g></g></g></g></svg>