<svg xmlns="http://www.w3.org/2000/svg" viewBox="0 0 34.92016 23.28011"><defs><style>.cls-1{fill:#f89939;}.cls-2{fill:#fff;}.cls-3{fill:#1e8943;}.cls-4{fill:#2a2c7a;}</style></defs><g id="Layer_2" data-name="Layer 2"><g id="Layer_20" data-name="Layer 20"><g id="Country_Plates" data-name="Country Plates"><rect class="cls-1" width="34.92016" height="23.28011"/><rect class="cls-2" y="7.76004" width="34.92016" height="7.76004"/><rect class="cls-3" y="15.52007" width="34.92016" height="7.76004"/><circle class="cls-4" cx="17.46008" cy="11.64005" r="3.10401"/><circle class="cls-2" cx="17.46008" cy="11.64005" r="2.71601"/><circle class="cls-4" cx="17.46008" cy="11.64005" r="0.5432"/><g id="b"><g id="a"><circle class="cls-4" cx="20.15286" cy="11.99457" r="0.1358"/><path class="cls-4" d="M17.46008,14.35607l.09312-1.62961-.09312-.776-.09312.776Z"/></g><g id="a-2" data-name="a"><circle class="cls-4" cx="19.96935" cy="12.67943" r="0.1358"/><path class="cls-4" d="M16.75713,14.26352l.51172-1.55.11089-.77366-.29079.72546Z"/></g></g><g id="c"><g id="b-2" data-name="b"><g id="a-3" data-name="a"><circle class="cls-4" cx="19.61484" cy="13.29346" r="0.1358"/><path class="cls-4" d="M16.10208,13.99219l.89544-1.36472.30736-.7186-.46865.62548Z"/></g><g id="a-4" data-name="a"><circle class="cls-4" cx="19.11349" cy="13.79481" r="0.1358"/><path class="cls-4" d="M15.53957,13.56057l1.21815-1.08646.48288-.61457-.61457.48287Z"/></g></g></g><g id="d"><g id="b-3" data-name="b"><g id="a-5" data-name="a"><circle class="cls-4" cx="18.49946" cy="14.14932" r="0.1358"/><path class="cls-4" d="M15.108,12.99806l1.45784-.73416.62548-.46864-.7186.30735Z"/></g><g id="a-6" data-name="a"><circle class="cls-4" cx="17.81459" cy="14.33283" r="0.1358"/><path class="cls-4" d="M14.83662,12.343l1.59818-.33183.72546-.29079-.77367.1109Z"/></g></g><g id="c-2" data-name="c"><g id="b-4" data-name="b"><g id="a-7" data-name="a"><circle class="cls-4" cx="17.10557" cy="14.33283" r="0.1358"/><path class="cls-4" d="M14.74407,11.64005l1.62961.09313.776-.09313-.776-.09312Z"/></g><g id="a-8" data-name="a"><circle class="cls-4" cx="16.42071" cy="14.14932" r="0.1358"/><path class="cls-4" d="M14.83662,10.9371l1.55.51172.77367.1109-.72546-.29079Z"/></g></g></g></g><g id="b-5" data-name="b"><g id="a-9" data-name="a"><circle class="cls-4" cx="15.80668" cy="13.79481" r="0.1358"/><path class="cls-4" d="M15.108,10.28205l1.36472.89545.7186.30735-.62548-.46864Z"/></g><g id="a-10" data-name="a"><circle class="cls-4" cx="15.30532" cy="13.29346" r="0.1358"/><path class="cls-4" d="M15.53957,9.71954,16.626,10.9377l.61457.48287-.48288-.61457Z"/></g></g><g id="c-3" data-name="c"><g id="b-6" data-name="b"><g id="a-11" data-name="a"><circle class="cls-4" cx="14.95081" cy="12.67943" r="0.1358"/><path class="cls-4" d="M16.10208,9.28792l.73415,1.45784.46865.62548-.30736-.7186Z"/></g><g id="a-12" data-name="a"><circle class="cls-4" cx="14.76731" cy="11.99457" r="0.1358"/><path class="cls-4" d="M16.75713,9.01659l.33182,1.59818.29079.72546-.11089-.77366Z"/></g></g></g><g id="d-2" data-name="d"><g id="b-7" data-name="b"><g id="a-13" data-name="a"><circle class="cls-4" cx="14.76731" cy="11.28554" r="0.1358"/><path class="cls-4" d="M17.46008,8.924,17.367,10.55365l.09312.776.09312-.776Z"/></g><g id="a-14" data-name="a"><circle class="cls-4" cx="14.95081" cy="10.60068" r="0.1358"/><path class="cls-4" d="M18.163,9.01659l-.51172,1.55-.1109.77366.29079-.72546Z"/></g></g><g id="c-4" data-name="c"><g id="b-8" data-name="b"><g id="a-15" data-name="a"><circle class="cls-4" cx="15.30532" cy="9.98665" r="0.1358"/><path class="cls-4" d="M18.81809,9.28792l-.89545,1.36472-.30736.7186.46865-.62548Z"/></g><g id="a-16" data-name="a"><circle class="cls-4" cx="15.80668" cy="9.4853" r="0.1358"/><path class="cls-4" d="M19.38059,9.71954,18.16244,10.806l-.48287.61457.61456-.48287Z"/></g></g></g></g><g id="b-9" data-name="b"><g id="a-17" data-name="a"><circle class="cls-4" cx="16.42071" cy="9.13079" r="0.1358"/><path class="cls-4" d="M19.81222,10.28205l-1.45784.73416-.62548.46864.7186-.30735Z"/></g><g id="a-18" data-name="a"><circle class="cls-4" cx="17.10557" cy="8.94728" r="0.1358"/><path class="cls-4" d="M20.08355,10.9371l-1.59818.33183-.72546.29079.77366-.1109Z"/></g></g><g id="c-5" data-name="c"><g id="b-10" data-name="b"><g id="a-19" data-name="a"><circle class="cls-4" cx="17.81459" cy="8.94728" r="0.1358"/><path class="cls-4" d="M20.17609,11.64005l-1.6296-.09312-.776.09312.776.09313Z"/></g><g id="a-20" data-name="a"><circle class="cls-4" cx="18.49946" cy="9.13079" r="0.1358"/><path class="cls-4" d="M20.08355,12.343l-1.55-.51172-.77366-.1109.72546.29079Z"/></g></g></g><g id="d-3" data-name="d"><g id="b-11" data-name="b"><g id="a-21" data-name="a"><circle class="cls-4" cx="19.11349" cy="9.4853" r="0.1358"/><path class="cls-4" d="M19.81222,12.99806l-1.36472-.89545-.7186-.30735.62548.46864Z"/></g><g id="a-22" data-name="a"><circle class="cls-4" cx="19.61484" cy="9.98665" r="0.1358"/><path class="cls-4" d="M19.38059,13.56057l-1.08646-1.21816-.61456-.48287.48287.61457Z"/></g></g><g id="c-6" data-name="c"><g id="b-12" data-name="b"><g id="a-23" data-name="a"><circle class="cls-4" cx="19.96935" cy="10.60068" r="0.1358"/><path class="cls-4" d="M18.81809,13.99219l-.73416-1.45784-.46865-.62548.30736.7186Z"/></g><g id="a-24" data-name="a"><circle class="cls-4" cx="20.15286" cy="11.28554" r="0.1358"/><path class="cls-4" d="M18.163,14.26352l-.33183-1.59818-.29079-.72546.1109.77366Z"/></g></g></g></g></g></g></g></svg>