<svg xmlns="http://www.w3.org/2000/svg" viewBox="0 0 35.03009 20.0172"><defs><style>.cls-1{fill:#269f49;}.cls-2{fill:#fff;}.cls-3{fill:#d91f26;}.cls-4{fill:none;stroke:#fff;stroke-linecap:square;stroke-width:0.2px;}</style></defs><g id="Layer_2" data-name="Layer 2"><g id="Layer_20" data-name="Layer 20"><g id="Country_Plates" data-name="Country Plates"><rect id="rect6" class="cls-1" width="35.03009" height="20.0172"/><rect id="rect8" class="cls-2" y="6.6724" width="35.03009" height="6.6724"/><rect id="rect10" class="cls-3" y="13.3448" width="35.03009" height="6.6724"/><g id="b"><path id="p" class="cls-4" d="M16.11384,5.66042h1.86828m-1.86828.62276V5.9718h.62276v.31138h.62276V5.9718H17.048m.93414.31138h-.31138V5.9718h.62275V5.66042m0,.31138v.31138h.62276V5.66042m-.31138,0v.62276m-2.17965,0h.00016"/><path id="t" class="cls-4" d="M16.11384,6.62792h1.24552m.31138,0h1.24551"/><g id="use17"><path id="p-2" data-name="p" class="cls-4" d="M16.11384,13.734h1.86828m-1.86828.62276V14.0454h.62276v.31138h.62276V14.0454H17.048m.93414.31138h-.31138V14.0454h.62275V13.734m0,.31138v.31138h.62276V13.734m-.31138,0v.62276m-2.17965,0h.00016"/></g><g id="use19"><path id="t-2" data-name="t" class="cls-4" d="M16.11384,13.38928h1.24552m.31138,0h1.24551"/></g></g><g id="b2"><g id="b-2" data-name="b"><path id="p-3" data-name="p" class="cls-4" d="M19.22763,5.66042H21.0959m-1.86827.62276V5.9718h.62276v.31138h.62275V5.9718h-.31137m.93413.31138h-.31138V5.9718h.62276V5.66042m0,.31138v.31138H22.03V5.66042m-.31138,0v.62276m-2.17965,0h.00015"/><path id="t-3" data-name="t" class="cls-4" d="M19.22763,6.62792h1.24551m.31138,0H22.03"/><g id="use17-2" data-name="use17"><path id="p-4" data-name="p" class="cls-4" d="M19.22763,13.734H21.0959m-1.86827.62276V14.0454h.62276v.31138h.62275V14.0454h-.31137m.93413.31138h-.31138V14.0454h.62276V13.734m0,.31138v.31138H22.03V13.734m-.31138,0v.62276m-2.17965,0h.00015"/></g><g id="use21"><path id="t-4" data-name="t" class="cls-4" d="M19.22763,13.38928h1.24551m.31138,0H22.03"/></g></g></g><g id="b4"><g id="b-3" data-name="b"><path id="p-5" data-name="p" class="cls-4" d="M9.88627,5.66042h1.86827m-1.86827.62276V5.9718H10.509v.31138h.62276V5.9718h-.31138m.93413.31138h-.31138V5.9718h.62276V5.66042m0,.31138v.31138h.62276V5.66042m-.31138,0v.62276m-2.17965,0h.00016"/><path id="t-5" data-name="t" class="cls-4" d="M9.88627,6.62792h1.24552m.31137,0h1.24552"/><g id="use17-3" data-name="use17"><path id="p-6" data-name="p" class="cls-4" d="M9.88627,13.734h1.86827m-1.86827.62276V14.0454H10.509v.31138h.62276V14.0454h-.31138m.93413.31138h-.31138V14.0454h.62276V13.734m0,.31138v.31138h.62276V13.734m-.31138,0v.62276m-2.17965,0h.00016"/></g><g id="use19-2" data-name="use19"><path id="t-6" data-name="t" class="cls-4" d="M9.88627,13.38928h1.24552m.31137,0h1.24552"/></g></g><g id="b2-2" data-name="b2"><g id="b-4" data-name="b"><path id="p-7" data-name="p" class="cls-4" d="M13.00006,5.66042h1.86827m-1.86827.62276V5.9718h.62275v.31138h.62276V5.9718h-.31138m.93414.31138H14.557V5.9718h.62276V5.66042m0,.31138v.31138h.62275V5.66042m-.31137,0v.62276m-2.17965,0h.00015"/><path id="t-7" data-name="t" class="cls-4" d="M13.00006,6.62792h1.24551m.31138,0h1.24551"/><g id="use17-4" data-name="use17"><path id="p-8" data-name="p" class="cls-4" d="M13.00006,13.734h1.86827m-1.86827.62276V14.0454h.62275v.31138h.62276V14.0454h-.31138m.93414.31138H14.557V14.0454h.62276V13.734m0,.31138v.31138h.62275V13.734m-.31137,0v.62276m-2.17965,0h.00015"/></g><g id="use23"><path id="t-8" data-name="t" class="cls-4" d="M13.00006,13.38928h1.24551m.31138,0h1.24551"/></g></g></g></g><g id="b-5" data-name="b"><path id="p-9" data-name="p" class="cls-4" d="M28.569,5.66042h1.86827M28.569,6.28318V5.9718h.62276v.31138h.62275V5.9718h-.31138m.93414.31138h-.31138V5.9718h.62276V5.66042m0,.31138v.31138h.62276V5.66042m-.31138,0v.62276m-2.17965,0h.00015"/><path id="t-9" data-name="t" class="cls-4" d="M28.569,6.62792H29.8145m.31138,0H31.3714"/><g id="use17-5" data-name="use17"><path id="p-10" data-name="p" class="cls-4" d="M28.569,13.734h1.86827m-1.86827.62276V14.0454h.62276v.31138h.62275V14.0454h-.31138m.93414.31138h-.31138V14.0454h.62276V13.734m0,.31138v.31138h.62276V13.734m-.31138,0v.62276m-2.17965,0h.00015"/></g><g id="use19-3" data-name="use19"><path id="t-10" data-name="t" class="cls-4" d="M28.569,13.38928H29.8145m.31138,0H31.3714"/></g></g><g id="b2-3" data-name="b2"><g id="b-6" data-name="b"><path id="p-11" data-name="p" class="cls-4" d="M31.68277,5.66042H33.551m-1.86828.62276V5.9718h.62276v.31138h.62276V5.9718h-.31138m.93414.31138h-.31138V5.9718h.62275V5.66042m0,.31138v.31138h.62276V5.66042m-.31138,0v.62276m-2.17965,0h.00016"/><path id="t-11" data-name="t" class="cls-4" d="M31.68277,6.62792h1.24552m.31138,0h1.24551"/><g id="use17-6" data-name="use17"><path id="p-12" data-name="p" class="cls-4" d="M31.68277,13.734H33.551m-1.86828.62276V14.0454h.62276v.31138h.62276V14.0454h-.31138m.93414.31138h-.31138V14.0454h.62275V13.734m0,.31138v.31138h.62276V13.734m-.31138,0v.62276m-2.17965,0h.00016"/></g><g id="use21-2" data-name="use21"><path id="t-12" data-name="t" class="cls-4" d="M31.68277,13.38928h1.24552m.31138,0h1.24551"/></g></g></g><g id="b4-2" data-name="b4"><g id="b-7" data-name="b"><path id="p-13" data-name="p" class="cls-4" d="M22.34142,5.66042h1.86827m-1.86827.62276V5.9718h.62275v.31138h.62276V5.9718h-.31138m.93414.31138h-.31138V5.9718h.62276V5.66042m0,.31138v.31138h.62275V5.66042m-.31138,0v.62276m-2.17965,0H22.653"/><path id="t-13" data-name="t" class="cls-4" d="M22.34142,6.62792h1.24551m.31138,0h1.24551"/><g id="use17-7" data-name="use17"><path id="p-14" data-name="p" class="cls-4" d="M22.34142,13.734h1.86827m-1.86827.62276V14.0454h.62275v.31138h.62276V14.0454h-.31138m.93414.31138h-.31138V14.0454h.62276V13.734m0,.31138v.31138h.62275V13.734m-.31138,0v.62276m-2.17965,0H22.653"/></g><g id="use19-4" data-name="use19"><path id="t-14" data-name="t" class="cls-4" d="M22.34142,13.38928h1.24551m.31138,0h1.24551"/></g></g><g id="b2-4" data-name="b2"><g id="b-8" data-name="b"><path id="p-15" data-name="p" class="cls-4" d="M25.4552,5.66042h1.86827m-1.86827.62276V5.9718H26.078v.31138h.62276V5.9718h-.31138m.93413.31138H27.0121V5.9718h.62275V5.66042m0,.31138v.31138h.62276V5.66042m-.31138,0v.62276m-2.17965,0h.00016"/><path id="t-15" data-name="t" class="cls-4" d="M25.4552,6.62792h1.24552m.31138,0h1.24551"/><g id="use17-8" data-name="use17"><path id="p-16" data-name="p" class="cls-4" d="M25.4552,13.734h1.86827m-1.86827.62276V14.0454H26.078v.31138h.62276V14.0454h-.31138m.93413.31138H27.0121V14.0454h.62275V13.734m0,.31138v.31138h.62276V13.734m-.31138,0v.62276m-2.17965,0h.00016"/></g><g id="use25"><path id="t-16" data-name="t" class="cls-4" d="M25.4552,13.38928h1.24552m.31138,0h1.24551"/></g></g></g></g><g id="b-9" data-name="b"><path id="p-17" data-name="p" class="cls-4" d="M6.77248,5.66042H8.64076m-1.86828.62276V5.9718h.62276v.31138H8.018V5.9718H7.70662m.93414.31138H8.32938V5.9718h.62276V5.66042m0,.31138v.31138h.62275V5.66042m-.31138,0v.62276m-2.17965,0H7.084"/><path id="t-17" data-name="t" class="cls-4" d="M6.77248,6.62792H8.018m.31138,0H9.57489"/><g id="use17-9" data-name="use17"><path id="p-18" data-name="p" class="cls-4" d="M6.77248,13.734H8.64076m-1.86828.62276V14.0454h.62276v.31138H8.018V14.0454H7.70662m.93414.31138H8.32938V14.0454h.62276V13.734m0,.31138v.31138h.62275V13.734m-.31138,0v.62276m-2.17965,0H7.084"/></g><g id="use27"><path id="t-18" data-name="t" class="cls-4" d="M6.77248,13.38928H8.018m.31138,0H9.57489"/></g></g><g id="b-10" data-name="b"><path id="p-19" data-name="p" class="cls-4" d="M.54491,5.66042H2.41318M.54491,6.28318V5.9718h.62276v.31138h.62276V5.9718H1.47905m.93413.31138H2.10181V5.9718h.62275V5.66042m0,.31138v.31138h.62276V5.66042m-.31138,0v.62276m-2.17965,0H.85645"/><path id="t-19" data-name="t" class="cls-4" d="M.54491,6.62792H1.79043m.31138,0H3.34732"/><g id="use17-10" data-name="use17"><path id="p-20" data-name="p" class="cls-4" d="M.54491,13.734H2.41318m-1.86827.62276V14.0454h.62276v.31138h.62276V14.0454H1.47905m.93413.31138H2.10181V14.0454h.62275V13.734m0,.31138v.31138h.62276V13.734m-.31138,0v.62276m-2.17965,0H.85645"/></g><g id="use19-5" data-name="use19"><path id="t-20" data-name="t" class="cls-4" d="M.54491,13.38928H1.79043m.31138,0H3.34732"/></g></g><g id="b2-5" data-name="b2"><g id="b-11" data-name="b"><path id="p-21" data-name="p" class="cls-4" d="M3.6587,5.66042H5.527M3.6587,6.28318V5.9718h.62276v.31138h.62275V5.9718H4.59283m.93414.31138H5.21559V5.9718h.62276V5.66042m0,.31138v.31138h.62276V5.66042m-.31138,0v.62276m-2.17965,0h.00015"/><path id="t-21" data-name="t" class="cls-4" d="M3.6587,6.62792H4.90421m.31138,0H6.46111"/><g id="use17-11" data-name="use17"><path id="p-22" data-name="p" class="cls-4" d="M3.6587,13.734H5.527m-1.86827.62276V14.0454h.62276v.31138h.62275V14.0454H4.59283m.93414.31138H5.21559V14.0454h.62276V13.734m0,.31138v.31138h.62276V13.734m-.31138,0v.62276m-2.17965,0h.00015"/></g><g id="use29"><path id="t-22" data-name="t" class="cls-4" d="M3.6587,13.38928H4.90421m.31138,0H6.46111"/></g></g></g><g id="g3041"><g id="g1343"><path id="path1345" class="cls-3" d="M18.53444,8.21993a2.53223,2.53223,0,0,1,.47968,3.45069A1.88707,1.88707,0,0,0,18.53444,8.21993Z"/><path id="path1347" class="cls-3" d="M17.5151,8.01878a.357.357,0,0,1-.61314-.352c.29787.53384.61314.10252.61314.10252s.31527.43132.61315-.10252A.357.357,0,0,1,17.5151,8.01878Z"/><path id="path1349" class="cls-3" d="M17.5151,12.42884l-.207-.2708a1.88582,1.88582,0,0,1-1.12958-.06189,2.24841,2.24841,0,0,0,.92843-.147,2.32229,2.32229,0,0,1-1.16828-1.94971,2.03806,2.03806,0,0,1,.7737-1.72533,2.47608,2.47608,0,0,0,.588,3.352l-.08123-1.8878V8.35146c.10444-.02515.29593-.24565.29593-.24565s.19149.2205.29594.24565V9.7383l-.08124,1.8878a2.47607,2.47607,0,0,0,.588-3.352,2.03809,2.03809,0,0,1,.7737,1.72533,2.32229,2.32229,0,0,1-1.16828,1.94971,2.24837,2.24837,0,0,0,.92843.147,1.88586,1.88586,0,0,1-1.12959.06189Z"/><path id="path1351" class="cls-3" d="M16.49577,8.21993a2.53223,2.53223,0,0,0-.47969,3.45069A1.88708,1.88708,0,0,1,16.49577,8.21993Z"/></g></g></g></g></g></svg>