<svg xmlns="http://www.w3.org/2000/svg" viewBox="0 0 22.12787 14.75191"><defs><style>.cls-1{fill:#010101;}.cls-2{fill:#fff;}.cls-3{fill:#ce2028;}.cls-4{fill:#067b3f;}</style></defs><g id="Layer_2" data-name="Layer 2"><g id="Layer_20" data-name="Layer 20"><g id="Country_Plates" data-name="Country Plates"><rect class="cls-1" width="22.12787" height="14.75191"/><rect class="cls-2" width="22.12787" height="9.83461"/><rect class="cls-3" width="22.12787" height="4.9173"/><g id="c"><path id="t" class="cls-4" d="M6.532,5.90077l-.45586,1.403.70149.22793"/><path id="t-2" data-name="t" class="cls-4" d="M6.532,5.90077l.45586,1.403-.7015.22793"/></g><g id="c-2" data-name="c"><path id="t-3" data-name="t" class="cls-4" d="M7.935,6.9201H6.45977v.73759"/><path id="t-4" data-name="t" class="cls-4" d="M7.935,6.9201,6.7415,7.78719,6.308,7.19047"/></g><g id="c-3" data-name="c"><path id="t-5" data-name="t" class="cls-4" d="M7.39906,8.56941l-.45586-1.403-.70149.22793"/><path id="t-6" data-name="t" class="cls-4" d="M7.39906,8.56941,6.20561,7.70232l.43355-.59673"/></g><g id="c-4" data-name="c"><path id="t-7" data-name="t" class="cls-4" d="M5.66487,8.56941l1.19346-.86709-.43355-.59673"/><path id="t-8" data-name="t" class="cls-4" d="M5.66487,8.56941l.45586-1.403.7015.22793"/></g><g id="s"><g id="c-5" data-name="c"><path id="t-9" data-name="t" class="cls-4" d="M5.129,6.9201l1.19345.86709L6.756,7.19047"/><path id="t-10" data-name="t" class="cls-4" d="M5.129,6.9201H6.60417v.73759"/></g></g><g id="c-6" data-name="c"><path id="t-11" data-name="t" class="cls-4" d="M11.06394,5.90077l-.45586,1.403.70149.22793"/><path id="t-12" data-name="t" class="cls-4" d="M11.06394,5.90077l.45585,1.403-.70149.22793"/></g><g id="c-7" data-name="c"><path id="t-13" data-name="t" class="cls-4" d="M12.46693,6.9201h-1.4752v.73759"/><path id="t-14" data-name="t" class="cls-4" d="M12.46693,6.9201l-1.19346.86709-.43355-.59672"/></g><g id="c-8" data-name="c"><path id="t-15" data-name="t" class="cls-4" d="M11.931,8.56941l-.45586-1.403-.70149.22793"/><path id="t-16" data-name="t" class="cls-4" d="M11.931,8.56941l-1.19345-.86709.43354-.59673"/></g><g id="c-9" data-name="c"><path id="t-17" data-name="t" class="cls-4" d="M10.19684,8.56941l1.19345-.86709-.43354-.59673"/><path id="t-18" data-name="t" class="cls-4" d="M10.19684,8.56941l.45586-1.403.70149.22793"/></g><g id="s-2" data-name="s"><g id="c-10" data-name="c"><path id="t-19" data-name="t" class="cls-4" d="M9.66094,6.9201l1.19346.86709.43355-.59672"/><path id="t-20" data-name="t" class="cls-4" d="M9.66094,6.9201h1.4752v.73759"/></g></g><g id="c-11" data-name="c"><path id="t-21" data-name="t" class="cls-4" d="M15.5959,5.90077,15.14,7.30376l.7015.22793"/><path id="t-22" data-name="t" class="cls-4" d="M15.5959,5.90077l.45586,1.403-.70149.22793"/></g><g id="c-12" data-name="c"><path id="t-23" data-name="t" class="cls-4" d="M16.99889,6.9201H15.5237v.73759"/><path id="t-24" data-name="t" class="cls-4" d="M16.99889,6.9201l-1.19345.86709-.43355-.59672"/></g><g id="c-13" data-name="c"><path id="t-25" data-name="t" class="cls-4" d="M16.463,8.56941l-.45586-1.403-.7015.22793"/><path id="t-26" data-name="t" class="cls-4" d="M16.463,8.56941l-1.19346-.86709.43355-.59673"/></g><g id="c-14" data-name="c"><path id="t-27" data-name="t" class="cls-4" d="M14.72881,8.56941l1.19345-.86709-.43355-.59673"/><path id="t-28" data-name="t" class="cls-4" d="M14.72881,8.56941l.45586-1.403.70149.22793"/></g><g id="s-3" data-name="s"><g id="c-15" data-name="c"><path id="t-29" data-name="t" class="cls-4" d="M14.19291,6.9201l1.19346.86709.43355-.59672"/><path id="t-30" data-name="t" class="cls-4" d="M14.19291,6.9201H15.6681v.73759"/></g></g></g></g></g></svg>