<svg xmlns="http://www.w3.org/2000/svg" viewBox="0 0 20.2785 13.519"><defs><style>.cls-1{fill:#fff;}.cls-2,.cls-4{fill:#010101;}.cls-3{fill:#166734;}.cls-4{stroke:#010101;stroke-miterlimit:10;stroke-width:0.02253px;}.cls-5{fill:#ba2025;}</style></defs><g id="Layer_2" data-name="Layer 2"><g id="Layer_20" data-name="Layer 20"><g id="Country_Plates" data-name="Country Plates"><rect class="cls-1" width="20.2785" height="13.519"/><rect class="cls-2" width="20.2785" height="4.0557"/><rect class="cls-3" y="9.4633" width="20.2785" height="4.0557"/><g id="spear"><path id="spearshape" class="cls-4" d="M7.72452,10.773l.14634.0845,3.94695-6.8363c.23084-.06186.35758-.28138.48432-.5009a4.90554,4.90554,0,0,0,.56894-1.4924,4.90514,4.90514,0,0,0-1.008,1.23892.91032.91032,0,0,0-.19163.66988Z"/><path id="spearshape-2" data-name="spearshape" class="cls-1" d="M7.72452,10.773l.14634.0845,3.94695-6.8363c.23084-.06186.35758-.28138.48432-.5009a4.90554,4.90554,0,0,0,.56894-1.4924,4.90514,4.90514,0,0,0-1.008,1.23892.91032.91032,0,0,0-.19163.66988Z"/></g><g id="spear-2" data-name="spear"><path id="spearshape-3" data-name="spearshape" class="cls-4" d="M12.554,10.773l-.14634.0845L8.4607,4.02115c-.23085-.06186-.35759-.28138-.48433-.5009a4.90554,4.90554,0,0,1-.56894-1.4924,4.90514,4.90514,0,0,1,1.008,1.23892.91032.91032,0,0,1,.19163.66988Z"/><path id="spearshape-4" data-name="spearshape" class="cls-1" d="M12.554,10.773l-.14634.0845L8.4607,4.02115c-.23085-.06186-.35759-.28138-.48433-.5009a4.90554,4.90554,0,0,1-.56894-1.4924,4.90514,4.90514,0,0,1,1.008,1.23892.91032.91032,0,0,1,.19163.66988Z"/></g><path class="cls-5" d="M0,4.73165v4.0557H8.53387c.25348.676,1.09842,2.02785,1.60538,2.02785s1.3519-1.3519,1.60538-2.02785H20.2785V4.73165H11.74463c-.25348-.676-1.09842-2.02785-1.60538-2.02785S8.78735,4.0557,8.53387,4.73165Z"/><path id="deco_r" data-name="deco r" class="cls-2" d="M11.74463,8.78735A5.808,5.808,0,0,0,12.1671,6.7595a5.808,5.808,0,0,0-.42247-2.02785,5.808,5.808,0,0,0-.42247,2.02785,5.808,5.808,0,0,0,.42247,2.02785"/><path id="deco_r-2" data-name="deco r" class="cls-2" d="M8.53387,8.78735A5.808,5.808,0,0,1,8.1114,6.7595a5.808,5.808,0,0,1,.42247-2.02785A5.808,5.808,0,0,1,8.95634,6.7595a5.808,5.808,0,0,1-.42247,2.02785"/><ellipse class="cls-1" cx="10.13925" cy="6.7595" rx="0.33798" ry="0.50696"/><path id="deco_br" data-name="deco br" class="cls-1" d="M10.22374,7.25379a4.28691,4.28691,0,0,1,.338,1.77437,4.28691,4.28691,0,0,1-.338,1.77437Z"/><path id="deco_br-2" data-name="deco br" class="cls-1" d="M10.05476,6.26521a4.28691,4.28691,0,0,1-.338-1.77437,4.28691,4.28691,0,0,1,.338-1.77437Z"/><path id="deco_br-3" data-name="deco br" class="cls-1" d="M10.05476,7.25379a4.28691,4.28691,0,0,0-.338,1.77437,4.28691,4.28691,0,0,0,.338,1.77437Z"/><path id="deco_br-4" data-name="deco br" class="cls-1" d="M10.22374,6.26521a4.28691,4.28691,0,0,0,.338-1.77437,4.28691,4.28691,0,0,0-.338-1.77437Z"/></g></g></g></svg>