<svg xmlns="http://www.w3.org/2000/svg" viewBox="0 0 26.8634 13.4317"><defs><style>.cls-1{fill:#fff;}.cls-2{fill:#dc2727;}.cls-3{fill:#23449c;}.cls-4{fill:#ffd107;}</style></defs><g id="Layer_2" data-name="Layer 2"><g id="Layer_20" data-name="Layer 20"><g id="Country_Plates" data-name="Country Plates"><rect class="cls-1" width="26.8634" height="13.4317"/><g id="v"><rect id="t" class="cls-2" width="26.8634" height="0.95941"/><rect id="t-2" data-name="t" class="cls-2" y="1.91881" width="26.8634" height="0.95941"/><rect id="t-3" data-name="t" class="cls-2" y="3.83763" width="26.8634" height="0.95941"/><rect id="t-4" data-name="t" class="cls-2" y="5.75644" width="26.8634" height="0.95941"/></g><g id="v-2" data-name="v"><rect id="t-5" data-name="t" class="cls-2" y="5.75644" width="26.8634" height="0.95941"/><rect id="t-6" data-name="t" class="cls-2" y="7.67526" width="26.8634" height="0.95941"/><rect id="t-7" data-name="t" class="cls-2" y="9.59407" width="26.8634" height="0.95941"/><rect id="t-8" data-name="t" class="cls-2" y="11.51289" width="26.8634" height="0.95941"/></g><rect class="cls-3" width="13.4317" height="7.67526"/><circle class="cls-4" cx="9.7941" cy="3.83763" r="1.5292"/><circle class="cls-3" cx="10.13389" cy="3.83763" r="1.35925"/><g id="s"><path id="h" class="cls-4" d="M11.833,3.83763l.73265.28356-.78313-.0624.53706.57337-.6785-.396.2351.74961-.43948-.65118L11.3233,5.112l-.15292-1.42725Z"/><path id="h-2" data-name="h" class="cls-4" d="M11.833,3.83763l.73265-.28357-.78313.0624.53706-.57336-.6785.396.2351-.7496-.43948.65118L11.3233,2.5633l-.15292,1.42725Z"/></g><g id="s-2" data-name="s"><path id="h-3" data-name="h" class="cls-4" d="M10.81357,3.83763l-.73265.28356.78313-.0624-.53706.57337.6785-.396-.2351.74961.43948-.65118.11343.77738.15292-1.42725Z"/><path id="h-4" data-name="h" class="cls-4" d="M10.81357,3.83763l-.73265-.28357.78313.0624L10.327,3.0431l.6785.396-.2351-.7496.43948.65118.11343-.77738.15292,1.42725Z"/></g></g></g></g></svg>