<svg xmlns="http://www.w3.org/2000/svg" viewBox="0 0 2396.66311 1348.8833"><defs><style>.cls-1{isolation:isolate;}.cls-2{font-size:63.51456px;fill:#ffc32e;font-family:NeutraText-Bold, Neutra Text;letter-spacing:-0.07em;}.cls-10,.cls-11,.cls-15,.cls-16,.cls-2,.cls-22,.cls-24,.cls-25,.cls-27,.cls-28,.cls-29,.cls-30,.cls-31,.cls-32,.cls-33,.cls-34,.cls-35,.cls-36,.cls-39,.cls-4,.cls-40,.cls-42,.cls-43,.cls-44,.cls-45,.cls-5,.cls-6,.cls-9{font-weight:700;}.cls-3{letter-spacing:-0.06em;}.cls-10,.cls-11,.cls-15,.cls-16,.cls-22,.cls-24,.cls-25,.cls-27,.cls-28,.cls-29,.cls-30,.cls-31,.cls-32,.cls-33,.cls-34,.cls-35,.cls-36,.cls-39,.cls-4,.cls-40,.cls-42,.cls-43,.cls-44,.cls-45,.cls-5,.cls-6,.cls-9{font-size:12px;}.cls-25,.cls-27,.cls-29,.cls-4,.cls-6{fill:#f8f4e8;}.cls-11,.cls-15,.cls-22,.cls-30,.cls-36,.cls-4,.cls-40,.cls-43,.cls-6,.cls-9{font-family:TradeGothicLT-BoldCondTwenty, TradeGothic LT CondEighteen;}.cls-10,.cls-15,.cls-20,.cls-27,.cls-28,.cls-32,.cls-35,.cls-4,.cls-45,.cls-5{letter-spacing:-0.06002em;}.cls-10,.cls-16,.cls-24,.cls-28,.cls-31,.cls-32,.cls-33,.cls-38,.cls-44,.cls-45,.cls-5{mix-blend-mode:multiply;}.cls-5{fill:#72683d;}.cls-10,.cls-16,.cls-24,.cls-25,.cls-27,.cls-28,.cls-29,.cls-31,.cls-32,.cls-33,.cls-34,.cls-35,.cls-39,.cls-42,.cls-44,.cls-45,.cls-5{font-family:Gotham-Bold, Gotham;}.cls-16,.cls-25,.cls-31,.cls-33,.cls-34,.cls-42,.cls-44,.cls-6,.cls-8,.cls-9{letter-spacing:-0.05998em;}.cls-7{letter-spacing:-0.11495em;}.cls-11,.cls-15,.cls-22,.cls-30,.cls-36,.cls-40,.cls-43,.cls-46,.cls-9{fill:#fff;}.cls-10,.cls-16{fill:#cca55e;}.cls-11{letter-spacing:-0.00997em;}.cls-12{letter-spacing:-0.02799em;}.cls-13{letter-spacing:-0.047em;}.cls-14,.cls-43{letter-spacing:-0.01001em;}.cls-17{letter-spacing:-0.11499em;}.cls-18{letter-spacing:-0.078em;}.cls-19{letter-spacing:-0.09696em;}.cls-21{letter-spacing:-0.09701em;}.cls-22,.cls-26{letter-spacing:-0.07796em;}.cls-23,.cls-24,.cls-29,.cls-30,.cls-39{letter-spacing:-0.06006em;}.cls-24,.cls-28,.cls-31,.cls-39,.cls-42{fill:#d16428;}.cls-32,.cls-33{fill:#79aeb2;}.cls-34,.cls-35{fill:#916376;}.cls-36{letter-spacing:-0.01998em;}.cls-37{letter-spacing:-0.11503em;}.cls-40{letter-spacing:-0.03003em;}.cls-41{letter-spacing:-0.08504em;}.cls-44,.cls-45{fill:#a5bb48;}.cls-47{fill:#006948;}.cls-48{fill:#ce2028;}.cls-49{fill:#654018;}.cls-50{fill:none;stroke:#6d8f3c;stroke-miterlimit:10;stroke-width:0.23438px;}</style></defs><g class="cls-1"><g id="Layer_2" data-name="Layer 2"><g id="Layer_20" data-name="Layer 20"><text class="cls-2" transform="translate(1469.84683 349.60764)">CC<tspan class="cls-3" x="81.93408" y="0">CP</tspan></text><g id="Country_Plates" data-name="Country Plates"><text class="cls-4" transform="translate(415.92111 920.97183)">COLOMBIA</text><text class="cls-5" transform="translate(472.92379 920.97183)">1</text><text class="cls-6" transform="translate(299.17581 956.41425)">ECUADOR</text><text class="cls-5" transform="translate(353.32882 956.41425)">2</text><text class="cls-4" transform="translate(360.14834 1034.89343)">PERU</text><text class="cls-5" transform="translate(406.7164 1034.89343)">2</text><text class="cls-4" transform="translate(484.56735 1108.77679)">BOLIVIA</text><text class="cls-5" transform="translate(535.38931 1108.77679)">2</text><text class="cls-4" transform="translate(541.00973 1191.94427)">PARAGU<tspan class="cls-7" x="30.33545" y="0">A</tspan><tspan class="cls-8" x="34.28369" y="0">Y</tspan></text><text class="cls-5" transform="translate(596.79947 1191.94427)">2</text><text class="cls-4" transform="translate(580.85147 1285.69427)">URUGU<tspan class="cls-7" x="26.3999" y="0">A</tspan><tspan x="30.34814" y="0">Y</tspan></text><text class="cls-5" transform="translate(634.67331 1285.69427)">2</text><text class="cls-9" transform="translate(1277.52975 756.5159)">SUDAN</text><text class="cls-10" transform="translate(1327.60806 756.5159)">1</text><text class="cls-11" transform="translate(966.51205 756.5159)">SAHARAN S<tspan class="cls-12" x="46.22314" y="0">T</tspan><tspan class="cls-13" x="50.55518" y="0">A</tspan><tspan class="cls-14" x="55.31885" y="0">TES</tspan></text><text class="cls-10" transform="translate(1045.87259 756.5159)">1</text><text class="cls-10" transform="translate(877.69528 756.5159)">2</text><text class="cls-15" transform="translate(822.20517 629.08731)">MOROCCO</text><text class="cls-16" transform="translate(877.707 629.08731)">3</text><text class="cls-15" transform="translate(1064.77652 574.00919)">TUNISIA</text><text class="cls-10" transform="translate(1115.59872 574.00919)">2</text><text class="cls-9" transform="translate(1456.88211 893.22586)">SOMALIA</text><text class="cls-10" transform="translate(1509.36569 893.22586)">2</text><text class="cls-9" transform="translate(1337.64596 846.11508)">ETHIOPIA</text><text class="cls-10" transform="translate(1392.31417 846.11508)">1</text><text class="cls-9" transform="translate(1343.23776 940.02939)">KEN<tspan class="cls-17" x="14.49561" y="0">Y</tspan><tspan x="18.44336" y="0">A</tspan></text><text class="cls-10" transform="translate(1391.10861 940.02939)">2</text><text class="cls-9" transform="translate(1344.43954 1020.86237)">SE AFRICAN S<tspan class="cls-18" x="49.99072" y="0">T</tspan><tspan class="cls-19" x="53.72266" y="0">A</tspan><tspan class="cls-20" x="57.88672" y="0">TES</tspan></text><text class="cls-10" transform="translate(1422.20297 1020.86237)">1</text><text class="cls-9" transform="translate(1296.44125 1101.69531)">ZIMBABWE</text><text class="cls-10" transform="translate(1354.43759 1101.69531)">1</text><text class="cls-15" transform="translate(1228.89755 1182.52649)">BOTS<tspan class="cls-21" x="19.11572" y="0">W</tspan><tspan class="cls-8" x="25.95557" y="0">ANA</tspan></text><text class="cls-10" transform="translate(1285.46853 1182.52649)">2</text><text class="cls-15" transform="translate(1080.14505 940.02939)">CAMEROON</text><text class="cls-10" transform="translate(1138.80935 940.02939)">1</text><text class="cls-22" transform="translate(2198.23477 684.27109)">T<tspan class="cls-23" x="3.73242" y="0">AI</tspan><tspan class="cls-21" x="10.95605" y="0">W</tspan><tspan class="cls-23" x="17.7959" y="0">AN</tspan></text><text class="cls-24" transform="translate(2248.43423 684.27109)">3</text><text class="cls-9" transform="translate(1782.66842 693.64609)">INDIA</text><text class="cls-25" transform="translate(1829.22427 693.64609)">3</text><text class="cls-15" transform="translate(1652.10238 639.43567)">PAKIS<tspan class="cls-26" x="21.71924" y="0">T</tspan><tspan x="25.45166" y="0">AN</tspan></text><text class="cls-27" transform="translate(1706.11721 639.43567)">2</text><text class="cls-9" transform="translate(1644.5184 546.16873)">AFGHANIS<tspan class="cls-18" x="36.88721" y="0">T</tspan><tspan x="40.61914" y="0">AN</tspan></text><text class="cls-28" transform="translate(1706.11721 546.16873)">2</text><text class="cls-9" transform="translate(2224.9642 441.47324)">N KOREA</text><text class="cls-29" transform="translate(2277.12552 441.47324)">3</text><text class="cls-30" transform="translate(2247.85727 521.37024)">S KOREA</text><text class="cls-29" transform="translate(2299.68155 521.37024)">3</text><text class="cls-9" transform="translate(2341.85043 601.26727)">JAPAN</text><text class="cls-25" transform="translate(2388.99502 601.26727)">4</text><text class="cls-30" transform="translate(2192.32559 1138.77725)">AUSTRALIA</text><text class="cls-31" transform="translate(2248.02603 1138.77725)">4</text><text class="cls-9" transform="translate(1417.28268 595.01007)">IRAQ</text><text class="cls-25" transform="translate(1462.53146 595.01007)">3</text><text class="cls-9" transform="translate(1362.58743 671.18195)">JORDAN</text><text class="cls-32" transform="translate(1413.10409 671.18195)">2</text><text class="cls-15" transform="translate(1479.55862 671.18195)">GULF S<tspan class="cls-18" x="25.66748" y="0">T</tspan><tspan class="cls-19" x="29.39941" y="0">A</tspan><tspan x="33.56348" y="0">TES</tspan></text><text class="cls-33" transform="translate(1539.2789 671.18195)">3</text><text class="cls-15" transform="translate(1299.74771 518.18503)">LEBANON</text><text class="cls-32" transform="translate(1354.44033 518.18503)">1</text><text class="cls-9" transform="translate(1420.63955 518.18503)">SYRIA</text><text class="cls-32" transform="translate(1467.8442 518.18503)">2</text><text class="cls-9" transform="translate(893.40384 355.26959)">FRANCE</text><text class="cls-25" transform="translate(944.59231 355.26959)">3</text><text class="cls-15" transform="translate(905.49087 278.48215)">BENELUX</text><text class="cls-34" transform="translate(958.65243 278.48215)">3</text><text class="cls-15" transform="translate(802.48611 201.1384)">UK</text><text class="cls-35" transform="translate(843.73196 201.1384)">5</text><text class="cls-27" transform="translate(765.34314 247.33177)">5</text><text class="cls-27" transform="translate(403.39926 317.56819)">2</text><text class="cls-15" transform="translate(430.61105 271.37506)">CANADA</text><text class="cls-35" transform="translate(481.39206 271.37506)">4</text><text class="cls-15" transform="translate(958.52627 47.62277)">NOR<tspan class="cls-19" x="15.83984" y="0">W</tspan><tspan class="cls-17" x="22.68018" y="0">A</tspan><tspan class="cls-8" x="26.62793" y="0">Y</tspan></text><text class="cls-35" transform="translate(1010.09335 47.62277)">4</text><text class="cls-15" transform="translate(978.56369 125.06616)">DENMARK</text><text class="cls-34" transform="translate(1033.05709 125.06616)">3</text><text class="cls-9" transform="translate(1100.79892 125.06616)">SWEDEN</text><text class="cls-35" transform="translate(1152.58181 125.06616)">4</text><text class="cls-15" transform="translate(1011.59964 278.48215)">W GERMANY</text><text class="cls-27" transform="translate(1070.30008 278.48215)">4</text><text class="cls-36" transform="translate(783.96194 462.42291)">SPAIN/PORTUGAL</text><text class="cls-35" transform="translate(861.73611 462.42291)">2</text><text class="cls-9" transform="translate(1045.52957 435.21603)">I<tspan class="cls-18" x="2.61621" y="0">T</tspan><tspan x="6.34814" y="0">A</tspan><tspan class="cls-37" x="10.95605" y="0">L</tspan><tspan x="14.24365" y="0">Y</tspan></text><text class="cls-27" transform="translate(1091.29928 435.21603)">2</text><text class="cls-15" transform="translate(1174.90176 518.18503)">GREECE</text><text class="cls-35" transform="translate(1226.07852 518.18503)">2</text><text class="cls-15" transform="translate(1379.86142 435.19562)">TURKEY</text><text class="cls-35" transform="translate(1430.3724 435.19562)">2</text><text class="cls-9" transform="translate(1054.34988 357.11783)">AUSTRIA</text><text class="cls-35" transform="translate(1105.77145 357.11783)">4</text><text class="cls-9" transform="translate(1239.01803 10.33182)">FINLAND</text><text class="cls-35" transform="translate(1290.77621 10.33182)">4</text><text class="cls-15" transform="translate(1173.93789 357.11783)">HUNGA<tspan class="cls-18" x="25.72803" y="0">R</tspan><tspan class="cls-8" x="30.79199" y="0">Y</tspan></text><text class="cls-34" transform="translate(1227.99453 357.11783)">3</text><text class="cls-15" transform="translate(1132.99728 278.48215)">CZECHOSLO<tspan class="cls-19" x="44.17139" y="0">V</tspan><tspan class="cls-8" x="48.33545" y="0">AKIA</tspan></text><text class="cls-34" transform="translate(1201.7416 278.48215)">3</text><text class="cls-15" transform="translate(1173.04684 201.1384)">POLAND</text><text class="cls-25" transform="translate(1224.24136 201.1384)">3</text><text class="cls-25" transform="translate(1108.52584 247.3318)">3</text><text class="cls-9" transform="translate(1050.81057 201.1384)">E GERMANY</text><text class="cls-25" transform="translate(1108.58078 201.1384)">3</text><text class="cls-9" transform="translate(1146.42068 435.21603)">YUGOSL<tspan class="cls-19" x="29.00342" y="0">A</tspan><tspan x="33.16748" y="0">VIA</tspan></text><text class="cls-34" transform="translate(1205.27584 435.21603)">3</text><text class="cls-15" transform="translate(1262.91006 435.21603)">BULGARIA</text><text class="cls-34" transform="translate(1317.71621 435.21603)">3</text><text class="cls-15" transform="translate(1285.04208 357.11783)">ROMANIA</text><text class="cls-34" transform="translate(1338.54086 357.11783)">3</text><text class="cls-9" transform="translate(1534.16201 595.01007)">IRAN</text><text class="cls-27" transform="translate(1579.39883 595.01007)">2</text><text class="cls-9" transform="translate(1447.35427 756.5159)">SAUDI ARABIA</text><text class="cls-25" transform="translate(1509.37741 756.5159)">3</text><text class="cls-9" transform="translate(1288.8547 595.01007)">ISRAEL</text><text class="cls-27" transform="translate(1337.6376 595.01007)">4</text><text class="cls-9" transform="translate(1240.32272 671.18195)">EGYPT</text><text class="cls-27" transform="translate(1288.52951 671.18195)">2</text><text class="cls-15" transform="translate(1124.54281 652.52481)">LIB<tspan class="cls-7" x="11.84375" y="0">Y</tspan><tspan x="15.79199" y="0">A</tspan></text><text class="cls-27" transform="translate(1171.08645 652.52481)">2</text><text class="cls-9" transform="translate(1967.84475 795.54477)">THAILAND</text><text class="cls-25" transform="translate(2021.97268 795.54477)">2</text><text class="cls-30" transform="translate(2085.20913 795.54477)">VIETNAM</text><g class="cls-38"><text class="cls-39" transform="translate(2138.89981 795.54477)">1</text></g><text class="cls-40" transform="translate(2018.43948 916.07419)">MAL<tspan class="cls-41" x="16.24805" y="0">A</tspan><tspan x="20.55566" y="0">YSIA</tspan></text><g class="cls-38"><text class="cls-42" transform="translate(2073.82058 916.07419)">2</text></g><text class="cls-9" transform="translate(2240.21933 795.54477)">PHILIPPINES</text><g class="cls-38"><text class="cls-42" transform="translate(2300.26938 795.54477)">2</text></g><text class="cls-9" transform="translate(2189.43734 1006.48227)">INDONESIA</text><g class="cls-38"><text class="cls-39" transform="translate(2247.07333 1006.48227)">1</text></g><text class="cls-15" transform="translate(1907.83462 713.02805)">BURMA</text><g class="cls-38"><text class="cls-42" transform="translate(1957.70883 713.02805)">2</text></g><text class="cls-43" transform="translate(1993.61917 713.02805)">LAOS/CAMBODIA</text><g class="cls-38"><text class="cls-42" transform="translate(2071.33047 713.02805)">1</text></g><text class="cls-15" transform="translate(1017.2543 846.11508)">NIGERIA</text><text class="cls-27" transform="translate(1069.94888 846.11508)">1</text><text class="cls-9" transform="translate(947.79171 574.00919)">ALGERIA</text><text class="cls-27" transform="translate(999.61032 574.00919)">2</text><text class="cls-9" transform="translate(1218.652 940.02939)">ZAIRE</text><text class="cls-27" transform="translate(1267.0624 940.02939)">1</text><text class="cls-9" transform="translate(1125.33511 1020.86237)">ANGOLA</text><text class="cls-27" transform="translate(1177.38754 1020.86237)">1</text><text class="cls-9" transform="translate(1154.68991 1263.35864)">SOUTH AFRICA</text><text class="cls-25" transform="translate(1217.71603 1263.35864)">3</text><text class="cls-6" transform="translate(476.87167 834.8042)">VENEZUELA</text><text class="cls-27" transform="translate(534.29245 834.8042)">2</text><text class="cls-4" transform="translate(692.34011 1053.88956)">BRAZIL</text><text class="cls-27" transform="translate(741.85403 1053.88956)">2</text><text class="cls-4" transform="translate(426.35495 1190.09525)">CHILE</text><text class="cls-25" transform="translate(473.57699 1190.09525)">3</text><text class="cls-6" transform="translate(450.94229 1345.32022)">ARGENTINA</text><text class="cls-27" transform="translate(508.04116 1345.32022)">2</text><text class="cls-4" transform="translate(221.35598 834.8042)">COS<tspan class="cls-18" x="15.16797" y="0">T</tspan><tspan class="cls-8" x="18.8999" y="0">A RICA</tspan></text><text class="cls-44" transform="translate(279.33029 834.8042)">3</text><text class="cls-6" transform="translate(100.11282 750.30151)">EL SA<tspan class="cls-21" x="19.71533" y="0">LV</tspan><tspan x="27.3833" y="0">ADOR</tspan></text><text class="cls-45" transform="translate(161.57882 750.30151)">1</text><text class="cls-4" transform="translate(150.70828 668.28387)">GU<tspan class="cls-19" x="10.56006" y="0">A</tspan><tspan x="14.72412" y="0">TEMALA</tspan></text><text class="cls-45" transform="translate(209.78665 668.28387)">1</text><text class="cls-4" transform="translate(222.52591 750.30151)">HONDURAS</text><text class="cls-45" transform="translate(279.31857 750.30151)">2</text><text class="cls-4" transform="translate(341.48361 750.30151)">NICARAGUA</text><text class="cls-45" transform="translate(400.45401 750.30151)">1</text><text class="cls-4" transform="translate(467.7532 719.20761)">HAITI</text><text class="cls-45" transform="translate(514.83596 719.20761)">1</text><text class="cls-4" transform="translate(564.37533 719.20761)">DOMINICAN REP</text><text class="cls-45" transform="translate(631.90774 719.20761)">1</text><text class="cls-4" transform="translate(349.6376 834.8042)">PANAMA</text><text class="cls-27" transform="translate(401.48056 834.8042)">2</text><rect id="rect3678" class="cls-46" y="625.90684" width="19.53611" height="13.50733"/><rect id="rect4649" class="cls-47" y="625.90684" width="6.512" height="13.50733"/><rect id="rect4651" class="cls-48" x="13.02449" y="625.90684" width="6.512" height="13.50733"/><circle class="cls-49" cx="9.76806" cy="632.66051" r="1.83021"/><path class="cls-50" d="M7.61813,632.66138a2.14993,2.14993,0,0,0,4.29986,0"/><text class="cls-4" transform="translate(352.67941 668.28387)">CUBA</text><text class="cls-25" transform="translate(399.26016 668.28387)">3</text></g></g></g></g></svg>