<svg xmlns="http://www.w3.org/2000/svg" viewBox="0 0 34.65873 23.10582"><defs><style>.cls-1{fill:#c1282d;}.cls-2{fill:#036334;}</style></defs><g id="Layer_2" data-name="Layer 2"><g id="Layer_20" data-name="Layer 20"><g id="Country_Plates" data-name="Country Plates"><rect class="cls-1" width="34.65873" height="23.10582"/><path id="star" class="cls-2" d="M17.32816,7.70194l-.86406,2.668-2.80278.00241L15.92737,12.021l-.86406,2.67041c.584-.4283,1.64149-1.1959,2.26605-1.6487l2.26847,1.6475-.86647-2.668,2.26605-1.65111H18.197Zm0,1.8268.27559.8412-.54877.0012ZM16.28,10.93435l-.16848.52349-.716-.52109Zm.59209,0h.91461l.2828.87128-.74011.53913-.7401-.53913Zm1.50669,0h.88332l-.71363.52349Zm-1.97242,1.43689.44527.32132-.716.52108Zm1.84847,0,.27077.8424-.71483-.51988v-.0012Z"/></g></g></g></svg>