<svg xmlns="http://www.w3.org/2000/svg" viewBox="0 0 2245.95508 1348.8833"><defs><style>.cls-1{isolation:isolate;}.cls-2{font-size:63.51456px;fill:#ffc32e;font-family:NeutraText-Bold, Neutra Text;letter-spacing:-0.07em;}.cls-10,.cls-11,.cls-15,.cls-16,.cls-2,.cls-22,.cls-24,.cls-25,.cls-27,.cls-28,.cls-29,.cls-30,.cls-31,.cls-32,.cls-33,.cls-34,.cls-35,.cls-36,.cls-39,.cls-4,.cls-40,.cls-42,.cls-43,.cls-44,.cls-45,.cls-5,.cls-6,.cls-9{font-weight:700;}.cls-3{letter-spacing:-0.06em;}.cls-10,.cls-11,.cls-15,.cls-16,.cls-22,.cls-24,.cls-25,.cls-27,.cls-28,.cls-29,.cls-30,.cls-31,.cls-32,.cls-33,.cls-34,.cls-35,.cls-36,.cls-39,.cls-4,.cls-40,.cls-42,.cls-43,.cls-44,.cls-45,.cls-5,.cls-6,.cls-9{font-size:12px;}.cls-25,.cls-27,.cls-29,.cls-4,.cls-6{fill:#f8f4e8;}.cls-11,.cls-15,.cls-22,.cls-30,.cls-36,.cls-4,.cls-40,.cls-43,.cls-6,.cls-9{font-family:TradeGothicLT-BoldCondTwenty, TradeGothic LT CondEighteen;}.cls-10,.cls-15,.cls-20,.cls-27,.cls-28,.cls-32,.cls-35,.cls-4,.cls-45,.cls-5{letter-spacing:-0.06002em;}.cls-10,.cls-16,.cls-24,.cls-28,.cls-31,.cls-32,.cls-33,.cls-38,.cls-44,.cls-45,.cls-5{mix-blend-mode:multiply;}.cls-5{fill:#72683d;}.cls-10,.cls-16,.cls-24,.cls-25,.cls-27,.cls-28,.cls-29,.cls-31,.cls-32,.cls-33,.cls-34,.cls-35,.cls-39,.cls-42,.cls-44,.cls-45,.cls-5{font-family:Gotham-Bold, Gotham;}.cls-16,.cls-25,.cls-31,.cls-33,.cls-34,.cls-42,.cls-44,.cls-6,.cls-8,.cls-9{letter-spacing:-0.05998em;}.cls-7{letter-spacing:-0.11495em;}.cls-11,.cls-15,.cls-22,.cls-30,.cls-36,.cls-40,.cls-43,.cls-47,.cls-9{fill:#fff;}.cls-10,.cls-16{fill:#cca55e;}.cls-11{letter-spacing:-0.00997em;}.cls-12{letter-spacing:-0.02799em;}.cls-13{letter-spacing:-0.047em;}.cls-14,.cls-43{letter-spacing:-0.01001em;}.cls-17{letter-spacing:-0.11499em;}.cls-18{letter-spacing:-0.078em;}.cls-19{letter-spacing:-0.09696em;}.cls-21{letter-spacing:-0.09701em;}.cls-22,.cls-26{letter-spacing:-0.07796em;}.cls-23,.cls-24,.cls-29,.cls-30,.cls-39{letter-spacing:-0.06006em;}.cls-24,.cls-28,.cls-31,.cls-39,.cls-42{fill:#d16428;}.cls-32,.cls-33{fill:#79aeb2;}.cls-34,.cls-35{fill:#916376;}.cls-36{letter-spacing:-0.01998em;}.cls-37{letter-spacing:-0.11503em;}.cls-40{letter-spacing:-0.03003em;}.cls-41{letter-spacing:-0.08504em;}.cls-44,.cls-45{fill:#a5bb48;}.cls-46{fill:#2968b2;}.cls-48{fill:none;stroke:#fdcf16;stroke-miterlimit:10;stroke-width:0.23438px;}.cls-49{fill:#010101;stroke:#fff;stroke-width:0.00703px;}</style></defs><g class="cls-1"><g id="Layer_2" data-name="Layer 2"><g id="Layer_20" data-name="Layer 20"><text class="cls-2" transform="translate(1319.13879 349.60764)">CC<tspan class="cls-3" x="81.93408" y="0">CP</tspan></text><g id="Country_Plates" data-name="Country Plates"><text class="cls-4" transform="translate(265.21307 920.97183)">COLOMBIA</text><text class="cls-5" transform="translate(322.21576 920.97183)">1</text><text class="cls-6" transform="translate(148.46777 956.41425)">ECUADOR</text><text class="cls-5" transform="translate(202.62079 956.41425)">2</text><text class="cls-4" transform="translate(209.44031 1034.89343)">PERU</text><text class="cls-5" transform="translate(256.00836 1034.89343)">2</text><text class="cls-4" transform="translate(333.85931 1108.77679)">BOLIVIA</text><text class="cls-5" transform="translate(384.68127 1108.77679)">2</text><text class="cls-4" transform="translate(390.3017 1191.94427)">PARAGU<tspan class="cls-7" x="30.33545" y="0">A</tspan><tspan class="cls-8" x="34.28369" y="0">Y</tspan></text><text class="cls-5" transform="translate(446.09143 1191.94427)">2</text><text class="cls-4" transform="translate(430.14343 1285.69427)">URUGU<tspan class="cls-7" x="26.3999" y="0">A</tspan><tspan x="30.34814" y="0">Y</tspan></text><text class="cls-5" transform="translate(483.96527 1285.69427)">2</text><text class="cls-9" transform="translate(1126.82172 756.5159)">SUDAN</text><text class="cls-10" transform="translate(1176.90002 756.5159)">1</text><text class="cls-11" transform="translate(815.80402 756.5159)">SAHARAN S<tspan class="cls-12" x="46.22314" y="0">T</tspan><tspan class="cls-13" x="50.55518" y="0">A</tspan><tspan class="cls-14" x="55.31885" y="0">TES</tspan></text><text class="cls-10" transform="translate(895.16455 756.5159)">1</text><text class="cls-10" transform="translate(726.98724 756.5159)">2</text><text class="cls-15" transform="translate(671.49713 629.08731)">MOROCCO</text><text class="cls-16" transform="translate(726.99896 629.08731)">3</text><text class="cls-15" transform="translate(914.06848 574.00919)">TUNISIA</text><text class="cls-10" transform="translate(964.89069 574.00919)">2</text><text class="cls-9" transform="translate(1306.17407 893.22586)">SOMALIA</text><text class="cls-10" transform="translate(1358.65765 893.22586)">2</text><text class="cls-9" transform="translate(1186.93793 846.11508)">ETHIOPIA</text><text class="cls-10" transform="translate(1241.60614 846.11508)">1</text><text class="cls-9" transform="translate(1192.52972 940.02939)">KEN<tspan class="cls-17" x="14.49561" y="0">Y</tspan><tspan x="18.44336" y="0">A</tspan></text><text class="cls-10" transform="translate(1240.40057 940.02939)">2</text><text class="cls-9" transform="translate(1193.73151 1020.86237)">SE AFRICAN S<tspan class="cls-18" x="49.99072" y="0">T</tspan><tspan class="cls-19" x="53.72266" y="0">A</tspan><tspan class="cls-20" x="57.88672" y="0">TES</tspan></text><text class="cls-10" transform="translate(1271.49493 1020.86237)">1</text><text class="cls-9" transform="translate(1145.73322 1101.69531)">ZIMBABWE</text><text class="cls-10" transform="translate(1203.72955 1101.69531)">1</text><text class="cls-15" transform="translate(1078.18951 1182.52649)">BOTS<tspan class="cls-21" x="19.11572" y="0">W</tspan><tspan class="cls-8" x="25.95557" y="0">ANA</tspan></text><text class="cls-10" transform="translate(1134.7605 1182.52649)">2</text><text class="cls-15" transform="translate(929.43701 940.02939)">CAMEROON</text><text class="cls-10" transform="translate(988.10132 940.02939)">1</text><text class="cls-22" transform="translate(2047.52673 684.27109)">T<tspan class="cls-23" x="3.73242" y="0">AI</tspan><tspan class="cls-21" x="10.95605" y="0">W</tspan><tspan class="cls-23" x="17.7959" y="0">AN</tspan></text><text class="cls-24" transform="translate(2097.7262 684.27109)">3</text><text class="cls-9" transform="translate(1631.96039 693.64609)">INDIA</text><text class="cls-25" transform="translate(1678.51624 693.64609)">3</text><text class="cls-15" transform="translate(1501.39435 639.43567)">PAKIS<tspan class="cls-26" x="21.71924" y="0">T</tspan><tspan x="25.45166" y="0">AN</tspan></text><text class="cls-27" transform="translate(1555.40918 639.43567)">2</text><text class="cls-9" transform="translate(1493.81036 546.16873)">AFGHANIS<tspan class="cls-18" x="36.88721" y="0">T</tspan><tspan x="40.61914" y="0">AN</tspan></text><text class="cls-28" transform="translate(1555.40918 546.16873)">2</text><text class="cls-9" transform="translate(2074.25616 441.47324)">N KOREA</text><text class="cls-29" transform="translate(2126.41748 441.47324)">3</text><text class="cls-30" transform="translate(2097.14923 521.37024)">S KOREA</text><text class="cls-29" transform="translate(2148.97351 521.37024)">3</text><text class="cls-9" transform="translate(2191.1424 601.26727)">JAPAN</text><text class="cls-25" transform="translate(2238.28699 601.26727)">4</text><text class="cls-30" transform="translate(2041.61755 1138.77725)">AUSTRALIA</text><text class="cls-31" transform="translate(2097.31799 1138.77725)">4</text><text class="cls-9" transform="translate(1266.57465 595.01007)">IRAQ</text><text class="cls-25" transform="translate(1311.82343 595.01007)">3</text><text class="cls-9" transform="translate(1211.87939 671.18195)">JORDAN</text><text class="cls-32" transform="translate(1262.39606 671.18195)">2</text><text class="cls-15" transform="translate(1328.85059 671.18195)">GULF S<tspan class="cls-18" x="25.66748" y="0">T</tspan><tspan class="cls-19" x="29.39941" y="0">A</tspan><tspan x="33.56348" y="0">TES</tspan></text><text class="cls-33" transform="translate(1388.57086 671.18195)">3</text><text class="cls-15" transform="translate(1149.03967 518.18503)">LEBANON</text><text class="cls-32" transform="translate(1203.7323 518.18503)">1</text><text class="cls-9" transform="translate(1269.93152 518.18503)">SYRIA</text><text class="cls-32" transform="translate(1317.13617 518.18503)">2</text><text class="cls-9" transform="translate(742.6958 355.26959)">FRANCE</text><text class="cls-25" transform="translate(793.88428 355.26959)">3</text><text class="cls-15" transform="translate(754.78284 278.48215)">BENELUX</text><text class="cls-34" transform="translate(807.9444 278.48215)">3</text><text class="cls-15" transform="translate(651.77808 201.1384)">UK</text><text class="cls-35" transform="translate(693.02393 201.1384)">5</text><text class="cls-27" transform="translate(614.6351 247.33177)">5</text><text class="cls-27" transform="translate(252.69122 317.56819)">2</text><text class="cls-15" transform="translate(279.90302 271.37506)">CANADA</text><text class="cls-35" transform="translate(330.68402 271.37506)">4</text><text class="cls-15" transform="translate(807.81824 47.62277)">NOR<tspan class="cls-19" x="15.83984" y="0">W</tspan><tspan class="cls-17" x="22.68018" y="0">A</tspan><tspan class="cls-8" x="26.62793" y="0">Y</tspan></text><text class="cls-35" transform="translate(859.38531 47.62277)">4</text><text class="cls-15" transform="translate(827.85565 125.06616)">DENMARK</text><text class="cls-34" transform="translate(882.34906 125.06616)">3</text><text class="cls-9" transform="translate(950.09088 125.06616)">SWEDEN</text><text class="cls-35" transform="translate(1001.87378 125.06616)">4</text><text class="cls-15" transform="translate(860.8916 278.48215)">W GERMANY</text><text class="cls-27" transform="translate(919.59204 278.48215)">4</text><text class="cls-36" transform="translate(633.25391 462.42291)">SPAIN/PORTUGAL</text><text class="cls-35" transform="translate(711.02808 462.42291)">2</text><text class="cls-9" transform="translate(894.82153 435.21603)">I<tspan class="cls-18" x="2.61621" y="0">T</tspan><tspan x="6.34814" y="0">A</tspan><tspan class="cls-37" x="10.95605" y="0">L</tspan><tspan x="14.24365" y="0">Y</tspan></text><text class="cls-27" transform="translate(940.59125 435.21603)">2</text><text class="cls-15" transform="translate(1024.19373 518.18503)">GREECE</text><text class="cls-35" transform="translate(1075.37048 518.18503)">2</text><text class="cls-15" transform="translate(1229.15338 435.19562)">TURKEY</text><text class="cls-35" transform="translate(1279.66437 435.19562)">2</text><text class="cls-9" transform="translate(903.64185 357.11783)">AUSTRIA</text><text class="cls-35" transform="translate(955.06342 357.11783)">4</text><text class="cls-9" transform="translate(1088.31 10.33182)">FINLAND</text><text class="cls-35" transform="translate(1140.06818 10.33182)">4</text><text class="cls-15" transform="translate(1023.22986 357.11783)">HUNGA<tspan class="cls-18" x="25.72803" y="0">R</tspan><tspan class="cls-8" x="30.79199" y="0">Y</tspan></text><text class="cls-34" transform="translate(1077.2865 357.11783)">3</text><text class="cls-15" transform="translate(982.28925 278.48215)">CZECHOSLO<tspan class="cls-19" x="44.17139" y="0">V</tspan><tspan class="cls-8" x="48.33545" y="0">AKIA</tspan></text><text class="cls-34" transform="translate(1051.03357 278.48215)">3</text><text class="cls-15" transform="translate(1022.33881 201.1384)">POLAND</text><text class="cls-25" transform="translate(1073.53333 201.1384)">3</text><text class="cls-25" transform="translate(957.81781 247.3318)">3</text><text class="cls-9" transform="translate(900.10254 201.1384)">E GERMANY</text><text class="cls-25" transform="translate(957.87274 201.1384)">3</text><text class="cls-9" transform="translate(995.71265 435.21603)">YUGOSL<tspan class="cls-19" x="29.00342" y="0">A</tspan><tspan x="33.16748" y="0">VIA</tspan></text><text class="cls-34" transform="translate(1054.56781 435.21603)">3</text><text class="cls-15" transform="translate(1112.20203 435.21603)">BULGARIA</text><text class="cls-34" transform="translate(1167.00818 435.21603)">3</text><text class="cls-15" transform="translate(1134.33405 357.11783)">ROMANIA</text><text class="cls-34" transform="translate(1187.83282 357.11783)">3</text><text class="cls-9" transform="translate(1383.45398 595.01007)">IRAN</text><text class="cls-27" transform="translate(1428.6908 595.01007)">2</text><text class="cls-9" transform="translate(1296.64624 756.5159)">SAUDI ARABIA</text><text class="cls-25" transform="translate(1358.66937 756.5159)">3</text><text class="cls-9" transform="translate(1138.14667 595.01007)">ISRAEL</text><text class="cls-27" transform="translate(1186.92957 595.01007)">4</text><text class="cls-9" transform="translate(1089.61469 671.18195)">EGYPT</text><text class="cls-27" transform="translate(1137.82147 671.18195)">2</text><text class="cls-15" transform="translate(973.83478 652.52481)">LIB<tspan class="cls-7" x="11.84375" y="0">Y</tspan><tspan x="15.79199" y="0">A</tspan></text><text class="cls-27" transform="translate(1020.37842 652.52481)">2</text><text class="cls-9" transform="translate(1817.13672 795.54477)">THAILAND</text><text class="cls-25" transform="translate(1871.26465 795.54477)">2</text><text class="cls-30" transform="translate(1934.5011 795.54477)">VIETNAM</text><g class="cls-38"><text class="cls-39" transform="translate(1988.19177 795.54477)">1</text></g><text class="cls-40" transform="translate(1867.73145 916.07419)">MAL<tspan class="cls-41" x="16.24805" y="0">A</tspan><tspan x="20.55566" y="0">YSIA</tspan></text><g class="cls-38"><text class="cls-42" transform="translate(1923.11255 916.07419)">2</text></g><text class="cls-9" transform="translate(2089.51129 795.54477)">PHILIPPINES</text><g class="cls-38"><text class="cls-42" transform="translate(2149.56134 795.54477)">2</text></g><text class="cls-9" transform="translate(2038.72931 1006.48227)">INDONESIA</text><g class="cls-38"><text class="cls-39" transform="translate(2096.3653 1006.48227)">1</text></g><text class="cls-15" transform="translate(1757.12659 713.02805)">BURMA</text><g class="cls-38"><text class="cls-42" transform="translate(1807.00079 713.02805)">2</text></g><text class="cls-43" transform="translate(1842.91113 713.02805)">LAOS/CAMBODIA</text><g class="cls-38"><text class="cls-42" transform="translate(1920.62244 713.02805)">1</text></g><text class="cls-15" transform="translate(866.54626 846.11508)">NIGERIA</text><text class="cls-27" transform="translate(919.24084 846.11508)">1</text><text class="cls-9" transform="translate(797.08368 574.00919)">ALGERIA</text><text class="cls-27" transform="translate(848.90228 574.00919)">2</text><text class="cls-9" transform="translate(1067.94397 940.02939)">ZAIRE</text><text class="cls-27" transform="translate(1116.35437 940.02939)">1</text><text class="cls-9" transform="translate(974.62708 1020.86237)">ANGOLA</text><text class="cls-27" transform="translate(1026.6795 1020.86237)">1</text><text class="cls-9" transform="translate(1003.98187 1263.35864)">SOUTH AFRICA</text><text class="cls-25" transform="translate(1067.008 1263.35864)">3</text><text class="cls-6" transform="translate(326.16364 834.8042)">VENEZUELA</text><text class="cls-27" transform="translate(383.58441 834.8042)">2</text><text class="cls-4" transform="translate(541.63208 1053.88956)">BRAZIL</text><text class="cls-27" transform="translate(591.146 1053.88956)">2</text><text class="cls-4" transform="translate(275.64691 1190.09525)">CHILE</text><text class="cls-25" transform="translate(322.86896 1190.09525)">3</text><text class="cls-6" transform="translate(300.23425 1345.32022)">ARGENTINA</text><text class="cls-27" transform="translate(357.33313 1345.32022)">2</text><text class="cls-4" transform="translate(70.64795 834.8042)">COS<tspan class="cls-18" x="15.16797" y="0">T</tspan><tspan class="cls-8" x="18.8999" y="0">A RICA</tspan></text><text class="cls-44" transform="translate(128.62225 834.8042)">3</text><text class="cls-4" transform="translate(0.00024 668.28387)">GU<tspan class="cls-19" x="10.56006" y="0">A</tspan><tspan x="14.72412" y="0">TEMALA</tspan></text><text class="cls-45" transform="translate(59.07861 668.28387)">1</text><text class="cls-4" transform="translate(71.81787 750.30151)">HONDURAS</text><text class="cls-45" transform="translate(128.61053 750.30151)">2</text><rect class="cls-46" x="161.16194" y="739.18421" width="23.4375" height="14.0625"/><rect class="cls-47" x="161.16194" y="743.87171" width="23.4375" height="4.6875"/><circle class="cls-48" cx="172.88069" cy="746.05933" r="2.00121"/><polygon class="cls-49" points="171.662 747.071 172.881 744.961 174.099 747.071 171.662 747.071"/></g></g></g></g></svg>