<svg xmlns="http://www.w3.org/2000/svg" viewBox="0 0 28.39037 14.19519"><defs><style>.cls-1{fill:#0951a0;}.cls-2{fill:#fff;}.cls-3{fill:#ec222a;}</style></defs><g id="Layer_2" data-name="Layer 2"><g id="Layer_20" data-name="Layer 20"><g id="Country_Plates" data-name="Country Plates"><rect class="cls-1" width="28.39037" height="14.19519"/><rect class="cls-2" y="2.36586" width="28.39037" height="9.46346"/><rect class="cls-3" y="2.76018" width="28.39037" height="8.67484"/><circle class="cls-2" cx="9.46346" cy="7.09759" r="3.15449"/><g id="cone"><polygon id="triangle" class="cls-3" points="9.463 4.042 8.519 6.948 9.972 7.42 9.463 4.042"/><g id="use12"><polygon id="triangle-2" data-name="triangle" class="cls-3" points="9.463 4.042 10.408 6.948 8.955 7.42 9.463 4.042"/></g></g><g id="cone-2" data-name="cone"><polygon id="triangle-3" data-name="triangle" class="cls-3" points="12.37 6.153 9.314 6.153 9.314 7.681 12.37 6.153"/><g id="use14"><polygon id="triangle-4" data-name="triangle" class="cls-3" points="12.37 6.153 9.898 7.949 8.999 6.713 12.37 6.153"/></g></g><g id="cone-3" data-name="cone"><polygon id="triangle-5" data-name="triangle" class="cls-3" points="6.557 6.153 9.029 7.949 9.928 6.713 6.557 6.153"/><g id="use16"><polygon id="triangle-6" data-name="triangle" class="cls-3" points="6.557 6.153 9.613 6.153 9.613 7.681 6.557 6.153"/></g></g><g id="cone-4" data-name="cone"><polygon id="triangle-7" data-name="triangle" class="cls-3" points="11.26 9.57 10.315 6.664 8.862 7.136 11.26 9.57"/><g id="use18"><polygon id="triangle-8" data-name="triangle" class="cls-3" points="11.26 9.57 8.787 7.774 9.686 6.538 11.26 9.57"/></g></g><g id="star"><g id="cone-5" data-name="cone"><polygon id="triangle-9" data-name="triangle" class="cls-3" points="7.667 9.57 10.14 7.774 9.241 6.538 7.667 9.57"/><g id="use20"><polygon id="triangle-10" data-name="triangle" class="cls-3" points="7.667 9.57 8.612 6.664 10.065 7.136 7.667 9.57"/></g></g></g></g></g></g></svg>