<svg xmlns="http://www.w3.org/2000/svg" viewBox="0 0 24.47655 16.13536"><defs><style>.cls-1{fill:#ffcd05;}.cls-2{fill:#273476;}.cls-3{fill:#d0202d;}.cls-4,.cls-7{fill:#fff;}.cls-5{fill:#1d439b;}.cls-10,.cls-6{fill:#ce2028;}.cls-7{stroke:#010101;stroke-width:0.05747px;}.cls-8{fill:#3665b0;}.cls-9{fill:#fecf0a;}.cls-10{stroke:#ce2028;stroke-width:0.00442px;}</style></defs><g id="Layer_2" data-name="Layer 2"><g id="Layer_20" data-name="Layer 20"><g id="Country_Plates" data-name="Country Plates"><rect id="rect4" class="cls-1" x="0.27351" y="10.48799" width="24.20305" height="5.64738"/><rect id="rect6" class="cls-2" x="0.27351" y="5.10953" width="24.20305" height="5.64738"/><rect id="rect8" class="cls-3" x="0.27351" width="24.20305" height="5.37845"/><rect id="rect2259" class="cls-4" y="1.17105" width="22.98878" height="13.79327"/><rect id="rect2260" class="cls-5" y="10.36656" width="22.98878" height="4.59776"/><rect id="rect2261" class="cls-6" y="1.17105" width="22.98878" height="4.59776"/><path id="path7267" class="cls-7" d="M13.24613,8.06768a1.75174,1.75174,0,1,1-3.50348,0h0a1.75174,1.75174,0,0,1,3.50348,0Z"/><path id="path7655" class="cls-8" d="M12.06157,7.99872a.56553.56553,0,1,1-.56552-.56553A.56552.56552,0,0,1,12.06157,7.99872Z"/><path id="path1740" class="cls-9" d="M11.80174,8.38793l-.3068-.212-.30681.212.11505-.33925-.26845-.212h.34515l.11506-.33925.11505.33925h.34515l-.26845.212.11505.33925Z"/><path class="cls-10" d="M11.49438,6.5657a1.502,1.502,0,1,0,1.502,1.502h0A1.50251,1.50251,0,0,0,11.49438,6.5657Zm1.10145,1.502a1.10145,1.10145,0,1,1-1.10145-1.10145,1.10185,1.10185,0,0,1,1.10145,1.10145Z"/></g></g></g></svg>