<svg xmlns="http://www.w3.org/2000/svg" viewBox="0 0 27 13.5"><defs><style>.cls-1{fill:#1d439b;}.cls-2{fill:#ce2028;}.cls-3{fill:#fff;}.cls-4{fill:#fbd118;}</style></defs><g id="Layer_2" data-name="Layer 2"><g id="Layer_20" data-name="Layer 20"><g id="Country_Plates" data-name="Country Plates"><rect class="cls-1" width="27" height="13.5"/><rect class="cls-2" y="6.75" width="27" height="6.75"/><path class="cls-3" d="M11.69134,6.75,0,13.5V0"/><circle class="cls-4" cx="4.2" cy="6.75" r="1.35"/><g id="h"><path class="cls-4" d="M1.35,6.75l.17531.17531L4.2,6.75,1.52531,6.57469Z"/><path id="g" class="cls-4" d="M1.65,7.08571l.14306.14306L4.2,6.75Z"/><path id="g-2" data-name="g" class="cls-4" d="M1.65,6.41429l.14306-.14306L4.2,6.75Z"/></g><g id="i"><g id="h-2" data-name="h"><path class="cls-4" d="M2.18475,4.73475v.24792L4.2,6.75,2.43267,4.73475Z"/><path id="g-3" data-name="g" class="cls-4" d="M2.15949,5.18426v.20232L4.2,6.75Z"/><path id="g-4" data-name="g" class="cls-4" d="M2.63426,4.70949h.20232L4.2,6.75Z"/></g></g><g id="j"><g id="h-3" data-name="h"><path class="cls-4" d="M4.2,3.9l-.17531.17531L4.2,6.75l.17531-2.67469Z"/><path id="g-5" data-name="g" class="cls-4" d="M3.86429,4.2l-.14306.14306L4.2,6.75Z"/><path id="g-6" data-name="g" class="cls-4" d="M4.53571,4.2l.14306.14306L4.2,6.75Z"/></g><g id="i-2" data-name="i"><g id="h-4" data-name="h"><path class="cls-4" d="M6.21525,4.73475H5.96733L4.2,6.75,6.21525,4.98267Z"/><path id="g-7" data-name="g" class="cls-4" d="M5.76574,4.70949H5.56342L4.2,6.75Z"/><path id="g-8" data-name="g" class="cls-4" d="M6.24051,5.18426v.20232L4.2,6.75Z"/></g></g></g><g id="h-5" data-name="h"><path class="cls-4" d="M7.05,6.75l-.17531-.17531L4.2,6.75l2.67469.17531Z"/><path id="g-9" data-name="g" class="cls-4" d="M6.75,6.41429l-.14306-.14306L4.2,6.75Z"/><path id="g-10" data-name="g" class="cls-4" d="M6.75,7.08571l-.14306.14306L4.2,6.75Z"/></g><g id="i-3" data-name="i"><g id="h-6" data-name="h"><path class="cls-4" d="M6.21525,8.76525V8.51733L4.2,6.75,5.96733,8.76525Z"/><path id="g-11" data-name="g" class="cls-4" d="M6.24051,8.31574V8.11342L4.2,6.75Z"/><path id="g-12" data-name="g" class="cls-4" d="M5.76574,8.79051H5.56342L4.2,6.75Z"/></g></g><g id="j-2" data-name="j"><g id="h-7" data-name="h"><path class="cls-4" d="M4.2,9.6l.17531-.17531L4.2,6.75,4.02469,9.42469Z"/><path id="g-13" data-name="g" class="cls-4" d="M4.53571,9.3l.14306-.14306L4.2,6.75Z"/><path id="g-14" data-name="g" class="cls-4" d="M3.86429,9.3l-.14306-.14306L4.2,6.75Z"/></g><g id="i-4" data-name="i"><g id="h-8" data-name="h"><path class="cls-4" d="M2.18475,8.76525h.24792L4.2,6.75,2.18475,8.51733Z"/><path id="g-15" data-name="g" class="cls-4" d="M2.63426,8.79051h.20232L4.2,6.75Z"/><path id="g-16" data-name="g" class="cls-4" d="M2.15949,8.31574V8.11342L4.2,6.75Z"/></g></g></g><g id="s"><path id="t" class="cls-4" d="M10.34134,6.75l-.50729.17634-.01094.537-.32447-.428-.51406.15552L9.29134,6.75Z"/><path id="t-2" data-name="t" class="cls-4" d="M10.34134,6.75l-.50729-.17634-.01094-.53695-.32447.428-.51406-.15552L9.29134,6.75Z"/></g><g id="s-2" data-name="s"><path id="t-3" data-name="t" class="cls-4" d="M.675,12.33087l.10094-.5275-.45955-.278.53287-.067.12234-.52294.2284.48608Z"/><path id="t-4" data-name="t" class="cls-4" d="M.675,12.33087l.40636-.35117.47049.259-.20841-.495.39172-.36743L1.2,11.42154Z"/></g><g id="s-3" data-name="s"><path id="t-5" data-name="t" class="cls-4" d="M.675,1.16913l.40636.35117.47049-.259-.20841.495.39172.36743L1.2,2.07846Z"/><path id="t-6" data-name="t" class="cls-4" d="M.675,1.16913l.10094.5275-.45955.278.53287.067.12234.52294L1.2,2.07846Z"/></g></g></g></g></svg>