<svg xmlns="http://www.w3.org/2000/svg" viewBox="0 0 21.39217 14.26145"><defs><style>.cls-1{fill:#076d38;}.cls-2{fill:#fff;}</style></defs><g id="Layer_2" data-name="Layer 2"><g id="Layer_20" data-name="Layer 20"><g id="Country_Plates" data-name="Country Plates"><rect class="cls-1" width="21.39217" height="14.26145"/><path class="cls-2" d="M9.36317,3.73118a.09816.09816,0,0,0-.0459.01772.341.341,0,0,0-.14336.2408c-.00285.06315-.01477.0629.02658.10309.02987.04307.05971.03883.12.00725a.12745.12745,0,0,0,.058-.08457c.01437-.07174-.07549.03395-.087-.0459-.02008-.07413.03729-.10463.09182-.17638.00125-.03379.00185-.06136-.02014-.062ZM10.241,3.736c-.01684.00227-.03744.02384-.066.0757a.32008.32008,0,0,0-.0451.306.90881.90881,0,0,1,.04993.47678.91724.91724,0,0,1-.09181.12966.15047.15047,0,0,1-.19409.02658.2078.2078,0,0,1-.116-.16349,2.24092,2.24092,0,0,0-.01772-.52672.09548.09548,0,0,0-.15946-.03222,1.20256,1.20256,0,0,0-.28914.59355c-.04465.14414-.09223.10246-.12563.0443C9.10465,4.59,9.09893,3.994,9.00074,4.092c-.15726.44946.09025.94182.26174.894.12372.05122.20223-.18428.25288-.44214.03466-.07237.06114-.08069.07893-.04349-.00457.34291.02459.41941.11275.52347a.28465.28465,0,0,0,.37209.00644l.153-.153a.09206.09206,0,0,1,.12725-.00644c.04678.04253.04078.11577.14094.16671a.30955.30955,0,0,0,.306-.06443c.05619-.09629.06981-.12938.09584-.1659.04011-.05338.10873-.02975.10873-.01289-.00639.02977-.04671.05914-.01933.11275.04769.03577.05877.01279.087.00484.09977-.0477.17476-.26416.17476-.26416.00442-.08074-.04152-.07461-.07087-.058-.03829.02341-.04064.03136-.07893.05477-.04878.00724-.14328.03942-.19006-.033a2.87179,2.87179,0,0,1-.08457-.29638c0-.00639-.06382-.13813-.00483-.14657.02977.00553.09379.02207.10389-.03142.03123-.05213-.06737-.2-.1345-.27462a.14474.14474,0,0,0-.21664-.00644c-.05457.05021-.04648.10629-.05718.15946a.2492.2492,0,0,0,.05074.21745.66142.66142,0,0,1,.1208.43972.17637.17637,0,0,1-.15865.08053c-.04216-.00919-.11086-.02744-.14738-.29717-.02764-.20417.00692-.49023-.07974-.62417-.01956-.05054-.03636-.09961-.06443-.09584Zm-.27782.02165c-.02621.00229-.05525.03282-.07892.09181a1.49123,1.49123,0,0,0-.04108.27947c-.01621.06982.073.09941.11356.00966a.85592.85592,0,0,0,.06523-.30441c-.00948-.05316-.03258-.0788-.05879-.07651Zm1.026.01852c-.02692.00244-.04836.01821-.05637.058a.61147.61147,0,0,0,.01047.22228.78719.78719,0,0,0,.12483.18926c.17772.23889.34872.47892.51384.72725.026.1844.045.36478.05718.54443a10.96389,10.96389,0,0,1,.01047,1.29905c.0738.00291.19205-.11917.23356-.298a8.67221,8.67221,0,0,0-.01208-.898c-.00174-.0606-.00547-.13291-.00967-.20859.19207.31387.37841.6464.56134,1.01154.06668-.0317.0519-.40715.01288-.45987-.1464-.31512-.34866-.62615-.41315-.74579-.02327-.0432-.10255-.16377-.1965-.30281-.0173-.19841-.0361-.36645-.04833-.4172-.03021-.20973.0862.02366.07007-.09825a1.34169,1.34169,0,0,0-.28993-.54363c-.044-.0624-.04316-.07512-.11114.0153a.40026.40026,0,0,0-.02819.24081c-.01788-.026-.04-.0568-.07168-.095-.11793-.10117-.1252-.1067-.22308-.18926a.24169.24169,0,0,0-.1345-.05154Zm3.04107.03141c-.01312-.002-.0274.00441-.04349.02819a.18315.18315,0,0,0-.06282.13852c.00748.11053.02715.2237.03463.33424l.008.04429a.427.427,0,0,0-.02819-.033c-.21544-.22634.099-.037-.04107-.21182a1.67736,1.67736,0,0,0-.2545-.24966c-.05083-.03286-.08155-.09564-.09825.01127a2.10658,2.10658,0,0,0-.00725.2819.37924.37924,0,0,0,.08456.17557c.14373.17658.29053.36446.43812.56053.03106.39987.03935.76642.07087,1.167-.00446.17131-.05716.39884-.10711.42039,0,0-.07628.04382-.12725-.00484a1.52746,1.52746,0,0,1-.18523-.24724.1129.1129,0,0,0-.1804,0,2.48932,2.48932,0,0,0-.3173.59839c-.02608.04138-.09954.0766-.18121-.00322a.84393.84393,0,0,1-.112-.58309.64482.64482,0,0,0-.0612.62739.49211.49211,0,0,0,.22872.26014.16046.16046,0,0,0,.23839-.02577c.10863-.11258.11008-.4005.16107-.45745A.09524.09524,0,0,1,13.6566,6.599a.41593.41593,0,0,0,.15463.13369.25968.25968,0,0,0,.34147.02416.39574.39574,0,0,0,.182-.22228,7.80214,7.80214,0,0,0,.01449-1.25315c.07653.10781.15207.218.22712.32939a8.168,8.168,0,0,1,.037,1.026c-.00777.06578.22953-.19637.22792-.32054-.00107-.10865.00021-.20712,0-.2988.1151.18377.22651.3706.33181.55973.06526-.03457.04289-.404.00161-.455-.11025-.185-.25144-.38493-.3608-.53961-.02161-.19522-.051-.42554-.06443-.49611-.02086-.11-.04175-.27531-.07329-.4059a1.38725,1.38725,0,0,1-.02657-.22953c.01285-.03644.06144.00117.08536-.04107a1.46328,1.46328,0,0,0-.20537-.57183c-.02919-.053-.082-.03467-.14738.05155-.06063.05673-.03845.18616-.0153.30926.06012.31374.11378.63326.15624.952-.07861-.11685-.17454-.25825-.269-.39461l-.01208-.062c0-.00564-.013-.25666-.02416-.31651-.00194-.02428-.00774-.03128.01772-.02819a.14591.14591,0,0,0,.04752.03141c.02725.005.05107-.04108.03463-.08375-.08429-.15547-.16859-.31164-.25288-.46712a.0703.0703,0,0,0-.03464-.02255ZM6.182,3.81565c-.04671-.00134-.09824.02761-.07812.08375-.01172.0306.09142.134.10953.19087.01623.04048-.0161.1708.01772.18282.03109.01349.07391-.09021.0902-.186.009-.05249.00219-.23215-.12-.269L6.182,3.81563Zm8.94046.001c-.01065.00105-.02361.01826-.04349.0604a.55977.55977,0,0,0-.0451.34227,18.8161,18.8161,0,0,1,.21826,2.222.72028.72028,0,0,1-.04349.18282,1.4664,1.4664,0,0,1-.21342.24885c-.07056.0526-.22071.10276-.26981.14175-.15575.09-.15653.19357-.0306.19731a.776.776,0,0,0,.65073-.31006,1.03483,1.03483,0,0,0,.10551-.40188,9.37607,9.37607,0,0,0-.11839-1.9659.9761.9761,0,0,1-.02094-.18442c.014-.036.08506.0036.11033-.03786.0371-.03787-.18363-.32049-.26094-.44134-.01544-.03035-.025-.05532-.03865-.054Zm-2.27595.01208c-.009.00154-.02219.01518-.04671.04752a1.06218,1.06218,0,0,0-.05879.48321,10.50832,10.50832,0,0,1,.28993,2.3267c.07385.00049.15923-.16894.19571-.33663a2.85526,2.85526,0,0,0-.01933-.50739c-.006-.13578-.1537-1.23741-.18363-1.34013-.0361-.19425.14364-.02555.124-.13852-.06214-.14243-.21722-.34983-.26576-.47356-.01825-.03314-.0205-.06378-.03543-.06121Zm-5.54169.0153a.058.058,0,0,0-.0443.0451c-.0042.017.00738.04539-.008.054-.00886.00894-.04248.00293-.04108-.0443a.07891.07891,0,0,0-.01771-.04026.03522.03522,0,0,0-.02336-.00564c-.01478.0006-.01444.00449-.02255.01691a.13931.13931,0,0,0-.00825.03943c-.00184.01681-.00857.0225-.02094.025-.01382,0-.01054.0015-.02174-.00564-.00665-.00727-.0145-.01013-.0145-.02255a.13246.13246,0,0,0-.00725-.04188.04468.04468,0,0,0-.02577-.0145c-.0579.00021-.06211.06675-.05879.09182-.00434.00472-.00648.12265.07249.15543.106.05055.3048.02918.29637-.14174,0-.01512-.00333-.06589-.00483-.07974A.04565.04565,0,0,0,7.30464,3.844Zm1.42229.00161a.2369.2369,0,0,0-.09665.02658.183.183,0,0,0-.03141.24241c.05385.02543.10758.07963.07168.10953-.15228.16265-.5486.43443-.56858.484l-.0008.00161v.00241l.00055.00128.00106.00114h.0008l.00081.0008h.0008l.0008.00081a1.12806,1.12806,0,0,0,.29558.0008l.0008-.0008h.00081V4.71545A4.1719,4.1719,0,0,0,8.893,4.22177c-.021-.01795-.04027-.03118-.06121-.04913-.02244-.01943-.02018-.03853,0-.058a.16034.16034,0,0,0,.01611-.24483.26091.26091,0,0,0-.12081-.02416Zm3.71757.00161c-.01065.00106-.02362.01746-.04349.0596a.67853.67853,0,0,0-.07651.34227c.10354.71682.13528,1.3441.20295,2.06094a.28335.28335,0,0,1-.05074.2102,2.02034,2.02034,0,0,1-.68375.49853c-.02878.03231.07156.17006.20134.16993a.76333.76333,0,0,0,.58471-.46791.83426.83426,0,0,0,.13288-.35921,7.84135,7.84135,0,0,0-.14577-1.82012.30038.30038,0,0,1,.00645-.12725c.014-.01678.0617.00038.087-.04108.03709-.03787-.09907-.35191-.17638-.47275-.01545-.03035-.025-.05451-.03866-.05316Zm-5.75921.02191a.09534.09534,0,0,0-.07167.0604,2.07484,2.07484,0,0,0,.00725.33583,3.67156,3.67156,0,0,1,.09422.53961c.007.25491-.1472.11027-.14013-.01611a1.1484,1.1484,0,0,0-.00564-.48806c-.02509-.06549-.05415-.08165-.11517-.07087-.04844-.003-.1736.1334-.20859.3592a2.12092,2.12092,0,0,0-.04188.21906c-.01712.11661-.09436.19919-.14819-.01611-.04652-.15648-.07511-.542-.153-.4518-.02232.301-.04881.83075.207.8851.30939.02975.13849-.523.25047-.62336.02117-.04959.06041-.05047.06363.01208v.46953a.22558.22558,0,0,0,.17557.22953c.08112-.00626.13491-.004.16671.0749q.019.406.03866.81261s.18755.05389.19651-.45665a4.76913,4.76913,0,0,1-.01933-.60966c.00143-.0573.07488-.06014.12564-.03221.08086.057.11674.12724.24241.09906.19124-.05268.30642-.14551.30926-.29236a1.2736,1.2736,0,0,0-.08778-.41879c.00844-.02537-.03661-.09139-.02819-.11677.03436.05382.08635.04935.09825,0a.41862.41862,0,0,0-.1651-.2545c-.06767-.05961-.16669-.047-.20295.07732a.67683.67683,0,0,0,.15624.4518.44287.44287,0,0,1,.03946.2255.12046.12046,0,0,1-.157-.0306s-.15222-.11395-.15222-.13933a.54576.54576,0,0,0-.01369-.36.48559.48559,0,0,0-.10067-.19812c-.03808-.04037-.08974-.04037-.11436,0a.68232.68232,0,0,0,.01289.4792c.03511.10315.089.16751.06362.16751-.02088.05829-.06443.04473-.09584-.02255a1.67507,1.67507,0,0,1-.054-.43971c-.01346-.11583-.02846-.36326-.1047-.426a.07235.07235,0,0,0-.06765-.03463Zm1.08644.00161c-.01536.00194-.03233.01068-.05235.0153a.15345.15345,0,0,0-.10792.18846c.07775.47244.12843.833.20617,1.30549.012.05533-.03443.12826-.09422.1208-.10168-.06878-.12691-.20809-.3004-.20215a.338.338,0,0,0-.28671.26981.65486.65486,0,0,0,0,.30926.25132.25132,0,0,0,.28671.07087c.07624-.03138.139-.10651.16591-.08859h.0008v.0008c.01663.02906-.00157.27481-.3592.46469-.21979.09869-.39472.12227-.48887-.05718-.05831-.11214.00424-.53925-.13933-.44054-.42458,1.09445.99474,1.24722,1.15329.0451.01027-.03391.04155-.06794.06362-.0596.00969.00413.01856.01728.02175.04188-.03291,1.08847-1.098,1.16308-1.27892.82068a1.05534,1.05534,0,0,1-.06282-.36805.18339.18339,0,0,0-.04349-.11758c-.04315-.03243-.10115.05213-.11356.19892a1.32031,1.32031,0,0,0-.01288.26416c.05681.85972,1.42744.49034,1.65019-.21986a2.36632,2.36632,0,0,0,.03463-.6781l.00127-.00058.002-.001L8.01916,5.753l.00483-.0008c.13607.14656.327.01862.36885-.03222a.06132.06132,0,0,1,.09422-.00885.21994.21994,0,0,0,.331-.09423,2.97922,2.97922,0,0,0,.0459-.4075.413.413,0,0,0-.14738.0612.03874.03874,0,0,0-.01047.01933l-.01772.11678-.00322.00886a.03758.03758,0,0,1-.01289.01208c-.02444.01334-.06706.00571-.06926-.0298-.03288-.14952-.16823-.169-.25047.06282-.05533.04484-.15622.05359-.16671-.01369.01345-.15549-.0492-.17637-.17476-.10309-.04037-.308-.08042-.60205-.12081-.91.05234-.00151.10034.03644.14819-.02335A1.72941,1.72941,0,0,0,7.81539,3.891l-.00161-.0008-.00886-.00886-.004-.00322-.004-.00242-.008-.00322a.04181.04181,0,0,0-.01692-.00161Zm4.23532.00241c-.05432-.00161-.11442.03262-.091.10067-.01363.03712.11671.163.13772.23195.03783.10588-.02888.20687.01047.22147.03621.01634.0866-.10931.10551-.2255a.35046.35046,0,0,0-.14014-.32616.11214.11214,0,0,0-.02255-.00242Zm-3.29955.116a.08.08,0,0,1,.06926.05234c.01561.03429.00778.06705-.01772.07329s-.05848-.01645-.07409-.05074-.00779-.06784.01771-.07409Zm6.12078.15865a.08011.08011,0,0,0-.08215.10953c-.01242.04019.10569.17667.12483.25127.01723.0531-.02621.22421.00967.24.033.01769.07942-.11822.09664-.244.00956-.06886-.04147-.31053-.128-.35356l-.02094-.00323Zm-3.38409.08376c.00453.02019.00906.04052.01208.06121.01015.04463.0189.089.02819.13288-.03909-.05383-.07145-.09732-.08536-.11275-.08846-.10512.002-.069.0451-.08134Zm.7796.38335a.05914.05914,0,0,0-.0443.04591c-.00421.017.00818.04458-.00725.05315-.00885.00894-.04328.00374-.04188-.04349a.0817.0817,0,0,0-.01771-.04107.03522.03522,0,0,0-.02336-.00564c-.01478.0006-.01444.0045-.02255.01691a.1469.1469,0,0,0-.00805.03946c-.00185.01681-.00777.0225-.02014.025-.01382,0-.01135.00151-.02255-.00564-.00665-.00727-.01449-.01013-.01449-.02255a.13246.13246,0,0,0-.00725-.04188.04382.04382,0,0,0-.02577-.01369c-.05791.00021-.06131.06594-.058.091-.00434.00473-.00729.12346.07168.15624.106.05055.3056.02837.29717-.14255,0-.01512-.00413-.06589-.00564-.07973A.04562.04562,0,0,0,12.224,4.615ZM8.6644,4.65039a.08572.08572,0,0,0-.04993.0153.21821.21821,0,0,0-.07168.28913A.14129.14129,0,0,0,8.695,5.004c.09185.01148.14658-.17235.14658-.17235s.00277-.05169-.10631.04591c-.0459.00859-.05214-.008-.06362-.03383a.22868.22868,0,0,1,.01449-.14416c.01017-.02869.00006-.04691-.02174-.04913Zm5.03193.02335a.11882.11882,0,0,0-.12162.10229c.00021.04195.01894.065.01531.10308-.00543.02177-.02786.03609-.08134.01047.00836-.00768-.03464-.06845-.03464-.06845-.04172-.02541-.09742.00138-.13369.025a.20359.20359,0,0,0-.01208.16187c.05988.11064.26527.29942.36323.30122.00182-.09975.01151-.23239.01691-.3149.00231-.03115.00962-.06547.03946-.07329s.08158.03.08215-.00242a.42737.42737,0,0,0-.054-.20134.10117.10117,0,0,0-.07973-.04349ZM9.5311,5.02086l-.004.00242-.00179.00116A.55221.55221,0,0,1,9.47473,5.07c-.04611.05245-.05437.089-.05154.19409.00262.01112.08753.2472.15946.41315a1.28147,1.28147,0,0,1,.0604.55651,1.37067,1.37067,0,0,1-.56213.58791.29369.29369,0,0,1-.23517-.00081L8.845,6.82a.14545.14545,0,0,1-.062-.13369V6.68563l.0008-.00089a1.32486,1.32486,0,0,0,.56456-.58388.5976.5976,0,0,0,.0153-.42039.39979.39979,0,0,0-.095-.1949l.00081-.00081c.03165-.01514.11376.04536.12644.00725a.61224.61224,0,0,0-.16188-.29879A.13677.13677,0,0,0,9.035,5.18114c-.0683.038-.08282.17449-.04994.29395.03653.08993.13513.10571.20537.28671v.0008c.00147.01135.02411.13511-.01127.18524a2.21916,2.21916,0,0,1-.42364.39786L8.7534,6.347l-.00109.00107-.0008.00081-.00073.00072-.00088.00008H8.7491l-.0008-.0008V6.34811L8.74749,6.3465c-.00111-.00726.00084-.02574,0-.05556-.00242-.0545.02013-.17778.01852-.19893V6.0912l-.0008-.0008V6.08968l-.0008-.00008c-.12191.07871-.16217.32-.18443.39142a5.78385,5.78385,0,0,0-.86093.5879c-.10513.16417.72429-.18851.82067-.23114l.00242.00241c.01832.02017.01988.09047.0749.15383a.43854.43854,0,0,0,.44778.14416,1.42073,1.42073,0,0,0,.64671-.538c.02507-.03647.06436-.06521.10067-.037a1.01317,1.01317,0,0,0,.91732.48162c.104-.12642.05424-.18859.01208-.215-.013-.00863-.22343-.09068-.2561-.17235-.02058-.076.02944-.14341.12966-.19409a4.508,4.508,0,0,0,.84644-.16188.745.745,0,0,1,.09343-.28993A.13664.13664,0,0,1,11.60254,5.96l.00081-.00081.0008-.0008.00081-.00081,0-.00132-.00082-.00834-.04671-.02738-.92054-.004a.09834.09834,0,0,1-.025-.01289L10.61032,5.902l-.0008-.0008-.00067-.00065L10.608,5.899l-.00093-.00109v-.0008l-.0008-.00081V5.8899l.00065-.00066.00095-.00176a.06914.06914,0,0,1,.029-.01691c.21981-.02995.61032-.094.63625-.46953a.30838.30838,0,1,0-.60564.01288c-.00844.05058.01712.14983-.03463.16108-.33833.03091-.70761.2429-.72.39461h-.0008l-.00081.00081-.00161.0008-.00133,0-.00214.00065L9.90483,5.972h-.004l-.00247-.00061a.088.088,0,0,1-.04666-.09361,1.81526,1.81526,0,0,0-.23194-.78764c-.04771-.0477-.0685-.067-.08215-.06926l-.00118,0-.00212,0-.00141,0-.00092,0H9.53115Zm.88109.13853a.058.058,0,0,0-.0443.0451c-.00421.017.00818.04538-.00725.054-.00886.00893-.04328.00373-.04188-.04349a.0817.0817,0,0,0-.01772-.04108.03279.03279,0,0,0-.02255-.00563c-.01478.00059-.01525.00449-.02335.01691a.14682.14682,0,0,0-.00806.03946c-.00184.01681-.00777.0225-.02013.025-.01382,0-.01055.0015-.02174-.00564-.00665-.00727-.01531-.01013-.01531-.02255a.13358.13358,0,0,0-.00644-.04188.04606.04606,0,0,0-.02658-.01369c-.0579.0002-.06131.06594-.058.091-.00434.00473-.00729.12346.07167.15624.106.05055.35864.02079.29718-.14254,0-.01512-.00413-.06589-.00564-.07974a.04564.04564,0,0,0-.04993-.03141Zm3.55572.14577-.00886.0008s-.49118.34944-.50335.3616c-.0487.04331-.02434.19558,0,.178a1.95534,1.95534,0,0,0,.52028-.36081c.02155.00127.03192-.17239-.008-.17959Zm-3.09158.0518a.12553.12553,0,0,1,.07168.01933c.03667.02121.05927.05323.05638.07651v.00241L11.003,5.457l-.001.003-.0008.00161-.00081.00161-.00483.00564a.08968.08968,0,0,1-.09664-.008.0965.0965,0,0,1-.05638-.07651l.00081-.00242.00322-.008.00161-.00322.0008-.00081.004-.004a.046.046,0,0,1,.02335-.00886Zm-4.30155.08859a.81806.81806,0,0,0-.637.51623c.26856-.129.53236-.25311.80536-.38657-.044-.06578-.00267-.125-.16832-.12967Zm.82469.11436a.06888.06888,0,0,1,.06524.04752.08257.08257,0,0,1-.0145.08215v.0008l-.0008.00161c-.01069.01376-.04819.00805-.0749.00805a.07267.07267,0,0,1-.06765-.033c-.00928-.02922.019-.05793.03141-.07973l.0008-.0008.00564-.00644a.08408.08408,0,0,1,.0443-.01933l.01047-.00081Zm6.47283.10128a.08537.08537,0,0,0-.06846.11678c-.01242.04019.06139.1807.08054.2553.01722.05309-.02218.20327.01369.21906.033.01769.11984-.08915.11678-.22309.00955-.06886-.02457-.32258-.11115-.36565a.08152.08152,0,0,0-.03141-.00241Zm-5.49737.24806c-.04.00279-.07569.02417-.05959.08053-.00242.04089.113.0906.12.18524.0165.039-.02467.164.00967.17557.03153.013.07529-.08637.09181-.1788.00914-.05062-.0396-.22771-.12242-.25931a.142.142,0,0,0-.03946-.00322Zm1.64537.22469h.01047a2.85161,2.85161,0,0,0,.385.0443c.10689.00678.15971.09047.0596.12564-.09877.03382-.19366.06024-.1941.20295a.1967.1967,0,0,1-.0008.12483l-.00322.004-.00081.0008-.0008.00081L10.275,6.638l-.00095.00093-.00161.0008-.00483.00241-.00483.00081c-.02348.00344-.05758-.01895-.083-.03222a.522.522,0,0,1-.2561-.37691.09567.09567,0,0,1,.09664-.09986Zm-4.01884.17477c-.00641.0002-.01923.01934-.03624.04107a.79875.79875,0,0,0-.08134.70872.17658.17658,0,0,0,.17154.05719.31492.31492,0,0,0,.11436-.30442c-.03174-.04969-.0569-.05757-.08859-.0153-.06694.13591-.0948.04293-.10067-.033a1.745,1.745,0,0,1,.01933-.38173c.00833-.05384.008-.07268.00161-.07248Zm5.15847.31673a.06951.06951,0,0,0-.03544.00725.643.643,0,0,0-.14255.12161c-.02083.01585-.01847.02962-.01208.05718.01624.03733.04485.02562.07732.00806.04309-.00587.06393.02235.0604.07409a.09528.09528,0,0,0,.00886.09262.07153.07153,0,0,0,.0902.01127,1.70629,1.70629,0,0,1,.31086-.10872c.0378-.00075.03561-.10189-.02416-.10551a.35364.35364,0,0,0-.22792.06927c-.048.01109-.0562-.01812-.06685-.0443-.01218-.065.02744-.11076.01933-.15946a.11274.11274,0,0,0-.058-.02336Zm3.3029.12322c-.01913.0006-.03927.00325-.06846.00564-.03156.0067-.04258.02053-.04832.05879.00226.058.03776.05516.0741.07812a.06274.06274,0,0,1-.00161.095c-.03445.03156-.059.049-.09343.08054-.01626.02774-.02639.07035.02336.08376.09185.02582.30441-.11229.30441-.11517a.06744.06744,0,0,0,.02014-.0749c-.02008-.023-.0654-.00917-.09584-.01289-.0145,0-.06209-.007-.03946-.04912a.28523.28523,0,0,0,.03865-.0741c.01434-.03156.00174-.05284-.04993-.07006a.28638.28638,0,0,0-.06362-.00564ZM13.083,9.54231l-.0006.00067a.1451.1451,0,0,0-.05014.26752c-1.61315,0-4.08868-.02738-4.61957-.02738-.297,0-1.23671-.03544-1.25478-.03544a.95163.95163,0,0,0,.87544.3608c.71651,0,4.03637-.00885,4.98116-.00885a.331.331,0,0,0,.05879.34632l.004.00241.00644.00241h.00241c.06255.01476.09008-.03052.11114-.06362a6.47582,6.47582,0,0,0,.72483-.0008l.00063-.00074c.03553.052.07062.10112.1379.09255.11775-.02525.21048-.03806.21342-.27705,0,0-.012-.40724-.27947-.38173-.06328.00956-.24081.02739-.24081.02739-.20545-.02445-.35614-.02695-.5871-.03544.02132-.02707.059-.13668.01288-.17638a.07438.07438,0,0,0-.05476-.01369h-.00242l-.0008-.0008-.00242-.00081-.004-.004L13.11358,9.614c-.01168-.017-.01806-.0587-.02578-.06926L13.087,9.544l-.0008-.0008-.00161-.00081H13.083Zm.10953.58229h.0008c.23535.01148.45647.00221.69182.01369a.0852.0852,0,0,1-.00564.11758l-.004.00162h-.00645c-.07652-.00193-.12079-.00372-.19731-.00564l-.00161-.01128c-.01814-.05375-.1495-.05015-.1804-.00805l-.00161.00241-.00161.00322-.00161.004-.00081.00564-.0008.00644a1.847,1.847,0,0,1-.2996-.00725c-.03031-.03773-.02677-.106.00886-.12241Z"/></g></g></g></svg>