<svg xmlns="http://www.w3.org/2000/svg" viewBox="0 0 24 16"><defs><style>.cls-1{fill:#4d86c5;}.cls-2{fill:#fff;}</style></defs><g id="Layer_2" data-name="Layer 2"><g id="Layer_20" data-name="Layer 20"><g id="Country_Plates" data-name="Country Plates"><rect class="cls-1" width="24" height="16"/><g id="t"><polygon id="w" class="cls-2" points="12 4.148 10.81 7.811 12.641 8.407 12 4.148"/><polygon id="w-2" data-name="w" class="cls-2" points="12 4.148 13.19 7.811 11.359 8.407 12 4.148"/></g><g id="t-2" data-name="t"><polygon id="w-3" data-name="w" class="cls-2" points="15.663 6.81 11.811 6.81 11.811 8.736 15.663 6.81"/><polygon id="w-4" data-name="w" class="cls-2" points="15.663 6.81 12.547 9.074 11.415 7.516 15.663 6.81"/></g><g id="t-3" data-name="t"><polygon id="w-5" data-name="w" class="cls-2" points="8.337 6.81 11.453 9.074 12.585 7.516 8.337 6.81"/><polygon id="w-6" data-name="w" class="cls-2" points="8.337 6.81 12.189 6.81 12.189 8.736 8.337 6.81"/></g><g id="t-4" data-name="t"><polygon id="w-7" data-name="w" class="cls-2" points="14.264 11.116 13.074 7.453 11.242 8.048 14.264 11.116"/><polygon id="w-8" data-name="w" class="cls-2" points="14.264 11.116 11.148 8.852 12.28 7.294 14.264 11.116"/></g><g id="t-5" data-name="t"><polygon id="w-9" data-name="w" class="cls-2" points="9.736 11.116 12.852 8.852 11.72 7.294 9.736 11.116"/><polygon id="w-10" data-name="w" class="cls-2" points="9.736 11.116 10.926 7.453 12.758 8.048 9.736 11.116"/></g></g></g></g></svg>