<svg xmlns="http://www.w3.org/2000/svg" xmlns:xlink="http://www.w3.org/1999/xlink" viewBox="0 0 31.16217 20.77478"><defs><style>.cls-1{fill:none;}.cls-2{fill:#223f7f;}.cls-3{fill:#fff;}.cls-4{fill:#f6851f;}.cls-10,.cls-11,.cls-14,.cls-15,.cls-16,.cls-5,.cls-7,.cls-9{fill:#010101;}.cls-6{clip-path:url(#clip-path);}.cls-10,.cls-7{stroke:#fff;}.cls-11,.cls-7{stroke-width:0.44068px;}.cls-8{clip-path:url(#clip-path-2);}.cls-11,.cls-9{stroke:#d0202d;}.cls-9{stroke-width:0.29378px;}.cls-10{stroke-width:0.73446px;}.cls-12{fill:#ce2028;}.cls-13{fill:#057b4e;}.cls-14{stroke:#ce2028;}.cls-14,.cls-15,.cls-16{stroke-width:0.31477px;}.cls-15{stroke:#223f7f;}.cls-16{stroke:#f6851f;}</style><clipPath id="clip-path"><rect class="cls-1" x="11.06939" y="9.23323" width="3.30508" height="2.20339"/></clipPath><clipPath id="clip-path-2"><polygon class="cls-1" points="12.722 10.335 11.069 10.335 11.069 11.437 12.722 11.437 14.374 11.437 14.374 10.335 14.374 9.233 12.722 9.233 11.069 9.233 12.722 10.335"/></clipPath></defs><g id="Layer_2" data-name="Layer 2"><g id="Layer_20" data-name="Layer 20"><g id="Country_Plates" data-name="Country Plates"><rect class="cls-2" width="31.16217" height="20.77478"/><rect class="cls-3" width="31.16217" height="13.84985"/><rect class="cls-4" width="31.16217" height="6.92493"/><g id="UK"><path class="cls-5" d="M11.01693,9.18077v2.30831h3.41V9.18077Z"/><path class="cls-2" d="M11.06939,9.23323v2.20339h3.30508V9.23323Z"/><g class="cls-6"><path class="cls-7" d="M11.06939,9.23323l3.30508,2.20339m0-2.20339-3.30508,2.20339"/></g><g class="cls-8"><path class="cls-9" d="M11.06939,9.23323l3.30508,2.20339m0-2.20339-3.30508,2.20339"/></g><path class="cls-10" d="M12.72193,9.23323v2.20339m-1.65254-1.10169h3.30508"/><path class="cls-11" d="M12.72193,9.23323v2.20339m-1.65254-1.10169h3.30508"/></g><g id="Transvaal"><path class="cls-5" d="M16.63032,9.18077v2.30831h3.41V9.18077Z"/><rect class="cls-2" x="16.68278" y="9.23323" width="3.30508" height="2.20339"/><rect class="cls-3" x="16.68278" y="9.23323" width="3.30508" height="1.46892"/><rect class="cls-12" x="16.68278" y="9.23323" width="3.30508" height="0.73446"/><rect class="cls-13" x="16.68278" y="9.23323" width="0.73446" height="2.20339"/></g><g id="Orange"><path class="cls-5" d="M14.37447,8.62993v3.41h2.30831v-3.41Z"/><rect class="cls-3" x="14.42693" y="8.68239" width="2.20339" height="3.30508"/><path class="cls-14" d="M14.58431,8.68239v1.41646"/><path class="cls-15" d="M15.21385,8.68239v1.41646"/><path class="cls-16" d="M14.89908,10.09885v1.88862m.62954-3.30508v3.30508m.62954-3.30508v3.30508"/></g></g></g></g></svg>