<svg xmlns="http://www.w3.org/2000/svg" viewBox="0 0 15.4599 14.96035"><defs><style>.cls-1{fill:#fff;}.cls-2{fill:#010101;}.cls-3{fill:#c62032;}.cls-4{fill:#223a74;}</style></defs><g id="Layer_2" data-name="Layer 2"><g id="Layer_20" data-name="Layer 20"><g id="Country_Plates" data-name="Country Plates"><rect class="cls-1" width="15.4599" height="14.96035"/><g id="b2"><g id="b"><rect class="cls-2" x="2.51114" y="4.00097" width="2.57665" height="1.71777" transform="translate(-2.35174 5.32543) rotate(-56.30993)"/><rect class="cls-1" x="2.02843" y="4.57383" width="3.00609" height="0.21472" transform="translate(-2.32242 5.0229) rotate(-56.30993)"/><rect class="cls-1" x="2.5644" y="4.93115" width="3.00609" height="0.21472" transform="translate(-2.38106 5.62797) rotate(-56.30993)"/></g><g id="b-2" data-name="b"><rect class="cls-2" x="10.37211" y="9.24162" width="2.57665" height="1.71777" transform="translate(-3.21173 14.19982) rotate(-56.30993)"/><rect class="cls-1" x="9.8894" y="9.81448" width="3.00609" height="0.21472" transform="translate(-3.18242 13.89728) rotate(-56.30993)"/><rect class="cls-1" x="10.42538" y="10.1718" width="3.00609" height="0.21472" transform="translate(-3.24105 14.50236) rotate(-56.30993)"/></g><rect class="cls-1" x="11.55307" y="9.0269" width="0.21472" height="2.14721" transform="translate(-3.21173 14.19982) rotate(-56.30993)"/></g><circle class="cls-3" cx="7.72995" cy="7.48018" r="2.57665"/><path class="cls-4" d="M5.58605,6.05091A1.28832,1.28832,0,0,0,7.73,7.48018a1.28832,1.28832,0,1,1,2.1439,1.42926,2.57665,2.57665,0,1,1-4.2878-2.85853"/><g id="b2-2" data-name="b2"><g id="b-3" data-name="b"><rect class="cls-2" x="2.94058" y="8.81218" width="1.71777" height="2.57665" transform="translate(-4.96463 3.80394) rotate(-33.69007)"/><rect class="cls-1" x="3.42411" y="8.77611" width="0.21472" height="3.00609" transform="translate(-5.10874 3.68529) rotate(-33.69007)"/><rect class="cls-1" x="3.96009" y="8.4188" width="0.21472" height="3.00609" transform="translate(-4.82052 3.92259) rotate(-33.69007)"/></g><g id="b-4" data-name="b"><rect class="cls-2" x="10.80155" y="3.57153" width="1.71777" height="2.57665" transform="translate(-0.73739 7.28426) rotate(-33.69007)"/><rect class="cls-1" x="11.28509" y="3.53546" width="0.21472" height="3.00609" transform="translate(-0.8815 7.16561) rotate(-33.69007)"/><rect class="cls-1" x="11.82106" y="3.17815" width="0.21472" height="3.00609" transform="translate(-0.59328 7.4029) rotate(-33.69007)"/></g><rect class="cls-1" x="10.58683" y="4.75249" width="2.14721" height="0.21472" transform="translate(-0.73739 7.28426) rotate(-33.69007)"/></g><rect class="cls-2" x="11.44571" y="4.64513" width="0.42944" height="0.42944" transform="translate(-0.73739 7.28426) rotate(-33.69007)"/><rect class="cls-1" x="3.37002" y="9.99314" width="0.85888" height="0.21472" transform="translate(-4.96463 3.80394) rotate(-33.69007)"/></g></g></g></svg>