<svg xmlns="http://www.w3.org/2000/svg" viewBox="0 0 24 16"><defs><style>.cls-1{fill:#e51e25;}.cls-2{fill:#fff;}</style></defs><g id="Layer_2" data-name="Layer 2"><g id="Layer_20" data-name="Layer 20"><g id="Country_Plates" data-name="Country Plates"><rect class="cls-1" width="24" height="16"/><circle class="cls-2" cx="12" cy="8" r="4"/><circle class="cls-1" cx="12" cy="8" r="3"/><circle class="cls-2" cx="12.8" cy="8" r="2.4"/><g id="c"><path id="t" class="cls-1" d="M11,8l1.7119.55623L12.99,7.70028"/><path id="t-2" data-name="t" class="cls-1" d="M11,8l1.7119-.55623.27812.856"/></g><g id="c-2" data-name="c"><path id="t-3" data-name="t" class="cls-1" d="M12.24377,6.2881v1.8h.9"/><path id="t-4" data-name="t" class="cls-1" d="M12.24377,6.2881l1.058,1.45623-.72811.529"/></g><g id="c-3" data-name="c"><path id="t-5" data-name="t" class="cls-1" d="M14.25623,6.942l-1.7119.55623.27811.856"/><path id="t-6" data-name="t" class="cls-1" d="M14.25623,6.942l-1.058,1.45623-.72812-.529"/></g><g id="c-4" data-name="c"><path id="t-7" data-name="t" class="cls-1" d="M14.25623,9.058l-1.058-1.45623-.72812.529"/><path id="t-8" data-name="t" class="cls-1" d="M14.25623,9.058l-1.7119-.55623.27811-.85595"/></g><g id="star"><g id="c-5" data-name="c"><path id="t-9" data-name="t" class="cls-1" d="M12.24377,9.7119l1.058-1.45623-.72811-.529"/><path id="t-10" data-name="t" class="cls-1" d="M12.24377,9.7119v-1.8h.9"/></g></g></g></g></g></svg>