<svg xmlns="http://www.w3.org/2000/svg" viewBox="0 0 17.82212 13.78072"><defs><style>.cls-1{fill:#fff;}.cls-2{fill:#1d439b;}.cls-3{fill:#fbd118;}</style></defs><g id="Layer_2" data-name="Layer 2"><g id="Layer_20" data-name="Layer 20"><g id="Country_Plates" data-name="Country Plates"><rect class="cls-1" width="17.82212" height="13.78072"/><rect class="cls-2" x="8.54523" y="1.53119" width="9.27689" height="1.53119"/><rect class="cls-2" x="8.54523" y="4.59357" width="9.27689" height="1.53119"/><rect class="cls-2" y="7.65596" width="17.82212" height="1.53119"/><rect class="cls-2" y="10.71834" width="17.82212" height="1.53119"/><g id="t"><g id="s"><path class="cls-3" d="M4.47758,4.57656,4.731,4.955c-1.0414.75365-.40561,1.19931-1.14362,1.44054.459-.44795-.07227-.48571.31446-1.41937"/><path class="cls-3" d="M4.65092,3.828h.5053l-.5053,2.77911L4.14563,3.828h.50529V6.60709"/></g><g id="s-2" data-name="s"><path class="cls-3" d="M3.999,4.23474l-.08839.4468c-1.26929-.20348-1.13485.56123-1.82727.21.64132.00782.29234-.39456,1.226-.78129"/><path class="cls-3" d="M4.65092,3.828l.3573.35729L2.68579,5.79311,4.29363,3.47068l.35729.3573L2.68579,5.79311"/></g></g><g id="u"><g id="t-2" data-name="t"><g id="s-3" data-name="s"><path class="cls-3" d="M3.90234,3.65463l-.37844.25344c-.75365-1.0414-1.19931-.40561-1.44054-1.14361.448.459.48571-.07228,1.41937.31446"/><path class="cls-3" d="M4.65092,3.828v.50529L1.87181,3.828l2.77911-.5053V3.828H1.87181"/></g><g id="s-4" data-name="s"><path class="cls-3" d="M4.24416,3.17607l-.4468-.08838c.20348-1.26929-.56122-1.13485-.21-1.82728-.00782.64132.39456.29234.78129,1.226"/><path class="cls-3" d="M4.65092,3.828l-.35729.35729L2.68579,1.86285,5.00822,3.47068l-.3573.3573L2.68579,1.86285"/></g></g></g><g id="t-3" data-name="t"><g id="s-5" data-name="s"><path class="cls-3" d="M4.82427,3.07939,4.57083,2.701c1.0414-.75364.40561-1.1993,1.14361-1.44054-.459.448.07228.48571-.31446,1.41937"/><path class="cls-3" d="M4.65092,3.828H4.14563l.50529-2.77911L5.15622,3.828h-.5053V1.04887"/></g><g id="s-6" data-name="s"><path class="cls-3" d="M5.30283,3.42122l.08839-.44681c1.26928.20348,1.13484-.56122,1.82727-.21-.64132-.00782-.29234.39455-1.226.78129"/><path class="cls-3" d="M4.65092,3.828l-.35729-.3573L6.61605,1.86285,5.00822,4.18527,4.65092,3.828,6.61605,1.86285"/></g></g><g id="u-2" data-name="u"><g id="t-4" data-name="t"><g id="s-7" data-name="s"><path class="cls-3" d="M5.39951,4.00132,5.778,3.74788c.75364,1.0414,1.1993.40562,1.44054,1.14362-.448-.459-.48571.07227-1.41937-.31446"/><path class="cls-3" d="M4.65092,3.828v-.5053L7.43,3.828l-2.77911.50529V3.828H7.43"/></g><g id="s-8" data-name="s"><path class="cls-3" d="M5.05768,4.47988l.44681.08839c-.20348,1.26929.56122,1.13485.21,1.82727.00782-.64132-.39455-.29234-.78129-1.226"/><path class="cls-3" d="M4.65092,3.828l.3573-.3573L6.61605,5.79311,4.29363,4.18527,4.65092,3.828,6.61605,5.79311"/></g></g></g><circle class="cls-3" cx="4.65092" cy="3.82798" r="0.92637"/></g></g></g></svg>