<svg xmlns="http://www.w3.org/2000/svg" viewBox="0 0 21.72939 14.48626"><defs><style>.cls-1{fill:#ffcd05;}.cls-2{fill:#273476;}.cls-3{fill:#d0202d;}.cls-4{fill:#fff;}</style></defs><g id="Layer_2" data-name="Layer 2"><g id="Layer_20" data-name="Layer 20"><g id="Country_Plates" data-name="Country Plates"><rect id="rect4" class="cls-1" width="21.72939" height="5.07019"/><rect id="rect6" class="cls-2" y="4.82875" width="21.72939" height="5.07019"/><rect id="rect8" class="cls-3" y="9.65751" width="21.72939" height="4.82875"/><polygon class="cls-4" points="7.477 8.454 6.951 8.436 6.806 7.93 6.626 8.425 6.1 8.406 6.515 8.73 6.335 9.225 6.771 8.93 7.186 9.254 7.186 9.254 7.186 9.254 7.186 9.254 7.186 9.254 7.041 8.749 7.477 8.454"/><polygon class="cls-4" points="7.77 7.2 7.807 6.675 7.469 7.078 6.981 6.881 7.26 7.328 6.921 7.731 7.432 7.603 7.711 8.05 7.747 7.525 8.258 7.397 7.77 7.2"/><polygon class="cls-4" points="8.962 6.319 9.176 5.838 8.727 6.098 8.341 5.749 8.343 5.762 8.33 5.749 8.439 6.264 7.983 6.527 8.507 6.582 8.616 7.097 8.624 7.08 8.627 7.097 8.841 6.617 9.353 6.671 8.962 6.319"/><polygon class="cls-4" points="15.226 8.73 15.64 8.406 15.114 8.425 14.934 7.93 14.789 8.436 14.263 8.454 14.7 8.749 14.555 9.254 14.969 8.93 15.406 9.225 15.226 8.73"/><polygon class="cls-4" points="14.309 7.603 14.819 7.731 14.481 7.328 14.76 6.881 14.272 7.078 13.934 6.675 13.97 7.2 13.482 7.397 13.993 7.525 14.03 8.05 14.309 7.603"/><polygon class="cls-4" points="13.234 6.582 13.757 6.527 13.302 6.264 13.411 5.749 13.397 5.762 13.4 5.749 13.013 6.098 12.564 5.838 12.778 6.319 12.387 6.671 12.9 6.617 13.113 7.097 13.117 7.08 13.125 7.097 13.234 6.582"/><polygon class="cls-4" points="11.83 5.668 11.756 5.147 11.747 5.164 11.745 5.147 11.745 5.147 11.745 5.147 11.745 5.147 11.745 5.147 11.499 5.61 10.991 5.52 10.993 5.523 10.98 5.52 11.345 5.899 11.098 6.364 11.113 6.356 11.11 6.364 11.11 6.364 11.11 6.364 11.11 6.364 11.11 6.364 11.575 6.137 11.937 6.512 11.935 6.498 11.948 6.512 11.875 5.99 12.348 5.76 11.83 5.668"/><polygon class="cls-4" points="10.747 5.523 10.75 5.52 10.242 5.61 9.995 5.147 9.993 5.164 9.984 5.147 9.911 5.668 9.393 5.76 9.866 5.99 9.793 6.512 9.806 6.498 9.804 6.512 10.166 6.137 10.631 6.364 10.631 6.364 10.631 6.364 10.631 6.364 10.631 6.364 10.627 6.356 10.642 6.364 10.395 5.899 10.761 5.52 10.747 5.523"/></g></g></g></svg>