<svg xmlns="http://www.w3.org/2000/svg" viewBox="0 0 24.2027 16.13514"><defs><style>.cls-1,.cls-8,.cls-9{fill:none;}.cls-2{fill:#6cbe53;}.cls-3{fill:#fee130;}.cls-4{fill:#ee3137;}.cls-5,.cls-7{fill:#7e4c23;}.cls-5,.cls-6,.cls-7,.cls-8{stroke:#010101;}.cls-5,.cls-6{stroke-width:0.00665px;}.cls-6{fill:#010101;}.cls-6,.cls-7,.cls-8,.cls-9{stroke-linejoin:round;}.cls-7{stroke-width:0.00997px;}.cls-8{stroke-width:0.0266px;}.cls-9{stroke:#fee130;stroke-width:0.03253px;}</style></defs><g id="Layer_2" data-name="Layer 2"><g id="Layer_20" data-name="Layer 20"><g id="Country_Plates" data-name="Country Plates"><path id="path2078" class="cls-1" d="M0,14.24758V0H21.41966"/><path id="rect2060" class="cls-1" d="M21.41966,0h2.783V16.13513H0V14.24758"/><g id="g5827"><rect id="rect1331" class="cls-2" y="0.00205" width="24.19962" height="16.13308"/><g id="g5805"><path id="path2987" class="cls-3" d="M16.32145,8.06859a4.22164,4.22164,0,1,1,0-.00191Z"/><path id="path3803" class="cls-4" d="M9.85824,7.471c-.14693.02047-.18407-.23916-.17558-.439.00193-.04536.11832-.30362.1174-.06061-.00023.05964.04493.10131.06581.156.057.1494.15347.23909.11069.06107-.03365-.14-.29355-.61126.41224-1.02676a3.05967,3.05967,0,0,0,.90844-.55728c.031-.03423.11364-.1628.12214.00763.0023.04608-.03932.08356-.08016.14123-.03807.05377-.10078.14536.06107.08016a.86525.86525,0,0,0,.32826-.25574,4.09086,4.09086,0,0,1,.65652-.46185c.10265-.073.25263-.06388.084.07252-.05076.04105-.0592.181-.11451.25955-.042.05966-.20487.17977.01145.1107a1.32715,1.32715,0,0,0,.73035-.44054c.08271-.08.12892-.20964.46054-.15873a.67414.67414,0,0,0,.52674-.08015c.04866-.03294.17867-.12811.04962.06488-.29057.43458-.67915.23013-.92714.50635-.13269.1478-.02966.09937.06832.0204a.34278.34278,0,0,1,.3817-.06871.18829.18829,0,0,0,.187-.042c.11928-.09021.08952-.00431.05726.06489-.04991.107-.15737.13327-.26337.17177-.08744.03175-.0513.05412.0229.06488a1.80208,1.80208,0,0,0,.52292.04962c.06881-.04651.10964-.04168.02672.06489a.6767.6767,0,0,1-.53522.16926.90868.90868,0,0,0-.45719.243c-.12414.105-.11385.096-.03054.08015.04344-.00824.17962-.023.04824.08564-.04887.04039-.1386.18427-.21234.255a.55535.55535,0,0,1-.20614.11361c-.06838.02316-.22843.02242-.03435.07252a1.02156,1.02156,0,0,0,.57944-.031.70138.70138,0,0,1,.5542.15315.46649.46649,0,0,0,.42861.09989c.10885-.03351.18932-.03263.04851.08714a.78713.78713,0,0,1-.68117.1351l-.36706-.06748c-.11472-.02109-.22644.01552-.0054.04858.26817.04011.44539.25765.75842.33468a.30726.30726,0,0,0,.10526-.0027c.06236-.00606.18815.01027.04588.081a.61783.61783,0,0,1-.43993.03239l-.21862-.03239c-.08335-.01235-.13108-.0164-.0135.03779.1687.07774.26015.21043.5371.23481.13366.01176.11062.03828.0189.081a.89458.89458,0,0,1-.46423.04858.85.85,0,0,0-.332-.027.48142.48142,0,0,1-.46153-.05668c-.145-.0708-.1807-.10873-.25371-.143-.07464-.03509-.16831-.089-.06747.054a.7457.7457,0,0,0,.39405.386c.11709.05433.14813.06165-.0027.07558a.6633.6633,0,0,1-.556-.12686.5248.5248,0,0,0-.35357-.04858,1.34824,1.34824,0,0,0-.47233.18623c-.136.10771-.51574-.00626-.51574-.00626.2862-.54864-.73956-.86609-1.18924-.8582Z"/><g id="g5786"><g id="g5731"><path id="path3801" class="cls-5" d="M10.38408,9.519a1.72618,1.72618,0,0,1,.16222-.458c.0025.00156.32526-.47576.53712-.739.08025-.1201.15658-.11447.29117-.13888.22684-.04971.029-.067.00381-.07252-.07134-.01569-.09865-.042-.19085-.07061-.1252-.03889.01694-.02352.0439-.02863l.18131-.03435c.36758-.06965.01952-.06845-.25076-.17734A3.3917,3.3917,0,0,0,9.94322,7.393c-.12631-.00827-.12208.11113-.0541.18a.27376.27376,0,0,1,.06265.20146c.02756.33338.03074.65864.04871.98883-.07131.22141-.16724.45267-.21375.66415Z"/><path id="path3773" class="cls-6" d="M9.85809,7.4548c-.02344.00013-.00661.035-.00644.05548.01876.04969.06534.07715.084.127a.10712.10712,0,0,1,.07626.03823l.00395.28614a.21426.21426,0,0,0-.05735-.03034.08669.08669,0,0,1-.02016.06c-.00513.00586-.00138.01658.001.02764l.07252.042-.00478.26536L9.947,8.3396a2.10591,2.10591,0,0,0,.03429.46193l.03055-.01911c.02815-.00229.03185.02064.02306.06483a2.94986,2.94986,0,0,1-.12218.43513c-.03044.086-.06523.0711-.10411.07543l.17268-.55628L9.802,9.37027l-.01323.04063A.169.169,0,0,0,9.8871,9.417c.05687-.02452.11583-.04695.17442-.06976-.039-.0098-.04312-.04135-.042-.07626a1.9816,1.9816,0,0,1,.084-.378c.01548-.03974.00859-.09434.11076-.07627a1.2217,1.2217,0,0,1,.22131.07627.25906.25906,0,0,1,.13361.12987l.07647-.10307a1.99057,1.99057,0,0,0-.40084-.16416c-.015-.01059-.036-.01277-.02681-.05714l.0345-.1413c.00652-.06434.04216-.062.08395-.04572a.69678.69678,0,0,1,.41975.24811l.08208-.11367a3.16741,3.16741,0,0,0-.48272-.21465c-.04674-.01879-.04209-.0567-.04218-.09268l.00395-.16686c.01483-.08584.03822-.06235.05922-.06213a1.41434,1.41434,0,0,1,.62776.30629c.03322-.02776.03274-.08188.11844-.06857L11.11131,8.27c-.01506-.01991-.21079-.04048-.27533-.07959a2.45618,2.45618,0,0,0-.41185-.15626c-.04444-.01086-.04392-.04408-.03824-.08l.01538-.1679c.01015-.05737.05518-.0805.04966.00748-.0247.258.02351.21246.06857.00395.01044-.04872.07521-.04725.05362.02659-.00941.04163-.03223.11744.03033.01538.01378-.02347.02791-.05362.065-.042a1.50686,1.50686,0,0,1,.271.12966c.08931.0312.173-.01.05715-.06109a6.09246,6.09246,0,0,0-.84345-.31668c-.07721-.01556-.15121.02823-.23294-.06878a.15325.15325,0,0,0-.06213-.026Zm.31211.1999c.0245.0004.051.039.04405.07231l-.01246.16936c-.00291.10892-.08164.08529-.07336.00914L10.134,7.7212C10.13752,7.672,10.15344,7.65442,10.1702,7.6547Zm.15169.02784c.02309-.00026.04443.03243.0345.07689l-.01808.187c-.01356.06523-.088.06325-.08021-.00769l.0268-.21569c.00875-.02849.02314-.04037.037-.04052Zm-.177.38173c.01805.00044.03474.02008.03117.05964l-.01517.16229c-.00316.0826-.069.07985-.063.00374l.00748-.16977C10.10736,8.08266,10.1268,8.06383,10.14485,8.06427Zm.11263.06442c.01462-.0003.02874.01723.02826.04675l-.01788.13195c.0012.06411-.05735.0615-.05153.0027l.01122-.13465c.00372-.03235.017-.04648.02993-.04675Zm-.16624.33912c.01151-.00032.02241.01632.01995.05112l-.01538.145c-.00049.0357-.04576.03934-.0399.00208l.01143-.14712C10.06763,8.48543,10.07972,8.46814,10.09124,8.46781Zm.091.0106c.01472-.00029.02906.01846.02244.04447l-.0133.10306c-.00095.0295-.045.05331-.04592,0l.01143-.107c.00211-.0286.0139-.04029.02535-.04052Z"/></g><g id="g5666"><g id="g5772"><path id="path3757" class="cls-7" d="M9.391,10.33491a1.21448,1.21448,0,0,1,.0599.32049l-.15991.56344a2.49167,2.49167,0,0,0,.34817.278l.181-.4783c.02119-.05419.06089-.02409.09853.00784.068.05787.0963.11235.22993.10227a.19892.19892,0,0,1,.19672.05336c.53706.38632.87492.69656,1.40174,1.09484a4.01143,4.01143,0,0,0,1.89065-.27665,5.24511,5.24511,0,0,0-1.83667-.9406,2.20593,2.20593,0,0,1-.87987-.62078c-.08191-.1339-.01179-.22563-.09447-.33872a1.45833,1.45833,0,0,1-.15924-.4008A.54089.54089,0,0,0,10.484,9.478a.62016.62016,0,0,0-.40215-.13225l-.18623.04588-.197.02159-.04319.13765-.10526.06208L9.421,9.87714Z"/><g id="g5759"><g id="g5750"><path id="path3759" class="cls-6" d="M9.352,11.27394l.17655-.6192c.04021-.13515.13183-.1054.08637.03779l-.19561.63476Z"/><path id="path3761" class="cls-6" d="M9.72379,10.70491c.06682-.164.12272-.122.06924.0362l-.23053.69954-.06129-.04984Z"/><path id="path3763" class="cls-6" d="M12.50149,12.2674a5.4472,5.4472,0,0,1-.82352-.62987c-.64605-.62944-.0739-.12858.2156.09587a6.3952,6.3952,0,0,0,.7874.51781Z"/><path id="path3765" class="cls-6" d="M9.72863,9.38711a.09278.09278,0,0,0-.08416.127c-.00267.03666-.0171.03746-.02576.0507-.0526.02014-.0222-.04632-.143.07834-.01965.03135-.02542.0345-.02452.05943a.23519.23519,0,0,1-.0347.12738.09967.09967,0,0,0-.03325.07211.58192.58192,0,0,0,.00063.079.26421.26421,0,0,1-.00416.08333.30777.30777,0,0,0-.005.08914.21278.21278,0,0,1,.00333.09663.23877.23877,0,0,0,0,.14608.16657.16657,0,0,1,.01662.08.33761.33761,0,0,0,.01663.0933.16657.16657,0,0,1,.02992.12136c.05294-.16024.14531-.26282.34349-.19471.07491.04434.11075-.08623.166-.021.06782.00849.202-.0539.20239.02681.00842.081.01429.18017.14214.22047.0713.02738.19922-.02366.18223.12592.00573.08525-.09638.15265.02307.24624.0892.0669.31337.05071.15834-.03262-.06956-.04984-.093-.05468-.11262-.09829-.04263-.09486.01829-.15225.042-.12779l.28822.29777c.22292.2531.48537.493.73664.73664l.15273.14878a1.95921,1.95921,0,0,1,.19076.26723c.03148.00151.05449-.00046.07917.001a3.2648,3.2648,0,0,0-.25206-.26037c-.3095-.33111-.63635-.64706-.9274-.99431-.04262-.04973-.03289-.05062-.03761-.06483a1.01734,1.01734,0,0,0-.09725-.29694c-.03654-.11051.05975-.19836.07044-.30567.014-.14082-.07439-.10855-.0692.005.00389.08492-.06733.13315-.08353.19222a.15852.15852,0,0,0,.012.14629.68329.68329,0,0,1,.08977.15771c.03188.07885.00718.04981-.01538.02473a1.1804,1.1804,0,0,1-.17932-.203c-.06593-.08906-.09218-.03958-.16313-.04571-.083-.00174-.10893-.0471-.14608-.12322a1.84394,1.84394,0,0,1,.04717-.70651c.0093-.05129.20051-.088.06172-.097-.13755-.00387-.13278.00054-.17247-.06462a.12735.12735,0,0,1-.02058-.06463c-.00368-.03414-.0346-.03207-.08187-.0081a.35937.35937,0,0,1-.33975.017c-.00361-.006-.00206-.01525.00956-.03138.07224.00905.08385-.01509.1012-.03927a.09562.09562,0,0,0-.00665-.09912.1542.1542,0,0,0-.1012-.03823l-.00561-.0002Zm-.00519.05132.07771.00769c-.00023.02664-.01677.0388-.01143.08208A.39771.39771,0,0,1,9.702,9.52446a.11981.11981,0,0,1,.02141-.086Zm-.10411.18536a.11264.11264,0,0,1,.0453.00976l.13735.0611A.31866.31866,0,0,0,9.98526,9.687a.13755.13755,0,0,1,.12967.0268c.01919.02094.03983.03014.03782.05819-.00414.05767-.05045.11691-.11512.04592-.02736-.03-.07046-.021-.10577-.02785a.62651.62651,0,0,1-.16416,0,.46936.46936,0,0,1-.18681-.02909c-.10373-.05211-.04139-.13744.03844-.13714Zm.14047.20426a.28177.28177,0,0,1,.21777.065c.0495.04466.13989.05568.13964.12385-.00016.04838-.044.15839-.12218.08021a.26178.26178,0,0,0-.17019-.09725L9.5387,9.99242c-.05616.01885-.14495-.14375.01517-.15273.06218-.00349.136-.01153.20593-.01164ZM9.67,10.0531A1.1382,1.1382,0,0,1,9.802,10.061a.3829.3829,0,0,1,.17185.0879l.04946.04966c.01089.04537-.03773.13839-.09912.11824a.81871.81871,0,0,0-.145-.07626,1.28463,1.28463,0,0,0-.2558-.02681.07157.07157,0,1,1-.02286-.1413A.72411.72411,0,0,1,9.67,10.0531Zm.50994.04737c.0345-.00037-.03759.10632-.053.0611a.125.125,0,0,1,.03117-.05382.05146.05146,0,0,1,.02182-.00728Zm-.46568.17435a.07647.07647,0,0,1,.00374.15273l-.14878-.00395-.065.01912c-.074.02032-.103-.05042-.04281-.12364C9.50258,10.269,9.62454,10.28628,9.71429,10.27482Zm.369.03574c.0199.00019.03387.01786.00063.0694-.01549.024-.04654.01552-.05673-.01745-.00585-.02646.0153-.04043.042-.04946a.04315.04315,0,0,1,.01413-.00249Z"/><path id="path3769" class="cls-6" d="M9.82829,10.8813a1.13938,1.13938,0,0,1,.12066-.33359.21008.21008,0,0,0-.00191-.10115l.17749.0105c-.00072.00851-.02229-.00156-.03675.01672a2.19373,2.19373,0,0,0-.20563.42128.20474.20474,0,0,1,.03626.12977.14115.14115,0,0,0-.054-.0339c-.03129-.01522-.0525.0341-.06839.08986a.32737.32737,0,0,0,.0151-.07134.07018.07018,0,0,1-.00128-.07955c.01811-.0105.016-.02852.01846-.0486Z"/><path id="path3771" class="cls-6" d="M10.25144,11.12408a.19207.19207,0,0,1,.09066.05534.11089.11089,0,0,1,.021-.06107c.01164-.01382-.04314-.03932-.05726-.02863a.247.247,0,0,1-.05439.03436Z"/><path id="path3767" class="cls-6" d="M12.49619,11.69008c.15783.17966.1826.1363.1151.04662-.36506-.485-.53919-.46707-.4014-.34172a2.34129,2.34129,0,0,1,.2863.2951Z"/></g><path id="path3822" class="cls-8" d="M13.63777,11.9975a5.228,5.228,0,0,0-1.83668-.9379,2.20593,2.20593,0,0,1-.87987-.62078c-.0819-.1339-.01178-.22564-.09447-.33872a1.45833,1.45833,0,0,1-.15924-.4008A.54081.54081,0,0,0,10.484,9.478a.62016.62016,0,0,0-.40215-.13225l-.18623.04588"/><path id="path3824" class="cls-8" d="M9.4662,10.60578l-.17518.61306"/></g></g></g></g></g><path id="path2987-1" class="cls-9" d="M16.32145,8.06881a4.22164,4.22164,0,1,1,0-.00191Z"/></g></g></g></g></svg>