<svg xmlns="http://www.w3.org/2000/svg" viewBox="0 0 28.72988 14.36494"><defs><style>.cls-1{fill:#349344;}.cls-2{fill:#fed208;}.cls-3{fill:#dd2726;}.cls-4{fill:#010101;}.cls-5{fill:#fff;}.cls-6{fill:#ffc71c;}.cls-7,.cls-8{fill:none;stroke:#010101;}.cls-7{stroke-width:0.00603px;}.cls-8{stroke-width:0.0285px;}</style></defs><g id="Layer_2" data-name="Layer 2"><g id="Layer_20" data-name="Layer 20"><g id="Country_Plates" data-name="Country Plates"><rect id="green_stripes" data-name="green stripes" class="cls-1" width="28.72988" height="14.36494"/><rect id="yellow_stripes" data-name="yellow stripes" class="cls-2" y="2.05213" width="28.72988" height="10.26067"/><rect id="red_stripes" data-name="red stripes" class="cls-3" y="4.10427" width="28.72988" height="6.1564"/><rect id="black_stripe" data-name="black stripe" class="cls-4" y="6.1564" width="28.72988" height="2.05213"/><path class="cls-4" d="M.52245,0l9.57662,7.18247L.52245,14.36494H0V0Z"/><path class="cls-5" d="M0,0,9.57663,7.18247,0,14.36494"/><polygon id="triangle_ur" data-name="triangle ur" class="cls-3" points="3.876 3.534 2.262 6.806 4.715 8.017 3.876 3.534"/><g id="triangle_ul" data-name="triangle ul"><polygon id="triangle_ur-2" data-name="triangle ur" class="cls-3" points="3.876 3.534 5.491 6.806 3.037 8.017 3.876 3.534"/></g><polygon id="triangle2_ur" data-name="triangle2 ur" class="cls-3" points="3.876 3.534 2.654 6.972 5.232 7.888 3.876 3.534"/><g id="triangle2_ul" data-name="triangle2 ul"><polygon id="triangle2_ur-2" data-name="triangle2 ur" class="cls-3" points="3.876 3.534 5.099 6.972 2.521 7.888 3.876 3.534"/></g><polygon id="triangle_ur-3" data-name="triangle ur" class="cls-3" points="7.346 6.055 3.736 5.53 3.342 8.238 7.346 6.055"/><g id="triangle_ul-2" data-name="triangle ul"><polygon id="triangle_ur-4" data-name="triangle ur" class="cls-3" points="0.407 6.055 4.017 5.53 4.41 8.238 0.407 6.055"/></g><polygon id="triangle2_ur-3" data-name="triangle2 ur" class="cls-3" points="7.346 6.055 3.699 5.955 3.624 8.69 7.346 6.055"/><g id="upper_star_part" data-name="upper star part"><g id="triangle2_ul-2" data-name="triangle2 ul"><polygon id="triangle2_ur-4" data-name="triangle2 ur" class="cls-3" points="0.407 6.055 4.053 5.955 4.129 8.69 0.407 6.055"/></g></g><g id="cone_l" data-name="cone l"><polygon id="triangle_l" data-name="triangle l" class="cls-3" points="3.876 4.047 2.59 6.906 4.019 7.55 3.876 4.047"/><polygon id="triangle_l-2" data-name="triangle l" class="cls-3" points="3.876 4.047 5.163 6.906 3.733 7.55 3.876 4.047"/></g><g id="star"><g id="cone_l-2" data-name="cone l"><polygon id="triangle_l-3" data-name="triangle l" class="cls-3" points="5.719 9.719 5.079 6.65 3.545 6.97 5.719 9.719"/><polygon id="triangle_l-4" data-name="triangle l" class="cls-3" points="5.719 9.719 2.998 8.162 3.776 6.801 5.719 9.719"/></g><g id="lower_star_part" data-name="lower star part"><g id="cone_l-3" data-name="cone l"><polygon id="triangle_l-5" data-name="triangle l" class="cls-3" points="2.033 9.719 4.755 8.162 3.976 6.801 2.033 9.719"/><polygon id="triangle_l-6" data-name="triangle l" class="cls-3" points="2.033 9.719 2.673 6.65 4.208 6.97 2.033 9.719"/></g></g></g><g id="bird"><path class="cls-6" d="M3.26465,6.28287c.2253.49084.28164.523.84489.71616a17.28149,17.28149,0,0,0,2.31138.39427c-.1026-.10259-1.895-1.43028-2.2631-1.69581a3.025,3.025,0,0,1-.47073-.38624s-.33192-.59745-.44658-.77247A.80746.80746,0,0,0,2.637,4.11634.52669.52669,0,0,0,2.11,4.569c-.04426.01207-.28164.15693-.27359.30577a.505.505,0,0,1,.64775.35807,3.16285,3.16285,0,0,1,.004,1.67771,3.2594,3.2594,0,0,0-.39025,1.038c0,.04828.03217.14484.11264.14484.02816.1529.25347,1.24319.25347,1.24319H5.67461l.50995-1.97141"/><path class="cls-7" d="M3.26465,6.28287c.2253.49084.28164.523.84489.71616a17.28149,17.28149,0,0,0,2.31138.39427c-.1026-.10259-1.895-1.43028-2.2631-1.69581a3.025,3.025,0,0,1-.47073-.38624s-.33192-.59745-.44658-.77247A.80746.80746,0,0,0,2.637,4.11634.52669.52669,0,0,0,2.11,4.569c-.04426.01207-.28164.15693-.27359.30577a.505.505,0,0,1,.64775.35807,3.16285,3.16285,0,0,1,.004,1.67771,3.2594,3.2594,0,0,0-.39025,1.038c0,.04828.03217.14484.11264.14484.02816.1529.25347,1.24319.25347,1.24319H5.67461l.50995-1.97141"/><path class="cls-7" d="M2.21055,8.09335s.684-.04022.86905-.04022a16.44479,16.44479,0,0,1,2.869.22435"/><path class="cls-7" d="M2.45209,8.07979a.28218.28218,0,0,1-.02428-.24795c.04425-.16494.52706-.59144.52706-1.19491"/><path class="cls-7" d="M2.86635,8.05313s-.05632-.26957.55924-.49889c.173-.05231.66785-.32992.68395-.55521"/><path class="cls-7" d="M3.36015,7.57982a16.66377,16.66377,0,0,1,2.70473.248"/><path class="cls-7" d="M3.7386,7.39969a5.16638,5.16638,0,0,0,.60328-.00639.414.414,0,0,0,.29355-.26372"/><path class="cls-7" d="M4.04617,7.40584s.27752-.14427.33188-.33187"/><path class="cls-7" d="M3.20833,9.33654s-.11869-.82273-.14283-1.28341l.30981.29571.32774-.28663.28178.30073.3258-.27645.2817.31667L4.915,8.12878l.25672.29852.32176-.23268.38251.36354"/><path class="cls-7" d="M5.80877,8.81792A21.96766,21.96766,0,0,0,3.12158,8.664"/><path class="cls-7" d="M2.58728,5.82033s.93484-.44672,1.09981-.50908"/><polyline class="cls-8" points="3.091 8.379 3.405 8.665 3.689 8.381 3.976 8.677 4.287 8.403 4.572 8.703 4.894 8.437 5.157 8.745 5.477 8.5 5.814 8.797"/><circle class="cls-8" cx="3.98282" cy="7.83588" r="0.12472"/><circle class="cls-8" cx="4.50934" cy="7.8712" r="0.12472"/><circle class="cls-8" cx="2.54951" cy="4.50257" r="0.09656"/></g></g></g></g></svg>